%TF.GenerationSoftware,KiCad,Pcbnew,5.1.10*%
%TF.CreationDate,2021-11-03T22:46:33+01:00*%
%TF.ProjectId,main_pcb_front,6d61696e-5f70-4636-925f-66726f6e742e,rev?*%
%TF.SameCoordinates,PX8d24d00PY5d75c80*%
%TF.FileFunction,Legend,Top*%
%TF.FilePolarity,Positive*%
%FSLAX46Y46*%
G04 Gerber Fmt 4.6, Leading zero omitted, Abs format (unit mm)*
G04 Created by KiCad (PCBNEW 5.1.10) date 2021-11-03 22:46:33*
%MOMM*%
%LPD*%
G01*
G04 APERTURE LIST*
%ADD10C,0.300000*%
%ADD11C,0.600000*%
%ADD12C,0.010000*%
G04 APERTURE END LIST*
D10*
X-3952381Y11095239D02*
X-3952381Y13095239D01*
X-3190477Y13095239D01*
X-3000000Y13000000D01*
X-2904762Y12904762D01*
X-2809524Y12714286D01*
X-2809524Y12428572D01*
X-2904762Y12238096D01*
X-3000000Y12142858D01*
X-3190477Y12047620D01*
X-3952381Y12047620D01*
X-1666667Y11095239D02*
X-1857143Y11190477D01*
X-1952381Y11285715D01*
X-2047620Y11476191D01*
X-2047620Y12047620D01*
X-1952381Y12238096D01*
X-1857143Y12333334D01*
X-1666667Y12428572D01*
X-1380953Y12428572D01*
X-1190477Y12333334D01*
X-1095239Y12238096D01*
X-1000000Y12047620D01*
X-1000000Y11476191D01*
X-1095239Y11285715D01*
X-1190477Y11190477D01*
X-1380953Y11095239D01*
X-1666667Y11095239D01*
X-333334Y12428572D02*
X47619Y11095239D01*
X428571Y12047620D01*
X809523Y11095239D01*
X1190476Y12428572D01*
X2714285Y11190477D02*
X2523809Y11095239D01*
X2142857Y11095239D01*
X1952380Y11190477D01*
X1857142Y11380953D01*
X1857142Y12142858D01*
X1952380Y12333334D01*
X2142857Y12428572D01*
X2523809Y12428572D01*
X2714285Y12333334D01*
X2809523Y12142858D01*
X2809523Y11952381D01*
X1857142Y11761905D01*
X3666666Y11095239D02*
X3666666Y12428572D01*
X3666666Y12047620D02*
X3761904Y12238096D01*
X3857142Y12333334D01*
X4047619Y12428572D01*
X4238095Y12428572D01*
X30238095Y-33142857D02*
X31761904Y-33142857D01*
X30238095Y-17142857D02*
X31761904Y-17142857D01*
X31000000Y-17904761D02*
X31000000Y-16380952D01*
X-31761905Y-33142857D02*
X-30238096Y-33142857D01*
X-31761905Y-17142857D02*
X-30238096Y-17142857D01*
X-31000000Y-17904761D02*
X-31000000Y-16380952D01*
X-4952381Y-36904761D02*
X-3809524Y-36904761D01*
X-4380953Y-38904761D02*
X-4380953Y-36904761D01*
X-3142858Y-38904761D02*
X-3142858Y-37571428D01*
X-3142858Y-37952380D02*
X-3047620Y-37761904D01*
X-2952381Y-37666666D01*
X-2761905Y-37571428D01*
X-2571429Y-37571428D01*
X-1904762Y-38904761D02*
X-1904762Y-37571428D01*
X-1904762Y-36904761D02*
X-2000000Y-37000000D01*
X-1904762Y-37095238D01*
X-1809524Y-37000000D01*
X-1904762Y-36904761D01*
X-1904762Y-37095238D01*
X-95239Y-37571428D02*
X-95239Y-39190476D01*
X-190477Y-39380952D01*
X-285715Y-39476190D01*
X-476191Y-39571428D01*
X-761905Y-39571428D01*
X-952381Y-39476190D01*
X-95239Y-38809523D02*
X-285715Y-38904761D01*
X-666667Y-38904761D01*
X-857143Y-38809523D01*
X-952381Y-38714285D01*
X-1047620Y-38523809D01*
X-1047620Y-37952380D01*
X-952381Y-37761904D01*
X-857143Y-37666666D01*
X-666667Y-37571428D01*
X-285715Y-37571428D01*
X-95239Y-37666666D01*
X1714285Y-37571428D02*
X1714285Y-39190476D01*
X1619047Y-39380952D01*
X1523809Y-39476190D01*
X1333333Y-39571428D01*
X1047619Y-39571428D01*
X857142Y-39476190D01*
X1714285Y-38809523D02*
X1523809Y-38904761D01*
X1142857Y-38904761D01*
X952380Y-38809523D01*
X857142Y-38714285D01*
X761904Y-38523809D01*
X761904Y-37952380D01*
X857142Y-37761904D01*
X952380Y-37666666D01*
X1142857Y-37571428D01*
X1523809Y-37571428D01*
X1714285Y-37666666D01*
X3428571Y-38809523D02*
X3238095Y-38904761D01*
X2857142Y-38904761D01*
X2666666Y-38809523D01*
X2571428Y-38619047D01*
X2571428Y-37857142D01*
X2666666Y-37666666D01*
X2857142Y-37571428D01*
X3238095Y-37571428D01*
X3428571Y-37666666D01*
X3523809Y-37857142D01*
X3523809Y-38047619D01*
X2571428Y-38238095D01*
X4380952Y-38904761D02*
X4380952Y-37571428D01*
X4380952Y-37952380D02*
X4476190Y-37761904D01*
X4571428Y-37666666D01*
X4761904Y-37571428D01*
X4952380Y-37571428D01*
X18285714Y-24857142D02*
X18571428Y-24952380D01*
X18666666Y-25047619D01*
X18761904Y-25238095D01*
X18761904Y-25523809D01*
X18666666Y-25714285D01*
X18571428Y-25809523D01*
X18380952Y-25904761D01*
X17619047Y-25904761D01*
X17619047Y-23904761D01*
X18285714Y-23904761D01*
X18476190Y-24000000D01*
X18571428Y-24095238D01*
X18666666Y-24285714D01*
X18666666Y-24476190D01*
X18571428Y-24666666D01*
X18476190Y-24761904D01*
X18285714Y-24857142D01*
X17619047Y-24857142D01*
X19619047Y-25904761D02*
X19619047Y-24571428D01*
X19619047Y-24952380D02*
X19714285Y-24761904D01*
X19809523Y-24666666D01*
X20000000Y-24571428D01*
X20190476Y-24571428D01*
X20857142Y-25904761D02*
X20857142Y-24571428D01*
X20857142Y-23904761D02*
X20761904Y-24000000D01*
X20857142Y-24095238D01*
X20952380Y-24000000D01*
X20857142Y-23904761D01*
X20857142Y-24095238D01*
X22666666Y-24571428D02*
X22666666Y-26190476D01*
X22571428Y-26380952D01*
X22476190Y-26476190D01*
X22285714Y-26571428D01*
X22000000Y-26571428D01*
X21809523Y-26476190D01*
X22666666Y-25809523D02*
X22476190Y-25904761D01*
X22095238Y-25904761D01*
X21904761Y-25809523D01*
X21809523Y-25714285D01*
X21714285Y-25523809D01*
X21714285Y-24952380D01*
X21809523Y-24761904D01*
X21904761Y-24666666D01*
X22095238Y-24571428D01*
X22476190Y-24571428D01*
X22666666Y-24666666D01*
X23619047Y-25904761D02*
X23619047Y-23904761D01*
X24476190Y-25904761D02*
X24476190Y-24857142D01*
X24380952Y-24666666D01*
X24190476Y-24571428D01*
X23904761Y-24571428D01*
X23714285Y-24666666D01*
X23619047Y-24761904D01*
X25142857Y-24571428D02*
X25904761Y-24571428D01*
X25428571Y-23904761D02*
X25428571Y-25619047D01*
X25523809Y-25809523D01*
X25714285Y-25904761D01*
X25904761Y-25904761D01*
X26571428Y-24571428D02*
X26571428Y-25904761D01*
X26571428Y-24761904D02*
X26666666Y-24666666D01*
X26857142Y-24571428D01*
X27142857Y-24571428D01*
X27333333Y-24666666D01*
X27428571Y-24857142D01*
X27428571Y-25904761D01*
X29142857Y-25809523D02*
X28952380Y-25904761D01*
X28571428Y-25904761D01*
X28380952Y-25809523D01*
X28285714Y-25619047D01*
X28285714Y-24857142D01*
X28380952Y-24666666D01*
X28571428Y-24571428D01*
X28952380Y-24571428D01*
X29142857Y-24666666D01*
X29238095Y-24857142D01*
X29238095Y-25047619D01*
X28285714Y-25238095D01*
X30000000Y-25809523D02*
X30190476Y-25904761D01*
X30571428Y-25904761D01*
X30761904Y-25809523D01*
X30857142Y-25619047D01*
X30857142Y-25523809D01*
X30761904Y-25333333D01*
X30571428Y-25238095D01*
X30285714Y-25238095D01*
X30095238Y-25142857D01*
X30000000Y-24952380D01*
X30000000Y-24857142D01*
X30095238Y-24666666D01*
X30285714Y-24571428D01*
X30571428Y-24571428D01*
X30761904Y-24666666D01*
X31619047Y-25809523D02*
X31809523Y-25904761D01*
X32190476Y-25904761D01*
X32380952Y-25809523D01*
X32476190Y-25619047D01*
X32476190Y-25523809D01*
X32380952Y-25333333D01*
X32190476Y-25238095D01*
X31904761Y-25238095D01*
X31714285Y-25142857D01*
X31619047Y-24952380D01*
X31619047Y-24857142D01*
X31714285Y-24666666D01*
X31904761Y-24571428D01*
X32190476Y-24571428D01*
X32380952Y-24666666D01*
X-4333334Y-22809523D02*
X-4047620Y-22904761D01*
X-3571429Y-22904761D01*
X-3380953Y-22809523D01*
X-3285715Y-22714285D01*
X-3190477Y-22523809D01*
X-3190477Y-22333333D01*
X-3285715Y-22142857D01*
X-3380953Y-22047619D01*
X-3571429Y-21952380D01*
X-3952381Y-21857142D01*
X-4142858Y-21761904D01*
X-4238096Y-21666666D01*
X-4333334Y-21476190D01*
X-4333334Y-21285714D01*
X-4238096Y-21095238D01*
X-4142858Y-21000000D01*
X-3952381Y-20904761D01*
X-3476191Y-20904761D01*
X-3190477Y-21000000D01*
X-2619048Y-21571428D02*
X-1857143Y-21571428D01*
X-2333334Y-20904761D02*
X-2333334Y-22619047D01*
X-2238096Y-22809523D01*
X-2047620Y-22904761D01*
X-1857143Y-22904761D01*
X-333334Y-22904761D02*
X-333334Y-21857142D01*
X-428572Y-21666666D01*
X-619048Y-21571428D01*
X-1000000Y-21571428D01*
X-1190477Y-21666666D01*
X-333334Y-22809523D02*
X-523810Y-22904761D01*
X-1000000Y-22904761D01*
X-1190477Y-22809523D01*
X-1285715Y-22619047D01*
X-1285715Y-22428571D01*
X-1190477Y-22238095D01*
X-1000000Y-22142857D01*
X-523810Y-22142857D01*
X-333334Y-22047619D01*
X333333Y-21571428D02*
X1095238Y-21571428D01*
X619047Y-20904761D02*
X619047Y-22619047D01*
X714285Y-22809523D01*
X904761Y-22904761D01*
X1095238Y-22904761D01*
X2619047Y-21571428D02*
X2619047Y-22904761D01*
X1761904Y-21571428D02*
X1761904Y-22619047D01*
X1857142Y-22809523D01*
X2047619Y-22904761D01*
X2333333Y-22904761D01*
X2523809Y-22809523D01*
X2619047Y-22714285D01*
X3476190Y-22809523D02*
X3666666Y-22904761D01*
X4047619Y-22904761D01*
X4238095Y-22809523D01*
X4333333Y-22619047D01*
X4333333Y-22523809D01*
X4238095Y-22333333D01*
X4047619Y-22238095D01*
X3761904Y-22238095D01*
X3571428Y-22142857D01*
X3476190Y-21952380D01*
X3476190Y-21857142D01*
X3571428Y-21666666D01*
X3761904Y-21571428D01*
X4047619Y-21571428D01*
X4238095Y-21666666D01*
X-29095239Y-25809523D02*
X-28809524Y-25904761D01*
X-28333334Y-25904761D01*
X-28142858Y-25809523D01*
X-28047620Y-25714285D01*
X-27952381Y-25523809D01*
X-27952381Y-25333333D01*
X-28047620Y-25142857D01*
X-28142858Y-25047619D01*
X-28333334Y-24952380D01*
X-28714286Y-24857142D01*
X-28904762Y-24761904D01*
X-29000000Y-24666666D01*
X-29095239Y-24476190D01*
X-29095239Y-24285714D01*
X-29000000Y-24095238D01*
X-28904762Y-24000000D01*
X-28714286Y-23904761D01*
X-28238096Y-23904761D01*
X-27952381Y-24000000D01*
X-27095239Y-24571428D02*
X-27095239Y-26571428D01*
X-27095239Y-24666666D02*
X-26904762Y-24571428D01*
X-26523810Y-24571428D01*
X-26333334Y-24666666D01*
X-26238096Y-24761904D01*
X-26142858Y-24952380D01*
X-26142858Y-25523809D01*
X-26238096Y-25714285D01*
X-26333334Y-25809523D01*
X-26523810Y-25904761D01*
X-26904762Y-25904761D01*
X-27095239Y-25809523D01*
X-24523810Y-25809523D02*
X-24714286Y-25904761D01*
X-25095239Y-25904761D01*
X-25285715Y-25809523D01*
X-25380953Y-25619047D01*
X-25380953Y-24857142D01*
X-25285715Y-24666666D01*
X-25095239Y-24571428D01*
X-24714286Y-24571428D01*
X-24523810Y-24666666D01*
X-24428572Y-24857142D01*
X-24428572Y-25047619D01*
X-25380953Y-25238095D01*
X-22809524Y-25809523D02*
X-23000000Y-25904761D01*
X-23380953Y-25904761D01*
X-23571429Y-25809523D01*
X-23666667Y-25619047D01*
X-23666667Y-24857142D01*
X-23571429Y-24666666D01*
X-23380953Y-24571428D01*
X-23000000Y-24571428D01*
X-22809524Y-24666666D01*
X-22714286Y-24857142D01*
X-22714286Y-25047619D01*
X-23666667Y-25238095D01*
X-21000000Y-25904761D02*
X-21000000Y-23904761D01*
X-21000000Y-25809523D02*
X-21190477Y-25904761D01*
X-21571429Y-25904761D01*
X-21761905Y-25809523D01*
X-21857143Y-25714285D01*
X-21952381Y-25523809D01*
X-21952381Y-24952380D01*
X-21857143Y-24761904D01*
X-21761905Y-24666666D01*
X-21571429Y-24571428D01*
X-21190477Y-24571428D01*
X-21000000Y-24666666D01*
X-1190477Y34595239D02*
X-1190477Y36595239D01*
X-1190477Y35833334D02*
X-1000000Y35928572D01*
X-619048Y35928572D01*
X-428572Y35833334D01*
X-333334Y35738096D01*
X-238096Y35547620D01*
X-238096Y34976191D01*
X-333334Y34785715D01*
X-428572Y34690477D01*
X-619048Y34595239D01*
X-1000000Y34595239D01*
X-1190477Y34690477D01*
X428571Y35928572D02*
X904761Y34595239D01*
X1380952Y35928572D02*
X904761Y34595239D01*
X714285Y34119048D01*
X619047Y34023810D01*
X428571Y33928572D01*
D11*
X-11714286Y42785715D02*
X-11142858Y42595239D01*
X-10952381Y42404762D01*
X-10761905Y42023810D01*
X-10761905Y41452381D01*
X-10952381Y41071429D01*
X-11142858Y40880953D01*
X-11523810Y40690477D01*
X-13047620Y40690477D01*
X-13047620Y44690477D01*
X-11714286Y44690477D01*
X-11333334Y44500000D01*
X-11142858Y44309524D01*
X-10952381Y43928572D01*
X-10952381Y43547620D01*
X-11142858Y43166667D01*
X-11333334Y42976191D01*
X-11714286Y42785715D01*
X-13047620Y42785715D01*
X-8476191Y40690477D02*
X-8857143Y40880953D01*
X-9047620Y41261905D01*
X-9047620Y44690477D01*
X-6952381Y40690477D02*
X-6952381Y43357143D01*
X-6952381Y44690477D02*
X-7142858Y44500000D01*
X-6952381Y44309524D01*
X-6761905Y44500000D01*
X-6952381Y44690477D01*
X-6952381Y44309524D01*
X-5047620Y43357143D02*
X-5047620Y40690477D01*
X-5047620Y42976191D02*
X-4857143Y43166667D01*
X-4476191Y43357143D01*
X-3904762Y43357143D01*
X-3523810Y43166667D01*
X-3333334Y42785715D01*
X-3333334Y40690477D01*
X-1428572Y40690477D02*
X-1428572Y44690477D01*
X-1047620Y42214286D02*
X95238Y40690477D01*
X95238Y43357143D02*
X-1428572Y41833334D01*
X1428571Y43357143D02*
X2380952Y40690477D01*
X3333333Y43357143D02*
X2380952Y40690477D01*
X2000000Y39738096D01*
X1809523Y39547620D01*
X1428571Y39357143D01*
X6190476Y42785715D02*
X6761904Y42595239D01*
X6952380Y42404762D01*
X7142857Y42023810D01*
X7142857Y41452381D01*
X6952380Y41071429D01*
X6761904Y40880953D01*
X6380952Y40690477D01*
X4857142Y40690477D01*
X4857142Y44690477D01*
X6190476Y44690477D01*
X6571428Y44500000D01*
X6761904Y44309524D01*
X6952380Y43928572D01*
X6952380Y43547620D01*
X6761904Y43166667D01*
X6571428Y42976191D01*
X6190476Y42785715D01*
X4857142Y42785715D01*
X10571428Y40690477D02*
X10571428Y42785715D01*
X10380952Y43166667D01*
X10000000Y43357143D01*
X9238095Y43357143D01*
X8857142Y43166667D01*
X10571428Y40880953D02*
X10190476Y40690477D01*
X9238095Y40690477D01*
X8857142Y40880953D01*
X8666666Y41261905D01*
X8666666Y41642858D01*
X8857142Y42023810D01*
X9238095Y42214286D01*
X10190476Y42214286D01*
X10571428Y42404762D01*
X12476190Y40690477D02*
X12476190Y43357143D01*
X12476190Y42595239D02*
X12666666Y42976191D01*
X12857142Y43166667D01*
X13238095Y43357143D01*
X13619047Y43357143D01*
D12*
%TO.C,G\u002A\u002A\u002A*%
G36*
X-17399000Y23819875D02*
G01*
X-17069010Y23818579D01*
X-16810896Y23815722D01*
X-16611871Y23810399D01*
X-16459149Y23801703D01*
X-16339940Y23788729D01*
X-16241459Y23770571D01*
X-16150917Y23746322D01*
X-16091360Y23727231D01*
X-15749601Y23577264D01*
X-15473523Y23375700D01*
X-15258479Y23118081D01*
X-15099818Y22799951D01*
X-15086588Y22763833D01*
X-15066034Y22696485D01*
X-15049006Y22614845D01*
X-15034962Y22509662D01*
X-15023360Y22371686D01*
X-15013656Y22191664D01*
X-15005308Y21960346D01*
X-14997772Y21668482D01*
X-14990507Y21306819D01*
X-14985999Y21049333D01*
X-14979030Y20650368D01*
X-14972519Y20326567D01*
X-14965815Y20068436D01*
X-14958272Y19866478D01*
X-14949240Y19711200D01*
X-14938069Y19593105D01*
X-14924112Y19502699D01*
X-14906719Y19430487D01*
X-14885241Y19366974D01*
X-14868114Y19324250D01*
X-14775569Y19102000D01*
X-16423159Y19102000D01*
X-16488122Y19227624D01*
X-16544502Y19362927D01*
X-16584459Y19499443D01*
X-16615833Y19645638D01*
X-16869833Y19452233D01*
X-17083184Y19301620D01*
X-17279793Y19194299D01*
X-17490206Y19117305D01*
X-17744967Y19057677D01*
X-17840844Y19040147D01*
X-18148891Y18996116D01*
X-18413486Y18982682D01*
X-18669855Y18999174D01*
X-18823657Y19021345D01*
X-19191209Y19115811D01*
X-19497875Y19264727D01*
X-19740947Y19465395D01*
X-19917711Y19715119D01*
X-20025459Y20011199D01*
X-20058717Y20250476D01*
X-20050469Y20444464D01*
X-18288000Y20444464D01*
X-18263955Y20255964D01*
X-18187696Y20122680D01*
X-18053036Y20040221D01*
X-17853790Y20004197D01*
X-17668058Y20004487D01*
X-17463523Y20024803D01*
X-17305785Y20067414D01*
X-17173408Y20132685D01*
X-16972756Y20285050D01*
X-16834130Y20475629D01*
X-16752362Y20714973D01*
X-16722285Y21013633D01*
X-16721903Y21054492D01*
X-16721667Y21292485D01*
X-17280173Y21125267D01*
X-17599720Y21025649D01*
X-17845613Y20937921D01*
X-18026925Y20855954D01*
X-18152729Y20773617D01*
X-18232097Y20684783D01*
X-18274104Y20583322D01*
X-18287821Y20463106D01*
X-18288000Y20444464D01*
X-20050469Y20444464D01*
X-20044656Y20581166D01*
X-19965019Y20876904D01*
X-19823418Y21125204D01*
X-19795809Y21159047D01*
X-19679013Y21273009D01*
X-19529379Y21375545D01*
X-19337502Y21470429D01*
X-19093975Y21561435D01*
X-18789392Y21652334D01*
X-18414346Y21746900D01*
X-18216847Y21792384D01*
X-17899307Y21864237D01*
X-17650094Y21921896D01*
X-17454800Y21969151D01*
X-17299016Y22009792D01*
X-17168336Y22047607D01*
X-17048351Y22086386D01*
X-16924652Y22129917D01*
X-16901583Y22138294D01*
X-16780230Y22199744D01*
X-16724412Y22281447D01*
X-16729342Y22399614D01*
X-16780613Y22547798D01*
X-16856057Y22660662D01*
X-16978373Y22734679D01*
X-17159310Y22774514D01*
X-17377834Y22785000D01*
X-17680879Y22756467D01*
X-17921808Y22670988D01*
X-18100269Y22528746D01*
X-18205841Y22355613D01*
X-18266319Y22264083D01*
X-18325334Y22252018D01*
X-18387955Y22262124D01*
X-18520124Y22278296D01*
X-18707072Y22298901D01*
X-18934032Y22322307D01*
X-19168155Y22345165D01*
X-19942477Y22418801D01*
X-19915279Y22548984D01*
X-19804987Y22886426D01*
X-19625439Y23175318D01*
X-19376996Y23415293D01*
X-19060020Y23605986D01*
X-18753667Y23723950D01*
X-18648759Y23754854D01*
X-18550577Y23778475D01*
X-18445871Y23795751D01*
X-18321391Y23807620D01*
X-18163887Y23815019D01*
X-17960108Y23818888D01*
X-17696806Y23820165D01*
X-17399000Y23819875D01*
G37*
X-17399000Y23819875D02*
X-17069010Y23818579D01*
X-16810896Y23815722D01*
X-16611871Y23810399D01*
X-16459149Y23801703D01*
X-16339940Y23788729D01*
X-16241459Y23770571D01*
X-16150917Y23746322D01*
X-16091360Y23727231D01*
X-15749601Y23577264D01*
X-15473523Y23375700D01*
X-15258479Y23118081D01*
X-15099818Y22799951D01*
X-15086588Y22763833D01*
X-15066034Y22696485D01*
X-15049006Y22614845D01*
X-15034962Y22509662D01*
X-15023360Y22371686D01*
X-15013656Y22191664D01*
X-15005308Y21960346D01*
X-14997772Y21668482D01*
X-14990507Y21306819D01*
X-14985999Y21049333D01*
X-14979030Y20650368D01*
X-14972519Y20326567D01*
X-14965815Y20068436D01*
X-14958272Y19866478D01*
X-14949240Y19711200D01*
X-14938069Y19593105D01*
X-14924112Y19502699D01*
X-14906719Y19430487D01*
X-14885241Y19366974D01*
X-14868114Y19324250D01*
X-14775569Y19102000D01*
X-16423159Y19102000D01*
X-16488122Y19227624D01*
X-16544502Y19362927D01*
X-16584459Y19499443D01*
X-16615833Y19645638D01*
X-16869833Y19452233D01*
X-17083184Y19301620D01*
X-17279793Y19194299D01*
X-17490206Y19117305D01*
X-17744967Y19057677D01*
X-17840844Y19040147D01*
X-18148891Y18996116D01*
X-18413486Y18982682D01*
X-18669855Y18999174D01*
X-18823657Y19021345D01*
X-19191209Y19115811D01*
X-19497875Y19264727D01*
X-19740947Y19465395D01*
X-19917711Y19715119D01*
X-20025459Y20011199D01*
X-20058717Y20250476D01*
X-20050469Y20444464D01*
X-18288000Y20444464D01*
X-18263955Y20255964D01*
X-18187696Y20122680D01*
X-18053036Y20040221D01*
X-17853790Y20004197D01*
X-17668058Y20004487D01*
X-17463523Y20024803D01*
X-17305785Y20067414D01*
X-17173408Y20132685D01*
X-16972756Y20285050D01*
X-16834130Y20475629D01*
X-16752362Y20714973D01*
X-16722285Y21013633D01*
X-16721903Y21054492D01*
X-16721667Y21292485D01*
X-17280173Y21125267D01*
X-17599720Y21025649D01*
X-17845613Y20937921D01*
X-18026925Y20855954D01*
X-18152729Y20773617D01*
X-18232097Y20684783D01*
X-18274104Y20583322D01*
X-18287821Y20463106D01*
X-18288000Y20444464D01*
X-20050469Y20444464D01*
X-20044656Y20581166D01*
X-19965019Y20876904D01*
X-19823418Y21125204D01*
X-19795809Y21159047D01*
X-19679013Y21273009D01*
X-19529379Y21375545D01*
X-19337502Y21470429D01*
X-19093975Y21561435D01*
X-18789392Y21652334D01*
X-18414346Y21746900D01*
X-18216847Y21792384D01*
X-17899307Y21864237D01*
X-17650094Y21921896D01*
X-17454800Y21969151D01*
X-17299016Y22009792D01*
X-17168336Y22047607D01*
X-17048351Y22086386D01*
X-16924652Y22129917D01*
X-16901583Y22138294D01*
X-16780230Y22199744D01*
X-16724412Y22281447D01*
X-16729342Y22399614D01*
X-16780613Y22547798D01*
X-16856057Y22660662D01*
X-16978373Y22734679D01*
X-17159310Y22774514D01*
X-17377834Y22785000D01*
X-17680879Y22756467D01*
X-17921808Y22670988D01*
X-18100269Y22528746D01*
X-18205841Y22355613D01*
X-18266319Y22264083D01*
X-18325334Y22252018D01*
X-18387955Y22262124D01*
X-18520124Y22278296D01*
X-18707072Y22298901D01*
X-18934032Y22322307D01*
X-19168155Y22345165D01*
X-19942477Y22418801D01*
X-19915279Y22548984D01*
X-19804987Y22886426D01*
X-19625439Y23175318D01*
X-19376996Y23415293D01*
X-19060020Y23605986D01*
X-18753667Y23723950D01*
X-18648759Y23754854D01*
X-18550577Y23778475D01*
X-18445871Y23795751D01*
X-18321391Y23807620D01*
X-18163887Y23815019D01*
X-17960108Y23818888D01*
X-17696806Y23820165D01*
X-17399000Y23819875D01*
G36*
X-5207547Y23820560D02*
G01*
X-4941557Y23817888D01*
X-4735170Y23812252D01*
X-4575864Y23802918D01*
X-4451112Y23789148D01*
X-4348391Y23770208D01*
X-4255176Y23745362D01*
X-4254500Y23745157D01*
X-3908480Y23608546D01*
X-3630001Y23425979D01*
X-3411515Y23190620D01*
X-3245477Y22895630D01*
X-3204592Y22794019D01*
X-3180609Y22724733D01*
X-3161024Y22652452D01*
X-3145211Y22567551D01*
X-3132546Y22460410D01*
X-3122404Y22321405D01*
X-3114162Y22140914D01*
X-3107193Y21909315D01*
X-3100874Y21616984D01*
X-3094580Y21254300D01*
X-3091337Y21049333D01*
X-3084951Y20651442D01*
X-3078996Y20328820D01*
X-3072822Y20072077D01*
X-3065782Y19871824D01*
X-3057227Y19718670D01*
X-3046509Y19603225D01*
X-3032980Y19516099D01*
X-3015991Y19447901D01*
X-2994894Y19389242D01*
X-2973324Y19340035D01*
X-2920592Y19222323D01*
X-2886228Y19140444D01*
X-2878667Y19117785D01*
X-2918863Y19112936D01*
X-3030907Y19108689D01*
X-3201981Y19105291D01*
X-3419264Y19102985D01*
X-3669940Y19102015D01*
X-3706237Y19102000D01*
X-4533806Y19102000D01*
X-4615474Y19281917D01*
X-4665746Y19412359D01*
X-4695073Y19526430D01*
X-4698070Y19556996D01*
X-4703744Y19600736D01*
X-4728719Y19610820D01*
X-4786653Y19582045D01*
X-4891203Y19509210D01*
X-4963583Y19455863D01*
X-5185335Y19302461D01*
X-5385667Y19193965D01*
X-5596531Y19116844D01*
X-5849880Y19057564D01*
X-5945177Y19040147D01*
X-6253224Y18996116D01*
X-6517819Y18982682D01*
X-6774189Y18999174D01*
X-6927990Y19021345D01*
X-7295542Y19115811D01*
X-7602209Y19264727D01*
X-7845280Y19465395D01*
X-8022045Y19715119D01*
X-8129792Y20011199D01*
X-8163050Y20250476D01*
X-8155785Y20436664D01*
X-6391392Y20436664D01*
X-6361514Y20248808D01*
X-6272109Y20115282D01*
X-6119946Y20033827D01*
X-5901793Y20002184D01*
X-5772392Y20004042D01*
X-5566885Y20024868D01*
X-5408145Y20068222D01*
X-5277741Y20132685D01*
X-5077090Y20285050D01*
X-4938464Y20475629D01*
X-4856696Y20714973D01*
X-4826618Y21013633D01*
X-4826236Y21054492D01*
X-4826000Y21292485D01*
X-5384506Y21125267D01*
X-5703743Y21025805D01*
X-5949366Y20938293D01*
X-6130461Y20856519D01*
X-6256109Y20774270D01*
X-6335394Y20685334D01*
X-6377399Y20583499D01*
X-6391208Y20462555D01*
X-6391392Y20436664D01*
X-8155785Y20436664D01*
X-8150012Y20584613D01*
X-8071548Y20876344D01*
X-7929962Y21118124D01*
X-7881044Y21174037D01*
X-7754686Y21288135D01*
X-7600339Y21389659D01*
X-7407616Y21482730D01*
X-7166133Y21571469D01*
X-6865504Y21659994D01*
X-6495343Y21752426D01*
X-6323846Y21791784D01*
X-6005888Y21863729D01*
X-5756291Y21921466D01*
X-5560684Y21968774D01*
X-5404695Y22009432D01*
X-5273950Y22047219D01*
X-5154078Y22085914D01*
X-5030707Y22129295D01*
X-5005917Y22138294D01*
X-4884563Y22199744D01*
X-4828745Y22281447D01*
X-4833676Y22399614D01*
X-4884946Y22547798D01*
X-4960390Y22660662D01*
X-5082706Y22734679D01*
X-5263643Y22774514D01*
X-5482167Y22785000D01*
X-5785213Y22756467D01*
X-6026141Y22670988D01*
X-6204602Y22528746D01*
X-6310174Y22355613D01*
X-6370652Y22264083D01*
X-6429667Y22252018D01*
X-6492288Y22262124D01*
X-6624457Y22278296D01*
X-6811406Y22298901D01*
X-7038366Y22322307D01*
X-7272488Y22345165D01*
X-8046810Y22418801D01*
X-8019506Y22548984D01*
X-7987163Y22654954D01*
X-7929756Y22802801D01*
X-7866616Y22945474D01*
X-7694917Y23215111D01*
X-7455007Y23438641D01*
X-7144789Y23617750D01*
X-6921500Y23705453D01*
X-6813212Y23741129D01*
X-6717521Y23768508D01*
X-6621185Y23788704D01*
X-6510960Y23802827D01*
X-6373604Y23811991D01*
X-6195874Y23817308D01*
X-5964527Y23819890D01*
X-5666320Y23820849D01*
X-5545667Y23821005D01*
X-5207547Y23820560D01*
G37*
X-5207547Y23820560D02*
X-4941557Y23817888D01*
X-4735170Y23812252D01*
X-4575864Y23802918D01*
X-4451112Y23789148D01*
X-4348391Y23770208D01*
X-4255176Y23745362D01*
X-4254500Y23745157D01*
X-3908480Y23608546D01*
X-3630001Y23425979D01*
X-3411515Y23190620D01*
X-3245477Y22895630D01*
X-3204592Y22794019D01*
X-3180609Y22724733D01*
X-3161024Y22652452D01*
X-3145211Y22567551D01*
X-3132546Y22460410D01*
X-3122404Y22321405D01*
X-3114162Y22140914D01*
X-3107193Y21909315D01*
X-3100874Y21616984D01*
X-3094580Y21254300D01*
X-3091337Y21049333D01*
X-3084951Y20651442D01*
X-3078996Y20328820D01*
X-3072822Y20072077D01*
X-3065782Y19871824D01*
X-3057227Y19718670D01*
X-3046509Y19603225D01*
X-3032980Y19516099D01*
X-3015991Y19447901D01*
X-2994894Y19389242D01*
X-2973324Y19340035D01*
X-2920592Y19222323D01*
X-2886228Y19140444D01*
X-2878667Y19117785D01*
X-2918863Y19112936D01*
X-3030907Y19108689D01*
X-3201981Y19105291D01*
X-3419264Y19102985D01*
X-3669940Y19102015D01*
X-3706237Y19102000D01*
X-4533806Y19102000D01*
X-4615474Y19281917D01*
X-4665746Y19412359D01*
X-4695073Y19526430D01*
X-4698070Y19556996D01*
X-4703744Y19600736D01*
X-4728719Y19610820D01*
X-4786653Y19582045D01*
X-4891203Y19509210D01*
X-4963583Y19455863D01*
X-5185335Y19302461D01*
X-5385667Y19193965D01*
X-5596531Y19116844D01*
X-5849880Y19057564D01*
X-5945177Y19040147D01*
X-6253224Y18996116D01*
X-6517819Y18982682D01*
X-6774189Y18999174D01*
X-6927990Y19021345D01*
X-7295542Y19115811D01*
X-7602209Y19264727D01*
X-7845280Y19465395D01*
X-8022045Y19715119D01*
X-8129792Y20011199D01*
X-8163050Y20250476D01*
X-8155785Y20436664D01*
X-6391392Y20436664D01*
X-6361514Y20248808D01*
X-6272109Y20115282D01*
X-6119946Y20033827D01*
X-5901793Y20002184D01*
X-5772392Y20004042D01*
X-5566885Y20024868D01*
X-5408145Y20068222D01*
X-5277741Y20132685D01*
X-5077090Y20285050D01*
X-4938464Y20475629D01*
X-4856696Y20714973D01*
X-4826618Y21013633D01*
X-4826236Y21054492D01*
X-4826000Y21292485D01*
X-5384506Y21125267D01*
X-5703743Y21025805D01*
X-5949366Y20938293D01*
X-6130461Y20856519D01*
X-6256109Y20774270D01*
X-6335394Y20685334D01*
X-6377399Y20583499D01*
X-6391208Y20462555D01*
X-6391392Y20436664D01*
X-8155785Y20436664D01*
X-8150012Y20584613D01*
X-8071548Y20876344D01*
X-7929962Y21118124D01*
X-7881044Y21174037D01*
X-7754686Y21288135D01*
X-7600339Y21389659D01*
X-7407616Y21482730D01*
X-7166133Y21571469D01*
X-6865504Y21659994D01*
X-6495343Y21752426D01*
X-6323846Y21791784D01*
X-6005888Y21863729D01*
X-5756291Y21921466D01*
X-5560684Y21968774D01*
X-5404695Y22009432D01*
X-5273950Y22047219D01*
X-5154078Y22085914D01*
X-5030707Y22129295D01*
X-5005917Y22138294D01*
X-4884563Y22199744D01*
X-4828745Y22281447D01*
X-4833676Y22399614D01*
X-4884946Y22547798D01*
X-4960390Y22660662D01*
X-5082706Y22734679D01*
X-5263643Y22774514D01*
X-5482167Y22785000D01*
X-5785213Y22756467D01*
X-6026141Y22670988D01*
X-6204602Y22528746D01*
X-6310174Y22355613D01*
X-6370652Y22264083D01*
X-6429667Y22252018D01*
X-6492288Y22262124D01*
X-6624457Y22278296D01*
X-6811406Y22298901D01*
X-7038366Y22322307D01*
X-7272488Y22345165D01*
X-8046810Y22418801D01*
X-8019506Y22548984D01*
X-7987163Y22654954D01*
X-7929756Y22802801D01*
X-7866616Y22945474D01*
X-7694917Y23215111D01*
X-7455007Y23438641D01*
X-7144789Y23617750D01*
X-6921500Y23705453D01*
X-6813212Y23741129D01*
X-6717521Y23768508D01*
X-6621185Y23788704D01*
X-6510960Y23802827D01*
X-6373604Y23811991D01*
X-6195874Y23817308D01*
X-5964527Y23819890D01*
X-5666320Y23820849D01*
X-5545667Y23821005D01*
X-5207547Y23820560D01*
G36*
X4910667Y22346817D02*
G01*
X4911278Y21933516D01*
X4913729Y21595846D01*
X4918939Y21324779D01*
X4927830Y21111283D01*
X4941324Y20946330D01*
X4960342Y20820890D01*
X4985806Y20725932D01*
X5018637Y20652427D01*
X5059757Y20591345D01*
X5093912Y20551205D01*
X5249608Y20436526D01*
X5435122Y20387716D01*
X5632601Y20400675D01*
X5824190Y20471302D01*
X5992036Y20595497D01*
X6118286Y20769158D01*
X6127738Y20788661D01*
X6147809Y20841149D01*
X6164136Y20909589D01*
X6177229Y21003231D01*
X6187599Y21131325D01*
X6195755Y21303121D01*
X6202209Y21527868D01*
X6207470Y21814816D01*
X6212049Y22173214D01*
X6213930Y22351083D01*
X6228181Y23758667D01*
X8001000Y23758667D01*
X8001000Y19102000D01*
X6350000Y19102000D01*
X6350000Y19810806D01*
X6073181Y19543363D01*
X5748021Y19281853D01*
X5398617Y19101037D01*
X5027497Y19001617D01*
X4637185Y18984294D01*
X4264719Y19041128D01*
X3939541Y19151215D01*
X3676163Y19312053D01*
X3468781Y19529775D01*
X3311593Y19810514D01*
X3198795Y20160403D01*
X3196490Y20170106D01*
X3179671Y20258563D01*
X3165947Y20372915D01*
X3155045Y20521490D01*
X3146692Y20712613D01*
X3140615Y20954611D01*
X3136539Y21255811D01*
X3134194Y21624539D01*
X3133305Y22069121D01*
X3133292Y22097083D01*
X3132667Y23758667D01*
X4910667Y23758667D01*
X4910667Y22346817D01*
G37*
X4910667Y22346817D02*
X4911278Y21933516D01*
X4913729Y21595846D01*
X4918939Y21324779D01*
X4927830Y21111283D01*
X4941324Y20946330D01*
X4960342Y20820890D01*
X4985806Y20725932D01*
X5018637Y20652427D01*
X5059757Y20591345D01*
X5093912Y20551205D01*
X5249608Y20436526D01*
X5435122Y20387716D01*
X5632601Y20400675D01*
X5824190Y20471302D01*
X5992036Y20595497D01*
X6118286Y20769158D01*
X6127738Y20788661D01*
X6147809Y20841149D01*
X6164136Y20909589D01*
X6177229Y21003231D01*
X6187599Y21131325D01*
X6195755Y21303121D01*
X6202209Y21527868D01*
X6207470Y21814816D01*
X6212049Y22173214D01*
X6213930Y22351083D01*
X6228181Y23758667D01*
X8001000Y23758667D01*
X8001000Y19102000D01*
X6350000Y19102000D01*
X6350000Y19810806D01*
X6073181Y19543363D01*
X5748021Y19281853D01*
X5398617Y19101037D01*
X5027497Y19001617D01*
X4637185Y18984294D01*
X4264719Y19041128D01*
X3939541Y19151215D01*
X3676163Y19312053D01*
X3468781Y19529775D01*
X3311593Y19810514D01*
X3198795Y20160403D01*
X3196490Y20170106D01*
X3179671Y20258563D01*
X3165947Y20372915D01*
X3155045Y20521490D01*
X3146692Y20712613D01*
X3140615Y20954611D01*
X3136539Y21255811D01*
X3134194Y21624539D01*
X3133305Y22069121D01*
X3133292Y22097083D01*
X3132667Y23758667D01*
X4910667Y23758667D01*
X4910667Y22346817D01*
G36*
X5122333Y29686171D02*
G01*
X1164167Y29664167D01*
X1152773Y28722250D01*
X1141380Y27780333D01*
X2709333Y27780333D01*
X2709333Y26298667D01*
X1143000Y26298667D01*
X1143000Y19017333D01*
X28222Y19017333D01*
X-270859Y19018364D01*
X-541754Y19021269D01*
X-773044Y19025765D01*
X-953308Y19031570D01*
X-1071126Y19038403D01*
X-1114778Y19045556D01*
X-1119039Y19091199D01*
X-1123105Y19215308D01*
X-1126928Y19411683D01*
X-1130459Y19674123D01*
X-1133650Y19996430D01*
X-1136454Y20372401D01*
X-1138822Y20795837D01*
X-1140706Y21260538D01*
X-1142058Y21760303D01*
X-1142830Y22288933D01*
X-1143000Y22685267D01*
X-1143000Y26296757D01*
X-1915583Y26308295D01*
X-2688167Y26319833D01*
X-2699750Y27050083D01*
X-2711333Y27780334D01*
X-1927166Y27780333D01*
X-1143000Y27780333D01*
X-1143000Y29685333D01*
X-5080000Y29685333D01*
X-5080000Y32013667D01*
X5122333Y32013667D01*
X5122333Y29686171D01*
G37*
X5122333Y29686171D02*
X1164167Y29664167D01*
X1152773Y28722250D01*
X1141380Y27780333D01*
X2709333Y27780333D01*
X2709333Y26298667D01*
X1143000Y26298667D01*
X1143000Y19017333D01*
X28222Y19017333D01*
X-270859Y19018364D01*
X-541754Y19021269D01*
X-773044Y19025765D01*
X-953308Y19031570D01*
X-1071126Y19038403D01*
X-1114778Y19045556D01*
X-1119039Y19091199D01*
X-1123105Y19215308D01*
X-1126928Y19411683D01*
X-1130459Y19674123D01*
X-1133650Y19996430D01*
X-1136454Y20372401D01*
X-1138822Y20795837D01*
X-1140706Y21260538D01*
X-1142058Y21760303D01*
X-1142830Y22288933D01*
X-1143000Y22685267D01*
X-1143000Y26296757D01*
X-1915583Y26308295D01*
X-2688167Y26319833D01*
X-2699750Y27050083D01*
X-2711333Y27780334D01*
X-1927166Y27780333D01*
X-1143000Y27780333D01*
X-1143000Y29685333D01*
X-5080000Y29685333D01*
X-5080000Y32013667D01*
X5122333Y32013667D01*
X5122333Y29686171D01*
G36*
X-12649445Y37398712D02*
G01*
X-12644947Y37352204D01*
X-12682975Y37257749D01*
X-12766731Y37108875D01*
X-12888043Y36916568D01*
X-13201681Y36393368D01*
X-13506057Y35807953D01*
X-13791785Y35182772D01*
X-14049480Y34540277D01*
X-14269758Y33902918D01*
X-14443232Y33293146D01*
X-14495222Y33072000D01*
X-14678992Y32049453D01*
X-14778648Y31035972D01*
X-14794136Y30030514D01*
X-14725402Y29032033D01*
X-14572392Y28039485D01*
X-14335054Y27051825D01*
X-14156088Y26472887D01*
X-14057308Y26176064D01*
X-13980140Y25949330D01*
X-13916991Y25783305D01*
X-13860269Y25668606D01*
X-13802383Y25595852D01*
X-13735742Y25555661D01*
X-13652752Y25538653D01*
X-13545822Y25535446D01*
X-13407361Y25536658D01*
X-13398461Y25536667D01*
X-13211631Y25535402D01*
X-13094646Y25541201D01*
X-13039162Y25568454D01*
X-13036835Y25631551D01*
X-13079322Y25744883D01*
X-13158279Y25922840D01*
X-13165281Y25938833D01*
X-13386758Y26504199D01*
X-13586812Y27131161D01*
X-13759660Y27798104D01*
X-13899519Y28483415D01*
X-13975129Y28965667D01*
X-13996986Y29185029D01*
X-14013394Y29470176D01*
X-14024339Y29802400D01*
X-14029808Y30162992D01*
X-14029788Y30533245D01*
X-14024264Y30894451D01*
X-14013225Y31227903D01*
X-13996656Y31514893D01*
X-13977089Y31717333D01*
X-13814709Y32687176D01*
X-13576921Y33623038D01*
X-13260799Y34534698D01*
X-12868540Y35421500D01*
X-12757347Y35640463D01*
X-12632284Y35873815D01*
X-12500430Y36109725D01*
X-12368864Y36336361D01*
X-12244668Y36541894D01*
X-12134920Y36714492D01*
X-12046700Y36842325D01*
X-11987089Y36913562D01*
X-11969191Y36924333D01*
X-11921061Y36896013D01*
X-11929076Y36810096D01*
X-11993711Y36665156D01*
X-12115440Y36459760D01*
X-12131772Y36434289D01*
X-12608079Y35617959D01*
X-13013670Y34755598D01*
X-13348092Y33848410D01*
X-13610896Y32897598D01*
X-13782306Y32027344D01*
X-13812320Y31788118D01*
X-13837263Y31483518D01*
X-13856697Y31132707D01*
X-13870188Y30754851D01*
X-13877300Y30369113D01*
X-13877595Y29994659D01*
X-13870639Y29650654D01*
X-13855995Y29356261D01*
X-13845827Y29235394D01*
X-13740901Y28479443D01*
X-13578163Y27702097D01*
X-13365297Y26933868D01*
X-13109988Y26205269D01*
X-13037655Y26026215D01*
X-12969404Y25853274D01*
X-12919137Y25708312D01*
X-12892724Y25609439D01*
X-12891938Y25576674D01*
X-12864483Y25557914D01*
X-12763501Y25544439D01*
X-12600032Y25537415D01*
X-12512490Y25536667D01*
X-12108316Y25536667D01*
X-12097242Y23886013D01*
X-12086167Y22235358D01*
X-11435545Y22997013D01*
X-10784924Y23758667D01*
X-8615648Y23758667D01*
X-10257648Y22115045D01*
X-9387534Y20608523D01*
X-8517420Y19102000D01*
X-10521372Y19102000D01*
X-10985445Y20033222D01*
X-11449517Y20964444D01*
X-12107333Y20310486D01*
X-12107333Y19102000D01*
X-13927667Y19102000D01*
X-13927667Y25485341D01*
X-14094645Y25906582D01*
X-14411277Y26818713D01*
X-14651532Y27759792D01*
X-14815463Y28722337D01*
X-14903120Y29698867D01*
X-14914556Y30681901D01*
X-14849822Y31663958D01*
X-14708970Y32637555D01*
X-14492053Y33595212D01*
X-14199122Y34529448D01*
X-14031828Y34966633D01*
X-13909934Y35253017D01*
X-13772343Y35552942D01*
X-13624078Y35857568D01*
X-13470165Y36158056D01*
X-13315627Y36445569D01*
X-13165487Y36711266D01*
X-13024770Y36946309D01*
X-12898500Y37141860D01*
X-12791701Y37289080D01*
X-12709395Y37379129D01*
X-12656609Y37403170D01*
X-12649445Y37398712D01*
G37*
X-12649445Y37398712D02*
X-12644947Y37352204D01*
X-12682975Y37257749D01*
X-12766731Y37108875D01*
X-12888043Y36916568D01*
X-13201681Y36393368D01*
X-13506057Y35807953D01*
X-13791785Y35182772D01*
X-14049480Y34540277D01*
X-14269758Y33902918D01*
X-14443232Y33293146D01*
X-14495222Y33072000D01*
X-14678992Y32049453D01*
X-14778648Y31035972D01*
X-14794136Y30030514D01*
X-14725402Y29032033D01*
X-14572392Y28039485D01*
X-14335054Y27051825D01*
X-14156088Y26472887D01*
X-14057308Y26176064D01*
X-13980140Y25949330D01*
X-13916991Y25783305D01*
X-13860269Y25668606D01*
X-13802383Y25595852D01*
X-13735742Y25555661D01*
X-13652752Y25538653D01*
X-13545822Y25535446D01*
X-13407361Y25536658D01*
X-13398461Y25536667D01*
X-13211631Y25535402D01*
X-13094646Y25541201D01*
X-13039162Y25568454D01*
X-13036835Y25631551D01*
X-13079322Y25744883D01*
X-13158279Y25922840D01*
X-13165281Y25938833D01*
X-13386758Y26504199D01*
X-13586812Y27131161D01*
X-13759660Y27798104D01*
X-13899519Y28483415D01*
X-13975129Y28965667D01*
X-13996986Y29185029D01*
X-14013394Y29470176D01*
X-14024339Y29802400D01*
X-14029808Y30162992D01*
X-14029788Y30533245D01*
X-14024264Y30894451D01*
X-14013225Y31227903D01*
X-13996656Y31514893D01*
X-13977089Y31717333D01*
X-13814709Y32687176D01*
X-13576921Y33623038D01*
X-13260799Y34534698D01*
X-12868540Y35421500D01*
X-12757347Y35640463D01*
X-12632284Y35873815D01*
X-12500430Y36109725D01*
X-12368864Y36336361D01*
X-12244668Y36541894D01*
X-12134920Y36714492D01*
X-12046700Y36842325D01*
X-11987089Y36913562D01*
X-11969191Y36924333D01*
X-11921061Y36896013D01*
X-11929076Y36810096D01*
X-11993711Y36665156D01*
X-12115440Y36459760D01*
X-12131772Y36434289D01*
X-12608079Y35617959D01*
X-13013670Y34755598D01*
X-13348092Y33848410D01*
X-13610896Y32897598D01*
X-13782306Y32027344D01*
X-13812320Y31788118D01*
X-13837263Y31483518D01*
X-13856697Y31132707D01*
X-13870188Y30754851D01*
X-13877300Y30369113D01*
X-13877595Y29994659D01*
X-13870639Y29650654D01*
X-13855995Y29356261D01*
X-13845827Y29235394D01*
X-13740901Y28479443D01*
X-13578163Y27702097D01*
X-13365297Y26933868D01*
X-13109988Y26205269D01*
X-13037655Y26026215D01*
X-12969404Y25853274D01*
X-12919137Y25708312D01*
X-12892724Y25609439D01*
X-12891938Y25576674D01*
X-12864483Y25557914D01*
X-12763501Y25544439D01*
X-12600032Y25537415D01*
X-12512490Y25536667D01*
X-12108316Y25536667D01*
X-12097242Y23886013D01*
X-12086167Y22235358D01*
X-11435545Y22997013D01*
X-10784924Y23758667D01*
X-8615648Y23758667D01*
X-10257648Y22115045D01*
X-9387534Y20608523D01*
X-8517420Y19102000D01*
X-10521372Y19102000D01*
X-10985445Y20033222D01*
X-11449517Y20964444D01*
X-12107333Y20310486D01*
X-12107333Y19102000D01*
X-13927667Y19102000D01*
X-13927667Y25485341D01*
X-14094645Y25906582D01*
X-14411277Y26818713D01*
X-14651532Y27759792D01*
X-14815463Y28722337D01*
X-14903120Y29698867D01*
X-14914556Y30681901D01*
X-14849822Y31663958D01*
X-14708970Y32637555D01*
X-14492053Y33595212D01*
X-14199122Y34529448D01*
X-14031828Y34966633D01*
X-13909934Y35253017D01*
X-13772343Y35552942D01*
X-13624078Y35857568D01*
X-13470165Y36158056D01*
X-13315627Y36445569D01*
X-13165487Y36711266D01*
X-13024770Y36946309D01*
X-12898500Y37141860D01*
X-12791701Y37289080D01*
X-12709395Y37379129D01*
X-12656609Y37403170D01*
X-12649445Y37398712D01*
G36*
X12604792Y23820873D02*
G01*
X12760459Y23815496D01*
X12876200Y23801300D01*
X12974384Y23774170D01*
X13077382Y23729995D01*
X13189287Y23674000D01*
X13431054Y23523788D01*
X13615969Y23341888D01*
X13760499Y23109029D01*
X13846729Y22904655D01*
X13870877Y22836628D01*
X13890801Y22770608D01*
X13906989Y22697842D01*
X13919927Y22609579D01*
X13930104Y22497064D01*
X13938007Y22351545D01*
X13944123Y22164269D01*
X13948940Y21926483D01*
X13952946Y21629435D01*
X13956627Y21264371D01*
X13960074Y20869417D01*
X13975064Y19102000D01*
X12196084Y19102000D01*
X12183459Y20573083D01*
X12179681Y20970550D01*
X12175548Y21292347D01*
X12170567Y21547473D01*
X12164252Y21744923D01*
X12156112Y21893696D01*
X12145659Y22002790D01*
X12132402Y22081200D01*
X12115854Y22137925D01*
X12096033Y22181034D01*
X11967494Y22332479D01*
X11784455Y22421801D01*
X11590192Y22446333D01*
X11359313Y22411446D01*
X11173558Y22305368D01*
X11029515Y22125981D01*
X11006667Y22083603D01*
X10977740Y22025043D01*
X10954545Y21969203D01*
X10936353Y21906249D01*
X10922431Y21826348D01*
X10912049Y21719669D01*
X10904477Y21576378D01*
X10898983Y21386643D01*
X10894837Y21140631D01*
X10891308Y20828511D01*
X10888105Y20488417D01*
X10875377Y19102000D01*
X9101667Y19102000D01*
X9101667Y23758667D01*
X10752667Y23758667D01*
X10752667Y23028236D01*
X11065094Y23325012D01*
X11275961Y23512502D01*
X11467000Y23647257D01*
X11659823Y23737398D01*
X11876041Y23791043D01*
X12137267Y23816310D01*
X12386831Y23821543D01*
X12604792Y23820873D01*
G37*
X12604792Y23820873D02*
X12760459Y23815496D01*
X12876200Y23801300D01*
X12974384Y23774170D01*
X13077382Y23729995D01*
X13189287Y23674000D01*
X13431054Y23523788D01*
X13615969Y23341888D01*
X13760499Y23109029D01*
X13846729Y22904655D01*
X13870877Y22836628D01*
X13890801Y22770608D01*
X13906989Y22697842D01*
X13919927Y22609579D01*
X13930104Y22497064D01*
X13938007Y22351545D01*
X13944123Y22164269D01*
X13948940Y21926483D01*
X13952946Y21629435D01*
X13956627Y21264371D01*
X13960074Y20869417D01*
X13975064Y19102000D01*
X12196084Y19102000D01*
X12183459Y20573083D01*
X12179681Y20970550D01*
X12175548Y21292347D01*
X12170567Y21547473D01*
X12164252Y21744923D01*
X12156112Y21893696D01*
X12145659Y22002790D01*
X12132402Y22081200D01*
X12115854Y22137925D01*
X12096033Y22181034D01*
X11967494Y22332479D01*
X11784455Y22421801D01*
X11590192Y22446333D01*
X11359313Y22411446D01*
X11173558Y22305368D01*
X11029515Y22125981D01*
X11006667Y22083603D01*
X10977740Y22025043D01*
X10954545Y21969203D01*
X10936353Y21906249D01*
X10922431Y21826348D01*
X10912049Y21719669D01*
X10904477Y21576378D01*
X10898983Y21386643D01*
X10894837Y21140631D01*
X10891308Y20828511D01*
X10888105Y20488417D01*
X10875377Y19102000D01*
X9101667Y19102000D01*
X9101667Y23758667D01*
X10752667Y23758667D01*
X10752667Y23028236D01*
X11065094Y23325012D01*
X11275961Y23512502D01*
X11467000Y23647257D01*
X11659823Y23737398D01*
X11876041Y23791043D01*
X12137267Y23816310D01*
X12386831Y23821543D01*
X12604792Y23820873D01*
G36*
X16858758Y23886013D02*
G01*
X16869833Y22235358D01*
X17520455Y22997013D01*
X18171076Y23758667D01*
X20340352Y23758667D01*
X18698448Y22115141D01*
X19569027Y20608571D01*
X20439606Y19102000D01*
X18434628Y19102000D01*
X17970555Y20033222D01*
X17506483Y20964444D01*
X16848667Y20310486D01*
X16848667Y19102000D01*
X15028333Y19102000D01*
X15028333Y25536667D01*
X16847684Y25536667D01*
X16858758Y23886013D01*
G37*
X16858758Y23886013D02*
X16869833Y22235358D01*
X17520455Y22997013D01*
X18171076Y23758667D01*
X20340352Y23758667D01*
X18698448Y22115141D01*
X19569027Y20608571D01*
X20439606Y19102000D01*
X18434628Y19102000D01*
X17970555Y20033222D01*
X17506483Y20964444D01*
X16848667Y20310486D01*
X16848667Y19102000D01*
X15028333Y19102000D01*
X15028333Y25536667D01*
X16847684Y25536667D01*
X16858758Y23886013D01*
G36*
X-13362708Y37866383D02*
G01*
X-13401663Y37781558D01*
X-13404187Y37777663D01*
X-13926080Y36932147D01*
X-14372206Y36098711D01*
X-14747578Y35264074D01*
X-15057208Y34414953D01*
X-15306110Y33538068D01*
X-15499295Y32620138D01*
X-15603502Y31950167D01*
X-15631677Y31680742D01*
X-15653550Y31348282D01*
X-15668967Y30972037D01*
X-15677776Y30571255D01*
X-15679824Y30165187D01*
X-15674960Y29773081D01*
X-15663029Y29414186D01*
X-15643881Y29107753D01*
X-15627327Y28944500D01*
X-15508523Y28159715D01*
X-15350195Y27385703D01*
X-15157003Y26640566D01*
X-14933605Y25942410D01*
X-14702116Y25349516D01*
X-14611439Y25138337D01*
X-14550381Y24991929D01*
X-14514773Y24897427D01*
X-14500447Y24841968D01*
X-14503234Y24812690D01*
X-14518966Y24796730D01*
X-14522294Y24794622D01*
X-14560316Y24815255D01*
X-14614179Y24895402D01*
X-14652198Y24973040D01*
X-14974775Y25771594D01*
X-15238773Y26559072D01*
X-15451913Y27362237D01*
X-15621918Y28207855D01*
X-15669748Y28500000D01*
X-15698517Y28695104D01*
X-15720961Y28875791D01*
X-15737834Y29056798D01*
X-15749891Y29252856D01*
X-15757885Y29478702D01*
X-15762571Y29749069D01*
X-15764702Y30078691D01*
X-15765079Y30362667D01*
X-15764333Y30744035D01*
X-15761590Y31055470D01*
X-15756095Y31311694D01*
X-15747093Y31527432D01*
X-15733828Y31717406D01*
X-15715544Y31896342D01*
X-15691486Y32078961D01*
X-15669490Y32225333D01*
X-15465474Y33290623D01*
X-15192164Y34308593D01*
X-14848499Y35282051D01*
X-14433416Y36213806D01*
X-13945853Y37106665D01*
X-13640839Y37590609D01*
X-13539648Y37735553D01*
X-13452454Y37845828D01*
X-13390934Y37907448D01*
X-13370223Y37914772D01*
X-13362708Y37866383D01*
G37*
X-13362708Y37866383D02*
X-13401663Y37781558D01*
X-13404187Y37777663D01*
X-13926080Y36932147D01*
X-14372206Y36098711D01*
X-14747578Y35264074D01*
X-15057208Y34414953D01*
X-15306110Y33538068D01*
X-15499295Y32620138D01*
X-15603502Y31950167D01*
X-15631677Y31680742D01*
X-15653550Y31348282D01*
X-15668967Y30972037D01*
X-15677776Y30571255D01*
X-15679824Y30165187D01*
X-15674960Y29773081D01*
X-15663029Y29414186D01*
X-15643881Y29107753D01*
X-15627327Y28944500D01*
X-15508523Y28159715D01*
X-15350195Y27385703D01*
X-15157003Y26640566D01*
X-14933605Y25942410D01*
X-14702116Y25349516D01*
X-14611439Y25138337D01*
X-14550381Y24991929D01*
X-14514773Y24897427D01*
X-14500447Y24841968D01*
X-14503234Y24812690D01*
X-14518966Y24796730D01*
X-14522294Y24794622D01*
X-14560316Y24815255D01*
X-14614179Y24895402D01*
X-14652198Y24973040D01*
X-14974775Y25771594D01*
X-15238773Y26559072D01*
X-15451913Y27362237D01*
X-15621918Y28207855D01*
X-15669748Y28500000D01*
X-15698517Y28695104D01*
X-15720961Y28875791D01*
X-15737834Y29056798D01*
X-15749891Y29252856D01*
X-15757885Y29478702D01*
X-15762571Y29749069D01*
X-15764702Y30078691D01*
X-15765079Y30362667D01*
X-15764333Y30744035D01*
X-15761590Y31055470D01*
X-15756095Y31311694D01*
X-15747093Y31527432D01*
X-15733828Y31717406D01*
X-15715544Y31896342D01*
X-15691486Y32078961D01*
X-15669490Y32225333D01*
X-15465474Y33290623D01*
X-15192164Y34308593D01*
X-14848499Y35282051D01*
X-14433416Y36213806D01*
X-13945853Y37106665D01*
X-13640839Y37590609D01*
X-13539648Y37735553D01*
X-13452454Y37845828D01*
X-13390934Y37907448D01*
X-13370223Y37914772D01*
X-13362708Y37866383D01*
G36*
X13465681Y37875222D02*
G01*
X13529955Y37794773D01*
X13621085Y37660777D01*
X13743500Y37467003D01*
X13901630Y37207219D01*
X13950267Y37126213D01*
X14455393Y36202143D01*
X14881813Y35249798D01*
X15229069Y34273229D01*
X15496707Y33276488D01*
X15684271Y32263627D01*
X15791307Y31238696D01*
X15817359Y30205748D01*
X15761971Y29168834D01*
X15624690Y28132004D01*
X15405058Y27099312D01*
X15169319Y26277500D01*
X15112956Y26109915D01*
X15041468Y25909536D01*
X14960378Y25690483D01*
X14875205Y25466875D01*
X14791470Y25252834D01*
X14714695Y25062479D01*
X14650400Y24909929D01*
X14604106Y24809306D01*
X14581719Y24774667D01*
X14550190Y24804159D01*
X14540764Y24818191D01*
X14545524Y24872822D01*
X14579466Y24986400D01*
X14636609Y25140853D01*
X14691366Y25273274D01*
X15004945Y26088497D01*
X15267402Y26956447D01*
X15474280Y27859201D01*
X15621118Y28778837D01*
X15666172Y29190763D01*
X15688025Y29518725D01*
X15699393Y29905428D01*
X15700831Y30329956D01*
X15692893Y30771397D01*
X15676135Y31208834D01*
X15651111Y31621355D01*
X15618376Y31988044D01*
X15585145Y32246500D01*
X15395165Y33254016D01*
X15143366Y34210502D01*
X14825636Y35126884D01*
X14437861Y36014089D01*
X13975928Y36883043D01*
X13621516Y37462619D01*
X13522483Y37624588D01*
X13447501Y37762917D01*
X13404886Y37861173D01*
X13399984Y37900402D01*
X13423834Y37908354D01*
X13465681Y37875222D01*
G37*
X13465681Y37875222D02*
X13529955Y37794773D01*
X13621085Y37660777D01*
X13743500Y37467003D01*
X13901630Y37207219D01*
X13950267Y37126213D01*
X14455393Y36202143D01*
X14881813Y35249798D01*
X15229069Y34273229D01*
X15496707Y33276488D01*
X15684271Y32263627D01*
X15791307Y31238696D01*
X15817359Y30205748D01*
X15761971Y29168834D01*
X15624690Y28132004D01*
X15405058Y27099312D01*
X15169319Y26277500D01*
X15112956Y26109915D01*
X15041468Y25909536D01*
X14960378Y25690483D01*
X14875205Y25466875D01*
X14791470Y25252834D01*
X14714695Y25062479D01*
X14650400Y24909929D01*
X14604106Y24809306D01*
X14581719Y24774667D01*
X14550190Y24804159D01*
X14540764Y24818191D01*
X14545524Y24872822D01*
X14579466Y24986400D01*
X14636609Y25140853D01*
X14691366Y25273274D01*
X15004945Y26088497D01*
X15267402Y26956447D01*
X15474280Y27859201D01*
X15621118Y28778837D01*
X15666172Y29190763D01*
X15688025Y29518725D01*
X15699393Y29905428D01*
X15700831Y30329956D01*
X15692893Y30771397D01*
X15676135Y31208834D01*
X15651111Y31621355D01*
X15618376Y31988044D01*
X15585145Y32246500D01*
X15395165Y33254016D01*
X15143366Y34210502D01*
X14825636Y35126884D01*
X14437861Y36014089D01*
X13975928Y36883043D01*
X13621516Y37462619D01*
X13522483Y37624588D01*
X13447501Y37762917D01*
X13404886Y37861173D01*
X13399984Y37900402D01*
X13423834Y37908354D01*
X13465681Y37875222D01*
G36*
X12731259Y37398534D02*
G01*
X12774066Y37355212D01*
X12836095Y37270275D01*
X12925208Y37133922D01*
X13049262Y36936351D01*
X13069916Y36903167D01*
X13579056Y36006937D01*
X14007494Y35085130D01*
X14355097Y34138181D01*
X14621734Y33166523D01*
X14807274Y32170592D01*
X14911586Y31150822D01*
X14930317Y30743667D01*
X14922330Y29719414D01*
X14834458Y28720323D01*
X14665667Y27740728D01*
X14414926Y26774961D01*
X14081202Y25817356D01*
X13993633Y25600167D01*
X13913113Y25408094D01*
X13855955Y25282351D01*
X13814369Y25210540D01*
X13780567Y25180261D01*
X13746762Y25179117D01*
X13732094Y25183816D01*
X13724179Y25230372D01*
X13755357Y25345541D01*
X13823995Y25523712D01*
X13846564Y25576858D01*
X14127351Y26302498D01*
X14370142Y27083265D01*
X14568313Y27895648D01*
X14697183Y28596393D01*
X14726797Y28798220D01*
X14749603Y28986633D01*
X14766443Y29177445D01*
X14778155Y29386468D01*
X14785578Y29629513D01*
X14789553Y29922394D01*
X14790918Y30280922D01*
X14790951Y30362667D01*
X14787007Y30863494D01*
X14773643Y31299599D01*
X14748566Y31690626D01*
X14709482Y32056218D01*
X14654096Y32416021D01*
X14580115Y32789677D01*
X14485245Y33196831D01*
X14437999Y33384978D01*
X14196440Y34199094D01*
X13889111Y35018384D01*
X13526568Y35818405D01*
X13119367Y36574711D01*
X12918878Y36902909D01*
X12784153Y37121909D01*
X12700092Y37276443D01*
X12665478Y37368954D01*
X12671875Y37399536D01*
X12699815Y37410041D01*
X12731259Y37398534D01*
G37*
X12731259Y37398534D02*
X12774066Y37355212D01*
X12836095Y37270275D01*
X12925208Y37133922D01*
X13049262Y36936351D01*
X13069916Y36903167D01*
X13579056Y36006937D01*
X14007494Y35085130D01*
X14355097Y34138181D01*
X14621734Y33166523D01*
X14807274Y32170592D01*
X14911586Y31150822D01*
X14930317Y30743667D01*
X14922330Y29719414D01*
X14834458Y28720323D01*
X14665667Y27740728D01*
X14414926Y26774961D01*
X14081202Y25817356D01*
X13993633Y25600167D01*
X13913113Y25408094D01*
X13855955Y25282351D01*
X13814369Y25210540D01*
X13780567Y25180261D01*
X13746762Y25179117D01*
X13732094Y25183816D01*
X13724179Y25230372D01*
X13755357Y25345541D01*
X13823995Y25523712D01*
X13846564Y25576858D01*
X14127351Y26302498D01*
X14370142Y27083265D01*
X14568313Y27895648D01*
X14697183Y28596393D01*
X14726797Y28798220D01*
X14749603Y28986633D01*
X14766443Y29177445D01*
X14778155Y29386468D01*
X14785578Y29629513D01*
X14789553Y29922394D01*
X14790918Y30280922D01*
X14790951Y30362667D01*
X14787007Y30863494D01*
X14773643Y31299599D01*
X14748566Y31690626D01*
X14709482Y32056218D01*
X14654096Y32416021D01*
X14580115Y32789677D01*
X14485245Y33196831D01*
X14437999Y33384978D01*
X14196440Y34199094D01*
X13889111Y35018384D01*
X13526568Y35818405D01*
X13119367Y36574711D01*
X12918878Y36902909D01*
X12784153Y37121909D01*
X12700092Y37276443D01*
X12665478Y37368954D01*
X12671875Y37399536D01*
X12699815Y37410041D01*
X12731259Y37398534D01*
G36*
X12007987Y36872895D02*
G01*
X12090472Y36783263D01*
X12197912Y36637306D01*
X12324395Y36444992D01*
X12464007Y36216291D01*
X12610837Y35961168D01*
X12758971Y35689593D01*
X12902496Y35411534D01*
X13035499Y35136957D01*
X13145050Y34892333D01*
X13481560Y34010373D01*
X13739082Y33122419D01*
X13919674Y32218271D01*
X14025391Y31287731D01*
X14058347Y30362667D01*
X14036627Y29559026D01*
X13968380Y28804644D01*
X13849461Y28077807D01*
X13675727Y27356801D01*
X13443032Y26619910D01*
X13240247Y26076417D01*
X13144122Y25841149D01*
X13068675Y25678675D01*
X13008739Y25581160D01*
X12959150Y25540774D01*
X12914742Y25549681D01*
X12900795Y25561650D01*
X12905253Y25609006D01*
X12938321Y25714538D01*
X12993687Y25859290D01*
X13024149Y25932067D01*
X13278176Y26591955D01*
X13500082Y27307718D01*
X13683022Y28054426D01*
X13820154Y28807148D01*
X13827921Y28859833D01*
X13862488Y29171726D01*
X13886860Y29546281D01*
X13901031Y29962106D01*
X13904996Y30397813D01*
X13898747Y30832011D01*
X13882280Y31243309D01*
X13855588Y31610319D01*
X13828763Y31844302D01*
X13652666Y32815315D01*
X13401260Y33754485D01*
X13076071Y34657639D01*
X12678627Y35520600D01*
X12210455Y36339195D01*
X12150079Y36433499D01*
X12047631Y36593634D01*
X11964908Y36726724D01*
X11911308Y36817396D01*
X11895667Y36849585D01*
X11928834Y36883112D01*
X11956370Y36896236D01*
X12007987Y36872895D01*
G37*
X12007987Y36872895D02*
X12090472Y36783263D01*
X12197912Y36637306D01*
X12324395Y36444992D01*
X12464007Y36216291D01*
X12610837Y35961168D01*
X12758971Y35689593D01*
X12902496Y35411534D01*
X13035499Y35136957D01*
X13145050Y34892333D01*
X13481560Y34010373D01*
X13739082Y33122419D01*
X13919674Y32218271D01*
X14025391Y31287731D01*
X14058347Y30362667D01*
X14036627Y29559026D01*
X13968380Y28804644D01*
X13849461Y28077807D01*
X13675727Y27356801D01*
X13443032Y26619910D01*
X13240247Y26076417D01*
X13144122Y25841149D01*
X13068675Y25678675D01*
X13008739Y25581160D01*
X12959150Y25540774D01*
X12914742Y25549681D01*
X12900795Y25561650D01*
X12905253Y25609006D01*
X12938321Y25714538D01*
X12993687Y25859290D01*
X13024149Y25932067D01*
X13278176Y26591955D01*
X13500082Y27307718D01*
X13683022Y28054426D01*
X13820154Y28807148D01*
X13827921Y28859833D01*
X13862488Y29171726D01*
X13886860Y29546281D01*
X13901031Y29962106D01*
X13904996Y30397813D01*
X13898747Y30832011D01*
X13882280Y31243309D01*
X13855588Y31610319D01*
X13828763Y31844302D01*
X13652666Y32815315D01*
X13401260Y33754485D01*
X13076071Y34657639D01*
X12678627Y35520600D01*
X12210455Y36339195D01*
X12150079Y36433499D01*
X12047631Y36593634D01*
X11964908Y36726724D01*
X11911308Y36817396D01*
X11895667Y36849585D01*
X11928834Y36883112D01*
X11956370Y36896236D01*
X12007987Y36872895D01*
G36*
X11282416Y36402417D02*
G01*
X11340055Y36357637D01*
X11416723Y36260772D01*
X11521383Y36103395D01*
X11594174Y35987913D01*
X12058347Y35170604D01*
X12442480Y34332536D01*
X12748668Y33467705D01*
X12979000Y32570106D01*
X13135570Y31633737D01*
X13148529Y31526833D01*
X13178716Y31173420D01*
X13195455Y30763912D01*
X13199149Y30322617D01*
X13190201Y29873842D01*
X13169016Y29441895D01*
X13135997Y29051084D01*
X13103205Y28796333D01*
X12999763Y28237782D01*
X12862806Y27664944D01*
X12699576Y27102902D01*
X12517320Y26576736D01*
X12335215Y26137464D01*
X12269031Y25998570D01*
X12223146Y25924955D01*
X12185448Y25903683D01*
X12143825Y25921815D01*
X12137567Y25926339D01*
X12109248Y25953350D01*
X12097188Y25991004D01*
X12104529Y26052773D01*
X12134414Y26152128D01*
X12189986Y26302542D01*
X12274390Y26517485D01*
X12277079Y26524261D01*
X12538446Y27268033D01*
X12752766Y28058062D01*
X12876251Y28655231D01*
X12906253Y28830976D01*
X12929475Y28992694D01*
X12946761Y29155157D01*
X12958955Y29333139D01*
X12966899Y29541413D01*
X12971436Y29794753D01*
X12973411Y30107930D01*
X12973720Y30362667D01*
X12973007Y30724984D01*
X12970304Y31017414D01*
X12964769Y31254732D01*
X12955557Y31451711D01*
X12941827Y31623122D01*
X12922734Y31783740D01*
X12897435Y31948337D01*
X12876251Y32070102D01*
X12669585Y33001388D01*
X12391143Y33894836D01*
X12042605Y34746086D01*
X11625653Y35550778D01*
X11377644Y35956682D01*
X11264800Y36138756D01*
X11199743Y36263121D01*
X11178288Y36338907D01*
X11188365Y36369432D01*
X11234840Y36403539D01*
X11282416Y36402417D01*
G37*
X11282416Y36402417D02*
X11340055Y36357637D01*
X11416723Y36260772D01*
X11521383Y36103395D01*
X11594174Y35987913D01*
X12058347Y35170604D01*
X12442480Y34332536D01*
X12748668Y33467705D01*
X12979000Y32570106D01*
X13135570Y31633737D01*
X13148529Y31526833D01*
X13178716Y31173420D01*
X13195455Y30763912D01*
X13199149Y30322617D01*
X13190201Y29873842D01*
X13169016Y29441895D01*
X13135997Y29051084D01*
X13103205Y28796333D01*
X12999763Y28237782D01*
X12862806Y27664944D01*
X12699576Y27102902D01*
X12517320Y26576736D01*
X12335215Y26137464D01*
X12269031Y25998570D01*
X12223146Y25924955D01*
X12185448Y25903683D01*
X12143825Y25921815D01*
X12137567Y25926339D01*
X12109248Y25953350D01*
X12097188Y25991004D01*
X12104529Y26052773D01*
X12134414Y26152128D01*
X12189986Y26302542D01*
X12274390Y26517485D01*
X12277079Y26524261D01*
X12538446Y27268033D01*
X12752766Y28058062D01*
X12876251Y28655231D01*
X12906253Y28830976D01*
X12929475Y28992694D01*
X12946761Y29155157D01*
X12958955Y29333139D01*
X12966899Y29541413D01*
X12971436Y29794753D01*
X12973411Y30107930D01*
X12973720Y30362667D01*
X12973007Y30724984D01*
X12970304Y31017414D01*
X12964769Y31254732D01*
X12955557Y31451711D01*
X12941827Y31623122D01*
X12922734Y31783740D01*
X12897435Y31948337D01*
X12876251Y32070102D01*
X12669585Y33001388D01*
X12391143Y33894836D01*
X12042605Y34746086D01*
X11625653Y35550778D01*
X11377644Y35956682D01*
X11264800Y36138756D01*
X11199743Y36263121D01*
X11178288Y36338907D01*
X11188365Y36369432D01*
X11234840Y36403539D01*
X11282416Y36402417D01*
G36*
X-11165776Y36371672D02*
G01*
X-11133667Y36328594D01*
X-11155421Y36279630D01*
X-11213975Y36177256D01*
X-11299266Y36038578D01*
X-11361373Y35941540D01*
X-11817481Y35162350D01*
X-12199383Y34347581D01*
X-12506578Y33503320D01*
X-12738567Y32635653D01*
X-12894847Y31750668D01*
X-12974920Y30854450D01*
X-12978283Y29953086D01*
X-12904437Y29052663D01*
X-12752880Y28159268D01*
X-12523113Y27278986D01*
X-12214635Y26417904D01*
X-12156181Y26278200D01*
X-12087637Y26108977D01*
X-12056781Y26001921D01*
X-12063305Y25943536D01*
X-12106901Y25920328D01*
X-12147931Y25917667D01*
X-12197557Y25941068D01*
X-12254510Y26018257D01*
X-12325431Y26159709D01*
X-12377380Y26279616D01*
X-12627828Y26951086D01*
X-12841358Y27673640D01*
X-13010599Y28419013D01*
X-13127836Y29156167D01*
X-13155332Y29460960D01*
X-13172338Y29825940D01*
X-13179047Y30227304D01*
X-13175649Y30641248D01*
X-13162338Y31043971D01*
X-13139305Y31411668D01*
X-13107184Y31717302D01*
X-12952383Y32604971D01*
X-12734364Y33447446D01*
X-12448163Y34260972D01*
X-12088817Y35061794D01*
X-12080055Y35079385D01*
X-11980785Y35271490D01*
X-11865763Y35483269D01*
X-11743116Y35700963D01*
X-11620968Y35910813D01*
X-11507444Y36099058D01*
X-11410669Y36251940D01*
X-11338768Y36355700D01*
X-11303142Y36395079D01*
X-11237773Y36400559D01*
X-11165776Y36371672D01*
G37*
X-11165776Y36371672D02*
X-11133667Y36328594D01*
X-11155421Y36279630D01*
X-11213975Y36177256D01*
X-11299266Y36038578D01*
X-11361373Y35941540D01*
X-11817481Y35162350D01*
X-12199383Y34347581D01*
X-12506578Y33503320D01*
X-12738567Y32635653D01*
X-12894847Y31750668D01*
X-12974920Y30854450D01*
X-12978283Y29953086D01*
X-12904437Y29052663D01*
X-12752880Y28159268D01*
X-12523113Y27278986D01*
X-12214635Y26417904D01*
X-12156181Y26278200D01*
X-12087637Y26108977D01*
X-12056781Y26001921D01*
X-12063305Y25943536D01*
X-12106901Y25920328D01*
X-12147931Y25917667D01*
X-12197557Y25941068D01*
X-12254510Y26018257D01*
X-12325431Y26159709D01*
X-12377380Y26279616D01*
X-12627828Y26951086D01*
X-12841358Y27673640D01*
X-13010599Y28419013D01*
X-13127836Y29156167D01*
X-13155332Y29460960D01*
X-13172338Y29825940D01*
X-13179047Y30227304D01*
X-13175649Y30641248D01*
X-13162338Y31043971D01*
X-13139305Y31411668D01*
X-13107184Y31717302D01*
X-12952383Y32604971D01*
X-12734364Y33447446D01*
X-12448163Y34260972D01*
X-12088817Y35061794D01*
X-12080055Y35079385D01*
X-11980785Y35271490D01*
X-11865763Y35483269D01*
X-11743116Y35700963D01*
X-11620968Y35910813D01*
X-11507444Y36099058D01*
X-11410669Y36251940D01*
X-11338768Y36355700D01*
X-11303142Y36395079D01*
X-11237773Y36400559D01*
X-11165776Y36371672D01*
G36*
X-10502281Y35898899D02*
G01*
X-10472835Y35880218D01*
X-10404122Y35828231D01*
X-10396462Y35780334D01*
X-10441920Y35701612D01*
X-10873954Y34989424D01*
X-11231869Y34280600D01*
X-11523545Y33557429D01*
X-11756863Y32802202D01*
X-11791169Y32669833D01*
X-11929657Y32025830D01*
X-12018241Y31378878D01*
X-12060321Y30700314D01*
X-12065000Y30360951D01*
X-12036764Y29559261D01*
X-11949468Y28801640D01*
X-11799228Y28067937D01*
X-11582159Y27338002D01*
X-11376566Y26789281D01*
X-11302049Y26602937D01*
X-11257135Y26478983D01*
X-11238767Y26401695D01*
X-11243887Y26355348D01*
X-11269440Y26324218D01*
X-11283977Y26313031D01*
X-11353460Y26270319D01*
X-11405415Y26270840D01*
X-11454467Y26325241D01*
X-11515245Y26444168D01*
X-11540530Y26499750D01*
X-11627616Y26711949D01*
X-11726345Y26982536D01*
X-11829005Y27287476D01*
X-11927882Y27602733D01*
X-12015262Y27904273D01*
X-12083433Y28168060D01*
X-12101468Y28247673D01*
X-12244820Y29103279D01*
X-12313794Y29982869D01*
X-12308388Y30869970D01*
X-12228602Y31748112D01*
X-12101770Y32477661D01*
X-11966101Y33006289D01*
X-11782243Y33567738D01*
X-11560298Y34137629D01*
X-11310365Y34691584D01*
X-11042544Y35205226D01*
X-10816858Y35578939D01*
X-10708859Y35743372D01*
X-10635234Y35847221D01*
X-10584152Y35900851D01*
X-10543778Y35914622D01*
X-10502281Y35898899D01*
G37*
X-10502281Y35898899D02*
X-10472835Y35880218D01*
X-10404122Y35828231D01*
X-10396462Y35780334D01*
X-10441920Y35701612D01*
X-10873954Y34989424D01*
X-11231869Y34280600D01*
X-11523545Y33557429D01*
X-11756863Y32802202D01*
X-11791169Y32669833D01*
X-11929657Y32025830D01*
X-12018241Y31378878D01*
X-12060321Y30700314D01*
X-12065000Y30360951D01*
X-12036764Y29559261D01*
X-11949468Y28801640D01*
X-11799228Y28067937D01*
X-11582159Y27338002D01*
X-11376566Y26789281D01*
X-11302049Y26602937D01*
X-11257135Y26478983D01*
X-11238767Y26401695D01*
X-11243887Y26355348D01*
X-11269440Y26324218D01*
X-11283977Y26313031D01*
X-11353460Y26270319D01*
X-11405415Y26270840D01*
X-11454467Y26325241D01*
X-11515245Y26444168D01*
X-11540530Y26499750D01*
X-11627616Y26711949D01*
X-11726345Y26982536D01*
X-11829005Y27287476D01*
X-11927882Y27602733D01*
X-12015262Y27904273D01*
X-12083433Y28168060D01*
X-12101468Y28247673D01*
X-12244820Y29103279D01*
X-12313794Y29982869D01*
X-12308388Y30869970D01*
X-12228602Y31748112D01*
X-12101770Y32477661D01*
X-11966101Y33006289D01*
X-11782243Y33567738D01*
X-11560298Y34137629D01*
X-11310365Y34691584D01*
X-11042544Y35205226D01*
X-10816858Y35578939D01*
X-10708859Y35743372D01*
X-10635234Y35847221D01*
X-10584152Y35900851D01*
X-10543778Y35914622D01*
X-10502281Y35898899D01*
G36*
X10800994Y35640484D02*
G01*
X11251364Y34864742D01*
X11625378Y34056966D01*
X11922462Y33222873D01*
X12142044Y32368184D01*
X12283550Y31498616D01*
X12346408Y30619888D01*
X12330045Y29737719D01*
X12233888Y28857827D01*
X12057363Y27985931D01*
X11799899Y27127749D01*
X11684947Y26817250D01*
X11604927Y26616911D01*
X11533908Y26448407D01*
X11478097Y26325774D01*
X11443699Y26263047D01*
X11437595Y26257834D01*
X11382171Y26278047D01*
X11319446Y26310750D01*
X11283910Y26334123D01*
X11265259Y26363995D01*
X11266346Y26414246D01*
X11290023Y26498757D01*
X11339143Y26631406D01*
X11416557Y26826073D01*
X11434549Y26870840D01*
X11594306Y27311435D01*
X11743780Y27806046D01*
X11874756Y28324048D01*
X11979020Y28834818D01*
X12008197Y29009509D01*
X12046003Y29329593D01*
X12071317Y29709927D01*
X12084147Y30127021D01*
X12084500Y30557385D01*
X12072384Y30977531D01*
X12047805Y31363968D01*
X12010772Y31693208D01*
X12007356Y31715824D01*
X11828502Y32610842D01*
X11574088Y33471984D01*
X11245416Y34295753D01*
X10843789Y35078653D01*
X10613628Y35457422D01*
X10398240Y35793192D01*
X10498234Y35874162D01*
X10598227Y35955132D01*
X10800994Y35640484D01*
G37*
X10800994Y35640484D02*
X11251364Y34864742D01*
X11625378Y34056966D01*
X11922462Y33222873D01*
X12142044Y32368184D01*
X12283550Y31498616D01*
X12346408Y30619888D01*
X12330045Y29737719D01*
X12233888Y28857827D01*
X12057363Y27985931D01*
X11799899Y27127749D01*
X11684947Y26817250D01*
X11604927Y26616911D01*
X11533908Y26448407D01*
X11478097Y26325774D01*
X11443699Y26263047D01*
X11437595Y26257834D01*
X11382171Y26278047D01*
X11319446Y26310750D01*
X11283910Y26334123D01*
X11265259Y26363995D01*
X11266346Y26414246D01*
X11290023Y26498757D01*
X11339143Y26631406D01*
X11416557Y26826073D01*
X11434549Y26870840D01*
X11594306Y27311435D01*
X11743780Y27806046D01*
X11874756Y28324048D01*
X11979020Y28834818D01*
X12008197Y29009509D01*
X12046003Y29329593D01*
X12071317Y29709927D01*
X12084147Y30127021D01*
X12084500Y30557385D01*
X12072384Y30977531D01*
X12047805Y31363968D01*
X12010772Y31693208D01*
X12007356Y31715824D01*
X11828502Y32610842D01*
X11574088Y33471984D01*
X11245416Y34295753D01*
X10843789Y35078653D01*
X10613628Y35457422D01*
X10398240Y35793192D01*
X10498234Y35874162D01*
X10598227Y35955132D01*
X10800994Y35640484D01*
G36*
X-9819005Y35417787D02*
G01*
X-9739670Y35361250D01*
X-9736667Y35358934D01*
X-9666894Y35295891D01*
X-9658947Y35242731D01*
X-9692856Y35179958D01*
X-10087898Y34517741D01*
X-10412778Y33873982D01*
X-10674261Y33231774D01*
X-10879110Y32574210D01*
X-11034091Y31884382D01*
X-11052797Y31780833D01*
X-11111472Y31343281D01*
X-11146346Y30853215D01*
X-11157411Y30337839D01*
X-11144660Y29824352D01*
X-11108086Y29339957D01*
X-11053587Y28944500D01*
X-10959016Y28485194D01*
X-10838365Y28016930D01*
X-10699985Y27568637D01*
X-10552228Y27169247D01*
X-10516885Y27085241D01*
X-10452868Y26933719D01*
X-10405891Y26815786D01*
X-10383084Y26749644D01*
X-10382371Y26741725D01*
X-10448766Y26702955D01*
X-10539524Y26661935D01*
X-10610280Y26638266D01*
X-10618650Y26637333D01*
X-10651641Y26673830D01*
X-10706686Y26771869D01*
X-10774664Y26914273D01*
X-10815300Y27007750D01*
X-10948724Y27358238D01*
X-11080215Y27764530D01*
X-11201531Y28197999D01*
X-11304429Y28630018D01*
X-11354702Y28881000D01*
X-11385297Y29061296D01*
X-11408251Y29234972D01*
X-11424578Y29418787D01*
X-11435287Y29629500D01*
X-11441390Y29883872D01*
X-11443900Y30198661D01*
X-11444126Y30362667D01*
X-11442891Y30709752D01*
X-11438513Y30988956D01*
X-11429980Y31217040D01*
X-11416280Y31410762D01*
X-11396401Y31586883D01*
X-11369334Y31762161D01*
X-11354702Y31844333D01*
X-11238243Y32382350D01*
X-11086999Y32930388D01*
X-10908553Y33466175D01*
X-10710484Y33967438D01*
X-10500375Y34411903D01*
X-10446966Y34511333D01*
X-10354631Y34673920D01*
X-10249809Y34851335D01*
X-10141794Y35028742D01*
X-10039878Y35191302D01*
X-9953354Y35324175D01*
X-9891514Y35412525D01*
X-9864303Y35441726D01*
X-9819005Y35417787D01*
G37*
X-9819005Y35417787D02*
X-9739670Y35361250D01*
X-9736667Y35358934D01*
X-9666894Y35295891D01*
X-9658947Y35242731D01*
X-9692856Y35179958D01*
X-10087898Y34517741D01*
X-10412778Y33873982D01*
X-10674261Y33231774D01*
X-10879110Y32574210D01*
X-11034091Y31884382D01*
X-11052797Y31780833D01*
X-11111472Y31343281D01*
X-11146346Y30853215D01*
X-11157411Y30337839D01*
X-11144660Y29824352D01*
X-11108086Y29339957D01*
X-11053587Y28944500D01*
X-10959016Y28485194D01*
X-10838365Y28016930D01*
X-10699985Y27568637D01*
X-10552228Y27169247D01*
X-10516885Y27085241D01*
X-10452868Y26933719D01*
X-10405891Y26815786D01*
X-10383084Y26749644D01*
X-10382371Y26741725D01*
X-10448766Y26702955D01*
X-10539524Y26661935D01*
X-10610280Y26638266D01*
X-10618650Y26637333D01*
X-10651641Y26673830D01*
X-10706686Y26771869D01*
X-10774664Y26914273D01*
X-10815300Y27007750D01*
X-10948724Y27358238D01*
X-11080215Y27764530D01*
X-11201531Y28197999D01*
X-11304429Y28630018D01*
X-11354702Y28881000D01*
X-11385297Y29061296D01*
X-11408251Y29234972D01*
X-11424578Y29418787D01*
X-11435287Y29629500D01*
X-11441390Y29883872D01*
X-11443900Y30198661D01*
X-11444126Y30362667D01*
X-11442891Y30709752D01*
X-11438513Y30988956D01*
X-11429980Y31217040D01*
X-11416280Y31410762D01*
X-11396401Y31586883D01*
X-11369334Y31762161D01*
X-11354702Y31844333D01*
X-11238243Y32382350D01*
X-11086999Y32930388D01*
X-10908553Y33466175D01*
X-10710484Y33967438D01*
X-10500375Y34411903D01*
X-10446966Y34511333D01*
X-10354631Y34673920D01*
X-10249809Y34851335D01*
X-10141794Y35028742D01*
X-10039878Y35191302D01*
X-9953354Y35324175D01*
X-9891514Y35412525D01*
X-9864303Y35441726D01*
X-9819005Y35417787D01*
G36*
X9921815Y35386660D02*
G01*
X9985981Y35311529D01*
X10078160Y35176749D01*
X10103993Y35136970D01*
X10507100Y34436958D01*
X10845031Y33690575D01*
X11115058Y32908622D01*
X11314454Y32101902D01*
X11440490Y31281216D01*
X11490440Y30457366D01*
X11468856Y29732452D01*
X11409006Y29181790D01*
X11312305Y28615121D01*
X11184235Y28055402D01*
X11030281Y27525587D01*
X10855926Y27048632D01*
X10792670Y26901917D01*
X10725135Y26757345D01*
X10675080Y26677535D01*
X10626069Y26649675D01*
X10561664Y26660950D01*
X10509250Y26680986D01*
X10436220Y26719786D01*
X10414000Y26745523D01*
X10428697Y26792930D01*
X10468719Y26902630D01*
X10527958Y27058301D01*
X10600309Y27243620D01*
X10600580Y27244304D01*
X10861168Y28007023D01*
X11056622Y28812922D01*
X11077779Y28923333D01*
X11109051Y29150837D01*
X11132639Y29443425D01*
X11148540Y29782706D01*
X11156751Y30150290D01*
X11157270Y30527786D01*
X11150096Y30896802D01*
X11135226Y31238947D01*
X11112658Y31535831D01*
X11082390Y31769063D01*
X11078116Y31792554D01*
X10877692Y32648833D01*
X10610391Y33457997D01*
X10277344Y34217129D01*
X9879684Y34923312D01*
X9838523Y34987638D01*
X9744319Y35135789D01*
X9695270Y35231514D01*
X9691050Y35293804D01*
X9731335Y35341646D01*
X9815799Y35394032D01*
X9831412Y35402971D01*
X9874135Y35413391D01*
X9921815Y35386660D01*
G37*
X9921815Y35386660D02*
X9985981Y35311529D01*
X10078160Y35176749D01*
X10103993Y35136970D01*
X10507100Y34436958D01*
X10845031Y33690575D01*
X11115058Y32908622D01*
X11314454Y32101902D01*
X11440490Y31281216D01*
X11490440Y30457366D01*
X11468856Y29732452D01*
X11409006Y29181790D01*
X11312305Y28615121D01*
X11184235Y28055402D01*
X11030281Y27525587D01*
X10855926Y27048632D01*
X10792670Y26901917D01*
X10725135Y26757345D01*
X10675080Y26677535D01*
X10626069Y26649675D01*
X10561664Y26660950D01*
X10509250Y26680986D01*
X10436220Y26719786D01*
X10414000Y26745523D01*
X10428697Y26792930D01*
X10468719Y26902630D01*
X10527958Y27058301D01*
X10600309Y27243620D01*
X10600580Y27244304D01*
X10861168Y28007023D01*
X11056622Y28812922D01*
X11077779Y28923333D01*
X11109051Y29150837D01*
X11132639Y29443425D01*
X11148540Y29782706D01*
X11156751Y30150290D01*
X11157270Y30527786D01*
X11150096Y30896802D01*
X11135226Y31238947D01*
X11112658Y31535831D01*
X11082390Y31769063D01*
X11078116Y31792554D01*
X10877692Y32648833D01*
X10610391Y33457997D01*
X10277344Y34217129D01*
X9879684Y34923312D01*
X9838523Y34987638D01*
X9744319Y35135789D01*
X9695270Y35231514D01*
X9691050Y35293804D01*
X9731335Y35341646D01*
X9815799Y35394032D01*
X9831412Y35402971D01*
X9874135Y35413391D01*
X9921815Y35386660D01*
G36*
X-9057596Y34891096D02*
G01*
X-8969068Y34822679D01*
X-8915019Y34771040D01*
X-8912234Y34767060D01*
X-8923546Y34717740D01*
X-8972336Y34614672D01*
X-9049913Y34475076D01*
X-9108836Y34377447D01*
X-9485614Y33691105D01*
X-9790002Y32963036D01*
X-10020374Y32197994D01*
X-10175109Y31400730D01*
X-10205278Y31167000D01*
X-10229179Y30850039D01*
X-10237102Y30478053D01*
X-10229953Y30078985D01*
X-10208640Y29680775D01*
X-10174068Y29311366D01*
X-10136601Y29050333D01*
X-10079661Y28772710D01*
X-10001669Y28459139D01*
X-9910345Y28136143D01*
X-9813405Y27830241D01*
X-9718570Y27567955D01*
X-9673871Y27460364D01*
X-9617450Y27323977D01*
X-9578827Y27213764D01*
X-9567333Y27161801D01*
X-9601043Y27119940D01*
X-9681401Y27063161D01*
X-9777254Y27009940D01*
X-9857448Y26978751D01*
X-9879420Y26976723D01*
X-9897514Y27012464D01*
X-9938720Y27104174D01*
X-9979892Y27198973D01*
X-10116816Y27551379D01*
X-10249620Y27954776D01*
X-10367835Y28375726D01*
X-10431802Y28642509D01*
X-10569351Y29454530D01*
X-10623187Y30266774D01*
X-10594117Y31074517D01*
X-10482950Y31873033D01*
X-10290494Y32657598D01*
X-10017558Y33423487D01*
X-9664949Y34165974D01*
X-9412060Y34603796D01*
X-9180298Y34978468D01*
X-9057596Y34891096D01*
G37*
X-9057596Y34891096D02*
X-8969068Y34822679D01*
X-8915019Y34771040D01*
X-8912234Y34767060D01*
X-8923546Y34717740D01*
X-8972336Y34614672D01*
X-9049913Y34475076D01*
X-9108836Y34377447D01*
X-9485614Y33691105D01*
X-9790002Y32963036D01*
X-10020374Y32197994D01*
X-10175109Y31400730D01*
X-10205278Y31167000D01*
X-10229179Y30850039D01*
X-10237102Y30478053D01*
X-10229953Y30078985D01*
X-10208640Y29680775D01*
X-10174068Y29311366D01*
X-10136601Y29050333D01*
X-10079661Y28772710D01*
X-10001669Y28459139D01*
X-9910345Y28136143D01*
X-9813405Y27830241D01*
X-9718570Y27567955D01*
X-9673871Y27460364D01*
X-9617450Y27323977D01*
X-9578827Y27213764D01*
X-9567333Y27161801D01*
X-9601043Y27119940D01*
X-9681401Y27063161D01*
X-9777254Y27009940D01*
X-9857448Y26978751D01*
X-9879420Y26976723D01*
X-9897514Y27012464D01*
X-9938720Y27104174D01*
X-9979892Y27198973D01*
X-10116816Y27551379D01*
X-10249620Y27954776D01*
X-10367835Y28375726D01*
X-10431802Y28642509D01*
X-10569351Y29454530D01*
X-10623187Y30266774D01*
X-10594117Y31074517D01*
X-10482950Y31873033D01*
X-10290494Y32657598D01*
X-10017558Y33423487D01*
X-9664949Y34165974D01*
X-9412060Y34603796D01*
X-9180298Y34978468D01*
X-9057596Y34891096D01*
G36*
X9222042Y34898071D02*
G01*
X9302142Y34798580D01*
X9404914Y34646323D01*
X9523102Y34452951D01*
X9649455Y34230114D01*
X9776718Y33989463D01*
X9846647Y33849276D01*
X10159164Y33112467D01*
X10394294Y32347303D01*
X10551424Y31561129D01*
X10629939Y30761289D01*
X10629224Y29955128D01*
X10548666Y29149992D01*
X10387650Y28353226D01*
X10325544Y28123819D01*
X10257728Y27901774D01*
X10181289Y27675037D01*
X10102069Y27458458D01*
X10025907Y27266889D01*
X9958647Y27115178D01*
X9906130Y27018177D01*
X9879610Y26990166D01*
X9820113Y27001095D01*
X9725047Y27041906D01*
X9715500Y27046881D01*
X9626501Y27094976D01*
X9578141Y27122894D01*
X9576571Y27124042D01*
X9586026Y27164826D01*
X9621334Y27265862D01*
X9676019Y27409147D01*
X9708348Y27490374D01*
X9965433Y28239888D01*
X10143071Y29011056D01*
X10241006Y29795882D01*
X10258983Y30586373D01*
X10196746Y31374532D01*
X10054040Y32152364D01*
X9877195Y32775667D01*
X9748171Y33125954D01*
X9586932Y33503240D01*
X9407207Y33878497D01*
X9222723Y34222697D01*
X9086370Y34447833D01*
X8894237Y34744167D01*
X9008535Y34837894D01*
X9099081Y34901836D01*
X9167366Y34932690D01*
X9171865Y34933144D01*
X9222042Y34898071D01*
G37*
X9222042Y34898071D02*
X9302142Y34798580D01*
X9404914Y34646323D01*
X9523102Y34452951D01*
X9649455Y34230114D01*
X9776718Y33989463D01*
X9846647Y33849276D01*
X10159164Y33112467D01*
X10394294Y32347303D01*
X10551424Y31561129D01*
X10629939Y30761289D01*
X10629224Y29955128D01*
X10548666Y29149992D01*
X10387650Y28353226D01*
X10325544Y28123819D01*
X10257728Y27901774D01*
X10181289Y27675037D01*
X10102069Y27458458D01*
X10025907Y27266889D01*
X9958647Y27115178D01*
X9906130Y27018177D01*
X9879610Y26990166D01*
X9820113Y27001095D01*
X9725047Y27041906D01*
X9715500Y27046881D01*
X9626501Y27094976D01*
X9578141Y27122894D01*
X9576571Y27124042D01*
X9586026Y27164826D01*
X9621334Y27265862D01*
X9676019Y27409147D01*
X9708348Y27490374D01*
X9965433Y28239888D01*
X10143071Y29011056D01*
X10241006Y29795882D01*
X10258983Y30586373D01*
X10196746Y31374532D01*
X10054040Y32152364D01*
X9877195Y32775667D01*
X9748171Y33125954D01*
X9586932Y33503240D01*
X9407207Y33878497D01*
X9222723Y34222697D01*
X9086370Y34447833D01*
X8894237Y34744167D01*
X9008535Y34837894D01*
X9099081Y34901836D01*
X9167366Y34932690D01*
X9171865Y34933144D01*
X9222042Y34898071D01*
G36*
X-8443904Y34446722D02*
G01*
X-8347982Y34389597D01*
X-8275553Y34341578D01*
X-8090350Y34214155D01*
X-8307020Y33865328D01*
X-8655980Y33224276D01*
X-8930413Y32548550D01*
X-9128980Y31846041D01*
X-9250343Y31124641D01*
X-9293163Y30392241D01*
X-9256102Y29656732D01*
X-9141733Y28943941D01*
X-9065534Y28635167D01*
X-8967503Y28300660D01*
X-8858933Y27976317D01*
X-8751119Y27698039D01*
X-8746054Y27686219D01*
X-8678146Y27528605D01*
X-8804953Y27463031D01*
X-8961016Y27384920D01*
X-9061810Y27349723D01*
X-9127018Y27360977D01*
X-9176325Y27422219D01*
X-9229414Y27536989D01*
X-9230505Y27539521D01*
X-9483340Y28229878D01*
X-9661515Y28947976D01*
X-9765278Y29684121D01*
X-9794875Y30428623D01*
X-9750553Y31171789D01*
X-9632558Y31903927D01*
X-9441136Y32615346D01*
X-9176535Y33296354D01*
X-9078858Y33501441D01*
X-8961754Y33728875D01*
X-8843065Y33946389D01*
X-8730334Y34141456D01*
X-8631102Y34301550D01*
X-8552913Y34414142D01*
X-8503307Y34466706D01*
X-8496305Y34469000D01*
X-8443904Y34446722D01*
G37*
X-8443904Y34446722D02*
X-8347982Y34389597D01*
X-8275553Y34341578D01*
X-8090350Y34214155D01*
X-8307020Y33865328D01*
X-8655980Y33224276D01*
X-8930413Y32548550D01*
X-9128980Y31846041D01*
X-9250343Y31124641D01*
X-9293163Y30392241D01*
X-9256102Y29656732D01*
X-9141733Y28943941D01*
X-9065534Y28635167D01*
X-8967503Y28300660D01*
X-8858933Y27976317D01*
X-8751119Y27698039D01*
X-8746054Y27686219D01*
X-8678146Y27528605D01*
X-8804953Y27463031D01*
X-8961016Y27384920D01*
X-9061810Y27349723D01*
X-9127018Y27360977D01*
X-9176325Y27422219D01*
X-9229414Y27536989D01*
X-9230505Y27539521D01*
X-9483340Y28229878D01*
X-9661515Y28947976D01*
X-9765278Y29684121D01*
X-9794875Y30428623D01*
X-9750553Y31171789D01*
X-9632558Y31903927D01*
X-9441136Y32615346D01*
X-9176535Y33296354D01*
X-9078858Y33501441D01*
X-8961754Y33728875D01*
X-8843065Y33946389D01*
X-8730334Y34141456D01*
X-8631102Y34301550D01*
X-8552913Y34414142D01*
X-8503307Y34466706D01*
X-8496305Y34469000D01*
X-8443904Y34446722D01*
G36*
X8551315Y34433999D02*
G01*
X8622610Y34338757D01*
X8715120Y34197921D01*
X8819697Y34026136D01*
X8927198Y33838047D01*
X9028475Y33648299D01*
X9052326Y33601167D01*
X9347050Y32941474D01*
X9565873Y32287923D01*
X9713725Y31621455D01*
X9795533Y30923011D01*
X9809192Y30674540D01*
X9809075Y30009031D01*
X9750330Y29373565D01*
X9629355Y28733840D01*
X9587500Y28563500D01*
X9521942Y28325190D01*
X9447302Y28081785D01*
X9369272Y27849165D01*
X9293541Y27643211D01*
X9225800Y27479803D01*
X9171741Y27374821D01*
X9152728Y27350228D01*
X9101602Y27352007D01*
X9002249Y27387050D01*
X8921750Y27424861D01*
X8809618Y27486746D01*
X8736623Y27535464D01*
X8720667Y27553646D01*
X8735434Y27601746D01*
X8775052Y27709491D01*
X8832494Y27858092D01*
X8867654Y27946719D01*
X9084178Y28597420D01*
X9227936Y29276713D01*
X9299847Y29974036D01*
X9300829Y30678828D01*
X9231802Y31380529D01*
X9093684Y32068577D01*
X8887394Y32732412D01*
X8613849Y33361471D01*
X8357042Y33816979D01*
X8261340Y33970918D01*
X8185264Y34096150D01*
X8138361Y34176785D01*
X8128000Y34198135D01*
X8159529Y34231783D01*
X8237376Y34293097D01*
X8336426Y34364289D01*
X8431569Y34427569D01*
X8497689Y34465149D01*
X8510379Y34469000D01*
X8551315Y34433999D01*
G37*
X8551315Y34433999D02*
X8622610Y34338757D01*
X8715120Y34197921D01*
X8819697Y34026136D01*
X8927198Y33838047D01*
X9028475Y33648299D01*
X9052326Y33601167D01*
X9347050Y32941474D01*
X9565873Y32287923D01*
X9713725Y31621455D01*
X9795533Y30923011D01*
X9809192Y30674540D01*
X9809075Y30009031D01*
X9750330Y29373565D01*
X9629355Y28733840D01*
X9587500Y28563500D01*
X9521942Y28325190D01*
X9447302Y28081785D01*
X9369272Y27849165D01*
X9293541Y27643211D01*
X9225800Y27479803D01*
X9171741Y27374821D01*
X9152728Y27350228D01*
X9101602Y27352007D01*
X9002249Y27387050D01*
X8921750Y27424861D01*
X8809618Y27486746D01*
X8736623Y27535464D01*
X8720667Y27553646D01*
X8735434Y27601746D01*
X8775052Y27709491D01*
X8832494Y27858092D01*
X8867654Y27946719D01*
X9084178Y28597420D01*
X9227936Y29276713D01*
X9299847Y29974036D01*
X9300829Y30678828D01*
X9231802Y31380529D01*
X9093684Y32068577D01*
X8887394Y32732412D01*
X8613849Y33361471D01*
X8357042Y33816979D01*
X8261340Y33970918D01*
X8185264Y34096150D01*
X8138361Y34176785D01*
X8128000Y34198135D01*
X8159529Y34231783D01*
X8237376Y34293097D01*
X8336426Y34364289D01*
X8431569Y34427569D01*
X8497689Y34465149D01*
X8510379Y34469000D01*
X8551315Y34433999D01*
G36*
X-7772974Y33980669D02*
G01*
X-7677096Y33921534D01*
X-7567181Y33847062D01*
X-7450521Y33765114D01*
X-7364841Y33705012D01*
X-7330466Y33681000D01*
X-7344550Y33643190D01*
X-7394265Y33549947D01*
X-7470579Y33417763D01*
X-7517324Y33339855D01*
X-7814523Y32790697D01*
X-8040004Y32234733D01*
X-8198308Y31656422D01*
X-8293973Y31040222D01*
X-8326390Y30570440D01*
X-8334220Y30247010D01*
X-8329712Y29958436D01*
X-8309972Y29689059D01*
X-8272105Y29423221D01*
X-8213217Y29145264D01*
X-8130413Y28839530D01*
X-8020799Y28490362D01*
X-7881480Y28082102D01*
X-7849670Y27991622D01*
X-7863510Y27942288D01*
X-7941732Y27879489D01*
X-8092127Y27797102D01*
X-8105947Y27790252D01*
X-8384764Y27652761D01*
X-8471520Y27854131D01*
X-8698883Y28483528D01*
X-8858112Y29150144D01*
X-8948106Y29839475D01*
X-8967764Y30537023D01*
X-8915986Y31228284D01*
X-8791672Y31898759D01*
X-8781514Y31939465D01*
X-8623091Y32467325D01*
X-8423028Y32978534D01*
X-8313450Y33212099D01*
X-8228221Y33374314D01*
X-8131280Y33545771D01*
X-8032630Y33710364D01*
X-7942274Y33851987D01*
X-7870216Y33954534D01*
X-7826458Y34001899D01*
X-7822026Y34003333D01*
X-7772974Y33980669D01*
G37*
X-7772974Y33980669D02*
X-7677096Y33921534D01*
X-7567181Y33847062D01*
X-7450521Y33765114D01*
X-7364841Y33705012D01*
X-7330466Y33681000D01*
X-7344550Y33643190D01*
X-7394265Y33549947D01*
X-7470579Y33417763D01*
X-7517324Y33339855D01*
X-7814523Y32790697D01*
X-8040004Y32234733D01*
X-8198308Y31656422D01*
X-8293973Y31040222D01*
X-8326390Y30570440D01*
X-8334220Y30247010D01*
X-8329712Y29958436D01*
X-8309972Y29689059D01*
X-8272105Y29423221D01*
X-8213217Y29145264D01*
X-8130413Y28839530D01*
X-8020799Y28490362D01*
X-7881480Y28082102D01*
X-7849670Y27991622D01*
X-7863510Y27942288D01*
X-7941732Y27879489D01*
X-8092127Y27797102D01*
X-8105947Y27790252D01*
X-8384764Y27652761D01*
X-8471520Y27854131D01*
X-8698883Y28483528D01*
X-8858112Y29150144D01*
X-8948106Y29839475D01*
X-8967764Y30537023D01*
X-8915986Y31228284D01*
X-8791672Y31898759D01*
X-8781514Y31939465D01*
X-8623091Y32467325D01*
X-8423028Y32978534D01*
X-8313450Y33212099D01*
X-8228221Y33374314D01*
X-8131280Y33545771D01*
X-8032630Y33710364D01*
X-7942274Y33851987D01*
X-7870216Y33954534D01*
X-7826458Y34001899D01*
X-7822026Y34003333D01*
X-7772974Y33980669D01*
G36*
X7876436Y33970223D02*
G01*
X7939127Y33882751D01*
X8020837Y33758710D01*
X8034333Y33737447D01*
X8378676Y33113052D01*
X8649428Y32447020D01*
X8846428Y31739862D01*
X8969515Y30992088D01*
X8998130Y30680167D01*
X9004862Y30239276D01*
X8968980Y29752610D01*
X8894614Y29244985D01*
X8785897Y28741217D01*
X8646959Y28266124D01*
X8554217Y28013640D01*
X8492453Y27860992D01*
X8443514Y27743048D01*
X8415074Y27678175D01*
X8411174Y27671211D01*
X8372029Y27685281D01*
X8276141Y27727208D01*
X8143166Y27788360D01*
X8124205Y27797259D01*
X7845243Y27928500D01*
X8005049Y28352911D01*
X8202254Y28992522D01*
X8322110Y29650682D01*
X8365441Y30317898D01*
X8333068Y30984680D01*
X8225816Y31641538D01*
X8044507Y32278980D01*
X7789965Y32887515D01*
X7578081Y33275632D01*
X7487314Y33429107D01*
X7416058Y33555132D01*
X7373878Y33636488D01*
X7366501Y33656632D01*
X7398415Y33691582D01*
X7478891Y33757039D01*
X7585768Y33836962D01*
X7696887Y33915307D01*
X7790089Y33976033D01*
X7843213Y34003096D01*
X7845405Y34003334D01*
X7876436Y33970223D01*
G37*
X7876436Y33970223D02*
X7939127Y33882751D01*
X8020837Y33758710D01*
X8034333Y33737447D01*
X8378676Y33113052D01*
X8649428Y32447020D01*
X8846428Y31739862D01*
X8969515Y30992088D01*
X8998130Y30680167D01*
X9004862Y30239276D01*
X8968980Y29752610D01*
X8894614Y29244985D01*
X8785897Y28741217D01*
X8646959Y28266124D01*
X8554217Y28013640D01*
X8492453Y27860992D01*
X8443514Y27743048D01*
X8415074Y27678175D01*
X8411174Y27671211D01*
X8372029Y27685281D01*
X8276141Y27727208D01*
X8143166Y27788360D01*
X8124205Y27797259D01*
X7845243Y27928500D01*
X8005049Y28352911D01*
X8202254Y28992522D01*
X8322110Y29650682D01*
X8365441Y30317898D01*
X8333068Y30984680D01*
X8225816Y31641538D01*
X8044507Y32278980D01*
X7789965Y32887515D01*
X7578081Y33275632D01*
X7487314Y33429107D01*
X7416058Y33555132D01*
X7373878Y33636488D01*
X7366501Y33656632D01*
X7398415Y33691582D01*
X7478891Y33757039D01*
X7585768Y33836962D01*
X7696887Y33915307D01*
X7790089Y33976033D01*
X7843213Y34003096D01*
X7845405Y34003334D01*
X7876436Y33970223D01*
G36*
X-7143874Y33536193D02*
G01*
X-7048521Y33474830D01*
X-6913766Y33384582D01*
X-6781169Y33293709D01*
X-6397948Y33028584D01*
X-6586318Y32723057D01*
X-6809490Y32299683D01*
X-6999062Y31811596D01*
X-7121741Y31387447D01*
X-7160588Y31213838D01*
X-7187176Y31043915D01*
X-7203534Y30855058D01*
X-7211693Y30624649D01*
X-7213704Y30362667D01*
X-7205429Y29976088D01*
X-7177313Y29644420D01*
X-7124421Y29339232D01*
X-7041816Y29032091D01*
X-6924563Y28694564D01*
X-6923722Y28692330D01*
X-6872280Y28550673D01*
X-6837211Y28444340D01*
X-6825181Y28393735D01*
X-6825699Y28392272D01*
X-6866235Y28371418D01*
X-6967402Y28322712D01*
X-7113006Y28253883D01*
X-7252573Y28188602D01*
X-7668313Y27994985D01*
X-7766753Y28217576D01*
X-7978991Y28799455D01*
X-8118768Y29414003D01*
X-8186105Y30050137D01*
X-8181027Y30696768D01*
X-8103554Y31342813D01*
X-7953710Y31977186D01*
X-7758022Y32526515D01*
X-7684389Y32690972D01*
X-7594122Y32875219D01*
X-7495740Y33063911D01*
X-7397762Y33241705D01*
X-7308709Y33393258D01*
X-7237099Y33503225D01*
X-7191452Y33556262D01*
X-7184848Y33558833D01*
X-7143874Y33536193D01*
G37*
X-7143874Y33536193D02*
X-7048521Y33474830D01*
X-6913766Y33384582D01*
X-6781169Y33293709D01*
X-6397948Y33028584D01*
X-6586318Y32723057D01*
X-6809490Y32299683D01*
X-6999062Y31811596D01*
X-7121741Y31387447D01*
X-7160588Y31213838D01*
X-7187176Y31043915D01*
X-7203534Y30855058D01*
X-7211693Y30624649D01*
X-7213704Y30362667D01*
X-7205429Y29976088D01*
X-7177313Y29644420D01*
X-7124421Y29339232D01*
X-7041816Y29032091D01*
X-6924563Y28694564D01*
X-6923722Y28692330D01*
X-6872280Y28550673D01*
X-6837211Y28444340D01*
X-6825181Y28393735D01*
X-6825699Y28392272D01*
X-6866235Y28371418D01*
X-6967402Y28322712D01*
X-7113006Y28253883D01*
X-7252573Y28188602D01*
X-7668313Y27994985D01*
X-7766753Y28217576D01*
X-7978991Y28799455D01*
X-8118768Y29414003D01*
X-8186105Y30050137D01*
X-8181027Y30696768D01*
X-8103554Y31342813D01*
X-7953710Y31977186D01*
X-7758022Y32526515D01*
X-7684389Y32690972D01*
X-7594122Y32875219D01*
X-7495740Y33063911D01*
X-7397762Y33241705D01*
X-7308709Y33393258D01*
X-7237099Y33503225D01*
X-7191452Y33556262D01*
X-7184848Y33558833D01*
X-7143874Y33536193D01*
G36*
X7353922Y33358852D02*
G01*
X7640150Y32839745D01*
X7880607Y32267327D01*
X8066086Y31664651D01*
X8116726Y31448911D01*
X8155101Y31202863D01*
X8180587Y30896615D01*
X8193234Y30553636D01*
X8193096Y30197398D01*
X8180223Y29851371D01*
X8154668Y29539025D01*
X8116483Y29283832D01*
X8111893Y29262000D01*
X8055860Y29031093D01*
X7985903Y28782486D01*
X7909363Y28539054D01*
X7833584Y28323671D01*
X7765906Y28159210D01*
X7743415Y28114036D01*
X7683500Y28003239D01*
X7283526Y28189454D01*
X7116506Y28267985D01*
X6980446Y28333416D01*
X6892165Y28377568D01*
X6867552Y28391670D01*
X6873316Y28435966D01*
X6902009Y28541634D01*
X6948362Y28690211D01*
X6978926Y28781919D01*
X7100757Y29179364D01*
X7180643Y29545204D01*
X7224677Y29916357D01*
X7238956Y30329739D01*
X7239000Y30357158D01*
X7208689Y30952022D01*
X7114570Y31503262D01*
X6951860Y32027954D01*
X6715777Y32543173D01*
X6541699Y32847077D01*
X6433056Y33024320D01*
X6822986Y33303262D01*
X7212916Y33582203D01*
X7353922Y33358852D01*
G37*
X7353922Y33358852D02*
X7640150Y32839745D01*
X7880607Y32267327D01*
X8066086Y31664651D01*
X8116726Y31448911D01*
X8155101Y31202863D01*
X8180587Y30896615D01*
X8193234Y30553636D01*
X8193096Y30197398D01*
X8180223Y29851371D01*
X8154668Y29539025D01*
X8116483Y29283832D01*
X8111893Y29262000D01*
X8055860Y29031093D01*
X7985903Y28782486D01*
X7909363Y28539054D01*
X7833584Y28323671D01*
X7765906Y28159210D01*
X7743415Y28114036D01*
X7683500Y28003239D01*
X7283526Y28189454D01*
X7116506Y28267985D01*
X6980446Y28333416D01*
X6892165Y28377568D01*
X6867552Y28391670D01*
X6873316Y28435966D01*
X6902009Y28541634D01*
X6948362Y28690211D01*
X6978926Y28781919D01*
X7100757Y29179364D01*
X7180643Y29545204D01*
X7224677Y29916357D01*
X7238956Y30329739D01*
X7239000Y30357158D01*
X7208689Y30952022D01*
X7114570Y31503262D01*
X6951860Y32027954D01*
X6715777Y32543173D01*
X6541699Y32847077D01*
X6433056Y33024320D01*
X6822986Y33303262D01*
X7212916Y33582203D01*
X7353922Y33358852D01*
%TD*%
M02*
