%TF.GenerationSoftware,KiCad,Pcbnew,5.1.10*%
%TF.CreationDate,2021-11-20T16:20:21+01:00*%
%TF.ProjectId,main_pcb_front,6d61696e-5f70-4636-925f-66726f6e742e,rev?*%
%TF.SameCoordinates,PX8d24d00PY5d75c80*%
%TF.FileFunction,Legend,Top*%
%TF.FilePolarity,Positive*%
%FSLAX46Y46*%
G04 Gerber Fmt 4.6, Leading zero omitted, Abs format (unit mm)*
G04 Created by KiCad (PCBNEW 5.1.10) date 2021-11-20 16:20:21*
%MOMM*%
%LPD*%
G01*
G04 APERTURE LIST*
%ADD10C,0.300000*%
%ADD11C,0.600000*%
%ADD12C,0.150000*%
G04 APERTURE END LIST*
D10*
X-3952381Y11095239D02*
X-3952381Y13095239D01*
X-3190477Y13095239D01*
X-3000000Y13000000D01*
X-2904762Y12904762D01*
X-2809524Y12714286D01*
X-2809524Y12428572D01*
X-2904762Y12238096D01*
X-3000000Y12142858D01*
X-3190477Y12047620D01*
X-3952381Y12047620D01*
X-1666667Y11095239D02*
X-1857143Y11190477D01*
X-1952381Y11285715D01*
X-2047620Y11476191D01*
X-2047620Y12047620D01*
X-1952381Y12238096D01*
X-1857143Y12333334D01*
X-1666667Y12428572D01*
X-1380953Y12428572D01*
X-1190477Y12333334D01*
X-1095239Y12238096D01*
X-1000000Y12047620D01*
X-1000000Y11476191D01*
X-1095239Y11285715D01*
X-1190477Y11190477D01*
X-1380953Y11095239D01*
X-1666667Y11095239D01*
X-333334Y12428572D02*
X47619Y11095239D01*
X428571Y12047620D01*
X809523Y11095239D01*
X1190476Y12428572D01*
X2714285Y11190477D02*
X2523809Y11095239D01*
X2142857Y11095239D01*
X1952380Y11190477D01*
X1857142Y11380953D01*
X1857142Y12142858D01*
X1952380Y12333334D01*
X2142857Y12428572D01*
X2523809Y12428572D01*
X2714285Y12333334D01*
X2809523Y12142858D01*
X2809523Y11952381D01*
X1857142Y11761905D01*
X3666666Y11095239D02*
X3666666Y12428572D01*
X3666666Y12047620D02*
X3761904Y12238096D01*
X3857142Y12333334D01*
X4047619Y12428572D01*
X4238095Y12428572D01*
X30238095Y-33142857D02*
X31761904Y-33142857D01*
X30238095Y-17142857D02*
X31761904Y-17142857D01*
X31000000Y-17904761D02*
X31000000Y-16380952D01*
X-31761905Y-33142857D02*
X-30238096Y-33142857D01*
X-31761905Y-17142857D02*
X-30238096Y-17142857D01*
X-31000000Y-17904761D02*
X-31000000Y-16380952D01*
X-4952381Y-36904761D02*
X-3809524Y-36904761D01*
X-4380953Y-38904761D02*
X-4380953Y-36904761D01*
X-3142858Y-38904761D02*
X-3142858Y-37571428D01*
X-3142858Y-37952380D02*
X-3047620Y-37761904D01*
X-2952381Y-37666666D01*
X-2761905Y-37571428D01*
X-2571429Y-37571428D01*
X-1904762Y-38904761D02*
X-1904762Y-37571428D01*
X-1904762Y-36904761D02*
X-2000000Y-37000000D01*
X-1904762Y-37095238D01*
X-1809524Y-37000000D01*
X-1904762Y-36904761D01*
X-1904762Y-37095238D01*
X-95239Y-37571428D02*
X-95239Y-39190476D01*
X-190477Y-39380952D01*
X-285715Y-39476190D01*
X-476191Y-39571428D01*
X-761905Y-39571428D01*
X-952381Y-39476190D01*
X-95239Y-38809523D02*
X-285715Y-38904761D01*
X-666667Y-38904761D01*
X-857143Y-38809523D01*
X-952381Y-38714285D01*
X-1047620Y-38523809D01*
X-1047620Y-37952380D01*
X-952381Y-37761904D01*
X-857143Y-37666666D01*
X-666667Y-37571428D01*
X-285715Y-37571428D01*
X-95239Y-37666666D01*
X1714285Y-37571428D02*
X1714285Y-39190476D01*
X1619047Y-39380952D01*
X1523809Y-39476190D01*
X1333333Y-39571428D01*
X1047619Y-39571428D01*
X857142Y-39476190D01*
X1714285Y-38809523D02*
X1523809Y-38904761D01*
X1142857Y-38904761D01*
X952380Y-38809523D01*
X857142Y-38714285D01*
X761904Y-38523809D01*
X761904Y-37952380D01*
X857142Y-37761904D01*
X952380Y-37666666D01*
X1142857Y-37571428D01*
X1523809Y-37571428D01*
X1714285Y-37666666D01*
X3428571Y-38809523D02*
X3238095Y-38904761D01*
X2857142Y-38904761D01*
X2666666Y-38809523D01*
X2571428Y-38619047D01*
X2571428Y-37857142D01*
X2666666Y-37666666D01*
X2857142Y-37571428D01*
X3238095Y-37571428D01*
X3428571Y-37666666D01*
X3523809Y-37857142D01*
X3523809Y-38047619D01*
X2571428Y-38238095D01*
X4380952Y-38904761D02*
X4380952Y-37571428D01*
X4380952Y-37952380D02*
X4476190Y-37761904D01*
X4571428Y-37666666D01*
X4761904Y-37571428D01*
X4952380Y-37571428D01*
X18285714Y-24857142D02*
X18571428Y-24952380D01*
X18666666Y-25047619D01*
X18761904Y-25238095D01*
X18761904Y-25523809D01*
X18666666Y-25714285D01*
X18571428Y-25809523D01*
X18380952Y-25904761D01*
X17619047Y-25904761D01*
X17619047Y-23904761D01*
X18285714Y-23904761D01*
X18476190Y-24000000D01*
X18571428Y-24095238D01*
X18666666Y-24285714D01*
X18666666Y-24476190D01*
X18571428Y-24666666D01*
X18476190Y-24761904D01*
X18285714Y-24857142D01*
X17619047Y-24857142D01*
X19619047Y-25904761D02*
X19619047Y-24571428D01*
X19619047Y-24952380D02*
X19714285Y-24761904D01*
X19809523Y-24666666D01*
X20000000Y-24571428D01*
X20190476Y-24571428D01*
X20857142Y-25904761D02*
X20857142Y-24571428D01*
X20857142Y-23904761D02*
X20761904Y-24000000D01*
X20857142Y-24095238D01*
X20952380Y-24000000D01*
X20857142Y-23904761D01*
X20857142Y-24095238D01*
X22666666Y-24571428D02*
X22666666Y-26190476D01*
X22571428Y-26380952D01*
X22476190Y-26476190D01*
X22285714Y-26571428D01*
X22000000Y-26571428D01*
X21809523Y-26476190D01*
X22666666Y-25809523D02*
X22476190Y-25904761D01*
X22095238Y-25904761D01*
X21904761Y-25809523D01*
X21809523Y-25714285D01*
X21714285Y-25523809D01*
X21714285Y-24952380D01*
X21809523Y-24761904D01*
X21904761Y-24666666D01*
X22095238Y-24571428D01*
X22476190Y-24571428D01*
X22666666Y-24666666D01*
X23619047Y-25904761D02*
X23619047Y-23904761D01*
X24476190Y-25904761D02*
X24476190Y-24857142D01*
X24380952Y-24666666D01*
X24190476Y-24571428D01*
X23904761Y-24571428D01*
X23714285Y-24666666D01*
X23619047Y-24761904D01*
X25142857Y-24571428D02*
X25904761Y-24571428D01*
X25428571Y-23904761D02*
X25428571Y-25619047D01*
X25523809Y-25809523D01*
X25714285Y-25904761D01*
X25904761Y-25904761D01*
X26571428Y-24571428D02*
X26571428Y-25904761D01*
X26571428Y-24761904D02*
X26666666Y-24666666D01*
X26857142Y-24571428D01*
X27142857Y-24571428D01*
X27333333Y-24666666D01*
X27428571Y-24857142D01*
X27428571Y-25904761D01*
X29142857Y-25809523D02*
X28952380Y-25904761D01*
X28571428Y-25904761D01*
X28380952Y-25809523D01*
X28285714Y-25619047D01*
X28285714Y-24857142D01*
X28380952Y-24666666D01*
X28571428Y-24571428D01*
X28952380Y-24571428D01*
X29142857Y-24666666D01*
X29238095Y-24857142D01*
X29238095Y-25047619D01*
X28285714Y-25238095D01*
X30000000Y-25809523D02*
X30190476Y-25904761D01*
X30571428Y-25904761D01*
X30761904Y-25809523D01*
X30857142Y-25619047D01*
X30857142Y-25523809D01*
X30761904Y-25333333D01*
X30571428Y-25238095D01*
X30285714Y-25238095D01*
X30095238Y-25142857D01*
X30000000Y-24952380D01*
X30000000Y-24857142D01*
X30095238Y-24666666D01*
X30285714Y-24571428D01*
X30571428Y-24571428D01*
X30761904Y-24666666D01*
X31619047Y-25809523D02*
X31809523Y-25904761D01*
X32190476Y-25904761D01*
X32380952Y-25809523D01*
X32476190Y-25619047D01*
X32476190Y-25523809D01*
X32380952Y-25333333D01*
X32190476Y-25238095D01*
X31904761Y-25238095D01*
X31714285Y-25142857D01*
X31619047Y-24952380D01*
X31619047Y-24857142D01*
X31714285Y-24666666D01*
X31904761Y-24571428D01*
X32190476Y-24571428D01*
X32380952Y-24666666D01*
X-4333334Y-22809523D02*
X-4047620Y-22904761D01*
X-3571429Y-22904761D01*
X-3380953Y-22809523D01*
X-3285715Y-22714285D01*
X-3190477Y-22523809D01*
X-3190477Y-22333333D01*
X-3285715Y-22142857D01*
X-3380953Y-22047619D01*
X-3571429Y-21952380D01*
X-3952381Y-21857142D01*
X-4142858Y-21761904D01*
X-4238096Y-21666666D01*
X-4333334Y-21476190D01*
X-4333334Y-21285714D01*
X-4238096Y-21095238D01*
X-4142858Y-21000000D01*
X-3952381Y-20904761D01*
X-3476191Y-20904761D01*
X-3190477Y-21000000D01*
X-2619048Y-21571428D02*
X-1857143Y-21571428D01*
X-2333334Y-20904761D02*
X-2333334Y-22619047D01*
X-2238096Y-22809523D01*
X-2047620Y-22904761D01*
X-1857143Y-22904761D01*
X-333334Y-22904761D02*
X-333334Y-21857142D01*
X-428572Y-21666666D01*
X-619048Y-21571428D01*
X-1000000Y-21571428D01*
X-1190477Y-21666666D01*
X-333334Y-22809523D02*
X-523810Y-22904761D01*
X-1000000Y-22904761D01*
X-1190477Y-22809523D01*
X-1285715Y-22619047D01*
X-1285715Y-22428571D01*
X-1190477Y-22238095D01*
X-1000000Y-22142857D01*
X-523810Y-22142857D01*
X-333334Y-22047619D01*
X333333Y-21571428D02*
X1095238Y-21571428D01*
X619047Y-20904761D02*
X619047Y-22619047D01*
X714285Y-22809523D01*
X904761Y-22904761D01*
X1095238Y-22904761D01*
X2619047Y-21571428D02*
X2619047Y-22904761D01*
X1761904Y-21571428D02*
X1761904Y-22619047D01*
X1857142Y-22809523D01*
X2047619Y-22904761D01*
X2333333Y-22904761D01*
X2523809Y-22809523D01*
X2619047Y-22714285D01*
X3476190Y-22809523D02*
X3666666Y-22904761D01*
X4047619Y-22904761D01*
X4238095Y-22809523D01*
X4333333Y-22619047D01*
X4333333Y-22523809D01*
X4238095Y-22333333D01*
X4047619Y-22238095D01*
X3761904Y-22238095D01*
X3571428Y-22142857D01*
X3476190Y-21952380D01*
X3476190Y-21857142D01*
X3571428Y-21666666D01*
X3761904Y-21571428D01*
X4047619Y-21571428D01*
X4238095Y-21666666D01*
X-29095239Y-25809523D02*
X-28809524Y-25904761D01*
X-28333334Y-25904761D01*
X-28142858Y-25809523D01*
X-28047620Y-25714285D01*
X-27952381Y-25523809D01*
X-27952381Y-25333333D01*
X-28047620Y-25142857D01*
X-28142858Y-25047619D01*
X-28333334Y-24952380D01*
X-28714286Y-24857142D01*
X-28904762Y-24761904D01*
X-29000000Y-24666666D01*
X-29095239Y-24476190D01*
X-29095239Y-24285714D01*
X-29000000Y-24095238D01*
X-28904762Y-24000000D01*
X-28714286Y-23904761D01*
X-28238096Y-23904761D01*
X-27952381Y-24000000D01*
X-27095239Y-24571428D02*
X-27095239Y-26571428D01*
X-27095239Y-24666666D02*
X-26904762Y-24571428D01*
X-26523810Y-24571428D01*
X-26333334Y-24666666D01*
X-26238096Y-24761904D01*
X-26142858Y-24952380D01*
X-26142858Y-25523809D01*
X-26238096Y-25714285D01*
X-26333334Y-25809523D01*
X-26523810Y-25904761D01*
X-26904762Y-25904761D01*
X-27095239Y-25809523D01*
X-24523810Y-25809523D02*
X-24714286Y-25904761D01*
X-25095239Y-25904761D01*
X-25285715Y-25809523D01*
X-25380953Y-25619047D01*
X-25380953Y-24857142D01*
X-25285715Y-24666666D01*
X-25095239Y-24571428D01*
X-24714286Y-24571428D01*
X-24523810Y-24666666D01*
X-24428572Y-24857142D01*
X-24428572Y-25047619D01*
X-25380953Y-25238095D01*
X-22809524Y-25809523D02*
X-23000000Y-25904761D01*
X-23380953Y-25904761D01*
X-23571429Y-25809523D01*
X-23666667Y-25619047D01*
X-23666667Y-24857142D01*
X-23571429Y-24666666D01*
X-23380953Y-24571428D01*
X-23000000Y-24571428D01*
X-22809524Y-24666666D01*
X-22714286Y-24857142D01*
X-22714286Y-25047619D01*
X-23666667Y-25238095D01*
X-21000000Y-25904761D02*
X-21000000Y-23904761D01*
X-21000000Y-25809523D02*
X-21190477Y-25904761D01*
X-21571429Y-25904761D01*
X-21761905Y-25809523D01*
X-21857143Y-25714285D01*
X-21952381Y-25523809D01*
X-21952381Y-24952380D01*
X-21857143Y-24761904D01*
X-21761905Y-24666666D01*
X-21571429Y-24571428D01*
X-21190477Y-24571428D01*
X-21000000Y-24666666D01*
X-1190477Y34595239D02*
X-1190477Y36595239D01*
X-1190477Y35833334D02*
X-1000000Y35928572D01*
X-619048Y35928572D01*
X-428572Y35833334D01*
X-333334Y35738096D01*
X-238096Y35547620D01*
X-238096Y34976191D01*
X-333334Y34785715D01*
X-428572Y34690477D01*
X-619048Y34595239D01*
X-1000000Y34595239D01*
X-1190477Y34690477D01*
X428571Y35928572D02*
X904761Y34595239D01*
X1380952Y35928572D02*
X904761Y34595239D01*
X714285Y34119048D01*
X619047Y34023810D01*
X428571Y33928572D01*
D11*
X-11714286Y42785715D02*
X-11142858Y42595239D01*
X-10952381Y42404762D01*
X-10761905Y42023810D01*
X-10761905Y41452381D01*
X-10952381Y41071429D01*
X-11142858Y40880953D01*
X-11523810Y40690477D01*
X-13047620Y40690477D01*
X-13047620Y44690477D01*
X-11714286Y44690477D01*
X-11333334Y44500000D01*
X-11142858Y44309524D01*
X-10952381Y43928572D01*
X-10952381Y43547620D01*
X-11142858Y43166667D01*
X-11333334Y42976191D01*
X-11714286Y42785715D01*
X-13047620Y42785715D01*
X-8476191Y40690477D02*
X-8857143Y40880953D01*
X-9047620Y41261905D01*
X-9047620Y44690477D01*
X-6952381Y40690477D02*
X-6952381Y43357143D01*
X-6952381Y44690477D02*
X-7142858Y44500000D01*
X-6952381Y44309524D01*
X-6761905Y44500000D01*
X-6952381Y44690477D01*
X-6952381Y44309524D01*
X-5047620Y43357143D02*
X-5047620Y40690477D01*
X-5047620Y42976191D02*
X-4857143Y43166667D01*
X-4476191Y43357143D01*
X-3904762Y43357143D01*
X-3523810Y43166667D01*
X-3333334Y42785715D01*
X-3333334Y40690477D01*
X-1428572Y40690477D02*
X-1428572Y44690477D01*
X-1047620Y42214286D02*
X95238Y40690477D01*
X95238Y43357143D02*
X-1428572Y41833334D01*
X1428571Y43357143D02*
X2380952Y40690477D01*
X3333333Y43357143D02*
X2380952Y40690477D01*
X2000000Y39738096D01*
X1809523Y39547620D01*
X1428571Y39357143D01*
X6190476Y42785715D02*
X6761904Y42595239D01*
X6952380Y42404762D01*
X7142857Y42023810D01*
X7142857Y41452381D01*
X6952380Y41071429D01*
X6761904Y40880953D01*
X6380952Y40690477D01*
X4857142Y40690477D01*
X4857142Y44690477D01*
X6190476Y44690477D01*
X6571428Y44500000D01*
X6761904Y44309524D01*
X6952380Y43928572D01*
X6952380Y43547620D01*
X6761904Y43166667D01*
X6571428Y42976191D01*
X6190476Y42785715D01*
X4857142Y42785715D01*
X10571428Y40690477D02*
X10571428Y42785715D01*
X10380952Y43166667D01*
X10000000Y43357143D01*
X9238095Y43357143D01*
X8857142Y43166667D01*
X10571428Y40880953D02*
X10190476Y40690477D01*
X9238095Y40690477D01*
X8857142Y40880953D01*
X8666666Y41261905D01*
X8666666Y41642858D01*
X8857142Y42023810D01*
X9238095Y42214286D01*
X10190476Y42214286D01*
X10571428Y42404762D01*
X12476190Y40690477D02*
X12476190Y43357143D01*
X12476190Y42595239D02*
X12666666Y42976191D01*
X12857142Y43166667D01*
X13238095Y43357143D01*
X13619047Y43357143D01*
%TO.C,H4*%
D12*
X42238095Y-39252380D02*
X42238095Y-38252380D01*
X42238095Y-38728571D02*
X42809523Y-38728571D01*
X42809523Y-39252380D02*
X42809523Y-38252380D01*
X43714285Y-38585714D02*
X43714285Y-39252380D01*
X43476190Y-38204761D02*
X43238095Y-38919047D01*
X43857142Y-38919047D01*
%TO.C,H3*%
X42238095Y46747620D02*
X42238095Y47747620D01*
X42238095Y47271429D02*
X42809523Y47271429D01*
X42809523Y46747620D02*
X42809523Y47747620D01*
X43190476Y47747620D02*
X43809523Y47747620D01*
X43476190Y47366667D01*
X43619047Y47366667D01*
X43714285Y47319048D01*
X43761904Y47271429D01*
X43809523Y47176191D01*
X43809523Y46938096D01*
X43761904Y46842858D01*
X43714285Y46795239D01*
X43619047Y46747620D01*
X43333333Y46747620D01*
X43238095Y46795239D01*
X43190476Y46842858D01*
%TO.C,H2*%
X-43761905Y-39252380D02*
X-43761905Y-38252380D01*
X-43761905Y-38728571D02*
X-43190477Y-38728571D01*
X-43190477Y-39252380D02*
X-43190477Y-38252380D01*
X-42761905Y-38347619D02*
X-42714286Y-38300000D01*
X-42619048Y-38252380D01*
X-42380953Y-38252380D01*
X-42285715Y-38300000D01*
X-42238096Y-38347619D01*
X-42190477Y-38442857D01*
X-42190477Y-38538095D01*
X-42238096Y-38680952D01*
X-42809524Y-39252380D01*
X-42190477Y-39252380D01*
%TO.C,H1*%
X-43761905Y46747620D02*
X-43761905Y47747620D01*
X-43761905Y47271429D02*
X-43190477Y47271429D01*
X-43190477Y46747620D02*
X-43190477Y47747620D01*
X-42190477Y46747620D02*
X-42761905Y46747620D01*
X-42476191Y46747620D02*
X-42476191Y47747620D01*
X-42571429Y47604762D01*
X-42666667Y47509524D01*
X-42761905Y47461905D01*
%TO.C,H10*%
X23761904Y-28152380D02*
X23761904Y-27152380D01*
X23761904Y-27628571D02*
X24333333Y-27628571D01*
X24333333Y-28152380D02*
X24333333Y-27152380D01*
X25333333Y-28152380D02*
X24761904Y-28152380D01*
X25047619Y-28152380D02*
X25047619Y-27152380D01*
X24952380Y-27295238D01*
X24857142Y-27390476D01*
X24761904Y-27438095D01*
X25952380Y-27152380D02*
X26047619Y-27152380D01*
X26142857Y-27200000D01*
X26190476Y-27247619D01*
X26238095Y-27342857D01*
X26285714Y-27533333D01*
X26285714Y-27771428D01*
X26238095Y-27961904D01*
X26190476Y-28057142D01*
X26142857Y-28104761D01*
X26047619Y-28152380D01*
X25952380Y-28152380D01*
X25857142Y-28104761D01*
X25809523Y-28057142D01*
X25761904Y-27961904D01*
X25714285Y-27771428D01*
X25714285Y-27533333D01*
X25761904Y-27342857D01*
X25809523Y-27247619D01*
X25857142Y-27200000D01*
X25952380Y-27152380D01*
%TO.C,H9*%
X24238095Y-12152380D02*
X24238095Y-11152380D01*
X24238095Y-11628571D02*
X24809523Y-11628571D01*
X24809523Y-12152380D02*
X24809523Y-11152380D01*
X25333333Y-12152380D02*
X25523809Y-12152380D01*
X25619047Y-12104761D01*
X25666666Y-12057142D01*
X25761904Y-11914285D01*
X25809523Y-11723809D01*
X25809523Y-11342857D01*
X25761904Y-11247619D01*
X25714285Y-11200000D01*
X25619047Y-11152380D01*
X25428571Y-11152380D01*
X25333333Y-11200000D01*
X25285714Y-11247619D01*
X25238095Y-11342857D01*
X25238095Y-11580952D01*
X25285714Y-11676190D01*
X25333333Y-11723809D01*
X25428571Y-11771428D01*
X25619047Y-11771428D01*
X25714285Y-11723809D01*
X25761904Y-11676190D01*
X25809523Y-11580952D01*
%TO.C,H8*%
X-761905Y-28152380D02*
X-761905Y-27152380D01*
X-761905Y-27628571D02*
X-190477Y-27628571D01*
X-190477Y-28152380D02*
X-190477Y-27152380D01*
X428571Y-27580952D02*
X333333Y-27533333D01*
X285714Y-27485714D01*
X238095Y-27390476D01*
X238095Y-27342857D01*
X285714Y-27247619D01*
X333333Y-27200000D01*
X428571Y-27152380D01*
X619047Y-27152380D01*
X714285Y-27200000D01*
X761904Y-27247619D01*
X809523Y-27342857D01*
X809523Y-27390476D01*
X761904Y-27485714D01*
X714285Y-27533333D01*
X619047Y-27580952D01*
X428571Y-27580952D01*
X333333Y-27628571D01*
X285714Y-27676190D01*
X238095Y-27771428D01*
X238095Y-27961904D01*
X285714Y-28057142D01*
X333333Y-28104761D01*
X428571Y-28152380D01*
X619047Y-28152380D01*
X714285Y-28104761D01*
X761904Y-28057142D01*
X809523Y-27961904D01*
X809523Y-27771428D01*
X761904Y-27676190D01*
X714285Y-27628571D01*
X619047Y-27580952D01*
%TO.C,H7*%
X-761905Y-12152380D02*
X-761905Y-11152380D01*
X-761905Y-11628571D02*
X-190477Y-11628571D01*
X-190477Y-12152380D02*
X-190477Y-11152380D01*
X190476Y-11152380D02*
X857142Y-11152380D01*
X428571Y-12152380D01*
%TO.C,H6*%
X-25761905Y-28152380D02*
X-25761905Y-27152380D01*
X-25761905Y-27628571D02*
X-25190477Y-27628571D01*
X-25190477Y-28152380D02*
X-25190477Y-27152380D01*
X-24285715Y-27152380D02*
X-24476191Y-27152380D01*
X-24571429Y-27200000D01*
X-24619048Y-27247619D01*
X-24714286Y-27390476D01*
X-24761905Y-27580952D01*
X-24761905Y-27961904D01*
X-24714286Y-28057142D01*
X-24666667Y-28104761D01*
X-24571429Y-28152380D01*
X-24380953Y-28152380D01*
X-24285715Y-28104761D01*
X-24238096Y-28057142D01*
X-24190477Y-27961904D01*
X-24190477Y-27723809D01*
X-24238096Y-27628571D01*
X-24285715Y-27580952D01*
X-24380953Y-27533333D01*
X-24571429Y-27533333D01*
X-24666667Y-27580952D01*
X-24714286Y-27628571D01*
X-24761905Y-27723809D01*
%TO.C,H5*%
X-25761905Y-12152380D02*
X-25761905Y-11152380D01*
X-25761905Y-11628571D02*
X-25190477Y-11628571D01*
X-25190477Y-12152380D02*
X-25190477Y-11152380D01*
X-24238096Y-11152380D02*
X-24714286Y-11152380D01*
X-24761905Y-11628571D01*
X-24714286Y-11580952D01*
X-24619048Y-11533333D01*
X-24380953Y-11533333D01*
X-24285715Y-11580952D01*
X-24238096Y-11628571D01*
X-24190477Y-11723809D01*
X-24190477Y-11961904D01*
X-24238096Y-12057142D01*
X-24285715Y-12104761D01*
X-24380953Y-12152380D01*
X-24619048Y-12152380D01*
X-24714286Y-12104761D01*
X-24761905Y-12057142D01*
%TD*%
M02*
