%TF.GenerationSoftware,KiCad,Pcbnew,5.1.10*%
%TF.CreationDate,2021-11-03T22:20:00+01:00*%
%TF.ProjectId,main_pcb_ui,6d61696e-5f70-4636-925f-75692e6b6963,rev?*%
%TF.SameCoordinates,PX8583b00PY5f5e100*%
%TF.FileFunction,Copper,L2,Bot*%
%TF.FilePolarity,Positive*%
%FSLAX46Y46*%
G04 Gerber Fmt 4.6, Leading zero omitted, Abs format (unit mm)*
G04 Created by KiCad (PCBNEW 5.1.10) date 2021-11-03 22:20:00*
%MOMM*%
%LPD*%
G01*
G04 APERTURE LIST*
%TA.AperFunction,ComponentPad*%
%ADD10C,2.000000*%
%TD*%
%TA.AperFunction,ComponentPad*%
%ADD11O,1.700000X1.700000*%
%TD*%
%TA.AperFunction,ComponentPad*%
%ADD12R,1.700000X1.700000*%
%TD*%
%TA.AperFunction,ComponentPad*%
%ADD13C,1.800000*%
%TD*%
%TA.AperFunction,ComponentPad*%
%ADD14R,1.800000X1.800000*%
%TD*%
%TA.AperFunction,Conductor*%
%ADD15C,0.200000*%
%TD*%
%TA.AperFunction,Conductor*%
%ADD16C,0.100000*%
%TD*%
G04 APERTURE END LIST*
D10*
%TO.P,SW6,1*%
%TO.N,/MASTER_ON*%
X3250000Y25250000D03*
%TO.P,SW6,2*%
%TO.N,GND*%
X3250000Y20750000D03*
%TO.P,SW6,1*%
%TO.N,/MASTER_ON*%
X-3250000Y25250000D03*
%TO.P,SW6,2*%
%TO.N,GND*%
X-3250000Y20750000D03*
%TD*%
D11*
%TO.P,J4,4*%
%TO.N,GND*%
X34270000Y-9270000D03*
%TO.P,J4,3*%
X31730000Y-9270000D03*
%TO.P,J4,2*%
X34270000Y-6730000D03*
D12*
%TO.P,J4,1*%
%TO.N,/BR-*%
X31730000Y-6730000D03*
%TD*%
D11*
%TO.P,J3,4*%
%TO.N,GND*%
X34270000Y21730000D03*
%TO.P,J3,3*%
%TO.N,/LED*%
X31730000Y21730000D03*
%TO.P,J3,2*%
%TO.N,GND*%
X34270000Y24270000D03*
D12*
%TO.P,J3,1*%
%TO.N,/BR+*%
X31730000Y24270000D03*
%TD*%
D11*
%TO.P,J2,4*%
%TO.N,/MASTER_ON*%
X-31730000Y21730000D03*
%TO.P,J2,3*%
%TO.N,GND*%
X-34270000Y21730000D03*
%TO.P,J2,2*%
%TO.N,/SP+*%
X-31730000Y24270000D03*
D12*
%TO.P,J2,1*%
%TO.N,+3V3*%
X-34270000Y24270000D03*
%TD*%
D11*
%TO.P,J1,4*%
%TO.N,/TRIG*%
X-31730000Y-9270000D03*
%TO.P,J1,3*%
%TO.N,GND*%
X-34270000Y-9270000D03*
%TO.P,J1,2*%
%TO.N,/SP-*%
X-31730000Y-6730000D03*
D12*
%TO.P,J1,1*%
%TO.N,GND*%
X-34270000Y-6730000D03*
%TD*%
D10*
%TO.P,SW5,1*%
%TO.N,/BR-*%
X28250000Y-5750000D03*
%TO.P,SW5,2*%
%TO.N,GND*%
X28250000Y-10250000D03*
%TO.P,SW5,1*%
%TO.N,/BR-*%
X21750000Y-5750000D03*
%TO.P,SW5,2*%
%TO.N,GND*%
X21750000Y-10250000D03*
%TD*%
%TO.P,SW4,1*%
%TO.N,/BR+*%
X28250000Y10250000D03*
%TO.P,SW4,2*%
%TO.N,GND*%
X28250000Y5750000D03*
%TO.P,SW4,1*%
%TO.N,/BR+*%
X21750000Y10250000D03*
%TO.P,SW4,2*%
%TO.N,GND*%
X21750000Y5750000D03*
%TD*%
%TO.P,SW3,1*%
%TO.N,/TRIG*%
X3250000Y-5750000D03*
%TO.P,SW3,2*%
%TO.N,GND*%
X3250000Y-10250000D03*
%TO.P,SW3,1*%
%TO.N,/TRIG*%
X-3250000Y-5750000D03*
%TO.P,SW3,2*%
%TO.N,GND*%
X-3250000Y-10250000D03*
%TD*%
%TO.P,SW2,1*%
%TO.N,/SP-*%
X-21750000Y-5750000D03*
%TO.P,SW2,2*%
%TO.N,GND*%
X-21750000Y-10250000D03*
%TO.P,SW2,1*%
%TO.N,/SP-*%
X-28250000Y-5750000D03*
%TO.P,SW2,2*%
%TO.N,GND*%
X-28250000Y-10250000D03*
%TD*%
%TO.P,SW1,1*%
%TO.N,/SP+*%
X-21750000Y10250000D03*
%TO.P,SW1,2*%
%TO.N,GND*%
X-21750000Y5750000D03*
%TO.P,SW1,1*%
%TO.N,/SP+*%
X-28250000Y10250000D03*
%TO.P,SW1,2*%
%TO.N,GND*%
X-28250000Y5750000D03*
%TD*%
D13*
%TO.P,D1,2*%
%TO.N,Net-(D1-Pad2)*%
X1270000Y8000000D03*
D14*
%TO.P,D1,1*%
%TO.N,GND*%
X-1270000Y8000000D03*
%TD*%
D15*
%TO.N,GND*%
X36130805Y26660616D02*
X36256629Y26622627D01*
X36372675Y26560924D01*
X36474532Y26477852D01*
X36558310Y26376582D01*
X36620819Y26260973D01*
X36659686Y26135414D01*
X36675000Y25989715D01*
X36675001Y-10984094D01*
X36660616Y-11130805D01*
X36622627Y-11256629D01*
X36560924Y-11372675D01*
X36477853Y-11474531D01*
X36376586Y-11558307D01*
X36260973Y-11620819D01*
X36135410Y-11659687D01*
X35989716Y-11675000D01*
X29008635Y-11675000D01*
X29070819Y-11641762D01*
X29170410Y-11388199D01*
X28250000Y-10467789D01*
X27329590Y-11388199D01*
X27429181Y-11641762D01*
X27500767Y-11675000D01*
X22508635Y-11675000D01*
X22570819Y-11641762D01*
X22670410Y-11388199D01*
X21750000Y-10467789D01*
X20829590Y-11388199D01*
X20929181Y-11641762D01*
X21000767Y-11675000D01*
X4008635Y-11675000D01*
X4070819Y-11641762D01*
X4170410Y-11388199D01*
X3250000Y-10467789D01*
X2329590Y-11388199D01*
X2429181Y-11641762D01*
X2500767Y-11675000D01*
X-2491365Y-11675000D01*
X-2429181Y-11641762D01*
X-2329590Y-11388199D01*
X-3250000Y-10467789D01*
X-4170410Y-11388199D01*
X-4070819Y-11641762D01*
X-3999233Y-11675000D01*
X-20991365Y-11675000D01*
X-20929181Y-11641762D01*
X-20829590Y-11388199D01*
X-21750000Y-10467789D01*
X-22670410Y-11388199D01*
X-22570819Y-11641762D01*
X-22499233Y-11675000D01*
X-27491365Y-11675000D01*
X-27429181Y-11641762D01*
X-27329590Y-11388199D01*
X-28250000Y-10467789D01*
X-29170410Y-11388199D01*
X-29070819Y-11641762D01*
X-28999233Y-11675000D01*
X-35984104Y-11675000D01*
X-36130805Y-11660616D01*
X-36256629Y-11622627D01*
X-36372675Y-11560924D01*
X-36474531Y-11477853D01*
X-36558307Y-11376586D01*
X-36620819Y-11260973D01*
X-36659687Y-11135410D01*
X-36675000Y-10989716D01*
X-36675000Y-9648910D01*
X-35677903Y-9648910D01*
X-35651146Y-9737139D01*
X-35533473Y-9997611D01*
X-35367246Y-10230122D01*
X-35158852Y-10425736D01*
X-34916300Y-10576935D01*
X-34648911Y-10677909D01*
X-34424000Y-10567850D01*
X-34424000Y-9424000D01*
X-35566889Y-9424000D01*
X-35677903Y-9648910D01*
X-36675000Y-9648910D01*
X-36675000Y-7580000D01*
X-35730942Y-7580000D01*
X-35719203Y-7699189D01*
X-35684437Y-7813797D01*
X-35627980Y-7919421D01*
X-35552001Y-8012001D01*
X-35459421Y-8087980D01*
X-35353797Y-8144437D01*
X-35239189Y-8179203D01*
X-35229093Y-8180197D01*
X-35367246Y-8309878D01*
X-35533473Y-8542389D01*
X-35651146Y-8802861D01*
X-35677903Y-8891090D01*
X-35566889Y-9116000D01*
X-34424000Y-9116000D01*
X-34424000Y-6884000D01*
X-35576000Y-6884000D01*
X-35728000Y-7036000D01*
X-35730942Y-7580000D01*
X-36675000Y-7580000D01*
X-36675000Y-5880000D01*
X-35730942Y-5880000D01*
X-35728000Y-6424000D01*
X-35576000Y-6576000D01*
X-34424000Y-6576000D01*
X-34424000Y-5424000D01*
X-34116000Y-5424000D01*
X-34116000Y-6576000D01*
X-34096000Y-6576000D01*
X-34096000Y-6884000D01*
X-34116000Y-6884000D01*
X-34116000Y-9116000D01*
X-34096000Y-9116000D01*
X-34096000Y-9424000D01*
X-34116000Y-9424000D01*
X-34116000Y-10567850D01*
X-33891089Y-10677909D01*
X-33623700Y-10576935D01*
X-33381148Y-10425736D01*
X-33172754Y-10230122D01*
X-33006527Y-9997611D01*
X-32888854Y-9737139D01*
X-32862097Y-9648910D01*
X-32973110Y-9424002D01*
X-32871897Y-9424002D01*
X-32835806Y-9605443D01*
X-32749116Y-9814729D01*
X-32623263Y-10003082D01*
X-32463082Y-10163263D01*
X-32274729Y-10289116D01*
X-32065443Y-10375806D01*
X-31843265Y-10420000D01*
X-31616735Y-10420000D01*
X-31394557Y-10375806D01*
X-31309889Y-10340735D01*
X-29863230Y-10340735D01*
X-29814531Y-10653716D01*
X-29705708Y-10951184D01*
X-29641762Y-11070819D01*
X-29388199Y-11170410D01*
X-28467789Y-10250000D01*
X-28032211Y-10250000D01*
X-27111801Y-11170410D01*
X-26858238Y-11070819D01*
X-26724846Y-10783528D01*
X-26650066Y-10475735D01*
X-26644395Y-10340735D01*
X-23363230Y-10340735D01*
X-23314531Y-10653716D01*
X-23205708Y-10951184D01*
X-23141762Y-11070819D01*
X-22888199Y-11170410D01*
X-21967789Y-10250000D01*
X-21532211Y-10250000D01*
X-20611801Y-11170410D01*
X-20358238Y-11070819D01*
X-20224846Y-10783528D01*
X-20150066Y-10475735D01*
X-20144395Y-10340735D01*
X-4863230Y-10340735D01*
X-4814531Y-10653716D01*
X-4705708Y-10951184D01*
X-4641762Y-11070819D01*
X-4388199Y-11170410D01*
X-3467789Y-10250000D01*
X-3032211Y-10250000D01*
X-2111801Y-11170410D01*
X-1858238Y-11070819D01*
X-1724846Y-10783528D01*
X-1650066Y-10475735D01*
X-1644395Y-10340735D01*
X1636770Y-10340735D01*
X1685469Y-10653716D01*
X1794292Y-10951184D01*
X1858238Y-11070819D01*
X2111801Y-11170410D01*
X3032211Y-10250000D01*
X3467789Y-10250000D01*
X4388199Y-11170410D01*
X4641762Y-11070819D01*
X4775154Y-10783528D01*
X4849934Y-10475735D01*
X4855605Y-10340735D01*
X20136770Y-10340735D01*
X20185469Y-10653716D01*
X20294292Y-10951184D01*
X20358238Y-11070819D01*
X20611801Y-11170410D01*
X21532211Y-10250000D01*
X21967789Y-10250000D01*
X22888199Y-11170410D01*
X23141762Y-11070819D01*
X23275154Y-10783528D01*
X23349934Y-10475735D01*
X23355605Y-10340735D01*
X26636770Y-10340735D01*
X26685469Y-10653716D01*
X26794292Y-10951184D01*
X26858238Y-11070819D01*
X27111801Y-11170410D01*
X28032211Y-10250000D01*
X28467789Y-10250000D01*
X29388199Y-11170410D01*
X29641762Y-11070819D01*
X29775154Y-10783528D01*
X29849934Y-10475735D01*
X29863230Y-10159265D01*
X29814531Y-9846284D01*
X29742326Y-9648910D01*
X30322097Y-9648910D01*
X30348854Y-9737139D01*
X30466527Y-9997611D01*
X30632754Y-10230122D01*
X30841148Y-10425736D01*
X31083700Y-10576935D01*
X31351089Y-10677909D01*
X31576000Y-10567850D01*
X31576000Y-9424000D01*
X31884000Y-9424000D01*
X31884000Y-10567850D01*
X32108911Y-10677909D01*
X32376300Y-10576935D01*
X32618852Y-10425736D01*
X32827246Y-10230122D01*
X32993473Y-9997611D01*
X33000000Y-9983163D01*
X33006527Y-9997611D01*
X33172754Y-10230122D01*
X33381148Y-10425736D01*
X33623700Y-10576935D01*
X33891089Y-10677909D01*
X34116000Y-10567850D01*
X34116000Y-9424000D01*
X34424000Y-9424000D01*
X34424000Y-10567850D01*
X34648911Y-10677909D01*
X34916300Y-10576935D01*
X35158852Y-10425736D01*
X35367246Y-10230122D01*
X35533473Y-9997611D01*
X35651146Y-9737139D01*
X35677903Y-9648910D01*
X35566889Y-9424000D01*
X34424000Y-9424000D01*
X34116000Y-9424000D01*
X31884000Y-9424000D01*
X31576000Y-9424000D01*
X30433111Y-9424000D01*
X30322097Y-9648910D01*
X29742326Y-9648910D01*
X29705708Y-9548816D01*
X29641762Y-9429181D01*
X29388199Y-9329590D01*
X28467789Y-10250000D01*
X28032211Y-10250000D01*
X27111801Y-9329590D01*
X26858238Y-9429181D01*
X26724846Y-9716472D01*
X26650066Y-10024265D01*
X26636770Y-10340735D01*
X23355605Y-10340735D01*
X23363230Y-10159265D01*
X23314531Y-9846284D01*
X23205708Y-9548816D01*
X23141762Y-9429181D01*
X22888199Y-9329590D01*
X21967789Y-10250000D01*
X21532211Y-10250000D01*
X20611801Y-9329590D01*
X20358238Y-9429181D01*
X20224846Y-9716472D01*
X20150066Y-10024265D01*
X20136770Y-10340735D01*
X4855605Y-10340735D01*
X4863230Y-10159265D01*
X4814531Y-9846284D01*
X4705708Y-9548816D01*
X4641762Y-9429181D01*
X4388199Y-9329590D01*
X3467789Y-10250000D01*
X3032211Y-10250000D01*
X2111801Y-9329590D01*
X1858238Y-9429181D01*
X1724846Y-9716472D01*
X1650066Y-10024265D01*
X1636770Y-10340735D01*
X-1644395Y-10340735D01*
X-1636770Y-10159265D01*
X-1685469Y-9846284D01*
X-1794292Y-9548816D01*
X-1858238Y-9429181D01*
X-2111801Y-9329590D01*
X-3032211Y-10250000D01*
X-3467789Y-10250000D01*
X-4388199Y-9329590D01*
X-4641762Y-9429181D01*
X-4775154Y-9716472D01*
X-4849934Y-10024265D01*
X-4863230Y-10340735D01*
X-20144395Y-10340735D01*
X-20136770Y-10159265D01*
X-20185469Y-9846284D01*
X-20294292Y-9548816D01*
X-20358238Y-9429181D01*
X-20611801Y-9329590D01*
X-21532211Y-10250000D01*
X-21967789Y-10250000D01*
X-22888199Y-9329590D01*
X-23141762Y-9429181D01*
X-23275154Y-9716472D01*
X-23349934Y-10024265D01*
X-23363230Y-10340735D01*
X-26644395Y-10340735D01*
X-26636770Y-10159265D01*
X-26685469Y-9846284D01*
X-26794292Y-9548816D01*
X-26858238Y-9429181D01*
X-27111801Y-9329590D01*
X-28032211Y-10250000D01*
X-28467789Y-10250000D01*
X-29388199Y-9329590D01*
X-29641762Y-9429181D01*
X-29775154Y-9716472D01*
X-29849934Y-10024265D01*
X-29863230Y-10340735D01*
X-31309889Y-10340735D01*
X-31185271Y-10289116D01*
X-30996918Y-10163263D01*
X-30836737Y-10003082D01*
X-30710884Y-9814729D01*
X-30624194Y-9605443D01*
X-30580000Y-9383265D01*
X-30580000Y-9156735D01*
X-30588937Y-9111801D01*
X-29170410Y-9111801D01*
X-28250000Y-10032211D01*
X-27329590Y-9111801D01*
X-22670410Y-9111801D01*
X-21750000Y-10032211D01*
X-20829590Y-9111801D01*
X-4170410Y-9111801D01*
X-3250000Y-10032211D01*
X-2329590Y-9111801D01*
X2329590Y-9111801D01*
X3250000Y-10032211D01*
X4170410Y-9111801D01*
X20829590Y-9111801D01*
X21750000Y-10032211D01*
X22670410Y-9111801D01*
X27329590Y-9111801D01*
X28250000Y-10032211D01*
X29170410Y-9111801D01*
X29083723Y-8891090D01*
X30322097Y-8891090D01*
X30433111Y-9116000D01*
X31576000Y-9116000D01*
X31576000Y-9096000D01*
X31884000Y-9096000D01*
X31884000Y-9116000D01*
X34116000Y-9116000D01*
X34116000Y-6884000D01*
X34424000Y-6884000D01*
X34424000Y-9116000D01*
X35566889Y-9116000D01*
X35677903Y-8891090D01*
X35651146Y-8802861D01*
X35533473Y-8542389D01*
X35367246Y-8309878D01*
X35158852Y-8114264D01*
X34975551Y-8000000D01*
X35158852Y-7885736D01*
X35367246Y-7690122D01*
X35533473Y-7457611D01*
X35651146Y-7197139D01*
X35677903Y-7108910D01*
X35566889Y-6884000D01*
X34424000Y-6884000D01*
X34116000Y-6884000D01*
X34096000Y-6884000D01*
X34096000Y-6576000D01*
X34116000Y-6576000D01*
X34116000Y-5432150D01*
X34424000Y-5432150D01*
X34424000Y-6576000D01*
X35566889Y-6576000D01*
X35677903Y-6351090D01*
X35651146Y-6262861D01*
X35533473Y-6002389D01*
X35367246Y-5769878D01*
X35158852Y-5574264D01*
X34916300Y-5423065D01*
X34648911Y-5322091D01*
X34424000Y-5432150D01*
X34116000Y-5432150D01*
X33891089Y-5322091D01*
X33623700Y-5423065D01*
X33381148Y-5574264D01*
X33172754Y-5769878D01*
X33006527Y-6002389D01*
X32888854Y-6262861D01*
X32881451Y-6287272D01*
X32881451Y-5880000D01*
X32875659Y-5821190D01*
X32858504Y-5764640D01*
X32830647Y-5712523D01*
X32793158Y-5666842D01*
X32747477Y-5629353D01*
X32695360Y-5601496D01*
X32638810Y-5584341D01*
X32580000Y-5578549D01*
X30880000Y-5578549D01*
X30821190Y-5584341D01*
X30764640Y-5601496D01*
X30712523Y-5629353D01*
X30666842Y-5666842D01*
X30629353Y-5712523D01*
X30601496Y-5764640D01*
X30584341Y-5821190D01*
X30578549Y-5880000D01*
X30578549Y-7580000D01*
X30584341Y-7638810D01*
X30601496Y-7695360D01*
X30629353Y-7747477D01*
X30666842Y-7793158D01*
X30712523Y-7830647D01*
X30764640Y-7858504D01*
X30821190Y-7875659D01*
X30880000Y-7881451D01*
X31299822Y-7881451D01*
X31083700Y-7963065D01*
X30841148Y-8114264D01*
X30632754Y-8309878D01*
X30466527Y-8542389D01*
X30348854Y-8802861D01*
X30322097Y-8891090D01*
X29083723Y-8891090D01*
X29070819Y-8858238D01*
X28783528Y-8724846D01*
X28475735Y-8650066D01*
X28159265Y-8636770D01*
X27846284Y-8685469D01*
X27548816Y-8794292D01*
X27429181Y-8858238D01*
X27329590Y-9111801D01*
X22670410Y-9111801D01*
X22570819Y-8858238D01*
X22283528Y-8724846D01*
X21975735Y-8650066D01*
X21659265Y-8636770D01*
X21346284Y-8685469D01*
X21048816Y-8794292D01*
X20929181Y-8858238D01*
X20829590Y-9111801D01*
X4170410Y-9111801D01*
X4070819Y-8858238D01*
X3783528Y-8724846D01*
X3475735Y-8650066D01*
X3159265Y-8636770D01*
X2846284Y-8685469D01*
X2548816Y-8794292D01*
X2429181Y-8858238D01*
X2329590Y-9111801D01*
X-2329590Y-9111801D01*
X-2429181Y-8858238D01*
X-2716472Y-8724846D01*
X-3024265Y-8650066D01*
X-3340735Y-8636770D01*
X-3653716Y-8685469D01*
X-3951184Y-8794292D01*
X-4070819Y-8858238D01*
X-4170410Y-9111801D01*
X-20829590Y-9111801D01*
X-20929181Y-8858238D01*
X-21216472Y-8724846D01*
X-21524265Y-8650066D01*
X-21840735Y-8636770D01*
X-22153716Y-8685469D01*
X-22451184Y-8794292D01*
X-22570819Y-8858238D01*
X-22670410Y-9111801D01*
X-27329590Y-9111801D01*
X-27429181Y-8858238D01*
X-27716472Y-8724846D01*
X-28024265Y-8650066D01*
X-28340735Y-8636770D01*
X-28653716Y-8685469D01*
X-28951184Y-8794292D01*
X-29070819Y-8858238D01*
X-29170410Y-9111801D01*
X-30588937Y-9111801D01*
X-30624194Y-8934557D01*
X-30710884Y-8725271D01*
X-30836737Y-8536918D01*
X-30996918Y-8376737D01*
X-31185271Y-8250884D01*
X-31394557Y-8164194D01*
X-31616735Y-8120000D01*
X-31843265Y-8120000D01*
X-32065443Y-8164194D01*
X-32274729Y-8250884D01*
X-32463082Y-8376737D01*
X-32623263Y-8536918D01*
X-32749116Y-8725271D01*
X-32835806Y-8934557D01*
X-32871897Y-9115998D01*
X-32973110Y-9115998D01*
X-32862097Y-8891090D01*
X-32888854Y-8802861D01*
X-33006527Y-8542389D01*
X-33172754Y-8309878D01*
X-33310907Y-8180197D01*
X-33300811Y-8179203D01*
X-33186203Y-8144437D01*
X-33080579Y-8087980D01*
X-32987999Y-8012001D01*
X-32912020Y-7919421D01*
X-32855563Y-7813797D01*
X-32820797Y-7699189D01*
X-32809058Y-7580000D01*
X-32811524Y-7124065D01*
X-32749116Y-7274729D01*
X-32623263Y-7463082D01*
X-32463082Y-7623263D01*
X-32274729Y-7749116D01*
X-32065443Y-7835806D01*
X-31843265Y-7880000D01*
X-31616735Y-7880000D01*
X-31394557Y-7835806D01*
X-31185271Y-7749116D01*
X-30996918Y-7623263D01*
X-30836737Y-7463082D01*
X-30710884Y-7274729D01*
X-30624194Y-7065443D01*
X-30580000Y-6843265D01*
X-30580000Y-6616735D01*
X-30624194Y-6394557D01*
X-30710884Y-6185271D01*
X-30836737Y-5996918D01*
X-30996918Y-5836737D01*
X-31185271Y-5710884D01*
X-31394557Y-5624194D01*
X-31405783Y-5621961D01*
X-29550000Y-5621961D01*
X-29550000Y-5878039D01*
X-29500042Y-6129196D01*
X-29402045Y-6365781D01*
X-29259776Y-6578702D01*
X-29078702Y-6759776D01*
X-28865781Y-6902045D01*
X-28629196Y-7000042D01*
X-28378039Y-7050000D01*
X-28121961Y-7050000D01*
X-27870804Y-7000042D01*
X-27634219Y-6902045D01*
X-27421298Y-6759776D01*
X-27240224Y-6578702D01*
X-27097955Y-6365781D01*
X-26999958Y-6129196D01*
X-26950000Y-5878039D01*
X-26950000Y-5621961D01*
X-23050000Y-5621961D01*
X-23050000Y-5878039D01*
X-23000042Y-6129196D01*
X-22902045Y-6365781D01*
X-22759776Y-6578702D01*
X-22578702Y-6759776D01*
X-22365781Y-6902045D01*
X-22129196Y-7000042D01*
X-21878039Y-7050000D01*
X-21621961Y-7050000D01*
X-21370804Y-7000042D01*
X-21134219Y-6902045D01*
X-20921298Y-6759776D01*
X-20740224Y-6578702D01*
X-20597955Y-6365781D01*
X-20499958Y-6129196D01*
X-20450000Y-5878039D01*
X-20450000Y-5621961D01*
X-4550000Y-5621961D01*
X-4550000Y-5878039D01*
X-4500042Y-6129196D01*
X-4402045Y-6365781D01*
X-4259776Y-6578702D01*
X-4078702Y-6759776D01*
X-3865781Y-6902045D01*
X-3629196Y-7000042D01*
X-3378039Y-7050000D01*
X-3121961Y-7050000D01*
X-2870804Y-7000042D01*
X-2634219Y-6902045D01*
X-2421298Y-6759776D01*
X-2240224Y-6578702D01*
X-2097955Y-6365781D01*
X-1999958Y-6129196D01*
X-1950000Y-5878039D01*
X-1950000Y-5621961D01*
X1950000Y-5621961D01*
X1950000Y-5878039D01*
X1999958Y-6129196D01*
X2097955Y-6365781D01*
X2240224Y-6578702D01*
X2421298Y-6759776D01*
X2634219Y-6902045D01*
X2870804Y-7000042D01*
X3121961Y-7050000D01*
X3378039Y-7050000D01*
X3629196Y-7000042D01*
X3865781Y-6902045D01*
X4078702Y-6759776D01*
X4259776Y-6578702D01*
X4402045Y-6365781D01*
X4500042Y-6129196D01*
X4550000Y-5878039D01*
X4550000Y-5621961D01*
X20450000Y-5621961D01*
X20450000Y-5878039D01*
X20499958Y-6129196D01*
X20597955Y-6365781D01*
X20740224Y-6578702D01*
X20921298Y-6759776D01*
X21134219Y-6902045D01*
X21370804Y-7000042D01*
X21621961Y-7050000D01*
X21878039Y-7050000D01*
X22129196Y-7000042D01*
X22365781Y-6902045D01*
X22578702Y-6759776D01*
X22759776Y-6578702D01*
X22902045Y-6365781D01*
X23000042Y-6129196D01*
X23050000Y-5878039D01*
X23050000Y-5621961D01*
X26950000Y-5621961D01*
X26950000Y-5878039D01*
X26999958Y-6129196D01*
X27097955Y-6365781D01*
X27240224Y-6578702D01*
X27421298Y-6759776D01*
X27634219Y-6902045D01*
X27870804Y-7000042D01*
X28121961Y-7050000D01*
X28378039Y-7050000D01*
X28629196Y-7000042D01*
X28865781Y-6902045D01*
X29078702Y-6759776D01*
X29259776Y-6578702D01*
X29402045Y-6365781D01*
X29500042Y-6129196D01*
X29550000Y-5878039D01*
X29550000Y-5621961D01*
X29500042Y-5370804D01*
X29402045Y-5134219D01*
X29259776Y-4921298D01*
X29078702Y-4740224D01*
X28865781Y-4597955D01*
X28629196Y-4499958D01*
X28378039Y-4450000D01*
X28121961Y-4450000D01*
X27870804Y-4499958D01*
X27634219Y-4597955D01*
X27421298Y-4740224D01*
X27240224Y-4921298D01*
X27097955Y-5134219D01*
X26999958Y-5370804D01*
X26950000Y-5621961D01*
X23050000Y-5621961D01*
X23000042Y-5370804D01*
X22902045Y-5134219D01*
X22759776Y-4921298D01*
X22578702Y-4740224D01*
X22365781Y-4597955D01*
X22129196Y-4499958D01*
X21878039Y-4450000D01*
X21621961Y-4450000D01*
X21370804Y-4499958D01*
X21134219Y-4597955D01*
X20921298Y-4740224D01*
X20740224Y-4921298D01*
X20597955Y-5134219D01*
X20499958Y-5370804D01*
X20450000Y-5621961D01*
X4550000Y-5621961D01*
X4500042Y-5370804D01*
X4402045Y-5134219D01*
X4259776Y-4921298D01*
X4078702Y-4740224D01*
X3865781Y-4597955D01*
X3629196Y-4499958D01*
X3378039Y-4450000D01*
X3121961Y-4450000D01*
X2870804Y-4499958D01*
X2634219Y-4597955D01*
X2421298Y-4740224D01*
X2240224Y-4921298D01*
X2097955Y-5134219D01*
X1999958Y-5370804D01*
X1950000Y-5621961D01*
X-1950000Y-5621961D01*
X-1999958Y-5370804D01*
X-2097955Y-5134219D01*
X-2240224Y-4921298D01*
X-2421298Y-4740224D01*
X-2634219Y-4597955D01*
X-2870804Y-4499958D01*
X-3121961Y-4450000D01*
X-3378039Y-4450000D01*
X-3629196Y-4499958D01*
X-3865781Y-4597955D01*
X-4078702Y-4740224D01*
X-4259776Y-4921298D01*
X-4402045Y-5134219D01*
X-4500042Y-5370804D01*
X-4550000Y-5621961D01*
X-20450000Y-5621961D01*
X-20499958Y-5370804D01*
X-20597955Y-5134219D01*
X-20740224Y-4921298D01*
X-20921298Y-4740224D01*
X-21134219Y-4597955D01*
X-21370804Y-4499958D01*
X-21621961Y-4450000D01*
X-21878039Y-4450000D01*
X-22129196Y-4499958D01*
X-22365781Y-4597955D01*
X-22578702Y-4740224D01*
X-22759776Y-4921298D01*
X-22902045Y-5134219D01*
X-23000042Y-5370804D01*
X-23050000Y-5621961D01*
X-26950000Y-5621961D01*
X-26999958Y-5370804D01*
X-27097955Y-5134219D01*
X-27240224Y-4921298D01*
X-27421298Y-4740224D01*
X-27634219Y-4597955D01*
X-27870804Y-4499958D01*
X-28121961Y-4450000D01*
X-28378039Y-4450000D01*
X-28629196Y-4499958D01*
X-28865781Y-4597955D01*
X-29078702Y-4740224D01*
X-29259776Y-4921298D01*
X-29402045Y-5134219D01*
X-29500042Y-5370804D01*
X-29550000Y-5621961D01*
X-31405783Y-5621961D01*
X-31616735Y-5580000D01*
X-31843265Y-5580000D01*
X-32065443Y-5624194D01*
X-32274729Y-5710884D01*
X-32463082Y-5836737D01*
X-32623263Y-5996918D01*
X-32749116Y-6185271D01*
X-32811524Y-6335935D01*
X-32809058Y-5880000D01*
X-32820797Y-5760811D01*
X-32855563Y-5646203D01*
X-32912020Y-5540579D01*
X-32987999Y-5447999D01*
X-33080579Y-5372020D01*
X-33186203Y-5315563D01*
X-33300811Y-5280797D01*
X-33420000Y-5269058D01*
X-33964000Y-5272000D01*
X-34116000Y-5424000D01*
X-34424000Y-5424000D01*
X-34576000Y-5272000D01*
X-35120000Y-5269058D01*
X-35239189Y-5280797D01*
X-35353797Y-5315563D01*
X-35459421Y-5372020D01*
X-35552001Y-5447999D01*
X-35627980Y-5540579D01*
X-35684437Y-5646203D01*
X-35719203Y-5760811D01*
X-35730942Y-5880000D01*
X-36675000Y-5880000D01*
X-36675000Y4611801D01*
X-29170410Y4611801D01*
X-29070819Y4358238D01*
X-28783528Y4224846D01*
X-28475735Y4150066D01*
X-28159265Y4136770D01*
X-27846284Y4185469D01*
X-27548816Y4294292D01*
X-27429181Y4358238D01*
X-27329590Y4611801D01*
X-22670410Y4611801D01*
X-22570819Y4358238D01*
X-22283528Y4224846D01*
X-21975735Y4150066D01*
X-21659265Y4136770D01*
X-21346284Y4185469D01*
X-21048816Y4294292D01*
X-20929181Y4358238D01*
X-20829590Y4611801D01*
X20829590Y4611801D01*
X20929181Y4358238D01*
X21216472Y4224846D01*
X21524265Y4150066D01*
X21840735Y4136770D01*
X22153716Y4185469D01*
X22451184Y4294292D01*
X22570819Y4358238D01*
X22670410Y4611801D01*
X27329590Y4611801D01*
X27429181Y4358238D01*
X27716472Y4224846D01*
X28024265Y4150066D01*
X28340735Y4136770D01*
X28653716Y4185469D01*
X28951184Y4294292D01*
X29070819Y4358238D01*
X29170410Y4611801D01*
X28250000Y5532211D01*
X27329590Y4611801D01*
X22670410Y4611801D01*
X21750000Y5532211D01*
X20829590Y4611801D01*
X-20829590Y4611801D01*
X-21750000Y5532211D01*
X-22670410Y4611801D01*
X-27329590Y4611801D01*
X-28250000Y5532211D01*
X-29170410Y4611801D01*
X-36675000Y4611801D01*
X-36675000Y5659265D01*
X-29863230Y5659265D01*
X-29814531Y5346284D01*
X-29705708Y5048816D01*
X-29641762Y4929181D01*
X-29388199Y4829590D01*
X-28467789Y5750000D01*
X-28032211Y5750000D01*
X-27111801Y4829590D01*
X-26858238Y4929181D01*
X-26724846Y5216472D01*
X-26650066Y5524265D01*
X-26644395Y5659265D01*
X-23363230Y5659265D01*
X-23314531Y5346284D01*
X-23205708Y5048816D01*
X-23141762Y4929181D01*
X-22888199Y4829590D01*
X-21967789Y5750000D01*
X-21532211Y5750000D01*
X-20611801Y4829590D01*
X-20358238Y4929181D01*
X-20224846Y5216472D01*
X-20150066Y5524265D01*
X-20144395Y5659265D01*
X20136770Y5659265D01*
X20185469Y5346284D01*
X20294292Y5048816D01*
X20358238Y4929181D01*
X20611801Y4829590D01*
X21532211Y5750000D01*
X21967789Y5750000D01*
X22888199Y4829590D01*
X23141762Y4929181D01*
X23275154Y5216472D01*
X23349934Y5524265D01*
X23355605Y5659265D01*
X26636770Y5659265D01*
X26685469Y5346284D01*
X26794292Y5048816D01*
X26858238Y4929181D01*
X27111801Y4829590D01*
X28032211Y5750000D01*
X28467789Y5750000D01*
X29388199Y4829590D01*
X29641762Y4929181D01*
X29775154Y5216472D01*
X29849934Y5524265D01*
X29863230Y5840735D01*
X29814531Y6153716D01*
X29705708Y6451184D01*
X29641762Y6570819D01*
X29388199Y6670410D01*
X28467789Y5750000D01*
X28032211Y5750000D01*
X27111801Y6670410D01*
X26858238Y6570819D01*
X26724846Y6283528D01*
X26650066Y5975735D01*
X26636770Y5659265D01*
X23355605Y5659265D01*
X23363230Y5840735D01*
X23314531Y6153716D01*
X23205708Y6451184D01*
X23141762Y6570819D01*
X22888199Y6670410D01*
X21967789Y5750000D01*
X21532211Y5750000D01*
X20611801Y6670410D01*
X20358238Y6570819D01*
X20224846Y6283528D01*
X20150066Y5975735D01*
X20136770Y5659265D01*
X-20144395Y5659265D01*
X-20136770Y5840735D01*
X-20185469Y6153716D01*
X-20294292Y6451184D01*
X-20358238Y6570819D01*
X-20611801Y6670410D01*
X-21532211Y5750000D01*
X-21967789Y5750000D01*
X-22888199Y6670410D01*
X-23141762Y6570819D01*
X-23275154Y6283528D01*
X-23349934Y5975735D01*
X-23363230Y5659265D01*
X-26644395Y5659265D01*
X-26636770Y5840735D01*
X-26685469Y6153716D01*
X-26794292Y6451184D01*
X-26858238Y6570819D01*
X-27111801Y6670410D01*
X-28032211Y5750000D01*
X-28467789Y5750000D01*
X-29388199Y6670410D01*
X-29641762Y6570819D01*
X-29775154Y6283528D01*
X-29849934Y5975735D01*
X-29863230Y5659265D01*
X-36675000Y5659265D01*
X-36675000Y6888199D01*
X-29170410Y6888199D01*
X-28250000Y5967789D01*
X-27329590Y6888199D01*
X-22670410Y6888199D01*
X-21750000Y5967789D01*
X-20829590Y6888199D01*
X-20912778Y7100000D01*
X-2780942Y7100000D01*
X-2769203Y6980811D01*
X-2734437Y6866203D01*
X-2677980Y6760579D01*
X-2602001Y6667999D01*
X-2509421Y6592020D01*
X-2403797Y6535563D01*
X-2289189Y6500797D01*
X-2170000Y6489058D01*
X-1576000Y6492000D01*
X-1424000Y6644000D01*
X-1424000Y7846000D01*
X-2626000Y7846000D01*
X-2778000Y7694000D01*
X-2780942Y7100000D01*
X-20912778Y7100000D01*
X-20929181Y7141762D01*
X-21216472Y7275154D01*
X-21524265Y7349934D01*
X-21840735Y7363230D01*
X-22153716Y7314531D01*
X-22451184Y7205708D01*
X-22570819Y7141762D01*
X-22670410Y6888199D01*
X-27329590Y6888199D01*
X-27429181Y7141762D01*
X-27716472Y7275154D01*
X-28024265Y7349934D01*
X-28340735Y7363230D01*
X-28653716Y7314531D01*
X-28951184Y7205708D01*
X-29070819Y7141762D01*
X-29170410Y6888199D01*
X-36675000Y6888199D01*
X-36675000Y8900000D01*
X-2780942Y8900000D01*
X-2778000Y8306000D01*
X-2626000Y8154000D01*
X-1424000Y8154000D01*
X-1424000Y9356000D01*
X-1116000Y9356000D01*
X-1116000Y8154000D01*
X-1096000Y8154000D01*
X-1096000Y7846000D01*
X-1116000Y7846000D01*
X-1116000Y6644000D01*
X-964000Y6492000D01*
X-370000Y6489058D01*
X-250811Y6500797D01*
X-136203Y6535563D01*
X-30579Y6592020D01*
X62001Y6667999D01*
X137980Y6760579D01*
X194437Y6866203D01*
X229203Y6980811D01*
X240942Y7100000D01*
X239544Y7382244D01*
X337899Y7235045D01*
X505045Y7067899D01*
X701587Y6936574D01*
X919973Y6846116D01*
X1151810Y6800000D01*
X1388190Y6800000D01*
X1620027Y6846116D01*
X1721624Y6888199D01*
X20829590Y6888199D01*
X21750000Y5967789D01*
X22670410Y6888199D01*
X27329590Y6888199D01*
X28250000Y5967789D01*
X29170410Y6888199D01*
X29070819Y7141762D01*
X28783528Y7275154D01*
X28475735Y7349934D01*
X28159265Y7363230D01*
X27846284Y7314531D01*
X27548816Y7205708D01*
X27429181Y7141762D01*
X27329590Y6888199D01*
X22670410Y6888199D01*
X22570819Y7141762D01*
X22283528Y7275154D01*
X21975735Y7349934D01*
X21659265Y7363230D01*
X21346284Y7314531D01*
X21048816Y7205708D01*
X20929181Y7141762D01*
X20829590Y6888199D01*
X1721624Y6888199D01*
X1838413Y6936574D01*
X2034955Y7067899D01*
X2202101Y7235045D01*
X2333426Y7431587D01*
X2423884Y7649973D01*
X2470000Y7881810D01*
X2470000Y8118190D01*
X2423884Y8350027D01*
X2333426Y8568413D01*
X2202101Y8764955D01*
X2034955Y8932101D01*
X1838413Y9063426D01*
X1620027Y9153884D01*
X1388190Y9200000D01*
X1151810Y9200000D01*
X919973Y9153884D01*
X701587Y9063426D01*
X505045Y8932101D01*
X337899Y8764955D01*
X239544Y8617756D01*
X240942Y8900000D01*
X229203Y9019189D01*
X194437Y9133797D01*
X137980Y9239421D01*
X62001Y9332001D01*
X-30579Y9407980D01*
X-136203Y9464437D01*
X-250811Y9499203D01*
X-370000Y9510942D01*
X-964000Y9508000D01*
X-1116000Y9356000D01*
X-1424000Y9356000D01*
X-1576000Y9508000D01*
X-2170000Y9510942D01*
X-2289189Y9499203D01*
X-2403797Y9464437D01*
X-2509421Y9407980D01*
X-2602001Y9332001D01*
X-2677980Y9239421D01*
X-2734437Y9133797D01*
X-2769203Y9019189D01*
X-2780942Y8900000D01*
X-36675000Y8900000D01*
X-36675000Y10378039D01*
X-29550000Y10378039D01*
X-29550000Y10121961D01*
X-29500042Y9870804D01*
X-29402045Y9634219D01*
X-29259776Y9421298D01*
X-29078702Y9240224D01*
X-28865781Y9097955D01*
X-28629196Y8999958D01*
X-28378039Y8950000D01*
X-28121961Y8950000D01*
X-27870804Y8999958D01*
X-27634219Y9097955D01*
X-27421298Y9240224D01*
X-27240224Y9421298D01*
X-27097955Y9634219D01*
X-26999958Y9870804D01*
X-26950000Y10121961D01*
X-26950000Y10378039D01*
X-23050000Y10378039D01*
X-23050000Y10121961D01*
X-23000042Y9870804D01*
X-22902045Y9634219D01*
X-22759776Y9421298D01*
X-22578702Y9240224D01*
X-22365781Y9097955D01*
X-22129196Y8999958D01*
X-21878039Y8950000D01*
X-21621961Y8950000D01*
X-21370804Y8999958D01*
X-21134219Y9097955D01*
X-20921298Y9240224D01*
X-20740224Y9421298D01*
X-20597955Y9634219D01*
X-20499958Y9870804D01*
X-20450000Y10121961D01*
X-20450000Y10378039D01*
X20450000Y10378039D01*
X20450000Y10121961D01*
X20499958Y9870804D01*
X20597955Y9634219D01*
X20740224Y9421298D01*
X20921298Y9240224D01*
X21134219Y9097955D01*
X21370804Y8999958D01*
X21621961Y8950000D01*
X21878039Y8950000D01*
X22129196Y8999958D01*
X22365781Y9097955D01*
X22578702Y9240224D01*
X22759776Y9421298D01*
X22902045Y9634219D01*
X23000042Y9870804D01*
X23050000Y10121961D01*
X23050000Y10378039D01*
X26950000Y10378039D01*
X26950000Y10121961D01*
X26999958Y9870804D01*
X27097955Y9634219D01*
X27240224Y9421298D01*
X27421298Y9240224D01*
X27634219Y9097955D01*
X27870804Y8999958D01*
X28121961Y8950000D01*
X28378039Y8950000D01*
X28629196Y8999958D01*
X28865781Y9097955D01*
X29078702Y9240224D01*
X29259776Y9421298D01*
X29402045Y9634219D01*
X29500042Y9870804D01*
X29550000Y10121961D01*
X29550000Y10378039D01*
X29500042Y10629196D01*
X29402045Y10865781D01*
X29259776Y11078702D01*
X29078702Y11259776D01*
X28865781Y11402045D01*
X28629196Y11500042D01*
X28378039Y11550000D01*
X28121961Y11550000D01*
X27870804Y11500042D01*
X27634219Y11402045D01*
X27421298Y11259776D01*
X27240224Y11078702D01*
X27097955Y10865781D01*
X26999958Y10629196D01*
X26950000Y10378039D01*
X23050000Y10378039D01*
X23000042Y10629196D01*
X22902045Y10865781D01*
X22759776Y11078702D01*
X22578702Y11259776D01*
X22365781Y11402045D01*
X22129196Y11500042D01*
X21878039Y11550000D01*
X21621961Y11550000D01*
X21370804Y11500042D01*
X21134219Y11402045D01*
X20921298Y11259776D01*
X20740224Y11078702D01*
X20597955Y10865781D01*
X20499958Y10629196D01*
X20450000Y10378039D01*
X-20450000Y10378039D01*
X-20499958Y10629196D01*
X-20597955Y10865781D01*
X-20740224Y11078702D01*
X-20921298Y11259776D01*
X-21134219Y11402045D01*
X-21370804Y11500042D01*
X-21621961Y11550000D01*
X-21878039Y11550000D01*
X-22129196Y11500042D01*
X-22365781Y11402045D01*
X-22578702Y11259776D01*
X-22759776Y11078702D01*
X-22902045Y10865781D01*
X-23000042Y10629196D01*
X-23050000Y10378039D01*
X-26950000Y10378039D01*
X-26999958Y10629196D01*
X-27097955Y10865781D01*
X-27240224Y11078702D01*
X-27421298Y11259776D01*
X-27634219Y11402045D01*
X-27870804Y11500042D01*
X-28121961Y11550000D01*
X-28378039Y11550000D01*
X-28629196Y11500042D01*
X-28865781Y11402045D01*
X-29078702Y11259776D01*
X-29259776Y11078702D01*
X-29402045Y10865781D01*
X-29500042Y10629196D01*
X-29550000Y10378039D01*
X-36675000Y10378039D01*
X-36675000Y19611801D01*
X-4170410Y19611801D01*
X-4070819Y19358238D01*
X-3783528Y19224846D01*
X-3475735Y19150066D01*
X-3159265Y19136770D01*
X-2846284Y19185469D01*
X-2548816Y19294292D01*
X-2429181Y19358238D01*
X-2329590Y19611801D01*
X2329590Y19611801D01*
X2429181Y19358238D01*
X2716472Y19224846D01*
X3024265Y19150066D01*
X3340735Y19136770D01*
X3653716Y19185469D01*
X3951184Y19294292D01*
X4070819Y19358238D01*
X4170410Y19611801D01*
X3250000Y20532211D01*
X2329590Y19611801D01*
X-2329590Y19611801D01*
X-3250000Y20532211D01*
X-4170410Y19611801D01*
X-36675000Y19611801D01*
X-36675000Y21351090D01*
X-35677903Y21351090D01*
X-35651146Y21262861D01*
X-35533473Y21002389D01*
X-35367246Y20769878D01*
X-35158852Y20574264D01*
X-34916300Y20423065D01*
X-34648911Y20322091D01*
X-34424000Y20432150D01*
X-34424000Y21576000D01*
X-35566889Y21576000D01*
X-35677903Y21351090D01*
X-36675000Y21351090D01*
X-36675000Y22108910D01*
X-35677903Y22108910D01*
X-35566889Y21884000D01*
X-34424000Y21884000D01*
X-34424000Y21904000D01*
X-34116000Y21904000D01*
X-34116000Y21884000D01*
X-34096000Y21884000D01*
X-34096000Y21576000D01*
X-34116000Y21576000D01*
X-34116000Y20432150D01*
X-33891089Y20322091D01*
X-33623700Y20423065D01*
X-33381148Y20574264D01*
X-33172754Y20769878D01*
X-33006527Y21002389D01*
X-32888854Y21262861D01*
X-32862097Y21351090D01*
X-32973110Y21575998D01*
X-32871897Y21575998D01*
X-32835806Y21394557D01*
X-32749116Y21185271D01*
X-32623263Y20996918D01*
X-32463082Y20836737D01*
X-32274729Y20710884D01*
X-32065443Y20624194D01*
X-31843265Y20580000D01*
X-31616735Y20580000D01*
X-31394557Y20624194D01*
X-31309889Y20659265D01*
X-4863230Y20659265D01*
X-4814531Y20346284D01*
X-4705708Y20048816D01*
X-4641762Y19929181D01*
X-4388199Y19829590D01*
X-3467789Y20750000D01*
X-3032211Y20750000D01*
X-2111801Y19829590D01*
X-1858238Y19929181D01*
X-1724846Y20216472D01*
X-1650066Y20524265D01*
X-1644395Y20659265D01*
X1636770Y20659265D01*
X1685469Y20346284D01*
X1794292Y20048816D01*
X1858238Y19929181D01*
X2111801Y19829590D01*
X3032211Y20750000D01*
X3467789Y20750000D01*
X4388199Y19829590D01*
X4641762Y19929181D01*
X4775154Y20216472D01*
X4849934Y20524265D01*
X4863230Y20840735D01*
X4814531Y21153716D01*
X4705708Y21451184D01*
X4641762Y21570819D01*
X4388199Y21670410D01*
X3467789Y20750000D01*
X3032211Y20750000D01*
X2111801Y21670410D01*
X1858238Y21570819D01*
X1724846Y21283528D01*
X1650066Y20975735D01*
X1636770Y20659265D01*
X-1644395Y20659265D01*
X-1636770Y20840735D01*
X-1685469Y21153716D01*
X-1794292Y21451184D01*
X-1858238Y21570819D01*
X-2111801Y21670410D01*
X-3032211Y20750000D01*
X-3467789Y20750000D01*
X-4388199Y21670410D01*
X-4641762Y21570819D01*
X-4775154Y21283528D01*
X-4849934Y20975735D01*
X-4863230Y20659265D01*
X-31309889Y20659265D01*
X-31185271Y20710884D01*
X-30996918Y20836737D01*
X-30836737Y20996918D01*
X-30710884Y21185271D01*
X-30624194Y21394557D01*
X-30580000Y21616735D01*
X-30580000Y21843265D01*
X-30588937Y21888199D01*
X-4170410Y21888199D01*
X-3250000Y20967789D01*
X-2329590Y21888199D01*
X2329590Y21888199D01*
X3250000Y20967789D01*
X4170410Y21888199D01*
X4070819Y22141762D01*
X3783528Y22275154D01*
X3475735Y22349934D01*
X3159265Y22363230D01*
X2846284Y22314531D01*
X2548816Y22205708D01*
X2429181Y22141762D01*
X2329590Y21888199D01*
X-2329590Y21888199D01*
X-2429181Y22141762D01*
X-2716472Y22275154D01*
X-3024265Y22349934D01*
X-3340735Y22363230D01*
X-3653716Y22314531D01*
X-3951184Y22205708D01*
X-4070819Y22141762D01*
X-4170410Y21888199D01*
X-30588937Y21888199D01*
X-30624194Y22065443D01*
X-30710884Y22274729D01*
X-30836737Y22463082D01*
X-30996918Y22623263D01*
X-31185271Y22749116D01*
X-31394557Y22835806D01*
X-31616735Y22880000D01*
X-31843265Y22880000D01*
X-32065443Y22835806D01*
X-32274729Y22749116D01*
X-32463082Y22623263D01*
X-32623263Y22463082D01*
X-32749116Y22274729D01*
X-32835806Y22065443D01*
X-32871897Y21884002D01*
X-32973110Y21884002D01*
X-32862097Y22108910D01*
X-32888854Y22197139D01*
X-33006527Y22457611D01*
X-33172754Y22690122D01*
X-33381148Y22885736D01*
X-33623700Y23036935D01*
X-33839822Y23118549D01*
X-33420000Y23118549D01*
X-33361190Y23124341D01*
X-33304640Y23141496D01*
X-33252523Y23169353D01*
X-33206842Y23206842D01*
X-33169353Y23252523D01*
X-33141496Y23304640D01*
X-33124341Y23361190D01*
X-33118549Y23420000D01*
X-33118549Y24383265D01*
X-32880000Y24383265D01*
X-32880000Y24156735D01*
X-32835806Y23934557D01*
X-32749116Y23725271D01*
X-32623263Y23536918D01*
X-32463082Y23376737D01*
X-32274729Y23250884D01*
X-32065443Y23164194D01*
X-31843265Y23120000D01*
X-31616735Y23120000D01*
X-31394557Y23164194D01*
X-31185271Y23250884D01*
X-30996918Y23376737D01*
X-30836737Y23536918D01*
X-30710884Y23725271D01*
X-30624194Y23934557D01*
X-30580000Y24156735D01*
X-30580000Y24383265D01*
X-30624194Y24605443D01*
X-30710884Y24814729D01*
X-30836737Y25003082D01*
X-30996918Y25163263D01*
X-31185271Y25289116D01*
X-31394557Y25375806D01*
X-31405783Y25378039D01*
X-4550000Y25378039D01*
X-4550000Y25121961D01*
X-4500042Y24870804D01*
X-4402045Y24634219D01*
X-4259776Y24421298D01*
X-4078702Y24240224D01*
X-3865781Y24097955D01*
X-3629196Y23999958D01*
X-3378039Y23950000D01*
X-3121961Y23950000D01*
X-2870804Y23999958D01*
X-2634219Y24097955D01*
X-2421298Y24240224D01*
X-2240224Y24421298D01*
X-2097955Y24634219D01*
X-1999958Y24870804D01*
X-1950000Y25121961D01*
X-1950000Y25378039D01*
X1950000Y25378039D01*
X1950000Y25121961D01*
X1999958Y24870804D01*
X2097955Y24634219D01*
X2240224Y24421298D01*
X2421298Y24240224D01*
X2634219Y24097955D01*
X2870804Y23999958D01*
X3121961Y23950000D01*
X3378039Y23950000D01*
X3629196Y23999958D01*
X3865781Y24097955D01*
X4078702Y24240224D01*
X4259776Y24421298D01*
X4402045Y24634219D01*
X4500042Y24870804D01*
X4549609Y25120000D01*
X30578549Y25120000D01*
X30578549Y23420000D01*
X30584341Y23361190D01*
X30601496Y23304640D01*
X30629353Y23252523D01*
X30666842Y23206842D01*
X30712523Y23169353D01*
X30764640Y23141496D01*
X30821190Y23124341D01*
X30880000Y23118549D01*
X32580000Y23118549D01*
X32638810Y23124341D01*
X32695360Y23141496D01*
X32747477Y23169353D01*
X32793158Y23206842D01*
X32830647Y23252523D01*
X32858504Y23304640D01*
X32875659Y23361190D01*
X32881451Y23420000D01*
X32881451Y23827272D01*
X32888854Y23802861D01*
X33006527Y23542389D01*
X33172754Y23309878D01*
X33381148Y23114264D01*
X33564449Y23000000D01*
X33381148Y22885736D01*
X33172754Y22690122D01*
X33006527Y22457611D01*
X32888854Y22197139D01*
X32862097Y22108910D01*
X32973110Y21884002D01*
X32871897Y21884002D01*
X32835806Y22065443D01*
X32749116Y22274729D01*
X32623263Y22463082D01*
X32463082Y22623263D01*
X32274729Y22749116D01*
X32065443Y22835806D01*
X31843265Y22880000D01*
X31616735Y22880000D01*
X31394557Y22835806D01*
X31185271Y22749116D01*
X30996918Y22623263D01*
X30836737Y22463082D01*
X30710884Y22274729D01*
X30624194Y22065443D01*
X30580000Y21843265D01*
X30580000Y21616735D01*
X30624194Y21394557D01*
X30710884Y21185271D01*
X30836737Y20996918D01*
X30996918Y20836737D01*
X31185271Y20710884D01*
X31394557Y20624194D01*
X31616735Y20580000D01*
X31843265Y20580000D01*
X32065443Y20624194D01*
X32274729Y20710884D01*
X32463082Y20836737D01*
X32623263Y20996918D01*
X32749116Y21185271D01*
X32835806Y21394557D01*
X32871897Y21575998D01*
X32973110Y21575998D01*
X32862097Y21351090D01*
X32888854Y21262861D01*
X33006527Y21002389D01*
X33172754Y20769878D01*
X33381148Y20574264D01*
X33623700Y20423065D01*
X33891089Y20322091D01*
X34116000Y20432150D01*
X34116000Y21576000D01*
X34424000Y21576000D01*
X34424000Y20432150D01*
X34648911Y20322091D01*
X34916300Y20423065D01*
X35158852Y20574264D01*
X35367246Y20769878D01*
X35533473Y21002389D01*
X35651146Y21262861D01*
X35677903Y21351090D01*
X35566889Y21576000D01*
X34424000Y21576000D01*
X34116000Y21576000D01*
X34096000Y21576000D01*
X34096000Y21884000D01*
X34116000Y21884000D01*
X34116000Y24116000D01*
X34424000Y24116000D01*
X34424000Y21884000D01*
X35566889Y21884000D01*
X35677903Y22108910D01*
X35651146Y22197139D01*
X35533473Y22457611D01*
X35367246Y22690122D01*
X35158852Y22885736D01*
X34975551Y23000000D01*
X35158852Y23114264D01*
X35367246Y23309878D01*
X35533473Y23542389D01*
X35651146Y23802861D01*
X35677903Y23891090D01*
X35566889Y24116000D01*
X34424000Y24116000D01*
X34116000Y24116000D01*
X34096000Y24116000D01*
X34096000Y24424000D01*
X34116000Y24424000D01*
X34116000Y25567850D01*
X34424000Y25567850D01*
X34424000Y24424000D01*
X35566889Y24424000D01*
X35677903Y24648910D01*
X35651146Y24737139D01*
X35533473Y24997611D01*
X35367246Y25230122D01*
X35158852Y25425736D01*
X34916300Y25576935D01*
X34648911Y25677909D01*
X34424000Y25567850D01*
X34116000Y25567850D01*
X33891089Y25677909D01*
X33623700Y25576935D01*
X33381148Y25425736D01*
X33172754Y25230122D01*
X33006527Y24997611D01*
X32888854Y24737139D01*
X32881451Y24712728D01*
X32881451Y25120000D01*
X32875659Y25178810D01*
X32858504Y25235360D01*
X32830647Y25287477D01*
X32793158Y25333158D01*
X32747477Y25370647D01*
X32695360Y25398504D01*
X32638810Y25415659D01*
X32580000Y25421451D01*
X30880000Y25421451D01*
X30821190Y25415659D01*
X30764640Y25398504D01*
X30712523Y25370647D01*
X30666842Y25333158D01*
X30629353Y25287477D01*
X30601496Y25235360D01*
X30584341Y25178810D01*
X30578549Y25120000D01*
X4549609Y25120000D01*
X4550000Y25121961D01*
X4550000Y25378039D01*
X4500042Y25629196D01*
X4402045Y25865781D01*
X4259776Y26078702D01*
X4078702Y26259776D01*
X3865781Y26402045D01*
X3629196Y26500042D01*
X3378039Y26550000D01*
X3121961Y26550000D01*
X2870804Y26500042D01*
X2634219Y26402045D01*
X2421298Y26259776D01*
X2240224Y26078702D01*
X2097955Y25865781D01*
X1999958Y25629196D01*
X1950000Y25378039D01*
X-1950000Y25378039D01*
X-1999958Y25629196D01*
X-2097955Y25865781D01*
X-2240224Y26078702D01*
X-2421298Y26259776D01*
X-2634219Y26402045D01*
X-2870804Y26500042D01*
X-3121961Y26550000D01*
X-3378039Y26550000D01*
X-3629196Y26500042D01*
X-3865781Y26402045D01*
X-4078702Y26259776D01*
X-4259776Y26078702D01*
X-4402045Y25865781D01*
X-4500042Y25629196D01*
X-4550000Y25378039D01*
X-31405783Y25378039D01*
X-31616735Y25420000D01*
X-31843265Y25420000D01*
X-32065443Y25375806D01*
X-32274729Y25289116D01*
X-32463082Y25163263D01*
X-32623263Y25003082D01*
X-32749116Y24814729D01*
X-32835806Y24605443D01*
X-32880000Y24383265D01*
X-33118549Y24383265D01*
X-33118549Y25120000D01*
X-33124341Y25178810D01*
X-33141496Y25235360D01*
X-33169353Y25287477D01*
X-33206842Y25333158D01*
X-33252523Y25370647D01*
X-33304640Y25398504D01*
X-33361190Y25415659D01*
X-33420000Y25421451D01*
X-35120000Y25421451D01*
X-35178810Y25415659D01*
X-35235360Y25398504D01*
X-35287477Y25370647D01*
X-35333158Y25333158D01*
X-35370647Y25287477D01*
X-35398504Y25235360D01*
X-35415659Y25178810D01*
X-35421451Y25120000D01*
X-35421451Y23420000D01*
X-35415659Y23361190D01*
X-35398504Y23304640D01*
X-35370647Y23252523D01*
X-35333158Y23206842D01*
X-35287477Y23169353D01*
X-35235360Y23141496D01*
X-35178810Y23124341D01*
X-35120000Y23118549D01*
X-34700178Y23118549D01*
X-34916300Y23036935D01*
X-35158852Y22885736D01*
X-35367246Y22690122D01*
X-35533473Y22457611D01*
X-35651146Y22197139D01*
X-35677903Y22108910D01*
X-36675000Y22108910D01*
X-36675000Y25984103D01*
X-36660616Y26130805D01*
X-36622627Y26256629D01*
X-36560924Y26372675D01*
X-36477852Y26474532D01*
X-36376582Y26558310D01*
X-36260973Y26620819D01*
X-36135414Y26659686D01*
X-35989715Y26675000D01*
X35984103Y26675000D01*
X36130805Y26660616D01*
%TA.AperFunction,Conductor*%
D16*
G36*
X36130805Y26660616D02*
G01*
X36256629Y26622627D01*
X36372675Y26560924D01*
X36474532Y26477852D01*
X36558310Y26376582D01*
X36620819Y26260973D01*
X36659686Y26135414D01*
X36675000Y25989715D01*
X36675001Y-10984094D01*
X36660616Y-11130805D01*
X36622627Y-11256629D01*
X36560924Y-11372675D01*
X36477853Y-11474531D01*
X36376586Y-11558307D01*
X36260973Y-11620819D01*
X36135410Y-11659687D01*
X35989716Y-11675000D01*
X29008635Y-11675000D01*
X29070819Y-11641762D01*
X29170410Y-11388199D01*
X28250000Y-10467789D01*
X27329590Y-11388199D01*
X27429181Y-11641762D01*
X27500767Y-11675000D01*
X22508635Y-11675000D01*
X22570819Y-11641762D01*
X22670410Y-11388199D01*
X21750000Y-10467789D01*
X20829590Y-11388199D01*
X20929181Y-11641762D01*
X21000767Y-11675000D01*
X4008635Y-11675000D01*
X4070819Y-11641762D01*
X4170410Y-11388199D01*
X3250000Y-10467789D01*
X2329590Y-11388199D01*
X2429181Y-11641762D01*
X2500767Y-11675000D01*
X-2491365Y-11675000D01*
X-2429181Y-11641762D01*
X-2329590Y-11388199D01*
X-3250000Y-10467789D01*
X-4170410Y-11388199D01*
X-4070819Y-11641762D01*
X-3999233Y-11675000D01*
X-20991365Y-11675000D01*
X-20929181Y-11641762D01*
X-20829590Y-11388199D01*
X-21750000Y-10467789D01*
X-22670410Y-11388199D01*
X-22570819Y-11641762D01*
X-22499233Y-11675000D01*
X-27491365Y-11675000D01*
X-27429181Y-11641762D01*
X-27329590Y-11388199D01*
X-28250000Y-10467789D01*
X-29170410Y-11388199D01*
X-29070819Y-11641762D01*
X-28999233Y-11675000D01*
X-35984104Y-11675000D01*
X-36130805Y-11660616D01*
X-36256629Y-11622627D01*
X-36372675Y-11560924D01*
X-36474531Y-11477853D01*
X-36558307Y-11376586D01*
X-36620819Y-11260973D01*
X-36659687Y-11135410D01*
X-36675000Y-10989716D01*
X-36675000Y-9648910D01*
X-35677903Y-9648910D01*
X-35651146Y-9737139D01*
X-35533473Y-9997611D01*
X-35367246Y-10230122D01*
X-35158852Y-10425736D01*
X-34916300Y-10576935D01*
X-34648911Y-10677909D01*
X-34424000Y-10567850D01*
X-34424000Y-9424000D01*
X-35566889Y-9424000D01*
X-35677903Y-9648910D01*
X-36675000Y-9648910D01*
X-36675000Y-7580000D01*
X-35730942Y-7580000D01*
X-35719203Y-7699189D01*
X-35684437Y-7813797D01*
X-35627980Y-7919421D01*
X-35552001Y-8012001D01*
X-35459421Y-8087980D01*
X-35353797Y-8144437D01*
X-35239189Y-8179203D01*
X-35229093Y-8180197D01*
X-35367246Y-8309878D01*
X-35533473Y-8542389D01*
X-35651146Y-8802861D01*
X-35677903Y-8891090D01*
X-35566889Y-9116000D01*
X-34424000Y-9116000D01*
X-34424000Y-6884000D01*
X-35576000Y-6884000D01*
X-35728000Y-7036000D01*
X-35730942Y-7580000D01*
X-36675000Y-7580000D01*
X-36675000Y-5880000D01*
X-35730942Y-5880000D01*
X-35728000Y-6424000D01*
X-35576000Y-6576000D01*
X-34424000Y-6576000D01*
X-34424000Y-5424000D01*
X-34116000Y-5424000D01*
X-34116000Y-6576000D01*
X-34096000Y-6576000D01*
X-34096000Y-6884000D01*
X-34116000Y-6884000D01*
X-34116000Y-9116000D01*
X-34096000Y-9116000D01*
X-34096000Y-9424000D01*
X-34116000Y-9424000D01*
X-34116000Y-10567850D01*
X-33891089Y-10677909D01*
X-33623700Y-10576935D01*
X-33381148Y-10425736D01*
X-33172754Y-10230122D01*
X-33006527Y-9997611D01*
X-32888854Y-9737139D01*
X-32862097Y-9648910D01*
X-32973110Y-9424002D01*
X-32871897Y-9424002D01*
X-32835806Y-9605443D01*
X-32749116Y-9814729D01*
X-32623263Y-10003082D01*
X-32463082Y-10163263D01*
X-32274729Y-10289116D01*
X-32065443Y-10375806D01*
X-31843265Y-10420000D01*
X-31616735Y-10420000D01*
X-31394557Y-10375806D01*
X-31309889Y-10340735D01*
X-29863230Y-10340735D01*
X-29814531Y-10653716D01*
X-29705708Y-10951184D01*
X-29641762Y-11070819D01*
X-29388199Y-11170410D01*
X-28467789Y-10250000D01*
X-28032211Y-10250000D01*
X-27111801Y-11170410D01*
X-26858238Y-11070819D01*
X-26724846Y-10783528D01*
X-26650066Y-10475735D01*
X-26644395Y-10340735D01*
X-23363230Y-10340735D01*
X-23314531Y-10653716D01*
X-23205708Y-10951184D01*
X-23141762Y-11070819D01*
X-22888199Y-11170410D01*
X-21967789Y-10250000D01*
X-21532211Y-10250000D01*
X-20611801Y-11170410D01*
X-20358238Y-11070819D01*
X-20224846Y-10783528D01*
X-20150066Y-10475735D01*
X-20144395Y-10340735D01*
X-4863230Y-10340735D01*
X-4814531Y-10653716D01*
X-4705708Y-10951184D01*
X-4641762Y-11070819D01*
X-4388199Y-11170410D01*
X-3467789Y-10250000D01*
X-3032211Y-10250000D01*
X-2111801Y-11170410D01*
X-1858238Y-11070819D01*
X-1724846Y-10783528D01*
X-1650066Y-10475735D01*
X-1644395Y-10340735D01*
X1636770Y-10340735D01*
X1685469Y-10653716D01*
X1794292Y-10951184D01*
X1858238Y-11070819D01*
X2111801Y-11170410D01*
X3032211Y-10250000D01*
X3467789Y-10250000D01*
X4388199Y-11170410D01*
X4641762Y-11070819D01*
X4775154Y-10783528D01*
X4849934Y-10475735D01*
X4855605Y-10340735D01*
X20136770Y-10340735D01*
X20185469Y-10653716D01*
X20294292Y-10951184D01*
X20358238Y-11070819D01*
X20611801Y-11170410D01*
X21532211Y-10250000D01*
X21967789Y-10250000D01*
X22888199Y-11170410D01*
X23141762Y-11070819D01*
X23275154Y-10783528D01*
X23349934Y-10475735D01*
X23355605Y-10340735D01*
X26636770Y-10340735D01*
X26685469Y-10653716D01*
X26794292Y-10951184D01*
X26858238Y-11070819D01*
X27111801Y-11170410D01*
X28032211Y-10250000D01*
X28467789Y-10250000D01*
X29388199Y-11170410D01*
X29641762Y-11070819D01*
X29775154Y-10783528D01*
X29849934Y-10475735D01*
X29863230Y-10159265D01*
X29814531Y-9846284D01*
X29742326Y-9648910D01*
X30322097Y-9648910D01*
X30348854Y-9737139D01*
X30466527Y-9997611D01*
X30632754Y-10230122D01*
X30841148Y-10425736D01*
X31083700Y-10576935D01*
X31351089Y-10677909D01*
X31576000Y-10567850D01*
X31576000Y-9424000D01*
X31884000Y-9424000D01*
X31884000Y-10567850D01*
X32108911Y-10677909D01*
X32376300Y-10576935D01*
X32618852Y-10425736D01*
X32827246Y-10230122D01*
X32993473Y-9997611D01*
X33000000Y-9983163D01*
X33006527Y-9997611D01*
X33172754Y-10230122D01*
X33381148Y-10425736D01*
X33623700Y-10576935D01*
X33891089Y-10677909D01*
X34116000Y-10567850D01*
X34116000Y-9424000D01*
X34424000Y-9424000D01*
X34424000Y-10567850D01*
X34648911Y-10677909D01*
X34916300Y-10576935D01*
X35158852Y-10425736D01*
X35367246Y-10230122D01*
X35533473Y-9997611D01*
X35651146Y-9737139D01*
X35677903Y-9648910D01*
X35566889Y-9424000D01*
X34424000Y-9424000D01*
X34116000Y-9424000D01*
X31884000Y-9424000D01*
X31576000Y-9424000D01*
X30433111Y-9424000D01*
X30322097Y-9648910D01*
X29742326Y-9648910D01*
X29705708Y-9548816D01*
X29641762Y-9429181D01*
X29388199Y-9329590D01*
X28467789Y-10250000D01*
X28032211Y-10250000D01*
X27111801Y-9329590D01*
X26858238Y-9429181D01*
X26724846Y-9716472D01*
X26650066Y-10024265D01*
X26636770Y-10340735D01*
X23355605Y-10340735D01*
X23363230Y-10159265D01*
X23314531Y-9846284D01*
X23205708Y-9548816D01*
X23141762Y-9429181D01*
X22888199Y-9329590D01*
X21967789Y-10250000D01*
X21532211Y-10250000D01*
X20611801Y-9329590D01*
X20358238Y-9429181D01*
X20224846Y-9716472D01*
X20150066Y-10024265D01*
X20136770Y-10340735D01*
X4855605Y-10340735D01*
X4863230Y-10159265D01*
X4814531Y-9846284D01*
X4705708Y-9548816D01*
X4641762Y-9429181D01*
X4388199Y-9329590D01*
X3467789Y-10250000D01*
X3032211Y-10250000D01*
X2111801Y-9329590D01*
X1858238Y-9429181D01*
X1724846Y-9716472D01*
X1650066Y-10024265D01*
X1636770Y-10340735D01*
X-1644395Y-10340735D01*
X-1636770Y-10159265D01*
X-1685469Y-9846284D01*
X-1794292Y-9548816D01*
X-1858238Y-9429181D01*
X-2111801Y-9329590D01*
X-3032211Y-10250000D01*
X-3467789Y-10250000D01*
X-4388199Y-9329590D01*
X-4641762Y-9429181D01*
X-4775154Y-9716472D01*
X-4849934Y-10024265D01*
X-4863230Y-10340735D01*
X-20144395Y-10340735D01*
X-20136770Y-10159265D01*
X-20185469Y-9846284D01*
X-20294292Y-9548816D01*
X-20358238Y-9429181D01*
X-20611801Y-9329590D01*
X-21532211Y-10250000D01*
X-21967789Y-10250000D01*
X-22888199Y-9329590D01*
X-23141762Y-9429181D01*
X-23275154Y-9716472D01*
X-23349934Y-10024265D01*
X-23363230Y-10340735D01*
X-26644395Y-10340735D01*
X-26636770Y-10159265D01*
X-26685469Y-9846284D01*
X-26794292Y-9548816D01*
X-26858238Y-9429181D01*
X-27111801Y-9329590D01*
X-28032211Y-10250000D01*
X-28467789Y-10250000D01*
X-29388199Y-9329590D01*
X-29641762Y-9429181D01*
X-29775154Y-9716472D01*
X-29849934Y-10024265D01*
X-29863230Y-10340735D01*
X-31309889Y-10340735D01*
X-31185271Y-10289116D01*
X-30996918Y-10163263D01*
X-30836737Y-10003082D01*
X-30710884Y-9814729D01*
X-30624194Y-9605443D01*
X-30580000Y-9383265D01*
X-30580000Y-9156735D01*
X-30588937Y-9111801D01*
X-29170410Y-9111801D01*
X-28250000Y-10032211D01*
X-27329590Y-9111801D01*
X-22670410Y-9111801D01*
X-21750000Y-10032211D01*
X-20829590Y-9111801D01*
X-4170410Y-9111801D01*
X-3250000Y-10032211D01*
X-2329590Y-9111801D01*
X2329590Y-9111801D01*
X3250000Y-10032211D01*
X4170410Y-9111801D01*
X20829590Y-9111801D01*
X21750000Y-10032211D01*
X22670410Y-9111801D01*
X27329590Y-9111801D01*
X28250000Y-10032211D01*
X29170410Y-9111801D01*
X29083723Y-8891090D01*
X30322097Y-8891090D01*
X30433111Y-9116000D01*
X31576000Y-9116000D01*
X31576000Y-9096000D01*
X31884000Y-9096000D01*
X31884000Y-9116000D01*
X34116000Y-9116000D01*
X34116000Y-6884000D01*
X34424000Y-6884000D01*
X34424000Y-9116000D01*
X35566889Y-9116000D01*
X35677903Y-8891090D01*
X35651146Y-8802861D01*
X35533473Y-8542389D01*
X35367246Y-8309878D01*
X35158852Y-8114264D01*
X34975551Y-8000000D01*
X35158852Y-7885736D01*
X35367246Y-7690122D01*
X35533473Y-7457611D01*
X35651146Y-7197139D01*
X35677903Y-7108910D01*
X35566889Y-6884000D01*
X34424000Y-6884000D01*
X34116000Y-6884000D01*
X34096000Y-6884000D01*
X34096000Y-6576000D01*
X34116000Y-6576000D01*
X34116000Y-5432150D01*
X34424000Y-5432150D01*
X34424000Y-6576000D01*
X35566889Y-6576000D01*
X35677903Y-6351090D01*
X35651146Y-6262861D01*
X35533473Y-6002389D01*
X35367246Y-5769878D01*
X35158852Y-5574264D01*
X34916300Y-5423065D01*
X34648911Y-5322091D01*
X34424000Y-5432150D01*
X34116000Y-5432150D01*
X33891089Y-5322091D01*
X33623700Y-5423065D01*
X33381148Y-5574264D01*
X33172754Y-5769878D01*
X33006527Y-6002389D01*
X32888854Y-6262861D01*
X32881451Y-6287272D01*
X32881451Y-5880000D01*
X32875659Y-5821190D01*
X32858504Y-5764640D01*
X32830647Y-5712523D01*
X32793158Y-5666842D01*
X32747477Y-5629353D01*
X32695360Y-5601496D01*
X32638810Y-5584341D01*
X32580000Y-5578549D01*
X30880000Y-5578549D01*
X30821190Y-5584341D01*
X30764640Y-5601496D01*
X30712523Y-5629353D01*
X30666842Y-5666842D01*
X30629353Y-5712523D01*
X30601496Y-5764640D01*
X30584341Y-5821190D01*
X30578549Y-5880000D01*
X30578549Y-7580000D01*
X30584341Y-7638810D01*
X30601496Y-7695360D01*
X30629353Y-7747477D01*
X30666842Y-7793158D01*
X30712523Y-7830647D01*
X30764640Y-7858504D01*
X30821190Y-7875659D01*
X30880000Y-7881451D01*
X31299822Y-7881451D01*
X31083700Y-7963065D01*
X30841148Y-8114264D01*
X30632754Y-8309878D01*
X30466527Y-8542389D01*
X30348854Y-8802861D01*
X30322097Y-8891090D01*
X29083723Y-8891090D01*
X29070819Y-8858238D01*
X28783528Y-8724846D01*
X28475735Y-8650066D01*
X28159265Y-8636770D01*
X27846284Y-8685469D01*
X27548816Y-8794292D01*
X27429181Y-8858238D01*
X27329590Y-9111801D01*
X22670410Y-9111801D01*
X22570819Y-8858238D01*
X22283528Y-8724846D01*
X21975735Y-8650066D01*
X21659265Y-8636770D01*
X21346284Y-8685469D01*
X21048816Y-8794292D01*
X20929181Y-8858238D01*
X20829590Y-9111801D01*
X4170410Y-9111801D01*
X4070819Y-8858238D01*
X3783528Y-8724846D01*
X3475735Y-8650066D01*
X3159265Y-8636770D01*
X2846284Y-8685469D01*
X2548816Y-8794292D01*
X2429181Y-8858238D01*
X2329590Y-9111801D01*
X-2329590Y-9111801D01*
X-2429181Y-8858238D01*
X-2716472Y-8724846D01*
X-3024265Y-8650066D01*
X-3340735Y-8636770D01*
X-3653716Y-8685469D01*
X-3951184Y-8794292D01*
X-4070819Y-8858238D01*
X-4170410Y-9111801D01*
X-20829590Y-9111801D01*
X-20929181Y-8858238D01*
X-21216472Y-8724846D01*
X-21524265Y-8650066D01*
X-21840735Y-8636770D01*
X-22153716Y-8685469D01*
X-22451184Y-8794292D01*
X-22570819Y-8858238D01*
X-22670410Y-9111801D01*
X-27329590Y-9111801D01*
X-27429181Y-8858238D01*
X-27716472Y-8724846D01*
X-28024265Y-8650066D01*
X-28340735Y-8636770D01*
X-28653716Y-8685469D01*
X-28951184Y-8794292D01*
X-29070819Y-8858238D01*
X-29170410Y-9111801D01*
X-30588937Y-9111801D01*
X-30624194Y-8934557D01*
X-30710884Y-8725271D01*
X-30836737Y-8536918D01*
X-30996918Y-8376737D01*
X-31185271Y-8250884D01*
X-31394557Y-8164194D01*
X-31616735Y-8120000D01*
X-31843265Y-8120000D01*
X-32065443Y-8164194D01*
X-32274729Y-8250884D01*
X-32463082Y-8376737D01*
X-32623263Y-8536918D01*
X-32749116Y-8725271D01*
X-32835806Y-8934557D01*
X-32871897Y-9115998D01*
X-32973110Y-9115998D01*
X-32862097Y-8891090D01*
X-32888854Y-8802861D01*
X-33006527Y-8542389D01*
X-33172754Y-8309878D01*
X-33310907Y-8180197D01*
X-33300811Y-8179203D01*
X-33186203Y-8144437D01*
X-33080579Y-8087980D01*
X-32987999Y-8012001D01*
X-32912020Y-7919421D01*
X-32855563Y-7813797D01*
X-32820797Y-7699189D01*
X-32809058Y-7580000D01*
X-32811524Y-7124065D01*
X-32749116Y-7274729D01*
X-32623263Y-7463082D01*
X-32463082Y-7623263D01*
X-32274729Y-7749116D01*
X-32065443Y-7835806D01*
X-31843265Y-7880000D01*
X-31616735Y-7880000D01*
X-31394557Y-7835806D01*
X-31185271Y-7749116D01*
X-30996918Y-7623263D01*
X-30836737Y-7463082D01*
X-30710884Y-7274729D01*
X-30624194Y-7065443D01*
X-30580000Y-6843265D01*
X-30580000Y-6616735D01*
X-30624194Y-6394557D01*
X-30710884Y-6185271D01*
X-30836737Y-5996918D01*
X-30996918Y-5836737D01*
X-31185271Y-5710884D01*
X-31394557Y-5624194D01*
X-31405783Y-5621961D01*
X-29550000Y-5621961D01*
X-29550000Y-5878039D01*
X-29500042Y-6129196D01*
X-29402045Y-6365781D01*
X-29259776Y-6578702D01*
X-29078702Y-6759776D01*
X-28865781Y-6902045D01*
X-28629196Y-7000042D01*
X-28378039Y-7050000D01*
X-28121961Y-7050000D01*
X-27870804Y-7000042D01*
X-27634219Y-6902045D01*
X-27421298Y-6759776D01*
X-27240224Y-6578702D01*
X-27097955Y-6365781D01*
X-26999958Y-6129196D01*
X-26950000Y-5878039D01*
X-26950000Y-5621961D01*
X-23050000Y-5621961D01*
X-23050000Y-5878039D01*
X-23000042Y-6129196D01*
X-22902045Y-6365781D01*
X-22759776Y-6578702D01*
X-22578702Y-6759776D01*
X-22365781Y-6902045D01*
X-22129196Y-7000042D01*
X-21878039Y-7050000D01*
X-21621961Y-7050000D01*
X-21370804Y-7000042D01*
X-21134219Y-6902045D01*
X-20921298Y-6759776D01*
X-20740224Y-6578702D01*
X-20597955Y-6365781D01*
X-20499958Y-6129196D01*
X-20450000Y-5878039D01*
X-20450000Y-5621961D01*
X-4550000Y-5621961D01*
X-4550000Y-5878039D01*
X-4500042Y-6129196D01*
X-4402045Y-6365781D01*
X-4259776Y-6578702D01*
X-4078702Y-6759776D01*
X-3865781Y-6902045D01*
X-3629196Y-7000042D01*
X-3378039Y-7050000D01*
X-3121961Y-7050000D01*
X-2870804Y-7000042D01*
X-2634219Y-6902045D01*
X-2421298Y-6759776D01*
X-2240224Y-6578702D01*
X-2097955Y-6365781D01*
X-1999958Y-6129196D01*
X-1950000Y-5878039D01*
X-1950000Y-5621961D01*
X1950000Y-5621961D01*
X1950000Y-5878039D01*
X1999958Y-6129196D01*
X2097955Y-6365781D01*
X2240224Y-6578702D01*
X2421298Y-6759776D01*
X2634219Y-6902045D01*
X2870804Y-7000042D01*
X3121961Y-7050000D01*
X3378039Y-7050000D01*
X3629196Y-7000042D01*
X3865781Y-6902045D01*
X4078702Y-6759776D01*
X4259776Y-6578702D01*
X4402045Y-6365781D01*
X4500042Y-6129196D01*
X4550000Y-5878039D01*
X4550000Y-5621961D01*
X20450000Y-5621961D01*
X20450000Y-5878039D01*
X20499958Y-6129196D01*
X20597955Y-6365781D01*
X20740224Y-6578702D01*
X20921298Y-6759776D01*
X21134219Y-6902045D01*
X21370804Y-7000042D01*
X21621961Y-7050000D01*
X21878039Y-7050000D01*
X22129196Y-7000042D01*
X22365781Y-6902045D01*
X22578702Y-6759776D01*
X22759776Y-6578702D01*
X22902045Y-6365781D01*
X23000042Y-6129196D01*
X23050000Y-5878039D01*
X23050000Y-5621961D01*
X26950000Y-5621961D01*
X26950000Y-5878039D01*
X26999958Y-6129196D01*
X27097955Y-6365781D01*
X27240224Y-6578702D01*
X27421298Y-6759776D01*
X27634219Y-6902045D01*
X27870804Y-7000042D01*
X28121961Y-7050000D01*
X28378039Y-7050000D01*
X28629196Y-7000042D01*
X28865781Y-6902045D01*
X29078702Y-6759776D01*
X29259776Y-6578702D01*
X29402045Y-6365781D01*
X29500042Y-6129196D01*
X29550000Y-5878039D01*
X29550000Y-5621961D01*
X29500042Y-5370804D01*
X29402045Y-5134219D01*
X29259776Y-4921298D01*
X29078702Y-4740224D01*
X28865781Y-4597955D01*
X28629196Y-4499958D01*
X28378039Y-4450000D01*
X28121961Y-4450000D01*
X27870804Y-4499958D01*
X27634219Y-4597955D01*
X27421298Y-4740224D01*
X27240224Y-4921298D01*
X27097955Y-5134219D01*
X26999958Y-5370804D01*
X26950000Y-5621961D01*
X23050000Y-5621961D01*
X23000042Y-5370804D01*
X22902045Y-5134219D01*
X22759776Y-4921298D01*
X22578702Y-4740224D01*
X22365781Y-4597955D01*
X22129196Y-4499958D01*
X21878039Y-4450000D01*
X21621961Y-4450000D01*
X21370804Y-4499958D01*
X21134219Y-4597955D01*
X20921298Y-4740224D01*
X20740224Y-4921298D01*
X20597955Y-5134219D01*
X20499958Y-5370804D01*
X20450000Y-5621961D01*
X4550000Y-5621961D01*
X4500042Y-5370804D01*
X4402045Y-5134219D01*
X4259776Y-4921298D01*
X4078702Y-4740224D01*
X3865781Y-4597955D01*
X3629196Y-4499958D01*
X3378039Y-4450000D01*
X3121961Y-4450000D01*
X2870804Y-4499958D01*
X2634219Y-4597955D01*
X2421298Y-4740224D01*
X2240224Y-4921298D01*
X2097955Y-5134219D01*
X1999958Y-5370804D01*
X1950000Y-5621961D01*
X-1950000Y-5621961D01*
X-1999958Y-5370804D01*
X-2097955Y-5134219D01*
X-2240224Y-4921298D01*
X-2421298Y-4740224D01*
X-2634219Y-4597955D01*
X-2870804Y-4499958D01*
X-3121961Y-4450000D01*
X-3378039Y-4450000D01*
X-3629196Y-4499958D01*
X-3865781Y-4597955D01*
X-4078702Y-4740224D01*
X-4259776Y-4921298D01*
X-4402045Y-5134219D01*
X-4500042Y-5370804D01*
X-4550000Y-5621961D01*
X-20450000Y-5621961D01*
X-20499958Y-5370804D01*
X-20597955Y-5134219D01*
X-20740224Y-4921298D01*
X-20921298Y-4740224D01*
X-21134219Y-4597955D01*
X-21370804Y-4499958D01*
X-21621961Y-4450000D01*
X-21878039Y-4450000D01*
X-22129196Y-4499958D01*
X-22365781Y-4597955D01*
X-22578702Y-4740224D01*
X-22759776Y-4921298D01*
X-22902045Y-5134219D01*
X-23000042Y-5370804D01*
X-23050000Y-5621961D01*
X-26950000Y-5621961D01*
X-26999958Y-5370804D01*
X-27097955Y-5134219D01*
X-27240224Y-4921298D01*
X-27421298Y-4740224D01*
X-27634219Y-4597955D01*
X-27870804Y-4499958D01*
X-28121961Y-4450000D01*
X-28378039Y-4450000D01*
X-28629196Y-4499958D01*
X-28865781Y-4597955D01*
X-29078702Y-4740224D01*
X-29259776Y-4921298D01*
X-29402045Y-5134219D01*
X-29500042Y-5370804D01*
X-29550000Y-5621961D01*
X-31405783Y-5621961D01*
X-31616735Y-5580000D01*
X-31843265Y-5580000D01*
X-32065443Y-5624194D01*
X-32274729Y-5710884D01*
X-32463082Y-5836737D01*
X-32623263Y-5996918D01*
X-32749116Y-6185271D01*
X-32811524Y-6335935D01*
X-32809058Y-5880000D01*
X-32820797Y-5760811D01*
X-32855563Y-5646203D01*
X-32912020Y-5540579D01*
X-32987999Y-5447999D01*
X-33080579Y-5372020D01*
X-33186203Y-5315563D01*
X-33300811Y-5280797D01*
X-33420000Y-5269058D01*
X-33964000Y-5272000D01*
X-34116000Y-5424000D01*
X-34424000Y-5424000D01*
X-34576000Y-5272000D01*
X-35120000Y-5269058D01*
X-35239189Y-5280797D01*
X-35353797Y-5315563D01*
X-35459421Y-5372020D01*
X-35552001Y-5447999D01*
X-35627980Y-5540579D01*
X-35684437Y-5646203D01*
X-35719203Y-5760811D01*
X-35730942Y-5880000D01*
X-36675000Y-5880000D01*
X-36675000Y4611801D01*
X-29170410Y4611801D01*
X-29070819Y4358238D01*
X-28783528Y4224846D01*
X-28475735Y4150066D01*
X-28159265Y4136770D01*
X-27846284Y4185469D01*
X-27548816Y4294292D01*
X-27429181Y4358238D01*
X-27329590Y4611801D01*
X-22670410Y4611801D01*
X-22570819Y4358238D01*
X-22283528Y4224846D01*
X-21975735Y4150066D01*
X-21659265Y4136770D01*
X-21346284Y4185469D01*
X-21048816Y4294292D01*
X-20929181Y4358238D01*
X-20829590Y4611801D01*
X20829590Y4611801D01*
X20929181Y4358238D01*
X21216472Y4224846D01*
X21524265Y4150066D01*
X21840735Y4136770D01*
X22153716Y4185469D01*
X22451184Y4294292D01*
X22570819Y4358238D01*
X22670410Y4611801D01*
X27329590Y4611801D01*
X27429181Y4358238D01*
X27716472Y4224846D01*
X28024265Y4150066D01*
X28340735Y4136770D01*
X28653716Y4185469D01*
X28951184Y4294292D01*
X29070819Y4358238D01*
X29170410Y4611801D01*
X28250000Y5532211D01*
X27329590Y4611801D01*
X22670410Y4611801D01*
X21750000Y5532211D01*
X20829590Y4611801D01*
X-20829590Y4611801D01*
X-21750000Y5532211D01*
X-22670410Y4611801D01*
X-27329590Y4611801D01*
X-28250000Y5532211D01*
X-29170410Y4611801D01*
X-36675000Y4611801D01*
X-36675000Y5659265D01*
X-29863230Y5659265D01*
X-29814531Y5346284D01*
X-29705708Y5048816D01*
X-29641762Y4929181D01*
X-29388199Y4829590D01*
X-28467789Y5750000D01*
X-28032211Y5750000D01*
X-27111801Y4829590D01*
X-26858238Y4929181D01*
X-26724846Y5216472D01*
X-26650066Y5524265D01*
X-26644395Y5659265D01*
X-23363230Y5659265D01*
X-23314531Y5346284D01*
X-23205708Y5048816D01*
X-23141762Y4929181D01*
X-22888199Y4829590D01*
X-21967789Y5750000D01*
X-21532211Y5750000D01*
X-20611801Y4829590D01*
X-20358238Y4929181D01*
X-20224846Y5216472D01*
X-20150066Y5524265D01*
X-20144395Y5659265D01*
X20136770Y5659265D01*
X20185469Y5346284D01*
X20294292Y5048816D01*
X20358238Y4929181D01*
X20611801Y4829590D01*
X21532211Y5750000D01*
X21967789Y5750000D01*
X22888199Y4829590D01*
X23141762Y4929181D01*
X23275154Y5216472D01*
X23349934Y5524265D01*
X23355605Y5659265D01*
X26636770Y5659265D01*
X26685469Y5346284D01*
X26794292Y5048816D01*
X26858238Y4929181D01*
X27111801Y4829590D01*
X28032211Y5750000D01*
X28467789Y5750000D01*
X29388199Y4829590D01*
X29641762Y4929181D01*
X29775154Y5216472D01*
X29849934Y5524265D01*
X29863230Y5840735D01*
X29814531Y6153716D01*
X29705708Y6451184D01*
X29641762Y6570819D01*
X29388199Y6670410D01*
X28467789Y5750000D01*
X28032211Y5750000D01*
X27111801Y6670410D01*
X26858238Y6570819D01*
X26724846Y6283528D01*
X26650066Y5975735D01*
X26636770Y5659265D01*
X23355605Y5659265D01*
X23363230Y5840735D01*
X23314531Y6153716D01*
X23205708Y6451184D01*
X23141762Y6570819D01*
X22888199Y6670410D01*
X21967789Y5750000D01*
X21532211Y5750000D01*
X20611801Y6670410D01*
X20358238Y6570819D01*
X20224846Y6283528D01*
X20150066Y5975735D01*
X20136770Y5659265D01*
X-20144395Y5659265D01*
X-20136770Y5840735D01*
X-20185469Y6153716D01*
X-20294292Y6451184D01*
X-20358238Y6570819D01*
X-20611801Y6670410D01*
X-21532211Y5750000D01*
X-21967789Y5750000D01*
X-22888199Y6670410D01*
X-23141762Y6570819D01*
X-23275154Y6283528D01*
X-23349934Y5975735D01*
X-23363230Y5659265D01*
X-26644395Y5659265D01*
X-26636770Y5840735D01*
X-26685469Y6153716D01*
X-26794292Y6451184D01*
X-26858238Y6570819D01*
X-27111801Y6670410D01*
X-28032211Y5750000D01*
X-28467789Y5750000D01*
X-29388199Y6670410D01*
X-29641762Y6570819D01*
X-29775154Y6283528D01*
X-29849934Y5975735D01*
X-29863230Y5659265D01*
X-36675000Y5659265D01*
X-36675000Y6888199D01*
X-29170410Y6888199D01*
X-28250000Y5967789D01*
X-27329590Y6888199D01*
X-22670410Y6888199D01*
X-21750000Y5967789D01*
X-20829590Y6888199D01*
X-20912778Y7100000D01*
X-2780942Y7100000D01*
X-2769203Y6980811D01*
X-2734437Y6866203D01*
X-2677980Y6760579D01*
X-2602001Y6667999D01*
X-2509421Y6592020D01*
X-2403797Y6535563D01*
X-2289189Y6500797D01*
X-2170000Y6489058D01*
X-1576000Y6492000D01*
X-1424000Y6644000D01*
X-1424000Y7846000D01*
X-2626000Y7846000D01*
X-2778000Y7694000D01*
X-2780942Y7100000D01*
X-20912778Y7100000D01*
X-20929181Y7141762D01*
X-21216472Y7275154D01*
X-21524265Y7349934D01*
X-21840735Y7363230D01*
X-22153716Y7314531D01*
X-22451184Y7205708D01*
X-22570819Y7141762D01*
X-22670410Y6888199D01*
X-27329590Y6888199D01*
X-27429181Y7141762D01*
X-27716472Y7275154D01*
X-28024265Y7349934D01*
X-28340735Y7363230D01*
X-28653716Y7314531D01*
X-28951184Y7205708D01*
X-29070819Y7141762D01*
X-29170410Y6888199D01*
X-36675000Y6888199D01*
X-36675000Y8900000D01*
X-2780942Y8900000D01*
X-2778000Y8306000D01*
X-2626000Y8154000D01*
X-1424000Y8154000D01*
X-1424000Y9356000D01*
X-1116000Y9356000D01*
X-1116000Y8154000D01*
X-1096000Y8154000D01*
X-1096000Y7846000D01*
X-1116000Y7846000D01*
X-1116000Y6644000D01*
X-964000Y6492000D01*
X-370000Y6489058D01*
X-250811Y6500797D01*
X-136203Y6535563D01*
X-30579Y6592020D01*
X62001Y6667999D01*
X137980Y6760579D01*
X194437Y6866203D01*
X229203Y6980811D01*
X240942Y7100000D01*
X239544Y7382244D01*
X337899Y7235045D01*
X505045Y7067899D01*
X701587Y6936574D01*
X919973Y6846116D01*
X1151810Y6800000D01*
X1388190Y6800000D01*
X1620027Y6846116D01*
X1721624Y6888199D01*
X20829590Y6888199D01*
X21750000Y5967789D01*
X22670410Y6888199D01*
X27329590Y6888199D01*
X28250000Y5967789D01*
X29170410Y6888199D01*
X29070819Y7141762D01*
X28783528Y7275154D01*
X28475735Y7349934D01*
X28159265Y7363230D01*
X27846284Y7314531D01*
X27548816Y7205708D01*
X27429181Y7141762D01*
X27329590Y6888199D01*
X22670410Y6888199D01*
X22570819Y7141762D01*
X22283528Y7275154D01*
X21975735Y7349934D01*
X21659265Y7363230D01*
X21346284Y7314531D01*
X21048816Y7205708D01*
X20929181Y7141762D01*
X20829590Y6888199D01*
X1721624Y6888199D01*
X1838413Y6936574D01*
X2034955Y7067899D01*
X2202101Y7235045D01*
X2333426Y7431587D01*
X2423884Y7649973D01*
X2470000Y7881810D01*
X2470000Y8118190D01*
X2423884Y8350027D01*
X2333426Y8568413D01*
X2202101Y8764955D01*
X2034955Y8932101D01*
X1838413Y9063426D01*
X1620027Y9153884D01*
X1388190Y9200000D01*
X1151810Y9200000D01*
X919973Y9153884D01*
X701587Y9063426D01*
X505045Y8932101D01*
X337899Y8764955D01*
X239544Y8617756D01*
X240942Y8900000D01*
X229203Y9019189D01*
X194437Y9133797D01*
X137980Y9239421D01*
X62001Y9332001D01*
X-30579Y9407980D01*
X-136203Y9464437D01*
X-250811Y9499203D01*
X-370000Y9510942D01*
X-964000Y9508000D01*
X-1116000Y9356000D01*
X-1424000Y9356000D01*
X-1576000Y9508000D01*
X-2170000Y9510942D01*
X-2289189Y9499203D01*
X-2403797Y9464437D01*
X-2509421Y9407980D01*
X-2602001Y9332001D01*
X-2677980Y9239421D01*
X-2734437Y9133797D01*
X-2769203Y9019189D01*
X-2780942Y8900000D01*
X-36675000Y8900000D01*
X-36675000Y10378039D01*
X-29550000Y10378039D01*
X-29550000Y10121961D01*
X-29500042Y9870804D01*
X-29402045Y9634219D01*
X-29259776Y9421298D01*
X-29078702Y9240224D01*
X-28865781Y9097955D01*
X-28629196Y8999958D01*
X-28378039Y8950000D01*
X-28121961Y8950000D01*
X-27870804Y8999958D01*
X-27634219Y9097955D01*
X-27421298Y9240224D01*
X-27240224Y9421298D01*
X-27097955Y9634219D01*
X-26999958Y9870804D01*
X-26950000Y10121961D01*
X-26950000Y10378039D01*
X-23050000Y10378039D01*
X-23050000Y10121961D01*
X-23000042Y9870804D01*
X-22902045Y9634219D01*
X-22759776Y9421298D01*
X-22578702Y9240224D01*
X-22365781Y9097955D01*
X-22129196Y8999958D01*
X-21878039Y8950000D01*
X-21621961Y8950000D01*
X-21370804Y8999958D01*
X-21134219Y9097955D01*
X-20921298Y9240224D01*
X-20740224Y9421298D01*
X-20597955Y9634219D01*
X-20499958Y9870804D01*
X-20450000Y10121961D01*
X-20450000Y10378039D01*
X20450000Y10378039D01*
X20450000Y10121961D01*
X20499958Y9870804D01*
X20597955Y9634219D01*
X20740224Y9421298D01*
X20921298Y9240224D01*
X21134219Y9097955D01*
X21370804Y8999958D01*
X21621961Y8950000D01*
X21878039Y8950000D01*
X22129196Y8999958D01*
X22365781Y9097955D01*
X22578702Y9240224D01*
X22759776Y9421298D01*
X22902045Y9634219D01*
X23000042Y9870804D01*
X23050000Y10121961D01*
X23050000Y10378039D01*
X26950000Y10378039D01*
X26950000Y10121961D01*
X26999958Y9870804D01*
X27097955Y9634219D01*
X27240224Y9421298D01*
X27421298Y9240224D01*
X27634219Y9097955D01*
X27870804Y8999958D01*
X28121961Y8950000D01*
X28378039Y8950000D01*
X28629196Y8999958D01*
X28865781Y9097955D01*
X29078702Y9240224D01*
X29259776Y9421298D01*
X29402045Y9634219D01*
X29500042Y9870804D01*
X29550000Y10121961D01*
X29550000Y10378039D01*
X29500042Y10629196D01*
X29402045Y10865781D01*
X29259776Y11078702D01*
X29078702Y11259776D01*
X28865781Y11402045D01*
X28629196Y11500042D01*
X28378039Y11550000D01*
X28121961Y11550000D01*
X27870804Y11500042D01*
X27634219Y11402045D01*
X27421298Y11259776D01*
X27240224Y11078702D01*
X27097955Y10865781D01*
X26999958Y10629196D01*
X26950000Y10378039D01*
X23050000Y10378039D01*
X23000042Y10629196D01*
X22902045Y10865781D01*
X22759776Y11078702D01*
X22578702Y11259776D01*
X22365781Y11402045D01*
X22129196Y11500042D01*
X21878039Y11550000D01*
X21621961Y11550000D01*
X21370804Y11500042D01*
X21134219Y11402045D01*
X20921298Y11259776D01*
X20740224Y11078702D01*
X20597955Y10865781D01*
X20499958Y10629196D01*
X20450000Y10378039D01*
X-20450000Y10378039D01*
X-20499958Y10629196D01*
X-20597955Y10865781D01*
X-20740224Y11078702D01*
X-20921298Y11259776D01*
X-21134219Y11402045D01*
X-21370804Y11500042D01*
X-21621961Y11550000D01*
X-21878039Y11550000D01*
X-22129196Y11500042D01*
X-22365781Y11402045D01*
X-22578702Y11259776D01*
X-22759776Y11078702D01*
X-22902045Y10865781D01*
X-23000042Y10629196D01*
X-23050000Y10378039D01*
X-26950000Y10378039D01*
X-26999958Y10629196D01*
X-27097955Y10865781D01*
X-27240224Y11078702D01*
X-27421298Y11259776D01*
X-27634219Y11402045D01*
X-27870804Y11500042D01*
X-28121961Y11550000D01*
X-28378039Y11550000D01*
X-28629196Y11500042D01*
X-28865781Y11402045D01*
X-29078702Y11259776D01*
X-29259776Y11078702D01*
X-29402045Y10865781D01*
X-29500042Y10629196D01*
X-29550000Y10378039D01*
X-36675000Y10378039D01*
X-36675000Y19611801D01*
X-4170410Y19611801D01*
X-4070819Y19358238D01*
X-3783528Y19224846D01*
X-3475735Y19150066D01*
X-3159265Y19136770D01*
X-2846284Y19185469D01*
X-2548816Y19294292D01*
X-2429181Y19358238D01*
X-2329590Y19611801D01*
X2329590Y19611801D01*
X2429181Y19358238D01*
X2716472Y19224846D01*
X3024265Y19150066D01*
X3340735Y19136770D01*
X3653716Y19185469D01*
X3951184Y19294292D01*
X4070819Y19358238D01*
X4170410Y19611801D01*
X3250000Y20532211D01*
X2329590Y19611801D01*
X-2329590Y19611801D01*
X-3250000Y20532211D01*
X-4170410Y19611801D01*
X-36675000Y19611801D01*
X-36675000Y21351090D01*
X-35677903Y21351090D01*
X-35651146Y21262861D01*
X-35533473Y21002389D01*
X-35367246Y20769878D01*
X-35158852Y20574264D01*
X-34916300Y20423065D01*
X-34648911Y20322091D01*
X-34424000Y20432150D01*
X-34424000Y21576000D01*
X-35566889Y21576000D01*
X-35677903Y21351090D01*
X-36675000Y21351090D01*
X-36675000Y22108910D01*
X-35677903Y22108910D01*
X-35566889Y21884000D01*
X-34424000Y21884000D01*
X-34424000Y21904000D01*
X-34116000Y21904000D01*
X-34116000Y21884000D01*
X-34096000Y21884000D01*
X-34096000Y21576000D01*
X-34116000Y21576000D01*
X-34116000Y20432150D01*
X-33891089Y20322091D01*
X-33623700Y20423065D01*
X-33381148Y20574264D01*
X-33172754Y20769878D01*
X-33006527Y21002389D01*
X-32888854Y21262861D01*
X-32862097Y21351090D01*
X-32973110Y21575998D01*
X-32871897Y21575998D01*
X-32835806Y21394557D01*
X-32749116Y21185271D01*
X-32623263Y20996918D01*
X-32463082Y20836737D01*
X-32274729Y20710884D01*
X-32065443Y20624194D01*
X-31843265Y20580000D01*
X-31616735Y20580000D01*
X-31394557Y20624194D01*
X-31309889Y20659265D01*
X-4863230Y20659265D01*
X-4814531Y20346284D01*
X-4705708Y20048816D01*
X-4641762Y19929181D01*
X-4388199Y19829590D01*
X-3467789Y20750000D01*
X-3032211Y20750000D01*
X-2111801Y19829590D01*
X-1858238Y19929181D01*
X-1724846Y20216472D01*
X-1650066Y20524265D01*
X-1644395Y20659265D01*
X1636770Y20659265D01*
X1685469Y20346284D01*
X1794292Y20048816D01*
X1858238Y19929181D01*
X2111801Y19829590D01*
X3032211Y20750000D01*
X3467789Y20750000D01*
X4388199Y19829590D01*
X4641762Y19929181D01*
X4775154Y20216472D01*
X4849934Y20524265D01*
X4863230Y20840735D01*
X4814531Y21153716D01*
X4705708Y21451184D01*
X4641762Y21570819D01*
X4388199Y21670410D01*
X3467789Y20750000D01*
X3032211Y20750000D01*
X2111801Y21670410D01*
X1858238Y21570819D01*
X1724846Y21283528D01*
X1650066Y20975735D01*
X1636770Y20659265D01*
X-1644395Y20659265D01*
X-1636770Y20840735D01*
X-1685469Y21153716D01*
X-1794292Y21451184D01*
X-1858238Y21570819D01*
X-2111801Y21670410D01*
X-3032211Y20750000D01*
X-3467789Y20750000D01*
X-4388199Y21670410D01*
X-4641762Y21570819D01*
X-4775154Y21283528D01*
X-4849934Y20975735D01*
X-4863230Y20659265D01*
X-31309889Y20659265D01*
X-31185271Y20710884D01*
X-30996918Y20836737D01*
X-30836737Y20996918D01*
X-30710884Y21185271D01*
X-30624194Y21394557D01*
X-30580000Y21616735D01*
X-30580000Y21843265D01*
X-30588937Y21888199D01*
X-4170410Y21888199D01*
X-3250000Y20967789D01*
X-2329590Y21888199D01*
X2329590Y21888199D01*
X3250000Y20967789D01*
X4170410Y21888199D01*
X4070819Y22141762D01*
X3783528Y22275154D01*
X3475735Y22349934D01*
X3159265Y22363230D01*
X2846284Y22314531D01*
X2548816Y22205708D01*
X2429181Y22141762D01*
X2329590Y21888199D01*
X-2329590Y21888199D01*
X-2429181Y22141762D01*
X-2716472Y22275154D01*
X-3024265Y22349934D01*
X-3340735Y22363230D01*
X-3653716Y22314531D01*
X-3951184Y22205708D01*
X-4070819Y22141762D01*
X-4170410Y21888199D01*
X-30588937Y21888199D01*
X-30624194Y22065443D01*
X-30710884Y22274729D01*
X-30836737Y22463082D01*
X-30996918Y22623263D01*
X-31185271Y22749116D01*
X-31394557Y22835806D01*
X-31616735Y22880000D01*
X-31843265Y22880000D01*
X-32065443Y22835806D01*
X-32274729Y22749116D01*
X-32463082Y22623263D01*
X-32623263Y22463082D01*
X-32749116Y22274729D01*
X-32835806Y22065443D01*
X-32871897Y21884002D01*
X-32973110Y21884002D01*
X-32862097Y22108910D01*
X-32888854Y22197139D01*
X-33006527Y22457611D01*
X-33172754Y22690122D01*
X-33381148Y22885736D01*
X-33623700Y23036935D01*
X-33839822Y23118549D01*
X-33420000Y23118549D01*
X-33361190Y23124341D01*
X-33304640Y23141496D01*
X-33252523Y23169353D01*
X-33206842Y23206842D01*
X-33169353Y23252523D01*
X-33141496Y23304640D01*
X-33124341Y23361190D01*
X-33118549Y23420000D01*
X-33118549Y24383265D01*
X-32880000Y24383265D01*
X-32880000Y24156735D01*
X-32835806Y23934557D01*
X-32749116Y23725271D01*
X-32623263Y23536918D01*
X-32463082Y23376737D01*
X-32274729Y23250884D01*
X-32065443Y23164194D01*
X-31843265Y23120000D01*
X-31616735Y23120000D01*
X-31394557Y23164194D01*
X-31185271Y23250884D01*
X-30996918Y23376737D01*
X-30836737Y23536918D01*
X-30710884Y23725271D01*
X-30624194Y23934557D01*
X-30580000Y24156735D01*
X-30580000Y24383265D01*
X-30624194Y24605443D01*
X-30710884Y24814729D01*
X-30836737Y25003082D01*
X-30996918Y25163263D01*
X-31185271Y25289116D01*
X-31394557Y25375806D01*
X-31405783Y25378039D01*
X-4550000Y25378039D01*
X-4550000Y25121961D01*
X-4500042Y24870804D01*
X-4402045Y24634219D01*
X-4259776Y24421298D01*
X-4078702Y24240224D01*
X-3865781Y24097955D01*
X-3629196Y23999958D01*
X-3378039Y23950000D01*
X-3121961Y23950000D01*
X-2870804Y23999958D01*
X-2634219Y24097955D01*
X-2421298Y24240224D01*
X-2240224Y24421298D01*
X-2097955Y24634219D01*
X-1999958Y24870804D01*
X-1950000Y25121961D01*
X-1950000Y25378039D01*
X1950000Y25378039D01*
X1950000Y25121961D01*
X1999958Y24870804D01*
X2097955Y24634219D01*
X2240224Y24421298D01*
X2421298Y24240224D01*
X2634219Y24097955D01*
X2870804Y23999958D01*
X3121961Y23950000D01*
X3378039Y23950000D01*
X3629196Y23999958D01*
X3865781Y24097955D01*
X4078702Y24240224D01*
X4259776Y24421298D01*
X4402045Y24634219D01*
X4500042Y24870804D01*
X4549609Y25120000D01*
X30578549Y25120000D01*
X30578549Y23420000D01*
X30584341Y23361190D01*
X30601496Y23304640D01*
X30629353Y23252523D01*
X30666842Y23206842D01*
X30712523Y23169353D01*
X30764640Y23141496D01*
X30821190Y23124341D01*
X30880000Y23118549D01*
X32580000Y23118549D01*
X32638810Y23124341D01*
X32695360Y23141496D01*
X32747477Y23169353D01*
X32793158Y23206842D01*
X32830647Y23252523D01*
X32858504Y23304640D01*
X32875659Y23361190D01*
X32881451Y23420000D01*
X32881451Y23827272D01*
X32888854Y23802861D01*
X33006527Y23542389D01*
X33172754Y23309878D01*
X33381148Y23114264D01*
X33564449Y23000000D01*
X33381148Y22885736D01*
X33172754Y22690122D01*
X33006527Y22457611D01*
X32888854Y22197139D01*
X32862097Y22108910D01*
X32973110Y21884002D01*
X32871897Y21884002D01*
X32835806Y22065443D01*
X32749116Y22274729D01*
X32623263Y22463082D01*
X32463082Y22623263D01*
X32274729Y22749116D01*
X32065443Y22835806D01*
X31843265Y22880000D01*
X31616735Y22880000D01*
X31394557Y22835806D01*
X31185271Y22749116D01*
X30996918Y22623263D01*
X30836737Y22463082D01*
X30710884Y22274729D01*
X30624194Y22065443D01*
X30580000Y21843265D01*
X30580000Y21616735D01*
X30624194Y21394557D01*
X30710884Y21185271D01*
X30836737Y20996918D01*
X30996918Y20836737D01*
X31185271Y20710884D01*
X31394557Y20624194D01*
X31616735Y20580000D01*
X31843265Y20580000D01*
X32065443Y20624194D01*
X32274729Y20710884D01*
X32463082Y20836737D01*
X32623263Y20996918D01*
X32749116Y21185271D01*
X32835806Y21394557D01*
X32871897Y21575998D01*
X32973110Y21575998D01*
X32862097Y21351090D01*
X32888854Y21262861D01*
X33006527Y21002389D01*
X33172754Y20769878D01*
X33381148Y20574264D01*
X33623700Y20423065D01*
X33891089Y20322091D01*
X34116000Y20432150D01*
X34116000Y21576000D01*
X34424000Y21576000D01*
X34424000Y20432150D01*
X34648911Y20322091D01*
X34916300Y20423065D01*
X35158852Y20574264D01*
X35367246Y20769878D01*
X35533473Y21002389D01*
X35651146Y21262861D01*
X35677903Y21351090D01*
X35566889Y21576000D01*
X34424000Y21576000D01*
X34116000Y21576000D01*
X34096000Y21576000D01*
X34096000Y21884000D01*
X34116000Y21884000D01*
X34116000Y24116000D01*
X34424000Y24116000D01*
X34424000Y21884000D01*
X35566889Y21884000D01*
X35677903Y22108910D01*
X35651146Y22197139D01*
X35533473Y22457611D01*
X35367246Y22690122D01*
X35158852Y22885736D01*
X34975551Y23000000D01*
X35158852Y23114264D01*
X35367246Y23309878D01*
X35533473Y23542389D01*
X35651146Y23802861D01*
X35677903Y23891090D01*
X35566889Y24116000D01*
X34424000Y24116000D01*
X34116000Y24116000D01*
X34096000Y24116000D01*
X34096000Y24424000D01*
X34116000Y24424000D01*
X34116000Y25567850D01*
X34424000Y25567850D01*
X34424000Y24424000D01*
X35566889Y24424000D01*
X35677903Y24648910D01*
X35651146Y24737139D01*
X35533473Y24997611D01*
X35367246Y25230122D01*
X35158852Y25425736D01*
X34916300Y25576935D01*
X34648911Y25677909D01*
X34424000Y25567850D01*
X34116000Y25567850D01*
X33891089Y25677909D01*
X33623700Y25576935D01*
X33381148Y25425736D01*
X33172754Y25230122D01*
X33006527Y24997611D01*
X32888854Y24737139D01*
X32881451Y24712728D01*
X32881451Y25120000D01*
X32875659Y25178810D01*
X32858504Y25235360D01*
X32830647Y25287477D01*
X32793158Y25333158D01*
X32747477Y25370647D01*
X32695360Y25398504D01*
X32638810Y25415659D01*
X32580000Y25421451D01*
X30880000Y25421451D01*
X30821190Y25415659D01*
X30764640Y25398504D01*
X30712523Y25370647D01*
X30666842Y25333158D01*
X30629353Y25287477D01*
X30601496Y25235360D01*
X30584341Y25178810D01*
X30578549Y25120000D01*
X4549609Y25120000D01*
X4550000Y25121961D01*
X4550000Y25378039D01*
X4500042Y25629196D01*
X4402045Y25865781D01*
X4259776Y26078702D01*
X4078702Y26259776D01*
X3865781Y26402045D01*
X3629196Y26500042D01*
X3378039Y26550000D01*
X3121961Y26550000D01*
X2870804Y26500042D01*
X2634219Y26402045D01*
X2421298Y26259776D01*
X2240224Y26078702D01*
X2097955Y25865781D01*
X1999958Y25629196D01*
X1950000Y25378039D01*
X-1950000Y25378039D01*
X-1999958Y25629196D01*
X-2097955Y25865781D01*
X-2240224Y26078702D01*
X-2421298Y26259776D01*
X-2634219Y26402045D01*
X-2870804Y26500042D01*
X-3121961Y26550000D01*
X-3378039Y26550000D01*
X-3629196Y26500042D01*
X-3865781Y26402045D01*
X-4078702Y26259776D01*
X-4259776Y26078702D01*
X-4402045Y25865781D01*
X-4500042Y25629196D01*
X-4550000Y25378039D01*
X-31405783Y25378039D01*
X-31616735Y25420000D01*
X-31843265Y25420000D01*
X-32065443Y25375806D01*
X-32274729Y25289116D01*
X-32463082Y25163263D01*
X-32623263Y25003082D01*
X-32749116Y24814729D01*
X-32835806Y24605443D01*
X-32880000Y24383265D01*
X-33118549Y24383265D01*
X-33118549Y25120000D01*
X-33124341Y25178810D01*
X-33141496Y25235360D01*
X-33169353Y25287477D01*
X-33206842Y25333158D01*
X-33252523Y25370647D01*
X-33304640Y25398504D01*
X-33361190Y25415659D01*
X-33420000Y25421451D01*
X-35120000Y25421451D01*
X-35178810Y25415659D01*
X-35235360Y25398504D01*
X-35287477Y25370647D01*
X-35333158Y25333158D01*
X-35370647Y25287477D01*
X-35398504Y25235360D01*
X-35415659Y25178810D01*
X-35421451Y25120000D01*
X-35421451Y23420000D01*
X-35415659Y23361190D01*
X-35398504Y23304640D01*
X-35370647Y23252523D01*
X-35333158Y23206842D01*
X-35287477Y23169353D01*
X-35235360Y23141496D01*
X-35178810Y23124341D01*
X-35120000Y23118549D01*
X-34700178Y23118549D01*
X-34916300Y23036935D01*
X-35158852Y22885736D01*
X-35367246Y22690122D01*
X-35533473Y22457611D01*
X-35651146Y22197139D01*
X-35677903Y22108910D01*
X-36675000Y22108910D01*
X-36675000Y25984103D01*
X-36660616Y26130805D01*
X-36622627Y26256629D01*
X-36560924Y26372675D01*
X-36477852Y26474532D01*
X-36376582Y26558310D01*
X-36260973Y26620819D01*
X-36135414Y26659686D01*
X-35989715Y26675000D01*
X35984103Y26675000D01*
X36130805Y26660616D01*
G37*
%TD.AperFunction*%
%TD*%
M02*
