%TF.GenerationSoftware,KiCad,Pcbnew,5.1.10*%
%TF.CreationDate,2021-11-03T22:20:00+01:00*%
%TF.ProjectId,main_pcb_ui,6d61696e-5f70-4636-925f-75692e6b6963,rev?*%
%TF.SameCoordinates,PX8583b00PY5f5e100*%
%TF.FileFunction,Copper,L1,Top*%
%TF.FilePolarity,Positive*%
%FSLAX46Y46*%
G04 Gerber Fmt 4.6, Leading zero omitted, Abs format (unit mm)*
G04 Created by KiCad (PCBNEW 5.1.10) date 2021-11-03 22:20:00*
%MOMM*%
%LPD*%
G01*
G04 APERTURE LIST*
%TA.AperFunction,ComponentPad*%
%ADD10C,2.000000*%
%TD*%
%TA.AperFunction,ComponentPad*%
%ADD11O,1.700000X1.700000*%
%TD*%
%TA.AperFunction,ComponentPad*%
%ADD12R,1.700000X1.700000*%
%TD*%
%TA.AperFunction,ComponentPad*%
%ADD13C,1.800000*%
%TD*%
%TA.AperFunction,ComponentPad*%
%ADD14R,1.800000X1.800000*%
%TD*%
%TA.AperFunction,Conductor*%
%ADD15C,0.250000*%
%TD*%
G04 APERTURE END LIST*
D10*
%TO.P,SW6,1*%
%TO.N,/MASTER_ON*%
X3250000Y25250000D03*
%TO.P,SW6,2*%
%TO.N,GND*%
X3250000Y20750000D03*
%TO.P,SW6,1*%
%TO.N,/MASTER_ON*%
X-3250000Y25250000D03*
%TO.P,SW6,2*%
%TO.N,GND*%
X-3250000Y20750000D03*
%TD*%
D11*
%TO.P,J4,4*%
%TO.N,GND*%
X34270000Y-9270000D03*
%TO.P,J4,3*%
X31730000Y-9270000D03*
%TO.P,J4,2*%
X34270000Y-6730000D03*
D12*
%TO.P,J4,1*%
%TO.N,/BR-*%
X31730000Y-6730000D03*
%TD*%
D11*
%TO.P,J3,4*%
%TO.N,GND*%
X34270000Y21730000D03*
%TO.P,J3,3*%
%TO.N,/LED*%
X31730000Y21730000D03*
%TO.P,J3,2*%
%TO.N,GND*%
X34270000Y24270000D03*
D12*
%TO.P,J3,1*%
%TO.N,/BR+*%
X31730000Y24270000D03*
%TD*%
D11*
%TO.P,J2,4*%
%TO.N,/MASTER_ON*%
X-31730000Y21730000D03*
%TO.P,J2,3*%
%TO.N,GND*%
X-34270000Y21730000D03*
%TO.P,J2,2*%
%TO.N,/SP+*%
X-31730000Y24270000D03*
D12*
%TO.P,J2,1*%
%TO.N,+3V3*%
X-34270000Y24270000D03*
%TD*%
D11*
%TO.P,J1,4*%
%TO.N,/TRIG*%
X-31730000Y-9270000D03*
%TO.P,J1,3*%
%TO.N,GND*%
X-34270000Y-9270000D03*
%TO.P,J1,2*%
%TO.N,/SP-*%
X-31730000Y-6730000D03*
D12*
%TO.P,J1,1*%
%TO.N,GND*%
X-34270000Y-6730000D03*
%TD*%
%TO.P,R6,2*%
%TO.N,/BR-*%
%TA.AperFunction,SMDPad,CuDef*%
G36*
G01*
X18425000Y-5275000D02*
X18425000Y-4725000D01*
G75*
G02*
X18625000Y-4525000I200000J0D01*
G01*
X19025000Y-4525000D01*
G75*
G02*
X19225000Y-4725000I0J-200000D01*
G01*
X19225000Y-5275000D01*
G75*
G02*
X19025000Y-5475000I-200000J0D01*
G01*
X18625000Y-5475000D01*
G75*
G02*
X18425000Y-5275000I0J200000D01*
G01*
G37*
%TD.AperFunction*%
%TO.P,R6,1*%
%TO.N,+3V3*%
%TA.AperFunction,SMDPad,CuDef*%
G36*
G01*
X16775000Y-5275000D02*
X16775000Y-4725000D01*
G75*
G02*
X16975000Y-4525000I200000J0D01*
G01*
X17375000Y-4525000D01*
G75*
G02*
X17575000Y-4725000I0J-200000D01*
G01*
X17575000Y-5275000D01*
G75*
G02*
X17375000Y-5475000I-200000J0D01*
G01*
X16975000Y-5475000D01*
G75*
G02*
X16775000Y-5275000I0J200000D01*
G01*
G37*
%TD.AperFunction*%
%TD*%
%TO.P,R5,2*%
%TO.N,/BR+*%
%TA.AperFunction,SMDPad,CuDef*%
G36*
G01*
X18425000Y5725000D02*
X18425000Y6275000D01*
G75*
G02*
X18625000Y6475000I200000J0D01*
G01*
X19025000Y6475000D01*
G75*
G02*
X19225000Y6275000I0J-200000D01*
G01*
X19225000Y5725000D01*
G75*
G02*
X19025000Y5525000I-200000J0D01*
G01*
X18625000Y5525000D01*
G75*
G02*
X18425000Y5725000I0J200000D01*
G01*
G37*
%TD.AperFunction*%
%TO.P,R5,1*%
%TO.N,+3V3*%
%TA.AperFunction,SMDPad,CuDef*%
G36*
G01*
X16775000Y5725000D02*
X16775000Y6275000D01*
G75*
G02*
X16975000Y6475000I200000J0D01*
G01*
X17375000Y6475000D01*
G75*
G02*
X17575000Y6275000I0J-200000D01*
G01*
X17575000Y5725000D01*
G75*
G02*
X17375000Y5525000I-200000J0D01*
G01*
X16975000Y5525000D01*
G75*
G02*
X16775000Y5725000I0J200000D01*
G01*
G37*
%TD.AperFunction*%
%TD*%
%TO.P,R4,2*%
%TO.N,/TRIG*%
%TA.AperFunction,SMDPad,CuDef*%
G36*
G01*
X6575000Y-5725000D02*
X6575000Y-6275000D01*
G75*
G02*
X6375000Y-6475000I-200000J0D01*
G01*
X5975000Y-6475000D01*
G75*
G02*
X5775000Y-6275000I0J200000D01*
G01*
X5775000Y-5725000D01*
G75*
G02*
X5975000Y-5525000I200000J0D01*
G01*
X6375000Y-5525000D01*
G75*
G02*
X6575000Y-5725000I0J-200000D01*
G01*
G37*
%TD.AperFunction*%
%TO.P,R4,1*%
%TO.N,+3V3*%
%TA.AperFunction,SMDPad,CuDef*%
G36*
G01*
X8225000Y-5725000D02*
X8225000Y-6275000D01*
G75*
G02*
X8025000Y-6475000I-200000J0D01*
G01*
X7625000Y-6475000D01*
G75*
G02*
X7425000Y-6275000I0J200000D01*
G01*
X7425000Y-5725000D01*
G75*
G02*
X7625000Y-5525000I200000J0D01*
G01*
X8025000Y-5525000D01*
G75*
G02*
X8225000Y-5725000I0J-200000D01*
G01*
G37*
%TD.AperFunction*%
%TD*%
%TO.P,R3,2*%
%TO.N,/SP-*%
%TA.AperFunction,SMDPad,CuDef*%
G36*
G01*
X-18425000Y-5725000D02*
X-18425000Y-6275000D01*
G75*
G02*
X-18625000Y-6475000I-200000J0D01*
G01*
X-19025000Y-6475000D01*
G75*
G02*
X-19225000Y-6275000I0J200000D01*
G01*
X-19225000Y-5725000D01*
G75*
G02*
X-19025000Y-5525000I200000J0D01*
G01*
X-18625000Y-5525000D01*
G75*
G02*
X-18425000Y-5725000I0J-200000D01*
G01*
G37*
%TD.AperFunction*%
%TO.P,R3,1*%
%TO.N,+3V3*%
%TA.AperFunction,SMDPad,CuDef*%
G36*
G01*
X-16775000Y-5725000D02*
X-16775000Y-6275000D01*
G75*
G02*
X-16975000Y-6475000I-200000J0D01*
G01*
X-17375000Y-6475000D01*
G75*
G02*
X-17575000Y-6275000I0J200000D01*
G01*
X-17575000Y-5725000D01*
G75*
G02*
X-17375000Y-5525000I200000J0D01*
G01*
X-16975000Y-5525000D01*
G75*
G02*
X-16775000Y-5725000I0J-200000D01*
G01*
G37*
%TD.AperFunction*%
%TD*%
%TO.P,R2,2*%
%TO.N,/SP+*%
%TA.AperFunction,SMDPad,CuDef*%
G36*
G01*
X-18425000Y6275000D02*
X-18425000Y5725000D01*
G75*
G02*
X-18625000Y5525000I-200000J0D01*
G01*
X-19025000Y5525000D01*
G75*
G02*
X-19225000Y5725000I0J200000D01*
G01*
X-19225000Y6275000D01*
G75*
G02*
X-19025000Y6475000I200000J0D01*
G01*
X-18625000Y6475000D01*
G75*
G02*
X-18425000Y6275000I0J-200000D01*
G01*
G37*
%TD.AperFunction*%
%TO.P,R2,1*%
%TO.N,+3V3*%
%TA.AperFunction,SMDPad,CuDef*%
G36*
G01*
X-16775000Y6275000D02*
X-16775000Y5725000D01*
G75*
G02*
X-16975000Y5525000I-200000J0D01*
G01*
X-17375000Y5525000D01*
G75*
G02*
X-17575000Y5725000I0J200000D01*
G01*
X-17575000Y6275000D01*
G75*
G02*
X-17375000Y6475000I200000J0D01*
G01*
X-16975000Y6475000D01*
G75*
G02*
X-16775000Y6275000I0J-200000D01*
G01*
G37*
%TD.AperFunction*%
%TD*%
D10*
%TO.P,SW5,1*%
%TO.N,/BR-*%
X28250000Y-5750000D03*
%TO.P,SW5,2*%
%TO.N,GND*%
X28250000Y-10250000D03*
%TO.P,SW5,1*%
%TO.N,/BR-*%
X21750000Y-5750000D03*
%TO.P,SW5,2*%
%TO.N,GND*%
X21750000Y-10250000D03*
%TD*%
%TO.P,SW4,1*%
%TO.N,/BR+*%
X28250000Y10250000D03*
%TO.P,SW4,2*%
%TO.N,GND*%
X28250000Y5750000D03*
%TO.P,SW4,1*%
%TO.N,/BR+*%
X21750000Y10250000D03*
%TO.P,SW4,2*%
%TO.N,GND*%
X21750000Y5750000D03*
%TD*%
%TO.P,SW3,1*%
%TO.N,/TRIG*%
X3250000Y-5750000D03*
%TO.P,SW3,2*%
%TO.N,GND*%
X3250000Y-10250000D03*
%TO.P,SW3,1*%
%TO.N,/TRIG*%
X-3250000Y-5750000D03*
%TO.P,SW3,2*%
%TO.N,GND*%
X-3250000Y-10250000D03*
%TD*%
%TO.P,SW2,1*%
%TO.N,/SP-*%
X-21750000Y-5750000D03*
%TO.P,SW2,2*%
%TO.N,GND*%
X-21750000Y-10250000D03*
%TO.P,SW2,1*%
%TO.N,/SP-*%
X-28250000Y-5750000D03*
%TO.P,SW2,2*%
%TO.N,GND*%
X-28250000Y-10250000D03*
%TD*%
%TO.P,SW1,1*%
%TO.N,/SP+*%
X-21750000Y10250000D03*
%TO.P,SW1,2*%
%TO.N,GND*%
X-21750000Y5750000D03*
%TO.P,SW1,1*%
%TO.N,/SP+*%
X-28250000Y10250000D03*
%TO.P,SW1,2*%
%TO.N,GND*%
X-28250000Y5750000D03*
%TD*%
D13*
%TO.P,D1,2*%
%TO.N,Net-(D1-Pad2)*%
X1270000Y8000000D03*
D14*
%TO.P,D1,1*%
%TO.N,GND*%
X-1270000Y8000000D03*
%TD*%
%TO.P,R1,2*%
%TO.N,Net-(D1-Pad2)*%
%TA.AperFunction,SMDPad,CuDef*%
G36*
G01*
X4575000Y8275000D02*
X4575000Y7725000D01*
G75*
G02*
X4375000Y7525000I-200000J0D01*
G01*
X3975000Y7525000D01*
G75*
G02*
X3775000Y7725000I0J200000D01*
G01*
X3775000Y8275000D01*
G75*
G02*
X3975000Y8475000I200000J0D01*
G01*
X4375000Y8475000D01*
G75*
G02*
X4575000Y8275000I0J-200000D01*
G01*
G37*
%TD.AperFunction*%
%TO.P,R1,1*%
%TO.N,/LED*%
%TA.AperFunction,SMDPad,CuDef*%
G36*
G01*
X6225000Y8275000D02*
X6225000Y7725000D01*
G75*
G02*
X6025000Y7525000I-200000J0D01*
G01*
X5625000Y7525000D01*
G75*
G02*
X5425000Y7725000I0J200000D01*
G01*
X5425000Y8275000D01*
G75*
G02*
X5625000Y8475000I200000J0D01*
G01*
X6025000Y8475000D01*
G75*
G02*
X6225000Y8275000I0J-200000D01*
G01*
G37*
%TD.AperFunction*%
%TD*%
D15*
%TO.N,Net-(D1-Pad2)*%
X1270000Y8000000D02*
X4175000Y8000000D01*
%TO.N,/TRIG*%
X-31730000Y-9270000D02*
X-30460000Y-8000000D01*
X-5500000Y-8000000D02*
X-3250000Y-5750000D01*
X-30460000Y-8000000D02*
X-5500000Y-8000000D01*
X-3250000Y-5750000D02*
X3250000Y-5750000D01*
X5925000Y-5750000D02*
X6175000Y-6000000D01*
X3250000Y-5750000D02*
X5925000Y-5750000D01*
%TO.N,/SP-*%
X-28250000Y-5750000D02*
X-21750000Y-5750000D01*
X-19075000Y-5750000D02*
X-18825000Y-6000000D01*
X-21750000Y-5750000D02*
X-19075000Y-5750000D01*
X-29230000Y-6730000D02*
X-28250000Y-5750000D01*
X-31730000Y-6730000D02*
X-29230000Y-6730000D01*
%TO.N,/SP+*%
X-28250000Y10250000D02*
X-21750000Y10250000D01*
X-18825000Y7325000D02*
X-18825000Y6000000D01*
X-21750000Y10250000D02*
X-18825000Y7325000D01*
X-33000000Y23000000D02*
X-31730000Y24270000D01*
X-33000000Y19300000D02*
X-33000000Y23000000D01*
X-28250000Y14550000D02*
X-33000000Y19300000D01*
X-28250000Y10250000D02*
X-28250000Y14550000D01*
%TO.N,/BR-*%
X21000000Y-5000000D02*
X21750000Y-5750000D01*
X18825000Y-5000000D02*
X21000000Y-5000000D01*
X21750000Y-5750000D02*
X28250000Y-5750000D01*
X29230000Y-6730000D02*
X28250000Y-5750000D01*
X31730000Y-6730000D02*
X29230000Y-6730000D01*
%TO.N,/BR+*%
X21750000Y10250000D02*
X28250000Y10250000D01*
X18825000Y7325000D02*
X18825000Y6000000D01*
X21750000Y10250000D02*
X18825000Y7325000D01*
X27250001Y19790001D02*
X31730000Y24270000D01*
X27250001Y11249999D02*
X27250001Y19790001D01*
X28250000Y10250000D02*
X27250001Y11249999D01*
%TO.N,/LED*%
X6600000Y8000000D02*
X5825000Y8000000D01*
X12887499Y8000000D02*
X6600000Y8000000D01*
X30787499Y25900000D02*
X12887499Y8000000D01*
X32500000Y25900000D02*
X30787499Y25900000D01*
X33000000Y25400000D02*
X32500000Y25900000D01*
X33000000Y23000000D02*
X33000000Y25400000D01*
X31730000Y21730000D02*
X33000000Y23000000D01*
%TO.N,+3V3*%
X17200000Y-4975000D02*
X17175000Y-5000000D01*
X17200000Y0D02*
X17200000Y-4975000D01*
X17200000Y5975000D02*
X17175000Y6000000D01*
X17200000Y0D02*
X17200000Y5975000D01*
X7800000Y0D02*
X7800000Y-5975000D01*
X7800000Y-5975000D02*
X7825000Y-6000000D01*
X7800000Y0D02*
X17200000Y0D01*
X-17200000Y-5975000D02*
X-17175000Y-6000000D01*
X-17200000Y0D02*
X-17200000Y-5975000D01*
X-17200000Y0D02*
X7800000Y0D01*
X-17200000Y5975000D02*
X-17175000Y6000000D01*
X-17200000Y0D02*
X-17200000Y5975000D01*
X-29400000Y0D02*
X-17200000Y0D01*
X-31400000Y0D02*
X-35800000Y4400000D01*
X-29400000Y0D02*
X-31400000Y0D01*
X-35800000Y22740000D02*
X-34270000Y24270000D01*
X-35800000Y7200000D02*
X-35800000Y22740000D01*
X-35800000Y4400000D02*
X-35800000Y7200000D01*
%TO.N,/MASTER_ON*%
X-6770000Y21730000D02*
X-3250000Y25250000D01*
X-11330000Y21730000D02*
X-6770000Y21730000D01*
X-31730000Y21730000D02*
X-11330000Y21730000D01*
X-3250000Y25250000D02*
X3250000Y25250000D01*
%TD*%
M02*
