M48
; DRILL file {KiCad 5.1.10} date Wed Nov  3 22:20:07 2021
; FORMAT={-:-/ absolute / metric / decimal}
; #@! TF.CreationDate,2021-11-03T22:20:07+01:00
; #@! TF.GenerationSoftware,Kicad,Pcbnew,5.1.10
FMAT,2
METRIC
T1C0.900
T2C1.000
T3C1.100
%
G90
G05
T1
X-1.27Y8.0
X1.27Y8.0
T2
X-34.27Y24.27
X-34.27Y21.73
X-34.27Y-6.73
X-34.27Y-9.27
X-31.73Y24.27
X-31.73Y21.73
X-31.73Y-6.73
X-31.73Y-9.27
X31.73Y24.27
X31.73Y21.73
X31.73Y-6.73
X31.73Y-9.27
X34.27Y24.27
X34.27Y21.73
X34.27Y-6.73
X34.27Y-9.27
T3
X-28.25Y10.25
X-28.25Y5.75
X-28.25Y-5.75
X-28.25Y-10.25
X-21.75Y10.25
X-21.75Y5.75
X-21.75Y-5.75
X-21.75Y-10.25
X-3.25Y25.25
X-3.25Y20.75
X-3.25Y-5.75
X-3.25Y-10.25
X3.25Y25.25
X3.25Y20.75
X3.25Y-5.75
X3.25Y-10.25
X21.75Y10.25
X21.75Y5.75
X21.75Y-5.75
X21.75Y-10.25
X28.25Y10.25
X28.25Y5.75
X28.25Y-5.75
X28.25Y-10.25
T0
M30
