%TF.GenerationSoftware,KiCad,Pcbnew,5.1.10*%
%TF.CreationDate,2021-11-15T18:17:48+01:00*%
%TF.ProjectId,main_pcb,6d61696e-5f70-4636-922e-6b696361645f,rev?*%
%TF.SameCoordinates,PX8f0d180PY5f5e100*%
%TF.FileFunction,Copper,L1,Top*%
%TF.FilePolarity,Positive*%
%FSLAX46Y46*%
G04 Gerber Fmt 4.6, Leading zero omitted, Abs format (unit mm)*
G04 Created by KiCad (PCBNEW 5.1.10) date 2021-11-15 18:17:48*
%MOMM*%
%LPD*%
G01*
G04 APERTURE LIST*
%TA.AperFunction,ComponentPad*%
%ADD10O,1.700000X1.700000*%
%TD*%
%TA.AperFunction,ComponentPad*%
%ADD11R,1.700000X1.700000*%
%TD*%
%TA.AperFunction,ComponentPad*%
%ADD12C,1.700000*%
%TD*%
%TA.AperFunction,SMDPad,CuDef*%
%ADD13R,2.000000X4.500000*%
%TD*%
%TA.AperFunction,SMDPad,CuDef*%
%ADD14R,2.000000X1.500000*%
%TD*%
%TA.AperFunction,SMDPad,CuDef*%
%ADD15R,2.000000X3.800000*%
%TD*%
%TA.AperFunction,SMDPad,CuDef*%
%ADD16R,0.550000X1.600000*%
%TD*%
%TA.AperFunction,SMDPad,CuDef*%
%ADD17R,1.600000X0.550000*%
%TD*%
%TA.AperFunction,ComponentPad*%
%ADD18C,2.000000*%
%TD*%
%TA.AperFunction,SMDPad,CuDef*%
%ADD19R,1.000000X0.700000*%
%TD*%
%TA.AperFunction,SMDPad,CuDef*%
%ADD20R,0.900000X0.800000*%
%TD*%
%TA.AperFunction,ComponentPad*%
%ADD21C,6.400000*%
%TD*%
%TA.AperFunction,SMDPad,CuDef*%
%ADD22R,0.900000X1.200000*%
%TD*%
%TA.AperFunction,ViaPad*%
%ADD23C,0.700000*%
%TD*%
%TA.AperFunction,Conductor*%
%ADD24C,0.200000*%
%TD*%
%TA.AperFunction,Conductor*%
%ADD25C,0.400000*%
%TD*%
%TA.AperFunction,Conductor*%
%ADD26C,1.000000*%
%TD*%
%TA.AperFunction,Conductor*%
%ADD27C,0.250000*%
%TD*%
G04 APERTURE END LIST*
%TO.P,R5,2*%
%TO.N,Net-(R5-Pad2)*%
%TA.AperFunction,SMDPad,CuDef*%
G36*
G01*
X-6875000Y-26475000D02*
X-6875000Y-25925000D01*
G75*
G02*
X-6675000Y-25725000I200000J0D01*
G01*
X-6275000Y-25725000D01*
G75*
G02*
X-6075000Y-25925000I0J-200000D01*
G01*
X-6075000Y-26475000D01*
G75*
G02*
X-6275000Y-26675000I-200000J0D01*
G01*
X-6675000Y-26675000D01*
G75*
G02*
X-6875000Y-26475000I0J200000D01*
G01*
G37*
%TD.AperFunction*%
%TO.P,R5,1*%
%TO.N,/MASTER_ON*%
%TA.AperFunction,SMDPad,CuDef*%
G36*
G01*
X-8525000Y-26475000D02*
X-8525000Y-25925000D01*
G75*
G02*
X-8325000Y-25725000I200000J0D01*
G01*
X-7925000Y-25725000D01*
G75*
G02*
X-7725000Y-25925000I0J-200000D01*
G01*
X-7725000Y-26475000D01*
G75*
G02*
X-7925000Y-26675000I-200000J0D01*
G01*
X-8325000Y-26675000D01*
G75*
G02*
X-8525000Y-26475000I0J200000D01*
G01*
G37*
%TD.AperFunction*%
%TD*%
D10*
%TO.P,J9,2*%
%TO.N,GND*%
X-20400000Y-41340000D03*
D11*
%TO.P,J9,1*%
%TO.N,/BTN_TRIG*%
X-20400000Y-38800000D03*
%TD*%
%TO.P,R4,2*%
%TO.N,/SDA*%
%TA.AperFunction,SMDPad,CuDef*%
G36*
G01*
X-21325000Y26925000D02*
X-21875000Y26925000D01*
G75*
G02*
X-22075000Y27125000I0J200000D01*
G01*
X-22075000Y27525000D01*
G75*
G02*
X-21875000Y27725000I200000J0D01*
G01*
X-21325000Y27725000D01*
G75*
G02*
X-21125000Y27525000I0J-200000D01*
G01*
X-21125000Y27125000D01*
G75*
G02*
X-21325000Y26925000I-200000J0D01*
G01*
G37*
%TD.AperFunction*%
%TO.P,R4,1*%
%TO.N,+3V3*%
%TA.AperFunction,SMDPad,CuDef*%
G36*
G01*
X-21325000Y25275000D02*
X-21875000Y25275000D01*
G75*
G02*
X-22075000Y25475000I0J200000D01*
G01*
X-22075000Y25875000D01*
G75*
G02*
X-21875000Y26075000I200000J0D01*
G01*
X-21325000Y26075000D01*
G75*
G02*
X-21125000Y25875000I0J-200000D01*
G01*
X-21125000Y25475000D01*
G75*
G02*
X-21325000Y25275000I-200000J0D01*
G01*
G37*
%TD.AperFunction*%
%TD*%
%TO.P,R3,2*%
%TO.N,/SCL*%
%TA.AperFunction,SMDPad,CuDef*%
G36*
G01*
X-18725000Y26925000D02*
X-19275000Y26925000D01*
G75*
G02*
X-19475000Y27125000I0J200000D01*
G01*
X-19475000Y27525000D01*
G75*
G02*
X-19275000Y27725000I200000J0D01*
G01*
X-18725000Y27725000D01*
G75*
G02*
X-18525000Y27525000I0J-200000D01*
G01*
X-18525000Y27125000D01*
G75*
G02*
X-18725000Y26925000I-200000J0D01*
G01*
G37*
%TD.AperFunction*%
%TO.P,R3,1*%
%TO.N,+3V3*%
%TA.AperFunction,SMDPad,CuDef*%
G36*
G01*
X-18725000Y25275000D02*
X-19275000Y25275000D01*
G75*
G02*
X-19475000Y25475000I0J200000D01*
G01*
X-19475000Y25875000D01*
G75*
G02*
X-19275000Y26075000I200000J0D01*
G01*
X-18725000Y26075000D01*
G75*
G02*
X-18525000Y25875000I0J-200000D01*
G01*
X-18525000Y25475000D01*
G75*
G02*
X-18725000Y25275000I-200000J0D01*
G01*
G37*
%TD.AperFunction*%
%TD*%
D12*
%TO.P,J8,6*%
%TO.N,GND*%
X39460000Y17080000D03*
%TO.P,J8,4*%
%TO.N,/MOSI*%
X39460000Y14540000D03*
%TO.P,J8,2*%
%TO.N,+3V3*%
X39460000Y12000000D03*
%TO.P,J8,5*%
%TO.N,/~RESET*%
X42000000Y17080000D03*
%TO.P,J8,3*%
%TO.N,/SCK*%
X42000000Y14540000D03*
%TO.P,J8,1*%
%TO.N,/MISO*%
%TA.AperFunction,ComponentPad*%
G36*
G01*
X42850000Y12600000D02*
X42850000Y11400000D01*
G75*
G02*
X42600000Y11150000I-250000J0D01*
G01*
X41400000Y11150000D01*
G75*
G02*
X41150000Y11400000I0J250000D01*
G01*
X41150000Y12600000D01*
G75*
G02*
X41400000Y12850000I250000J0D01*
G01*
X42600000Y12850000D01*
G75*
G02*
X42850000Y12600000I0J-250000D01*
G01*
G37*
%TD.AperFunction*%
%TD*%
%TO.P,C15,2*%
%TO.N,GND*%
%TA.AperFunction,SMDPad,CuDef*%
G36*
G01*
X-21749999Y43500000D02*
X-23050001Y43500000D01*
G75*
G02*
X-23300000Y43749999I0J249999D01*
G01*
X-23300000Y44400001D01*
G75*
G02*
X-23050001Y44650000I249999J0D01*
G01*
X-21749999Y44650000D01*
G75*
G02*
X-21500000Y44400001I0J-249999D01*
G01*
X-21500000Y43749999D01*
G75*
G02*
X-21749999Y43500000I-249999J0D01*
G01*
G37*
%TD.AperFunction*%
%TO.P,C15,1*%
%TO.N,+5V*%
%TA.AperFunction,SMDPad,CuDef*%
G36*
G01*
X-21749999Y40550000D02*
X-23050001Y40550000D01*
G75*
G02*
X-23300000Y40799999I0J249999D01*
G01*
X-23300000Y41450001D01*
G75*
G02*
X-23050001Y41700000I249999J0D01*
G01*
X-21749999Y41700000D01*
G75*
G02*
X-21500000Y41450001I0J-249999D01*
G01*
X-21500000Y40799999D01*
G75*
G02*
X-21749999Y40550000I-249999J0D01*
G01*
G37*
%TD.AperFunction*%
%TD*%
%TO.P,C14,2*%
%TO.N,GND*%
%TA.AperFunction,SMDPad,CuDef*%
G36*
G01*
X-10950001Y40400000D02*
X-9649999Y40400000D01*
G75*
G02*
X-9400000Y40150001I0J-249999D01*
G01*
X-9400000Y39499999D01*
G75*
G02*
X-9649999Y39250000I-249999J0D01*
G01*
X-10950001Y39250000D01*
G75*
G02*
X-11200000Y39499999I0J249999D01*
G01*
X-11200000Y40150001D01*
G75*
G02*
X-10950001Y40400000I249999J0D01*
G01*
G37*
%TD.AperFunction*%
%TO.P,C14,1*%
%TO.N,+BATT*%
%TA.AperFunction,SMDPad,CuDef*%
G36*
G01*
X-10950001Y43350000D02*
X-9649999Y43350000D01*
G75*
G02*
X-9400000Y43100001I0J-249999D01*
G01*
X-9400000Y42449999D01*
G75*
G02*
X-9649999Y42200000I-249999J0D01*
G01*
X-10950001Y42200000D01*
G75*
G02*
X-11200000Y42449999I0J249999D01*
G01*
X-11200000Y43100001D01*
G75*
G02*
X-10950001Y43350000I249999J0D01*
G01*
G37*
%TD.AperFunction*%
%TD*%
D10*
%TO.P,J4,40*%
%TO.N,Net-(J4-Pad40)*%
X24130000Y32540000D03*
%TO.P,J4,39*%
%TO.N,GND*%
X24130000Y30000000D03*
%TO.P,J4,38*%
%TO.N,Net-(J4-Pad38)*%
X21590000Y32540000D03*
%TO.P,J4,37*%
%TO.N,Net-(J4-Pad37)*%
X21590000Y30000000D03*
%TO.P,J4,36*%
%TO.N,Net-(J4-Pad36)*%
X19050000Y32540000D03*
%TO.P,J4,35*%
%TO.N,/MISO*%
X19050000Y30000000D03*
%TO.P,J4,34*%
%TO.N,GND*%
X16510000Y32540000D03*
%TO.P,J4,33*%
%TO.N,/STAT*%
X16510000Y30000000D03*
%TO.P,J4,32*%
%TO.N,/BR-*%
X13970000Y32540000D03*
%TO.P,J4,31*%
%TO.N,Net-(J4-Pad31)*%
X13970000Y30000000D03*
%TO.P,J4,30*%
%TO.N,GND*%
X11430000Y32540000D03*
%TO.P,J4,29*%
%TO.N,Net-(J4-Pad29)*%
X11430000Y30000000D03*
%TO.P,J4,28*%
%TO.N,Net-(J4-Pad28)*%
X8890000Y32540000D03*
%TO.P,J4,27*%
%TO.N,/BTN_TRIG*%
X8890000Y30000000D03*
%TO.P,J4,26*%
%TO.N,Net-(J4-Pad26)*%
X6350000Y32540000D03*
%TO.P,J4,25*%
%TO.N,GND*%
X6350000Y30000000D03*
%TO.P,J4,24*%
%TO.N,Net-(J4-Pad24)*%
X3810000Y32540000D03*
%TO.P,J4,23*%
%TO.N,Net-(J4-Pad23)*%
X3810000Y30000000D03*
%TO.P,J4,22*%
%TO.N,/BR+*%
X1270000Y32540000D03*
%TO.P,J4,21*%
%TO.N,Net-(J4-Pad21)*%
X1270000Y30000000D03*
%TO.P,J4,20*%
%TO.N,GND*%
X-1270000Y32540000D03*
%TO.P,J4,19*%
%TO.N,Net-(J4-Pad19)*%
X-1270000Y30000000D03*
%TO.P,J4,18*%
%TO.N,/~SC_IRQ*%
X-3810000Y32540000D03*
%TO.P,J4,17*%
%TO.N,+3V3*%
X-3810000Y30000000D03*
%TO.P,J4,16*%
%TO.N,/SP-*%
X-6350000Y32540000D03*
%TO.P,J4,15*%
%TO.N,/SP+*%
X-6350000Y30000000D03*
%TO.P,J4,14*%
%TO.N,GND*%
X-8890000Y32540000D03*
%TO.P,J4,13*%
%TO.N,/PI_LED*%
X-8890000Y30000000D03*
%TO.P,J4,12*%
%TO.N,/SS*%
X-11430000Y32540000D03*
%TO.P,J4,11*%
%TO.N,Net-(J4-Pad11)*%
X-11430000Y30000000D03*
%TO.P,J4,10*%
%TO.N,/PI_RXD*%
X-13970000Y32540000D03*
%TO.P,J4,9*%
%TO.N,GND*%
X-13970000Y30000000D03*
%TO.P,J4,8*%
%TO.N,/PI_TXD*%
X-16510000Y32540000D03*
%TO.P,J4,7*%
%TO.N,/PI_SHTDN*%
X-16510000Y30000000D03*
%TO.P,J4,6*%
%TO.N,GND*%
X-19050000Y32540000D03*
%TO.P,J4,5*%
%TO.N,/SCL*%
X-19050000Y30000000D03*
%TO.P,J4,4*%
%TO.N,+5V*%
X-21590000Y32540000D03*
%TO.P,J4,3*%
%TO.N,/SDA*%
X-21590000Y30000000D03*
%TO.P,J4,2*%
%TO.N,+5V*%
X-24130000Y32540000D03*
D11*
%TO.P,J4,1*%
%TO.N,+3V3*%
X-24130000Y30000000D03*
%TD*%
D13*
%TO.P,Y2,2*%
%TO.N,Net-(C13-Pad2)*%
X12800000Y-15750000D03*
%TO.P,Y2,1*%
%TO.N,Net-(C12-Pad2)*%
X12800000Y-24250000D03*
%TD*%
%TO.P,Y1,2*%
%TO.N,Net-(C4-Pad1)*%
X11700000Y20550000D03*
%TO.P,Y1,1*%
%TO.N,Net-(C3-Pad1)*%
X11700000Y12050000D03*
%TD*%
D14*
%TO.P,U4,1*%
%TO.N,GND*%
X-13150000Y39000000D03*
%TO.P,U4,3*%
%TO.N,+BATT*%
X-13150000Y43600000D03*
%TO.P,U4,2*%
%TO.N,+5V*%
X-13150000Y41300000D03*
D15*
X-19450000Y41300000D03*
%TD*%
D16*
%TO.P,U3,32*%
%TO.N,/PD2*%
X3000000Y-26950000D03*
%TO.P,U3,31*%
%TO.N,/UC_TX*%
X2200000Y-26950000D03*
%TO.P,U3,30*%
%TO.N,/UC_RX*%
X1400000Y-26950000D03*
%TO.P,U3,29*%
%TO.N,/~RESET*%
X600000Y-26950000D03*
%TO.P,U3,28*%
%TO.N,/SCL*%
X-200000Y-26950000D03*
%TO.P,U3,27*%
%TO.N,/SDA*%
X-1000000Y-26950000D03*
%TO.P,U3,26*%
%TO.N,/PWR_EN*%
X-1800000Y-26950000D03*
%TO.P,U3,25*%
%TO.N,/UC_LED*%
X-2600000Y-26950000D03*
D17*
%TO.P,U3,24*%
%TO.N,Net-(R5-Pad2)*%
X-4050000Y-25500000D03*
%TO.P,U3,23*%
%TO.N,/PI_SHTDN*%
X-4050000Y-24700000D03*
%TO.P,U3,22*%
%TO.N,/REF_BAT*%
X-4050000Y-23900000D03*
%TO.P,U3,21*%
%TO.N,GND*%
X-4050000Y-23100000D03*
%TO.P,U3,20*%
%TO.N,Net-(C6-Pad1)*%
X-4050000Y-22300000D03*
%TO.P,U3,19*%
%TO.N,Net-(U3-Pad19)*%
X-4050000Y-21500000D03*
%TO.P,U3,18*%
%TO.N,+3V3*%
X-4050000Y-20700000D03*
%TO.P,U3,17*%
%TO.N,/SCK*%
X-4050000Y-19900000D03*
D16*
%TO.P,U3,16*%
%TO.N,/MISO*%
X-2600000Y-18450000D03*
%TO.P,U3,15*%
%TO.N,/MOSI*%
X-1800000Y-18450000D03*
%TO.P,U3,14*%
%TO.N,/SS*%
X-1000000Y-18450000D03*
%TO.P,U3,13*%
%TO.N,Net-(U3-Pad13)*%
X-200000Y-18450000D03*
%TO.P,U3,12*%
%TO.N,Net-(U3-Pad12)*%
X600000Y-18450000D03*
%TO.P,U3,11*%
%TO.N,Net-(U3-Pad11)*%
X1400000Y-18450000D03*
%TO.P,U3,10*%
%TO.N,/TRIG*%
X2200000Y-18450000D03*
%TO.P,U3,9*%
%TO.N,Net-(U3-Pad9)*%
X3000000Y-18450000D03*
D17*
%TO.P,U3,8*%
%TO.N,Net-(C13-Pad2)*%
X4450000Y-19900000D03*
%TO.P,U3,7*%
%TO.N,Net-(C12-Pad2)*%
X4450000Y-20700000D03*
%TO.P,U3,6*%
%TO.N,+3V3*%
X4450000Y-21500000D03*
%TO.P,U3,5*%
%TO.N,GND*%
X4450000Y-22300000D03*
%TO.P,U3,4*%
%TO.N,+3V3*%
X4450000Y-23100000D03*
%TO.P,U3,3*%
%TO.N,GND*%
X4450000Y-23900000D03*
%TO.P,U3,2*%
%TO.N,Net-(U3-Pad2)*%
X4450000Y-24700000D03*
%TO.P,U3,1*%
%TO.N,Net-(U3-Pad1)*%
X4450000Y-25500000D03*
%TD*%
%TO.P,U1,28*%
%TO.N,Net-(U1-Pad28)*%
%TA.AperFunction,SMDPad,CuDef*%
G36*
G01*
X-1125000Y12875000D02*
X-1125000Y12675000D01*
G75*
G02*
X-1225000Y12575000I-100000J0D01*
G01*
X-2500000Y12575000D01*
G75*
G02*
X-2600000Y12675000I0J100000D01*
G01*
X-2600000Y12875000D01*
G75*
G02*
X-2500000Y12975000I100000J0D01*
G01*
X-1225000Y12975000D01*
G75*
G02*
X-1125000Y12875000I0J-100000D01*
G01*
G37*
%TD.AperFunction*%
%TO.P,U1,27*%
%TO.N,Net-(U1-Pad27)*%
%TA.AperFunction,SMDPad,CuDef*%
G36*
G01*
X-1125000Y13525000D02*
X-1125000Y13325000D01*
G75*
G02*
X-1225000Y13225000I-100000J0D01*
G01*
X-2500000Y13225000D01*
G75*
G02*
X-2600000Y13325000I0J100000D01*
G01*
X-2600000Y13525000D01*
G75*
G02*
X-2500000Y13625000I100000J0D01*
G01*
X-1225000Y13625000D01*
G75*
G02*
X-1125000Y13525000I0J-100000D01*
G01*
G37*
%TD.AperFunction*%
%TO.P,U1,26*%
%TO.N,Net-(U1-Pad26)*%
%TA.AperFunction,SMDPad,CuDef*%
G36*
G01*
X-1125000Y14175000D02*
X-1125000Y13975000D01*
G75*
G02*
X-1225000Y13875000I-100000J0D01*
G01*
X-2500000Y13875000D01*
G75*
G02*
X-2600000Y13975000I0J100000D01*
G01*
X-2600000Y14175000D01*
G75*
G02*
X-2500000Y14275000I100000J0D01*
G01*
X-1225000Y14275000D01*
G75*
G02*
X-1125000Y14175000I0J-100000D01*
G01*
G37*
%TD.AperFunction*%
%TO.P,U1,25*%
%TO.N,Net-(U1-Pad25)*%
%TA.AperFunction,SMDPad,CuDef*%
G36*
G01*
X-1125000Y14825000D02*
X-1125000Y14625000D01*
G75*
G02*
X-1225000Y14525000I-100000J0D01*
G01*
X-2500000Y14525000D01*
G75*
G02*
X-2600000Y14625000I0J100000D01*
G01*
X-2600000Y14825000D01*
G75*
G02*
X-2500000Y14925000I100000J0D01*
G01*
X-1225000Y14925000D01*
G75*
G02*
X-1125000Y14825000I0J-100000D01*
G01*
G37*
%TD.AperFunction*%
%TO.P,U1,24*%
%TO.N,/DN_RETO*%
%TA.AperFunction,SMDPad,CuDef*%
G36*
G01*
X-1125000Y15475000D02*
X-1125000Y15275000D01*
G75*
G02*
X-1225000Y15175000I-100000J0D01*
G01*
X-2500000Y15175000D01*
G75*
G02*
X-2600000Y15275000I0J100000D01*
G01*
X-2600000Y15475000D01*
G75*
G02*
X-2500000Y15575000I100000J0D01*
G01*
X-1225000Y15575000D01*
G75*
G02*
X-1125000Y15475000I0J-100000D01*
G01*
G37*
%TD.AperFunction*%
%TO.P,U1,23*%
%TO.N,Net-(R15-Pad1)*%
%TA.AperFunction,SMDPad,CuDef*%
G36*
G01*
X-1125000Y16125000D02*
X-1125000Y15925000D01*
G75*
G02*
X-1225000Y15825000I-100000J0D01*
G01*
X-2500000Y15825000D01*
G75*
G02*
X-2600000Y15925000I0J100000D01*
G01*
X-2600000Y16125000D01*
G75*
G02*
X-2500000Y16225000I100000J0D01*
G01*
X-1225000Y16225000D01*
G75*
G02*
X-1125000Y16125000I0J-100000D01*
G01*
G37*
%TD.AperFunction*%
%TO.P,U1,22*%
%TO.N,GND*%
%TA.AperFunction,SMDPad,CuDef*%
G36*
G01*
X-1125000Y16775000D02*
X-1125000Y16575000D01*
G75*
G02*
X-1225000Y16475000I-100000J0D01*
G01*
X-2500000Y16475000D01*
G75*
G02*
X-2600000Y16575000I0J100000D01*
G01*
X-2600000Y16775000D01*
G75*
G02*
X-2500000Y16875000I100000J0D01*
G01*
X-1225000Y16875000D01*
G75*
G02*
X-1125000Y16775000I0J-100000D01*
G01*
G37*
%TD.AperFunction*%
%TO.P,U1,21*%
%TO.N,Net-(U1-Pad21)*%
%TA.AperFunction,SMDPad,CuDef*%
G36*
G01*
X-1125000Y17425000D02*
X-1125000Y17225000D01*
G75*
G02*
X-1225000Y17125000I-100000J0D01*
G01*
X-2500000Y17125000D01*
G75*
G02*
X-2600000Y17225000I0J100000D01*
G01*
X-2600000Y17425000D01*
G75*
G02*
X-2500000Y17525000I100000J0D01*
G01*
X-1225000Y17525000D01*
G75*
G02*
X-1125000Y17425000I0J-100000D01*
G01*
G37*
%TD.AperFunction*%
%TO.P,U1,20*%
%TO.N,Net-(U1-Pad20)*%
%TA.AperFunction,SMDPad,CuDef*%
G36*
G01*
X-1125000Y18075000D02*
X-1125000Y17875000D01*
G75*
G02*
X-1225000Y17775000I-100000J0D01*
G01*
X-2500000Y17775000D01*
G75*
G02*
X-2600000Y17875000I0J100000D01*
G01*
X-2600000Y18075000D01*
G75*
G02*
X-2500000Y18175000I100000J0D01*
G01*
X-1225000Y18175000D01*
G75*
G02*
X-1125000Y18075000I0J-100000D01*
G01*
G37*
%TD.AperFunction*%
%TO.P,U1,19*%
%TO.N,Net-(U1-Pad19)*%
%TA.AperFunction,SMDPad,CuDef*%
G36*
G01*
X-1125000Y18725000D02*
X-1125000Y18525000D01*
G75*
G02*
X-1225000Y18425000I-100000J0D01*
G01*
X-2500000Y18425000D01*
G75*
G02*
X-2600000Y18525000I0J100000D01*
G01*
X-2600000Y18725000D01*
G75*
G02*
X-2500000Y18825000I100000J0D01*
G01*
X-1225000Y18825000D01*
G75*
G02*
X-1125000Y18725000I0J-100000D01*
G01*
G37*
%TD.AperFunction*%
%TO.P,U1,18*%
%TO.N,Net-(U1-Pad18)*%
%TA.AperFunction,SMDPad,CuDef*%
G36*
G01*
X-1125000Y19375000D02*
X-1125000Y19175000D01*
G75*
G02*
X-1225000Y19075000I-100000J0D01*
G01*
X-2500000Y19075000D01*
G75*
G02*
X-2600000Y19175000I0J100000D01*
G01*
X-2600000Y19375000D01*
G75*
G02*
X-2500000Y19475000I100000J0D01*
G01*
X-1225000Y19475000D01*
G75*
G02*
X-1125000Y19375000I0J-100000D01*
G01*
G37*
%TD.AperFunction*%
%TO.P,U1,17*%
%TO.N,Net-(U1-Pad17)*%
%TA.AperFunction,SMDPad,CuDef*%
G36*
G01*
X-1125000Y20025000D02*
X-1125000Y19825000D01*
G75*
G02*
X-1225000Y19725000I-100000J0D01*
G01*
X-2500000Y19725000D01*
G75*
G02*
X-2600000Y19825000I0J100000D01*
G01*
X-2600000Y20025000D01*
G75*
G02*
X-2500000Y20125000I100000J0D01*
G01*
X-1225000Y20125000D01*
G75*
G02*
X-1125000Y20025000I0J-100000D01*
G01*
G37*
%TD.AperFunction*%
%TO.P,U1,16*%
%TO.N,Net-(U1-Pad16)*%
%TA.AperFunction,SMDPad,CuDef*%
G36*
G01*
X-1125000Y20675000D02*
X-1125000Y20475000D01*
G75*
G02*
X-1225000Y20375000I-100000J0D01*
G01*
X-2500000Y20375000D01*
G75*
G02*
X-2600000Y20475000I0J100000D01*
G01*
X-2600000Y20675000D01*
G75*
G02*
X-2500000Y20775000I100000J0D01*
G01*
X-1225000Y20775000D01*
G75*
G02*
X-1125000Y20675000I0J-100000D01*
G01*
G37*
%TD.AperFunction*%
%TO.P,U1,15*%
%TO.N,/~SC_IRQ*%
%TA.AperFunction,SMDPad,CuDef*%
G36*
G01*
X-1125000Y21325000D02*
X-1125000Y21125000D01*
G75*
G02*
X-1225000Y21025000I-100000J0D01*
G01*
X-2500000Y21025000D01*
G75*
G02*
X-2600000Y21125000I0J100000D01*
G01*
X-2600000Y21325000D01*
G75*
G02*
X-2500000Y21425000I100000J0D01*
G01*
X-1225000Y21425000D01*
G75*
G02*
X-1125000Y21325000I0J-100000D01*
G01*
G37*
%TD.AperFunction*%
%TO.P,U1,14*%
%TO.N,GND*%
%TA.AperFunction,SMDPad,CuDef*%
G36*
G01*
X4600000Y21325000D02*
X4600000Y21125000D01*
G75*
G02*
X4500000Y21025000I-100000J0D01*
G01*
X3225000Y21025000D01*
G75*
G02*
X3125000Y21125000I0J100000D01*
G01*
X3125000Y21325000D01*
G75*
G02*
X3225000Y21425000I100000J0D01*
G01*
X4500000Y21425000D01*
G75*
G02*
X4600000Y21325000I0J-100000D01*
G01*
G37*
%TD.AperFunction*%
%TO.P,U1,13*%
%TO.N,Net-(J4-Pad23)*%
%TA.AperFunction,SMDPad,CuDef*%
G36*
G01*
X4600000Y20675000D02*
X4600000Y20475000D01*
G75*
G02*
X4500000Y20375000I-100000J0D01*
G01*
X3225000Y20375000D01*
G75*
G02*
X3125000Y20475000I0J100000D01*
G01*
X3125000Y20675000D01*
G75*
G02*
X3225000Y20775000I100000J0D01*
G01*
X4500000Y20775000D01*
G75*
G02*
X4600000Y20675000I0J-100000D01*
G01*
G37*
%TD.AperFunction*%
%TO.P,U1,12*%
%TO.N,Net-(J4-Pad21)*%
%TA.AperFunction,SMDPad,CuDef*%
G36*
G01*
X4600000Y20025000D02*
X4600000Y19825000D01*
G75*
G02*
X4500000Y19725000I-100000J0D01*
G01*
X3225000Y19725000D01*
G75*
G02*
X3125000Y19825000I0J100000D01*
G01*
X3125000Y20025000D01*
G75*
G02*
X3225000Y20125000I100000J0D01*
G01*
X4500000Y20125000D01*
G75*
G02*
X4600000Y20025000I0J-100000D01*
G01*
G37*
%TD.AperFunction*%
%TO.P,U1,11*%
%TO.N,Net-(J4-Pad19)*%
%TA.AperFunction,SMDPad,CuDef*%
G36*
G01*
X4600000Y19375000D02*
X4600000Y19175000D01*
G75*
G02*
X4500000Y19075000I-100000J0D01*
G01*
X3225000Y19075000D01*
G75*
G02*
X3125000Y19175000I0J100000D01*
G01*
X3125000Y19375000D01*
G75*
G02*
X3225000Y19475000I100000J0D01*
G01*
X4500000Y19475000D01*
G75*
G02*
X4600000Y19375000I0J-100000D01*
G01*
G37*
%TD.AperFunction*%
%TO.P,U1,10*%
%TO.N,Net-(J4-Pad24)*%
%TA.AperFunction,SMDPad,CuDef*%
G36*
G01*
X4600000Y18725000D02*
X4600000Y18525000D01*
G75*
G02*
X4500000Y18425000I-100000J0D01*
G01*
X3225000Y18425000D01*
G75*
G02*
X3125000Y18525000I0J100000D01*
G01*
X3125000Y18725000D01*
G75*
G02*
X3225000Y18825000I100000J0D01*
G01*
X4500000Y18825000D01*
G75*
G02*
X4600000Y18725000I0J-100000D01*
G01*
G37*
%TD.AperFunction*%
%TO.P,U1,9*%
%TO.N,GND*%
%TA.AperFunction,SMDPad,CuDef*%
G36*
G01*
X4600000Y18075000D02*
X4600000Y17875000D01*
G75*
G02*
X4500000Y17775000I-100000J0D01*
G01*
X3225000Y17775000D01*
G75*
G02*
X3125000Y17875000I0J100000D01*
G01*
X3125000Y18075000D01*
G75*
G02*
X3225000Y18175000I100000J0D01*
G01*
X4500000Y18175000D01*
G75*
G02*
X4600000Y18075000I0J-100000D01*
G01*
G37*
%TD.AperFunction*%
%TO.P,U1,8*%
%TO.N,+3V3*%
%TA.AperFunction,SMDPad,CuDef*%
G36*
G01*
X4600000Y17425000D02*
X4600000Y17225000D01*
G75*
G02*
X4500000Y17125000I-100000J0D01*
G01*
X3225000Y17125000D01*
G75*
G02*
X3125000Y17225000I0J100000D01*
G01*
X3125000Y17425000D01*
G75*
G02*
X3225000Y17525000I100000J0D01*
G01*
X4500000Y17525000D01*
G75*
G02*
X4600000Y17425000I0J-100000D01*
G01*
G37*
%TD.AperFunction*%
%TO.P,U1,7*%
%TO.N,Net-(C4-Pad1)*%
%TA.AperFunction,SMDPad,CuDef*%
G36*
G01*
X4600000Y16775000D02*
X4600000Y16575000D01*
G75*
G02*
X4500000Y16475000I-100000J0D01*
G01*
X3225000Y16475000D01*
G75*
G02*
X3125000Y16575000I0J100000D01*
G01*
X3125000Y16775000D01*
G75*
G02*
X3225000Y16875000I100000J0D01*
G01*
X4500000Y16875000D01*
G75*
G02*
X4600000Y16775000I0J-100000D01*
G01*
G37*
%TD.AperFunction*%
%TO.P,U1,6*%
%TO.N,Net-(C3-Pad1)*%
%TA.AperFunction,SMDPad,CuDef*%
G36*
G01*
X4600000Y16125000D02*
X4600000Y15925000D01*
G75*
G02*
X4500000Y15825000I-100000J0D01*
G01*
X3225000Y15825000D01*
G75*
G02*
X3125000Y15925000I0J100000D01*
G01*
X3125000Y16125000D01*
G75*
G02*
X3225000Y16225000I100000J0D01*
G01*
X4500000Y16225000D01*
G75*
G02*
X4600000Y16125000I0J-100000D01*
G01*
G37*
%TD.AperFunction*%
%TO.P,U1,5*%
%TO.N,Net-(R13-Pad2)*%
%TA.AperFunction,SMDPad,CuDef*%
G36*
G01*
X4600000Y15475000D02*
X4600000Y15275000D01*
G75*
G02*
X4500000Y15175000I-100000J0D01*
G01*
X3225000Y15175000D01*
G75*
G02*
X3125000Y15275000I0J100000D01*
G01*
X3125000Y15475000D01*
G75*
G02*
X3225000Y15575000I100000J0D01*
G01*
X4500000Y15575000D01*
G75*
G02*
X4600000Y15475000I0J-100000D01*
G01*
G37*
%TD.AperFunction*%
%TO.P,U1,4*%
%TO.N,/UP_RETO*%
%TA.AperFunction,SMDPad,CuDef*%
G36*
G01*
X4600000Y14825000D02*
X4600000Y14625000D01*
G75*
G02*
X4500000Y14525000I-100000J0D01*
G01*
X3225000Y14525000D01*
G75*
G02*
X3125000Y14625000I0J100000D01*
G01*
X3125000Y14825000D01*
G75*
G02*
X3225000Y14925000I100000J0D01*
G01*
X4500000Y14925000D01*
G75*
G02*
X4600000Y14825000I0J-100000D01*
G01*
G37*
%TD.AperFunction*%
%TO.P,U1,3*%
%TO.N,Net-(R14-Pad1)*%
%TA.AperFunction,SMDPad,CuDef*%
G36*
G01*
X4600000Y14175000D02*
X4600000Y13975000D01*
G75*
G02*
X4500000Y13875000I-100000J0D01*
G01*
X3225000Y13875000D01*
G75*
G02*
X3125000Y13975000I0J100000D01*
G01*
X3125000Y14175000D01*
G75*
G02*
X3225000Y14275000I100000J0D01*
G01*
X4500000Y14275000D01*
G75*
G02*
X4600000Y14175000I0J-100000D01*
G01*
G37*
%TD.AperFunction*%
%TO.P,U1,2*%
%TO.N,Net-(U1-Pad2)*%
%TA.AperFunction,SMDPad,CuDef*%
G36*
G01*
X4600000Y13525000D02*
X4600000Y13325000D01*
G75*
G02*
X4500000Y13225000I-100000J0D01*
G01*
X3225000Y13225000D01*
G75*
G02*
X3125000Y13325000I0J100000D01*
G01*
X3125000Y13525000D01*
G75*
G02*
X3225000Y13625000I100000J0D01*
G01*
X4500000Y13625000D01*
G75*
G02*
X4600000Y13525000I0J-100000D01*
G01*
G37*
%TD.AperFunction*%
%TO.P,U1,1*%
%TO.N,Net-(U1-Pad1)*%
%TA.AperFunction,SMDPad,CuDef*%
G36*
G01*
X4600000Y12875000D02*
X4600000Y12675000D01*
G75*
G02*
X4500000Y12575000I-100000J0D01*
G01*
X3225000Y12575000D01*
G75*
G02*
X3125000Y12675000I0J100000D01*
G01*
X3125000Y12875000D01*
G75*
G02*
X3225000Y12975000I100000J0D01*
G01*
X4500000Y12975000D01*
G75*
G02*
X4600000Y12875000I0J-100000D01*
G01*
G37*
%TD.AperFunction*%
%TD*%
D18*
%TO.P,SW1,1*%
%TO.N,/MASTER_ON*%
X-36500000Y29000000D03*
%TO.P,SW1,2*%
%TO.N,GND*%
X-36500000Y24500000D03*
%TO.P,SW1,1*%
%TO.N,/MASTER_ON*%
X-43000000Y29000000D03*
%TO.P,SW1,2*%
%TO.N,GND*%
X-43000000Y24500000D03*
%TD*%
%TO.P,R19,2*%
%TO.N,Net-(D3-Pad2)*%
%TA.AperFunction,SMDPad,CuDef*%
G36*
G01*
X-2875000Y-41425000D02*
X-2325000Y-41425000D01*
G75*
G02*
X-2125000Y-41625000I0J-200000D01*
G01*
X-2125000Y-42025000D01*
G75*
G02*
X-2325000Y-42225000I-200000J0D01*
G01*
X-2875000Y-42225000D01*
G75*
G02*
X-3075000Y-42025000I0J200000D01*
G01*
X-3075000Y-41625000D01*
G75*
G02*
X-2875000Y-41425000I200000J0D01*
G01*
G37*
%TD.AperFunction*%
%TO.P,R19,1*%
%TO.N,/UC_LED*%
%TA.AperFunction,SMDPad,CuDef*%
G36*
G01*
X-2875000Y-39775000D02*
X-2325000Y-39775000D01*
G75*
G02*
X-2125000Y-39975000I0J-200000D01*
G01*
X-2125000Y-40375000D01*
G75*
G02*
X-2325000Y-40575000I-200000J0D01*
G01*
X-2875000Y-40575000D01*
G75*
G02*
X-3075000Y-40375000I0J200000D01*
G01*
X-3075000Y-39975000D01*
G75*
G02*
X-2875000Y-39775000I200000J0D01*
G01*
G37*
%TD.AperFunction*%
%TD*%
%TO.P,R18,2*%
%TO.N,/~RESET*%
%TA.AperFunction,SMDPad,CuDef*%
G36*
G01*
X41125000Y23425000D02*
X41125000Y23975000D01*
G75*
G02*
X41325000Y24175000I200000J0D01*
G01*
X41725000Y24175000D01*
G75*
G02*
X41925000Y23975000I0J-200000D01*
G01*
X41925000Y23425000D01*
G75*
G02*
X41725000Y23225000I-200000J0D01*
G01*
X41325000Y23225000D01*
G75*
G02*
X41125000Y23425000I0J200000D01*
G01*
G37*
%TD.AperFunction*%
%TO.P,R18,1*%
%TO.N,+3V3*%
%TA.AperFunction,SMDPad,CuDef*%
G36*
G01*
X39475000Y23425000D02*
X39475000Y23975000D01*
G75*
G02*
X39675000Y24175000I200000J0D01*
G01*
X40075000Y24175000D01*
G75*
G02*
X40275000Y23975000I0J-200000D01*
G01*
X40275000Y23425000D01*
G75*
G02*
X40075000Y23225000I-200000J0D01*
G01*
X39675000Y23225000D01*
G75*
G02*
X39475000Y23425000I0J200000D01*
G01*
G37*
%TD.AperFunction*%
%TD*%
%TO.P,R15,2*%
%TO.N,/DN_TX*%
%TA.AperFunction,SMDPad,CuDef*%
G36*
G01*
X-5025000Y16275000D02*
X-5025000Y15725000D01*
G75*
G02*
X-5225000Y15525000I-200000J0D01*
G01*
X-5625000Y15525000D01*
G75*
G02*
X-5825000Y15725000I0J200000D01*
G01*
X-5825000Y16275000D01*
G75*
G02*
X-5625000Y16475000I200000J0D01*
G01*
X-5225000Y16475000D01*
G75*
G02*
X-5025000Y16275000I0J-200000D01*
G01*
G37*
%TD.AperFunction*%
%TO.P,R15,1*%
%TO.N,Net-(R15-Pad1)*%
%TA.AperFunction,SMDPad,CuDef*%
G36*
G01*
X-3375000Y16275000D02*
X-3375000Y15725000D01*
G75*
G02*
X-3575000Y15525000I-200000J0D01*
G01*
X-3975000Y15525000D01*
G75*
G02*
X-4175000Y15725000I0J200000D01*
G01*
X-4175000Y16275000D01*
G75*
G02*
X-3975000Y16475000I200000J0D01*
G01*
X-3575000Y16475000D01*
G75*
G02*
X-3375000Y16275000I0J-200000D01*
G01*
G37*
%TD.AperFunction*%
%TD*%
%TO.P,R14,2*%
%TO.N,/UP_TX*%
%TA.AperFunction,SMDPad,CuDef*%
G36*
G01*
X5625000Y12175000D02*
X6175000Y12175000D01*
G75*
G02*
X6375000Y11975000I0J-200000D01*
G01*
X6375000Y11575000D01*
G75*
G02*
X6175000Y11375000I-200000J0D01*
G01*
X5625000Y11375000D01*
G75*
G02*
X5425000Y11575000I0J200000D01*
G01*
X5425000Y11975000D01*
G75*
G02*
X5625000Y12175000I200000J0D01*
G01*
G37*
%TD.AperFunction*%
%TO.P,R14,1*%
%TO.N,Net-(R14-Pad1)*%
%TA.AperFunction,SMDPad,CuDef*%
G36*
G01*
X5625000Y13825000D02*
X6175000Y13825000D01*
G75*
G02*
X6375000Y13625000I0J-200000D01*
G01*
X6375000Y13225000D01*
G75*
G02*
X6175000Y13025000I-200000J0D01*
G01*
X5625000Y13025000D01*
G75*
G02*
X5425000Y13225000I0J200000D01*
G01*
X5425000Y13625000D01*
G75*
G02*
X5625000Y13825000I200000J0D01*
G01*
G37*
%TD.AperFunction*%
%TD*%
%TO.P,R13,2*%
%TO.N,Net-(R13-Pad2)*%
%TA.AperFunction,SMDPad,CuDef*%
G36*
G01*
X2025000Y10625000D02*
X2025000Y11175000D01*
G75*
G02*
X2225000Y11375000I200000J0D01*
G01*
X2625000Y11375000D01*
G75*
G02*
X2825000Y11175000I0J-200000D01*
G01*
X2825000Y10625000D01*
G75*
G02*
X2625000Y10425000I-200000J0D01*
G01*
X2225000Y10425000D01*
G75*
G02*
X2025000Y10625000I0J200000D01*
G01*
G37*
%TD.AperFunction*%
%TO.P,R13,1*%
%TO.N,+3V3*%
%TA.AperFunction,SMDPad,CuDef*%
G36*
G01*
X375000Y10625000D02*
X375000Y11175000D01*
G75*
G02*
X575000Y11375000I200000J0D01*
G01*
X975000Y11375000D01*
G75*
G02*
X1175000Y11175000I0J-200000D01*
G01*
X1175000Y10625000D01*
G75*
G02*
X975000Y10425000I-200000J0D01*
G01*
X575000Y10425000D01*
G75*
G02*
X375000Y10625000I0J200000D01*
G01*
G37*
%TD.AperFunction*%
%TD*%
%TO.P,R12,2*%
%TO.N,+3V3*%
%TA.AperFunction,SMDPad,CuDef*%
G36*
G01*
X-5325000Y21575000D02*
X-5325000Y21025000D01*
G75*
G02*
X-5525000Y20825000I-200000J0D01*
G01*
X-5925000Y20825000D01*
G75*
G02*
X-6125000Y21025000I0J200000D01*
G01*
X-6125000Y21575000D01*
G75*
G02*
X-5925000Y21775000I200000J0D01*
G01*
X-5525000Y21775000D01*
G75*
G02*
X-5325000Y21575000I0J-200000D01*
G01*
G37*
%TD.AperFunction*%
%TO.P,R12,1*%
%TO.N,/~SC_IRQ*%
%TA.AperFunction,SMDPad,CuDef*%
G36*
G01*
X-3675000Y21575000D02*
X-3675000Y21025000D01*
G75*
G02*
X-3875000Y20825000I-200000J0D01*
G01*
X-4275000Y20825000D01*
G75*
G02*
X-4475000Y21025000I0J200000D01*
G01*
X-4475000Y21575000D01*
G75*
G02*
X-4275000Y21775000I200000J0D01*
G01*
X-3875000Y21775000D01*
G75*
G02*
X-3675000Y21575000I0J-200000D01*
G01*
G37*
%TD.AperFunction*%
%TD*%
%TO.P,R11,2*%
%TO.N,GND*%
%TA.AperFunction,SMDPad,CuDef*%
G36*
G01*
X-30675000Y32975000D02*
X-30125000Y32975000D01*
G75*
G02*
X-29925000Y32775000I0J-200000D01*
G01*
X-29925000Y32375000D01*
G75*
G02*
X-30125000Y32175000I-200000J0D01*
G01*
X-30675000Y32175000D01*
G75*
G02*
X-30875000Y32375000I0J200000D01*
G01*
X-30875000Y32775000D01*
G75*
G02*
X-30675000Y32975000I200000J0D01*
G01*
G37*
%TD.AperFunction*%
%TO.P,R11,1*%
%TO.N,/REF_BAT*%
%TA.AperFunction,SMDPad,CuDef*%
G36*
G01*
X-30675000Y34625000D02*
X-30125000Y34625000D01*
G75*
G02*
X-29925000Y34425000I0J-200000D01*
G01*
X-29925000Y34025000D01*
G75*
G02*
X-30125000Y33825000I-200000J0D01*
G01*
X-30675000Y33825000D01*
G75*
G02*
X-30875000Y34025000I0J200000D01*
G01*
X-30875000Y34425000D01*
G75*
G02*
X-30675000Y34625000I200000J0D01*
G01*
G37*
%TD.AperFunction*%
%TD*%
%TO.P,R10,2*%
%TO.N,/REF_BAT*%
%TA.AperFunction,SMDPad,CuDef*%
G36*
G01*
X-30675000Y36275000D02*
X-30125000Y36275000D01*
G75*
G02*
X-29925000Y36075000I0J-200000D01*
G01*
X-29925000Y35675000D01*
G75*
G02*
X-30125000Y35475000I-200000J0D01*
G01*
X-30675000Y35475000D01*
G75*
G02*
X-30875000Y35675000I0J200000D01*
G01*
X-30875000Y36075000D01*
G75*
G02*
X-30675000Y36275000I200000J0D01*
G01*
G37*
%TD.AperFunction*%
%TO.P,R10,1*%
%TO.N,+BATT*%
%TA.AperFunction,SMDPad,CuDef*%
G36*
G01*
X-30675000Y37925000D02*
X-30125000Y37925000D01*
G75*
G02*
X-29925000Y37725000I0J-200000D01*
G01*
X-29925000Y37325000D01*
G75*
G02*
X-30125000Y37125000I-200000J0D01*
G01*
X-30675000Y37125000D01*
G75*
G02*
X-30875000Y37325000I0J200000D01*
G01*
X-30875000Y37725000D01*
G75*
G02*
X-30675000Y37925000I200000J0D01*
G01*
G37*
%TD.AperFunction*%
%TD*%
%TO.P,R9,2*%
%TO.N,GND*%
%TA.AperFunction,SMDPad,CuDef*%
G36*
G01*
X6325000Y44625000D02*
X6325000Y45175000D01*
G75*
G02*
X6525000Y45375000I200000J0D01*
G01*
X6925000Y45375000D01*
G75*
G02*
X7125000Y45175000I0J-200000D01*
G01*
X7125000Y44625000D01*
G75*
G02*
X6925000Y44425000I-200000J0D01*
G01*
X6525000Y44425000D01*
G75*
G02*
X6325000Y44625000I0J200000D01*
G01*
G37*
%TD.AperFunction*%
%TO.P,R9,1*%
%TO.N,/PWR_EN*%
%TA.AperFunction,SMDPad,CuDef*%
G36*
G01*
X4675000Y44625000D02*
X4675000Y45175000D01*
G75*
G02*
X4875000Y45375000I200000J0D01*
G01*
X5275000Y45375000D01*
G75*
G02*
X5475000Y45175000I0J-200000D01*
G01*
X5475000Y44625000D01*
G75*
G02*
X5275000Y44425000I-200000J0D01*
G01*
X4875000Y44425000D01*
G75*
G02*
X4675000Y44625000I0J200000D01*
G01*
G37*
%TD.AperFunction*%
%TD*%
%TO.P,R8,2*%
%TO.N,/SCK*%
%TA.AperFunction,SMDPad,CuDef*%
G36*
G01*
X25225000Y26075000D02*
X25775000Y26075000D01*
G75*
G02*
X25975000Y25875000I0J-200000D01*
G01*
X25975000Y25475000D01*
G75*
G02*
X25775000Y25275000I-200000J0D01*
G01*
X25225000Y25275000D01*
G75*
G02*
X25025000Y25475000I0J200000D01*
G01*
X25025000Y25875000D01*
G75*
G02*
X25225000Y26075000I200000J0D01*
G01*
G37*
%TD.AperFunction*%
%TO.P,R8,1*%
%TO.N,Net-(J4-Pad40)*%
%TA.AperFunction,SMDPad,CuDef*%
G36*
G01*
X25225000Y27725000D02*
X25775000Y27725000D01*
G75*
G02*
X25975000Y27525000I0J-200000D01*
G01*
X25975000Y27125000D01*
G75*
G02*
X25775000Y26925000I-200000J0D01*
G01*
X25225000Y26925000D01*
G75*
G02*
X25025000Y27125000I0J200000D01*
G01*
X25025000Y27525000D01*
G75*
G02*
X25225000Y27725000I200000J0D01*
G01*
G37*
%TD.AperFunction*%
%TD*%
%TO.P,R7,2*%
%TO.N,/MOSI*%
%TA.AperFunction,SMDPad,CuDef*%
G36*
G01*
X22625000Y26075000D02*
X23175000Y26075000D01*
G75*
G02*
X23375000Y25875000I0J-200000D01*
G01*
X23375000Y25475000D01*
G75*
G02*
X23175000Y25275000I-200000J0D01*
G01*
X22625000Y25275000D01*
G75*
G02*
X22425000Y25475000I0J200000D01*
G01*
X22425000Y25875000D01*
G75*
G02*
X22625000Y26075000I200000J0D01*
G01*
G37*
%TD.AperFunction*%
%TO.P,R7,1*%
%TO.N,Net-(J4-Pad38)*%
%TA.AperFunction,SMDPad,CuDef*%
G36*
G01*
X22625000Y27725000D02*
X23175000Y27725000D01*
G75*
G02*
X23375000Y27525000I0J-200000D01*
G01*
X23375000Y27125000D01*
G75*
G02*
X23175000Y26925000I-200000J0D01*
G01*
X22625000Y26925000D01*
G75*
G02*
X22425000Y27125000I0J200000D01*
G01*
X22425000Y27525000D01*
G75*
G02*
X22625000Y27725000I200000J0D01*
G01*
G37*
%TD.AperFunction*%
%TD*%
%TO.P,R6,2*%
%TO.N,Net-(D2-Pad2)*%
%TA.AperFunction,SMDPad,CuDef*%
G36*
G01*
X5875000Y42425000D02*
X5325000Y42425000D01*
G75*
G02*
X5125000Y42625000I0J200000D01*
G01*
X5125000Y43025000D01*
G75*
G02*
X5325000Y43225000I200000J0D01*
G01*
X5875000Y43225000D01*
G75*
G02*
X6075000Y43025000I0J-200000D01*
G01*
X6075000Y42625000D01*
G75*
G02*
X5875000Y42425000I-200000J0D01*
G01*
G37*
%TD.AperFunction*%
%TO.P,R6,1*%
%TO.N,/BAT_RAW*%
%TA.AperFunction,SMDPad,CuDef*%
G36*
G01*
X5875000Y40775000D02*
X5325000Y40775000D01*
G75*
G02*
X5125000Y40975000I0J200000D01*
G01*
X5125000Y41375000D01*
G75*
G02*
X5325000Y41575000I200000J0D01*
G01*
X5875000Y41575000D01*
G75*
G02*
X6075000Y41375000I0J-200000D01*
G01*
X6075000Y40975000D01*
G75*
G02*
X5875000Y40775000I-200000J0D01*
G01*
G37*
%TD.AperFunction*%
%TD*%
%TO.P,R2,2*%
%TO.N,/PI_SHTDN*%
%TA.AperFunction,SMDPad,CuDef*%
G36*
G01*
X-15625000Y27275000D02*
X-15625000Y26725000D01*
G75*
G02*
X-15825000Y26525000I-200000J0D01*
G01*
X-16225000Y26525000D01*
G75*
G02*
X-16425000Y26725000I0J200000D01*
G01*
X-16425000Y27275000D01*
G75*
G02*
X-16225000Y27475000I200000J0D01*
G01*
X-15825000Y27475000D01*
G75*
G02*
X-15625000Y27275000I0J-200000D01*
G01*
G37*
%TD.AperFunction*%
%TO.P,R2,1*%
%TO.N,GND*%
%TA.AperFunction,SMDPad,CuDef*%
G36*
G01*
X-13975000Y27275000D02*
X-13975000Y26725000D01*
G75*
G02*
X-14175000Y26525000I-200000J0D01*
G01*
X-14575000Y26525000D01*
G75*
G02*
X-14775000Y26725000I0J200000D01*
G01*
X-14775000Y27275000D01*
G75*
G02*
X-14575000Y27475000I200000J0D01*
G01*
X-14175000Y27475000D01*
G75*
G02*
X-13975000Y27275000I0J-200000D01*
G01*
G37*
%TD.AperFunction*%
%TD*%
%TO.P,R1,2*%
%TO.N,Net-(D1-Pad2)*%
%TA.AperFunction,SMDPad,CuDef*%
G36*
G01*
X-6075000Y36925000D02*
X-6075000Y37475000D01*
G75*
G02*
X-5875000Y37675000I200000J0D01*
G01*
X-5475000Y37675000D01*
G75*
G02*
X-5275000Y37475000I0J-200000D01*
G01*
X-5275000Y36925000D01*
G75*
G02*
X-5475000Y36725000I-200000J0D01*
G01*
X-5875000Y36725000D01*
G75*
G02*
X-6075000Y36925000I0J200000D01*
G01*
G37*
%TD.AperFunction*%
%TO.P,R1,1*%
%TO.N,/PI_LED*%
%TA.AperFunction,SMDPad,CuDef*%
G36*
G01*
X-7725000Y36925000D02*
X-7725000Y37475000D01*
G75*
G02*
X-7525000Y37675000I200000J0D01*
G01*
X-7125000Y37675000D01*
G75*
G02*
X-6925000Y37475000I0J-200000D01*
G01*
X-6925000Y36925000D01*
G75*
G02*
X-7125000Y36725000I-200000J0D01*
G01*
X-7525000Y36725000D01*
G75*
G02*
X-7725000Y36925000I0J200000D01*
G01*
G37*
%TD.AperFunction*%
%TD*%
D19*
%TO.P,Q2,3*%
%TO.N,+BATT*%
X1000000Y39400000D03*
%TO.P,Q2,2*%
%TO.N,Net-(D2-Pad2)*%
X3400000Y40350000D03*
%TO.P,Q2,1*%
%TO.N,/BAT_RAW*%
X3400000Y38450000D03*
%TD*%
D20*
%TO.P,Q1,3*%
%TO.N,Net-(D2-Pad2)*%
X3400000Y43300000D03*
%TO.P,Q1,2*%
%TO.N,GND*%
X1400000Y42350000D03*
%TO.P,Q1,1*%
%TO.N,/PWR_EN*%
X1400000Y44250000D03*
%TD*%
D10*
%TO.P,J7,8*%
%TO.N,GND*%
X1270000Y-3810000D03*
%TO.P,J7,7*%
%TO.N,Net-(J7-Pad7)*%
X-1270000Y-3810000D03*
%TO.P,J7,6*%
%TO.N,/DN_RETO*%
X1270000Y-1270000D03*
%TO.P,J7,5*%
%TO.N,/UP_RETO*%
X-1270000Y-1270000D03*
%TO.P,J7,4*%
%TO.N,/DN_TX*%
X1270000Y1270000D03*
%TO.P,J7,3*%
%TO.N,/UP_TX*%
X-1270000Y1270000D03*
%TO.P,J7,2*%
%TO.N,/TRIG*%
X1270000Y3810000D03*
D11*
%TO.P,J7,1*%
%TO.N,/MASTER_ON*%
X-1270000Y3810000D03*
%TD*%
D10*
%TO.P,J6,4*%
%TO.N,GND*%
X34270000Y-34270000D03*
%TO.P,J6,3*%
X31730000Y-34270000D03*
%TO.P,J6,2*%
X34270000Y-31730000D03*
D11*
%TO.P,J6,1*%
%TO.N,/BR-*%
X31730000Y-31730000D03*
%TD*%
D10*
%TO.P,J5,4*%
%TO.N,GND*%
X34270000Y-3340000D03*
%TO.P,J5,3*%
%TO.N,/STAT*%
X31730000Y-3340000D03*
%TO.P,J5,2*%
%TO.N,GND*%
X34270000Y-800000D03*
D11*
%TO.P,J5,1*%
%TO.N,/BR+*%
X31730000Y-800000D03*
%TD*%
D10*
%TO.P,J3,4*%
%TO.N,/BTN_TRIG*%
X-31730000Y-34270000D03*
%TO.P,J3,3*%
%TO.N,GND*%
X-34270000Y-34270000D03*
%TO.P,J3,2*%
%TO.N,/SP-*%
X-31730000Y-31730000D03*
D11*
%TO.P,J3,1*%
%TO.N,GND*%
X-34270000Y-31730000D03*
%TD*%
D10*
%TO.P,J2,4*%
%TO.N,/MASTER_ON*%
X-31730000Y-3270000D03*
%TO.P,J2,3*%
%TO.N,GND*%
X-34270000Y-3270000D03*
%TO.P,J2,2*%
%TO.N,/SP+*%
X-31730000Y-730000D03*
D11*
%TO.P,J2,1*%
%TO.N,+3V3*%
X-34270000Y-730000D03*
%TD*%
D10*
%TO.P,J1,12*%
%TO.N,GND*%
X43000000Y-31940000D03*
%TO.P,J1,11*%
X43000000Y-29400000D03*
%TO.P,J1,10*%
X43000000Y-26860000D03*
%TO.P,J1,9*%
%TO.N,/PI_RXD*%
X43000000Y-24320000D03*
%TO.P,J1,8*%
%TO.N,/PI_TXD*%
X43000000Y-21780000D03*
%TO.P,J1,7*%
%TO.N,/PD2*%
X43000000Y-19240000D03*
%TO.P,J1,6*%
%TO.N,/UC_RX*%
X43000000Y-16700000D03*
%TO.P,J1,5*%
%TO.N,/UC_TX*%
X43000000Y-14160000D03*
%TO.P,J1,4*%
%TO.N,/SCK*%
X43000000Y-11620000D03*
%TO.P,J1,3*%
%TO.N,/MISO*%
X43000000Y-9080000D03*
%TO.P,J1,2*%
%TO.N,/MOSI*%
X43000000Y-6540000D03*
D11*
%TO.P,J1,1*%
%TO.N,/SS*%
X43000000Y-4000000D03*
%TD*%
D21*
%TO.P,H4,1*%
%TO.N,Net-(H4-Pad1)*%
X-33000000Y-43000000D03*
%TD*%
%TO.P,H3,1*%
%TO.N,Net-(H3-Pad1)*%
X33000000Y-43000000D03*
%TD*%
%TO.P,H2,1*%
%TO.N,Net-(H2-Pad1)*%
X33000000Y43000000D03*
%TD*%
%TO.P,H1,1*%
%TO.N,Net-(H1-Pad1)*%
X-33000000Y43000000D03*
%TD*%
%TO.P,F1,2*%
%TO.N,Net-(BT1-Pad1)*%
%TA.AperFunction,SMDPad,CuDef*%
G36*
G01*
X9225000Y37000000D02*
X9225000Y39800000D01*
G75*
G02*
X9475000Y40050000I250000J0D01*
G01*
X10450000Y40050000D01*
G75*
G02*
X10700000Y39800000I0J-250000D01*
G01*
X10700000Y37000000D01*
G75*
G02*
X10450000Y36750000I-250000J0D01*
G01*
X9475000Y36750000D01*
G75*
G02*
X9225000Y37000000I0J250000D01*
G01*
G37*
%TD.AperFunction*%
%TO.P,F1,1*%
%TO.N,/BAT_RAW*%
%TA.AperFunction,SMDPad,CuDef*%
G36*
G01*
X4900000Y37000000D02*
X4900000Y39800000D01*
G75*
G02*
X5150000Y40050000I250000J0D01*
G01*
X6125000Y40050000D01*
G75*
G02*
X6375000Y39800000I0J-250000D01*
G01*
X6375000Y37000000D01*
G75*
G02*
X6125000Y36750000I-250000J0D01*
G01*
X5150000Y36750000D01*
G75*
G02*
X4900000Y37000000I0J250000D01*
G01*
G37*
%TD.AperFunction*%
%TD*%
%TO.P,D3,2*%
%TO.N,Net-(D3-Pad2)*%
%TA.AperFunction,SMDPad,CuDef*%
G36*
G01*
X-2343750Y-43950000D02*
X-2856250Y-43950000D01*
G75*
G02*
X-3075000Y-43731250I0J218750D01*
G01*
X-3075000Y-43293750D01*
G75*
G02*
X-2856250Y-43075000I218750J0D01*
G01*
X-2343750Y-43075000D01*
G75*
G02*
X-2125000Y-43293750I0J-218750D01*
G01*
X-2125000Y-43731250D01*
G75*
G02*
X-2343750Y-43950000I-218750J0D01*
G01*
G37*
%TD.AperFunction*%
%TO.P,D3,1*%
%TO.N,GND*%
%TA.AperFunction,SMDPad,CuDef*%
G36*
G01*
X-2343750Y-45525000D02*
X-2856250Y-45525000D01*
G75*
G02*
X-3075000Y-45306250I0J218750D01*
G01*
X-3075000Y-44868750D01*
G75*
G02*
X-2856250Y-44650000I218750J0D01*
G01*
X-2343750Y-44650000D01*
G75*
G02*
X-2125000Y-44868750I0J-218750D01*
G01*
X-2125000Y-45306250D01*
G75*
G02*
X-2343750Y-45525000I-218750J0D01*
G01*
G37*
%TD.AperFunction*%
%TD*%
D22*
%TO.P,D2,2*%
%TO.N,Net-(D2-Pad2)*%
X7150000Y42800000D03*
%TO.P,D2,1*%
%TO.N,/MASTER_ON*%
X10450000Y42800000D03*
%TD*%
%TO.P,D1,2*%
%TO.N,Net-(D1-Pad2)*%
%TA.AperFunction,SMDPad,CuDef*%
G36*
G01*
X-3450000Y37456250D02*
X-3450000Y36943750D01*
G75*
G02*
X-3668750Y36725000I-218750J0D01*
G01*
X-4106250Y36725000D01*
G75*
G02*
X-4325000Y36943750I0J218750D01*
G01*
X-4325000Y37456250D01*
G75*
G02*
X-4106250Y37675000I218750J0D01*
G01*
X-3668750Y37675000D01*
G75*
G02*
X-3450000Y37456250I0J-218750D01*
G01*
G37*
%TD.AperFunction*%
%TO.P,D1,1*%
%TO.N,GND*%
%TA.AperFunction,SMDPad,CuDef*%
G36*
G01*
X-1875000Y37456250D02*
X-1875000Y36943750D01*
G75*
G02*
X-2093750Y36725000I-218750J0D01*
G01*
X-2531250Y36725000D01*
G75*
G02*
X-2750000Y36943750I0J218750D01*
G01*
X-2750000Y37456250D01*
G75*
G02*
X-2531250Y37675000I218750J0D01*
G01*
X-2093750Y37675000D01*
G75*
G02*
X-1875000Y37456250I0J-218750D01*
G01*
G37*
%TD.AperFunction*%
%TD*%
%TO.P,C13,2*%
%TO.N,Net-(C13-Pad2)*%
%TA.AperFunction,SMDPad,CuDef*%
G36*
G01*
X9050000Y-16125000D02*
X9550000Y-16125000D01*
G75*
G02*
X9775000Y-16350000I0J-225000D01*
G01*
X9775000Y-16800000D01*
G75*
G02*
X9550000Y-17025000I-225000J0D01*
G01*
X9050000Y-17025000D01*
G75*
G02*
X8825000Y-16800000I0J225000D01*
G01*
X8825000Y-16350000D01*
G75*
G02*
X9050000Y-16125000I225000J0D01*
G01*
G37*
%TD.AperFunction*%
%TO.P,C13,1*%
%TO.N,GND*%
%TA.AperFunction,SMDPad,CuDef*%
G36*
G01*
X9050000Y-14575000D02*
X9550000Y-14575000D01*
G75*
G02*
X9775000Y-14800000I0J-225000D01*
G01*
X9775000Y-15250000D01*
G75*
G02*
X9550000Y-15475000I-225000J0D01*
G01*
X9050000Y-15475000D01*
G75*
G02*
X8825000Y-15250000I0J225000D01*
G01*
X8825000Y-14800000D01*
G75*
G02*
X9050000Y-14575000I225000J0D01*
G01*
G37*
%TD.AperFunction*%
%TD*%
%TO.P,C12,2*%
%TO.N,Net-(C12-Pad2)*%
%TA.AperFunction,SMDPad,CuDef*%
G36*
G01*
X9650000Y-23875000D02*
X9150000Y-23875000D01*
G75*
G02*
X8925000Y-23650000I0J225000D01*
G01*
X8925000Y-23200000D01*
G75*
G02*
X9150000Y-22975000I225000J0D01*
G01*
X9650000Y-22975000D01*
G75*
G02*
X9875000Y-23200000I0J-225000D01*
G01*
X9875000Y-23650000D01*
G75*
G02*
X9650000Y-23875000I-225000J0D01*
G01*
G37*
%TD.AperFunction*%
%TO.P,C12,1*%
%TO.N,GND*%
%TA.AperFunction,SMDPad,CuDef*%
G36*
G01*
X9650000Y-25425000D02*
X9150000Y-25425000D01*
G75*
G02*
X8925000Y-25200000I0J225000D01*
G01*
X8925000Y-24750000D01*
G75*
G02*
X9150000Y-24525000I225000J0D01*
G01*
X9650000Y-24525000D01*
G75*
G02*
X9875000Y-24750000I0J-225000D01*
G01*
X9875000Y-25200000D01*
G75*
G02*
X9650000Y-25425000I-225000J0D01*
G01*
G37*
%TD.AperFunction*%
%TD*%
%TO.P,C8,2*%
%TO.N,GND*%
%TA.AperFunction,SMDPad,CuDef*%
G36*
G01*
X7425000Y-23350000D02*
X7425000Y-22850000D01*
G75*
G02*
X7650000Y-22625000I225000J0D01*
G01*
X8100000Y-22625000D01*
G75*
G02*
X8325000Y-22850000I0J-225000D01*
G01*
X8325000Y-23350000D01*
G75*
G02*
X8100000Y-23575000I-225000J0D01*
G01*
X7650000Y-23575000D01*
G75*
G02*
X7425000Y-23350000I0J225000D01*
G01*
G37*
%TD.AperFunction*%
%TO.P,C8,1*%
%TO.N,+3V3*%
%TA.AperFunction,SMDPad,CuDef*%
G36*
G01*
X5875000Y-23350000D02*
X5875000Y-22850000D01*
G75*
G02*
X6100000Y-22625000I225000J0D01*
G01*
X6550000Y-22625000D01*
G75*
G02*
X6775000Y-22850000I0J-225000D01*
G01*
X6775000Y-23350000D01*
G75*
G02*
X6550000Y-23575000I-225000J0D01*
G01*
X6100000Y-23575000D01*
G75*
G02*
X5875000Y-23350000I0J225000D01*
G01*
G37*
%TD.AperFunction*%
%TD*%
%TO.P,C7,2*%
%TO.N,GND*%
%TA.AperFunction,SMDPad,CuDef*%
G36*
G01*
X-7625000Y-20450000D02*
X-7625000Y-20950000D01*
G75*
G02*
X-7850000Y-21175000I-225000J0D01*
G01*
X-8300000Y-21175000D01*
G75*
G02*
X-8525000Y-20950000I0J225000D01*
G01*
X-8525000Y-20450000D01*
G75*
G02*
X-8300000Y-20225000I225000J0D01*
G01*
X-7850000Y-20225000D01*
G75*
G02*
X-7625000Y-20450000I0J-225000D01*
G01*
G37*
%TD.AperFunction*%
%TO.P,C7,1*%
%TO.N,+3V3*%
%TA.AperFunction,SMDPad,CuDef*%
G36*
G01*
X-6075000Y-20450000D02*
X-6075000Y-20950000D01*
G75*
G02*
X-6300000Y-21175000I-225000J0D01*
G01*
X-6750000Y-21175000D01*
G75*
G02*
X-6975000Y-20950000I0J225000D01*
G01*
X-6975000Y-20450000D01*
G75*
G02*
X-6750000Y-20225000I225000J0D01*
G01*
X-6300000Y-20225000D01*
G75*
G02*
X-6075000Y-20450000I0J-225000D01*
G01*
G37*
%TD.AperFunction*%
%TD*%
%TO.P,C6,2*%
%TO.N,GND*%
%TA.AperFunction,SMDPad,CuDef*%
G36*
G01*
X-7625000Y-22050000D02*
X-7625000Y-22550000D01*
G75*
G02*
X-7850000Y-22775000I-225000J0D01*
G01*
X-8300000Y-22775000D01*
G75*
G02*
X-8525000Y-22550000I0J225000D01*
G01*
X-8525000Y-22050000D01*
G75*
G02*
X-8300000Y-21825000I225000J0D01*
G01*
X-7850000Y-21825000D01*
G75*
G02*
X-7625000Y-22050000I0J-225000D01*
G01*
G37*
%TD.AperFunction*%
%TO.P,C6,1*%
%TO.N,Net-(C6-Pad1)*%
%TA.AperFunction,SMDPad,CuDef*%
G36*
G01*
X-6075000Y-22050000D02*
X-6075000Y-22550000D01*
G75*
G02*
X-6300000Y-22775000I-225000J0D01*
G01*
X-6750000Y-22775000D01*
G75*
G02*
X-6975000Y-22550000I0J225000D01*
G01*
X-6975000Y-22050000D01*
G75*
G02*
X-6750000Y-21825000I225000J0D01*
G01*
X-6300000Y-21825000D01*
G75*
G02*
X-6075000Y-22050000I0J-225000D01*
G01*
G37*
%TD.AperFunction*%
%TD*%
%TO.P,C4,2*%
%TO.N,GND*%
%TA.AperFunction,SMDPad,CuDef*%
G36*
G01*
X8450000Y20625000D02*
X7950000Y20625000D01*
G75*
G02*
X7725000Y20850000I0J225000D01*
G01*
X7725000Y21300000D01*
G75*
G02*
X7950000Y21525000I225000J0D01*
G01*
X8450000Y21525000D01*
G75*
G02*
X8675000Y21300000I0J-225000D01*
G01*
X8675000Y20850000D01*
G75*
G02*
X8450000Y20625000I-225000J0D01*
G01*
G37*
%TD.AperFunction*%
%TO.P,C4,1*%
%TO.N,Net-(C4-Pad1)*%
%TA.AperFunction,SMDPad,CuDef*%
G36*
G01*
X8450000Y19075000D02*
X7950000Y19075000D01*
G75*
G02*
X7725000Y19300000I0J225000D01*
G01*
X7725000Y19750000D01*
G75*
G02*
X7950000Y19975000I225000J0D01*
G01*
X8450000Y19975000D01*
G75*
G02*
X8675000Y19750000I0J-225000D01*
G01*
X8675000Y19300000D01*
G75*
G02*
X8450000Y19075000I-225000J0D01*
G01*
G37*
%TD.AperFunction*%
%TD*%
%TO.P,C3,2*%
%TO.N,GND*%
%TA.AperFunction,SMDPad,CuDef*%
G36*
G01*
X7950000Y11975000D02*
X8450000Y11975000D01*
G75*
G02*
X8675000Y11750000I0J-225000D01*
G01*
X8675000Y11300000D01*
G75*
G02*
X8450000Y11075000I-225000J0D01*
G01*
X7950000Y11075000D01*
G75*
G02*
X7725000Y11300000I0J225000D01*
G01*
X7725000Y11750000D01*
G75*
G02*
X7950000Y11975000I225000J0D01*
G01*
G37*
%TD.AperFunction*%
%TO.P,C3,1*%
%TO.N,Net-(C3-Pad1)*%
%TA.AperFunction,SMDPad,CuDef*%
G36*
G01*
X7950000Y13525000D02*
X8450000Y13525000D01*
G75*
G02*
X8675000Y13300000I0J-225000D01*
G01*
X8675000Y12850000D01*
G75*
G02*
X8450000Y12625000I-225000J0D01*
G01*
X7950000Y12625000D01*
G75*
G02*
X7725000Y12850000I0J225000D01*
G01*
X7725000Y13300000D01*
G75*
G02*
X7950000Y13525000I225000J0D01*
G01*
G37*
%TD.AperFunction*%
%TD*%
%TO.P,C2,2*%
%TO.N,GND*%
%TA.AperFunction,SMDPad,CuDef*%
G36*
G01*
X6050000Y18625000D02*
X5550000Y18625000D01*
G75*
G02*
X5325000Y18850000I0J225000D01*
G01*
X5325000Y19300000D01*
G75*
G02*
X5550000Y19525000I225000J0D01*
G01*
X6050000Y19525000D01*
G75*
G02*
X6275000Y19300000I0J-225000D01*
G01*
X6275000Y18850000D01*
G75*
G02*
X6050000Y18625000I-225000J0D01*
G01*
G37*
%TD.AperFunction*%
%TO.P,C2,1*%
%TO.N,+3V3*%
%TA.AperFunction,SMDPad,CuDef*%
G36*
G01*
X6050000Y17075000D02*
X5550000Y17075000D01*
G75*
G02*
X5325000Y17300000I0J225000D01*
G01*
X5325000Y17750000D01*
G75*
G02*
X5550000Y17975000I225000J0D01*
G01*
X6050000Y17975000D01*
G75*
G02*
X6275000Y17750000I0J-225000D01*
G01*
X6275000Y17300000D01*
G75*
G02*
X6050000Y17075000I-225000J0D01*
G01*
G37*
%TD.AperFunction*%
%TD*%
%TO.P,C1,2*%
%TO.N,GND*%
%TA.AperFunction,SMDPad,CuDef*%
G36*
G01*
X-7625000Y-23650000D02*
X-7625000Y-24150000D01*
G75*
G02*
X-7850000Y-24375000I-225000J0D01*
G01*
X-8300000Y-24375000D01*
G75*
G02*
X-8525000Y-24150000I0J225000D01*
G01*
X-8525000Y-23650000D01*
G75*
G02*
X-8300000Y-23425000I225000J0D01*
G01*
X-7850000Y-23425000D01*
G75*
G02*
X-7625000Y-23650000I0J-225000D01*
G01*
G37*
%TD.AperFunction*%
%TO.P,C1,1*%
%TO.N,/REF_BAT*%
%TA.AperFunction,SMDPad,CuDef*%
G36*
G01*
X-6075000Y-23650000D02*
X-6075000Y-24150000D01*
G75*
G02*
X-6300000Y-24375000I-225000J0D01*
G01*
X-6750000Y-24375000D01*
G75*
G02*
X-6975000Y-24150000I0J225000D01*
G01*
X-6975000Y-23650000D01*
G75*
G02*
X-6750000Y-23425000I225000J0D01*
G01*
X-6300000Y-23425000D01*
G75*
G02*
X-6075000Y-23650000I0J-225000D01*
G01*
G37*
%TD.AperFunction*%
%TD*%
D10*
%TO.P,BT1,2*%
%TO.N,GND*%
X13600000Y40940000D03*
D11*
%TO.P,BT1,1*%
%TO.N,Net-(BT1-Pad1)*%
X13600000Y38400000D03*
%TD*%
D23*
%TO.N,GND*%
X300000Y42400000D03*
X7600000Y44900000D03*
X7800000Y-24100000D03*
X-2600000Y-46200000D03*
X6000000Y-21700000D03*
X9400000Y-25900000D03*
X9300000Y-14100000D03*
X-2700000Y-23100000D03*
X3200000Y-24000000D03*
X-30400000Y31500000D03*
X5200000Y21300000D03*
X8200000Y22000000D03*
X2500000Y18200000D03*
X-600000Y16700000D03*
X8200000Y10600000D03*
X-1300000Y37200000D03*
X-10300000Y38700000D03*
X-14700000Y39000000D03*
X-22400000Y42900000D03*
X-13400000Y27000000D03*
X6100000Y20000000D03*
X-8949979Y-23900000D03*
X-8949979Y-22300000D03*
X-8949979Y-20700000D03*
%TO.N,/REF_BAT*%
X-16000000Y16500000D03*
X-21200004Y18300000D03*
%TO.N,+3V3*%
X7100000Y17600000D03*
X8700000Y16700000D03*
X36900000Y13200000D03*
X36900004Y15200000D03*
X17000000Y16700000D03*
X13300000Y16700000D03*
%TO.N,/MASTER_ON*%
X-11600000Y3800000D03*
X-22100000Y14600000D03*
X-20000000Y12500000D03*
X-9600000Y-26200000D03*
X-11600000Y-26200000D03*
%TO.N,/PI_RXD*%
X-8300000Y34800000D03*
X-6899996Y34800000D03*
%TO.N,/PI_TXD*%
X45000006Y-23400000D03*
X-8300000Y35800000D03*
X-6900000Y35800010D03*
%TO.N,/PD2*%
X39700000Y-17200000D03*
%TO.N,/SCK*%
X1542629Y-19965578D03*
X1500009Y-16800000D03*
%TO.N,/MISO*%
X600000Y-19950000D03*
X600006Y-16800000D03*
%TO.N,/MOSI*%
X-1900000Y-16800000D03*
X-300029Y-16800000D03*
%TO.N,/SS*%
X-8400000Y26700000D03*
X-7000000Y23400000D03*
X28699966Y-5300000D03*
X30100000Y-5300004D03*
%TO.N,/SP+*%
X-9100000Y27400000D03*
X-10300000Y24900000D03*
%TO.N,/TRIG*%
X2100000Y-14000000D03*
X5700000Y2100000D03*
X4500000Y3300000D03*
X-1100000Y-10799990D03*
%TO.N,/SP-*%
X-10300000Y27400000D03*
X-11300000Y24900000D03*
%TO.N,/BR-*%
X29400000Y-18000000D03*
X29400000Y-21700078D03*
%TO.N,/PI_SHTDN*%
X-16500000Y24800000D03*
X-16800000Y15500000D03*
X-18899994Y17600000D03*
%TO.N,/DN_RETO*%
X-4900000Y600000D03*
X-4200000Y2500000D03*
%TO.N,/UP_RETO*%
X2300000Y0D03*
%TO.N,/~RESET*%
X43900000Y15300000D03*
%TO.N,/PWR_EN*%
X4400000Y-18000000D03*
X10200000Y31400000D03*
X10200000Y35399994D03*
X2100000Y-22700000D03*
X2900000Y-13300000D03*
X900000Y-11300008D03*
%TO.N,/SCL*%
X-19000000Y24300000D03*
X-17600000Y14700000D03*
X-3500000Y-30200000D03*
X0Y-30200000D03*
X-19699994Y16800000D03*
%TO.N,/SDA*%
X-3500000Y-31300000D03*
X-1800000Y-31300000D03*
X-18400006Y13800000D03*
X-20500000Y15900000D03*
%TO.N,/~SC_IRQ*%
X-4100000Y22400000D03*
X-4100000Y24600000D03*
%TO.N,/BTN_TRIG*%
X-6600000Y-13100000D03*
X-12300000Y-13100000D03*
%TD*%
D24*
%TO.N,GND*%
X350000Y42350000D02*
X300000Y42400000D01*
X1400000Y42350000D02*
X350000Y42350000D01*
X6725000Y44900000D02*
X7600000Y44900000D01*
D25*
X7875000Y-24025000D02*
X7800000Y-24100000D01*
X7875000Y-23100000D02*
X7875000Y-24025000D01*
D24*
X-2600000Y-45087500D02*
X-2600000Y-46200000D01*
D25*
X4450000Y-22300000D02*
X5400000Y-22300000D01*
X5400000Y-22300000D02*
X6000000Y-21700000D01*
X9400000Y-24975000D02*
X9400000Y-25900000D01*
X9300000Y-15025000D02*
X9300000Y-14100000D01*
X-4050000Y-23100000D02*
X-2700000Y-23100000D01*
X3300000Y-23900000D02*
X3200000Y-24000000D01*
X4450000Y-23900000D02*
X3300000Y-23900000D01*
D24*
X-30400000Y32575000D02*
X-30400000Y31500000D01*
D25*
X5125000Y21225000D02*
X5200000Y21300000D01*
X3862500Y21225000D02*
X5125000Y21225000D01*
D24*
X8200000Y21075000D02*
X8200000Y22000000D01*
D25*
X2725000Y17975000D02*
X2500000Y18200000D01*
X3862500Y17975000D02*
X2725000Y17975000D01*
X-625000Y16675000D02*
X-600000Y16700000D01*
X-1862500Y16675000D02*
X-625000Y16675000D01*
D24*
X8200000Y11525000D02*
X8200000Y10600000D01*
X-2312500Y37200000D02*
X-1300000Y37200000D01*
D25*
X-10300000Y39825000D02*
X-10300000Y38700000D01*
X-13150000Y39000000D02*
X-14700000Y39000000D01*
X-22400000Y44075000D02*
X-22400000Y42900000D01*
D24*
X-14375000Y27000000D02*
X-13400000Y27000000D01*
D25*
X5800000Y19075000D02*
X5800000Y19700000D01*
X5800000Y19700000D02*
X6100000Y20000000D01*
D24*
X-8075000Y-23900000D02*
X-8949979Y-23900000D01*
D25*
X-8075000Y-20700000D02*
X-8949979Y-20700000D01*
X-8075000Y-22300000D02*
X-8949979Y-22300000D01*
D26*
%TO.N,Net-(BT1-Pad1)*%
X13600000Y38400000D02*
X9962500Y38400000D01*
D24*
%TO.N,/REF_BAT*%
X-6525000Y-23900000D02*
X-4050000Y-23900000D01*
X-30400000Y35875000D02*
X-30400000Y34225000D01*
X-21200004Y21200004D02*
X-21200004Y18300000D01*
X-26649999Y30474999D02*
X-26649999Y26649999D01*
X-26649999Y26649999D02*
X-21200004Y21200004D01*
X-30400000Y34225000D02*
X-26649999Y30474999D01*
X-9599989Y10099989D02*
X-16000000Y16500000D01*
X-9599989Y-24200011D02*
X-9599989Y10099989D01*
X-7525000Y-24900000D02*
X-8900000Y-24900000D01*
X-8900000Y-24900000D02*
X-9599989Y-24200011D01*
X-6525000Y-23900000D02*
X-7525000Y-24900000D01*
D25*
%TO.N,+3V3*%
X-24130000Y30000000D02*
X-24130000Y27030000D01*
X-22775000Y25675000D02*
X-21600000Y25675000D01*
X-24130000Y27030000D02*
X-22775000Y25675000D01*
X-21600000Y25675000D02*
X-19000000Y25675000D01*
X-3810000Y30000000D02*
X-8000000Y25810000D01*
X-18865000Y25810000D02*
X-19000000Y25675000D01*
X-8000000Y25810000D02*
X-18865000Y25810000D01*
X1575000Y17325000D02*
X3862500Y17325000D01*
X-8000000Y25810000D02*
X-8000000Y25800000D01*
X-8000000Y25810000D02*
X-8000000Y-15300000D01*
X-8000000Y-15300000D02*
X-5400000Y-17900000D01*
X-5400000Y-17900000D02*
X-5400000Y-20700000D01*
X-5400000Y-20700000D02*
X-4050000Y-20700000D01*
X-5400000Y-20700000D02*
X-6525000Y-20700000D01*
X2900000Y-21500000D02*
X2900000Y-22800000D01*
X2900000Y-21500000D02*
X4450000Y-21500000D01*
X3200000Y-23100000D02*
X4450000Y-23100000D01*
X2900000Y-22800000D02*
X3200000Y-23100000D01*
X4450000Y-23100000D02*
X6325000Y-23100000D01*
X5600000Y17325000D02*
X5800000Y17525000D01*
X3862500Y17325000D02*
X5600000Y17325000D01*
D24*
X775000Y16525000D02*
X1575000Y17325000D01*
X775000Y10900000D02*
X775000Y16525000D01*
D25*
X700000Y18200000D02*
X1575000Y17325000D01*
X700000Y21400000D02*
X700000Y18200000D01*
X-1400000Y23500000D02*
X700000Y21400000D01*
X-6800000Y24600000D02*
X-5700000Y23500000D01*
X-4800000Y23500000D02*
X-1400000Y23500000D01*
X-5300000Y23500000D02*
X-4800000Y23500000D01*
X-5700000Y23500000D02*
X-4800000Y23500000D01*
X-8000000Y25800000D02*
X-6800000Y24600000D01*
X-6800000Y24600000D02*
X-5800000Y23600000D01*
X-5725000Y23525000D02*
X-5800000Y23600000D01*
X-5725000Y21300000D02*
X-5725000Y23525000D01*
X7025000Y17525000D02*
X7100000Y17600000D01*
X5800000Y17525000D02*
X7025000Y17525000D01*
D24*
X36900004Y21125004D02*
X36900004Y15200000D01*
X39875000Y23700000D02*
X39475000Y23700000D01*
X39475000Y23700000D02*
X36900004Y21125004D01*
D25*
X39460000Y12000000D02*
X38260000Y13200000D01*
X38260000Y13200000D02*
X36900000Y13200000D01*
X20500000Y13200000D02*
X17000000Y16700000D01*
X36900000Y13200000D02*
X20500000Y13200000D01*
X8700000Y16700000D02*
X13300000Y16700000D01*
X-2300000Y-21500000D02*
X2900000Y-21500000D01*
X-3100000Y-20700000D02*
X-2300000Y-21500000D01*
X-4050000Y-20700000D02*
X-3100000Y-20700000D01*
X-34270000Y-460000D02*
X-34270000Y-730000D01*
X-8000000Y25810000D02*
X-34270000Y-460000D01*
D24*
%TO.N,Net-(C3-Pad1)*%
X3862500Y16025000D02*
X7475000Y16025000D01*
X8200000Y15300000D02*
X8200000Y13075000D01*
X7475000Y16025000D02*
X8200000Y15300000D01*
X10675000Y13075000D02*
X11700000Y12050000D01*
X8200000Y13075000D02*
X10675000Y13075000D01*
%TO.N,Net-(C4-Pad1)*%
X3862500Y16675000D02*
X7375000Y16675000D01*
X8200000Y17500000D02*
X8200000Y19525000D01*
X7375000Y16675000D02*
X8200000Y17500000D01*
X10675000Y19525000D02*
X11700000Y20550000D01*
X8200000Y19525000D02*
X10675000Y19525000D01*
D26*
%TO.N,+BATT*%
X1000000Y39400000D02*
X-3600000Y39400000D01*
X-6975000Y42775000D02*
X-10300000Y42775000D01*
X-3600000Y39400000D02*
X-6975000Y42775000D01*
X-11125000Y43600000D02*
X-10300000Y42775000D01*
X-13150000Y43600000D02*
X-11125000Y43600000D01*
D24*
X-30400000Y38600000D02*
X-30400000Y37525000D01*
X-23800000Y45200000D02*
X-30400000Y38600000D01*
X-14750000Y45200000D02*
X-23800000Y45200000D01*
X-13150000Y43600000D02*
X-14750000Y45200000D01*
D25*
%TO.N,Net-(C6-Pad1)*%
X-6525000Y-22300000D02*
X-4050000Y-22300000D01*
D26*
%TO.N,+5V*%
X-13150000Y41300000D02*
X-19450000Y41300000D01*
X-22225000Y41300000D02*
X-22400000Y41125000D01*
X-19450000Y41300000D02*
X-22225000Y41300000D01*
X-19450000Y41300000D02*
X-19450000Y36050000D01*
X-21590000Y33910000D02*
X-21590000Y32540000D01*
X-19450000Y36050000D02*
X-21590000Y33910000D01*
X-21590000Y33910000D02*
X-23690000Y33910000D01*
X-24130000Y33470000D02*
X-24130000Y32540000D01*
X-23690000Y33910000D02*
X-24130000Y33470000D01*
D24*
%TO.N,Net-(C12-Pad2)*%
X10225000Y-24250000D02*
X9400000Y-23425000D01*
X12800000Y-24250000D02*
X10225000Y-24250000D01*
X9400000Y-23425000D02*
X9400000Y-22600000D01*
X7500000Y-20700000D02*
X4450000Y-20700000D01*
X9400000Y-22600000D02*
X7500000Y-20700000D01*
%TO.N,Net-(C13-Pad2)*%
X10125000Y-15750000D02*
X9300000Y-16575000D01*
X12800000Y-15750000D02*
X10125000Y-15750000D01*
X7500000Y-19900000D02*
X4450000Y-19900000D01*
X9300000Y-18100000D02*
X7500000Y-19900000D01*
X9300000Y-16575000D02*
X9300000Y-18100000D01*
%TO.N,Net-(D1-Pad2)*%
X-5675000Y37200000D02*
X-3887500Y37200000D01*
%TO.N,Net-(D2-Pad2)*%
X3400000Y40350000D02*
X3400000Y43300000D01*
X5125000Y43300000D02*
X5600000Y42825000D01*
X3400000Y43300000D02*
X5125000Y43300000D01*
X7125000Y42825000D02*
X7150000Y42800000D01*
X5600000Y42825000D02*
X7125000Y42825000D01*
%TO.N,/MASTER_ON*%
X10450000Y44650000D02*
X10450000Y42800000D01*
X9200000Y45900000D02*
X10450000Y44650000D01*
X-24165699Y45900000D02*
X9200000Y45900000D01*
X-36500000Y33565699D02*
X-24165699Y45900000D01*
X-36500000Y29000000D02*
X-36500000Y33565699D01*
X-43000000Y29000000D02*
X-36500000Y29000000D01*
X-36500000Y29000000D02*
X-22100000Y14600000D01*
X-20000000Y12500000D02*
X-20000000Y3800000D01*
X-11600000Y3800000D02*
X-20000000Y3800000D01*
X-27070000Y-3270000D02*
X-20000000Y3800000D01*
X-31730000Y-3270000D02*
X-27070000Y-3270000D01*
X-8125000Y-26200000D02*
X-9600000Y-26200000D01*
X-11600000Y3800000D02*
X-11600000Y3305026D01*
X-11600000Y3305026D02*
X-11600000Y-26200000D01*
%TO.N,Net-(D3-Pad2)*%
X-2600000Y-41825000D02*
X-2600000Y-43512500D01*
D26*
%TO.N,/BAT_RAW*%
X3450000Y38400000D02*
X3400000Y38450000D01*
X5637500Y38400000D02*
X3450000Y38400000D01*
X5637500Y41137500D02*
X5600000Y41175000D01*
X5637500Y38400000D02*
X5637500Y41137500D01*
D24*
%TO.N,/PI_RXD*%
X-11710000Y34800000D02*
X-8300000Y34800000D01*
X-13970000Y32540000D02*
X-11710000Y34800000D01*
X43000000Y-24320000D02*
X46500000Y-20820000D01*
X46500000Y-20820000D02*
X46500000Y22100000D01*
X46500000Y22100000D02*
X34349999Y34250001D01*
X34349999Y34250001D02*
X-6349997Y34250001D01*
X-6349997Y34250001D02*
X-6899996Y34800000D01*
%TO.N,/PI_TXD*%
X-13250000Y35800000D02*
X-8300000Y35800000D01*
X-16510000Y32540000D02*
X-13250000Y35800000D01*
X-4200000Y34700000D02*
X-5300010Y35800010D01*
X35500000Y34700000D02*
X-4200000Y34700000D01*
X46900000Y23300000D02*
X35500000Y34700000D01*
X46900000Y-21500006D02*
X46900000Y23300000D01*
X-5300010Y35800010D02*
X-6900000Y35800010D01*
X45000006Y-23400000D02*
X46900000Y-21500006D01*
%TO.N,/PD2*%
X13000000Y-29400000D02*
X22549965Y-19850035D01*
X37049965Y-19850035D02*
X39700000Y-17200000D01*
X3800000Y-29400000D02*
X13000000Y-29400000D01*
X22549965Y-19850035D02*
X37049965Y-19850035D01*
X3000000Y-26950000D02*
X3000000Y-28600000D01*
X3000000Y-28600000D02*
X3800000Y-29400000D01*
%TO.N,/UC_RX*%
X3300000Y-30700000D02*
X13400000Y-30700000D01*
X39049943Y-20650057D02*
X43000000Y-16700000D01*
X1400000Y-28800000D02*
X3300000Y-30700000D01*
X13400000Y-30700000D02*
X23449943Y-20650057D01*
X1400000Y-26950000D02*
X1400000Y-28800000D01*
X23449943Y-20650057D02*
X39049943Y-20650057D01*
%TO.N,/UC_TX*%
X2200000Y-26950000D02*
X2200000Y-28800000D01*
X37749954Y-20250046D02*
X42150001Y-15849999D01*
X42150001Y-15009999D02*
X43000000Y-14160000D01*
X42150001Y-15849999D02*
X42150001Y-15009999D01*
X2200000Y-28800000D02*
X3500000Y-30100000D01*
X3500000Y-30100000D02*
X13100000Y-30100000D01*
X13100000Y-30100000D02*
X22949954Y-20250046D01*
X22949954Y-20250046D02*
X37749954Y-20250046D01*
%TO.N,/SCK*%
X41300000Y25700000D02*
X25525000Y25700000D01*
X44000000Y23000000D02*
X41300000Y25700000D01*
X44000000Y16540000D02*
X44000000Y23000000D01*
X25525000Y25700000D02*
X25500000Y25675000D01*
X42000000Y14540000D02*
X44000000Y16540000D01*
X45700000Y-8920000D02*
X43000000Y-11620000D01*
X45700000Y10840000D02*
X45700000Y-8920000D01*
X42000000Y14540000D02*
X45700000Y10840000D01*
X-1815698Y-20800000D02*
X708207Y-20800000D01*
X708207Y-20800000D02*
X1542629Y-19965578D01*
X-2715698Y-19900000D02*
X-1815698Y-20800000D01*
X-4050000Y-19900000D02*
X-2715698Y-19900000D01*
X36349976Y-19450024D02*
X40400000Y-15400000D01*
X15034322Y-12200022D02*
X22284324Y-19450024D01*
X1150010Y-16450001D02*
X1150010Y-13987988D01*
X22284324Y-19450024D02*
X36349976Y-19450024D01*
X1500009Y-16800000D02*
X1150010Y-16450001D01*
X40400000Y-15400000D02*
X40400000Y-14220000D01*
X2937976Y-12200022D02*
X15034322Y-12200022D01*
X1150010Y-13987988D02*
X2937976Y-12200022D01*
X40400000Y-14220000D02*
X43000000Y-11620000D01*
%TO.N,/MISO*%
X42000000Y12600000D02*
X42000000Y12000000D01*
X40700000Y24500000D02*
X40700000Y13900000D01*
X27874990Y24974990D02*
X40225010Y24974990D01*
X40225010Y24974990D02*
X40700000Y24500000D01*
X24600000Y24500000D02*
X27400000Y24500000D01*
X27400000Y24500000D02*
X27874990Y24974990D01*
X24200000Y24900000D02*
X24600000Y24500000D01*
X24200000Y26100000D02*
X24200000Y24900000D01*
X21347919Y26500000D02*
X23800000Y26500000D01*
X40700000Y13900000D02*
X42000000Y12600000D01*
X19050000Y28797919D02*
X21347919Y26500000D01*
X23800000Y26500000D02*
X24200000Y26100000D01*
X19050000Y30000000D02*
X19050000Y28797919D01*
X45300000Y-6780000D02*
X43000000Y-9080000D01*
X45300000Y-2000000D02*
X45300000Y-6780000D01*
X42000000Y1300000D02*
X45300000Y-2000000D01*
X42000000Y12000000D02*
X42000000Y1300000D01*
X-2600000Y-19450000D02*
X-2250000Y-19800000D01*
X-2600000Y-18450000D02*
X-2600000Y-19450000D01*
X450000Y-19800000D02*
X600000Y-19950000D01*
X-2250000Y-19800000D02*
X450000Y-19800000D01*
X2699989Y-11800011D02*
X15200011Y-11800011D01*
X42150001Y-9929999D02*
X43000000Y-9080000D01*
X35849987Y-19050013D02*
X39400000Y-15500000D01*
X15200011Y-11800011D02*
X22450013Y-19050013D01*
X22450013Y-19050013D02*
X35849987Y-19050013D01*
X39400000Y-15500000D02*
X39400000Y-12680000D01*
X39400000Y-12680000D02*
X42150001Y-9929999D01*
X600006Y-13899994D02*
X2699989Y-11800011D01*
X600006Y-16800000D02*
X600006Y-13899994D01*
%TO.N,/MOSI*%
X39460000Y14540000D02*
X31260000Y14540000D01*
X22900000Y22900000D02*
X22900000Y25675000D01*
X31260000Y14540000D02*
X22900000Y22900000D01*
X-1800000Y-18450000D02*
X-1800000Y-16900000D01*
X-1800000Y-16900000D02*
X-1900000Y-16800000D01*
X40700000Y13300000D02*
X39460000Y14540000D01*
X40700000Y540002D02*
X40700000Y13300000D01*
X44400000Y-3159998D02*
X40700000Y540002D01*
X44400000Y-5140000D02*
X44400000Y-3159998D01*
X43000000Y-6540000D02*
X44400000Y-5140000D01*
X43000000Y-6540000D02*
X38400000Y-11140000D01*
X35549998Y-18650002D02*
X22650002Y-18650002D01*
X38400000Y-15800000D02*
X35549998Y-18650002D01*
X-300029Y-14200029D02*
X-300029Y-16800000D01*
X38400000Y-11140000D02*
X38400000Y-15800000D01*
X22650002Y-18650002D02*
X15400000Y-11400000D01*
X15400000Y-11400000D02*
X2500000Y-11400000D01*
X2500000Y-11400000D02*
X-300029Y-14200029D01*
%TO.N,/SS*%
X-6000000Y-15900000D02*
X-2400000Y-15900000D01*
X-1000000Y-16662004D02*
X-1000000Y-18450000D01*
X-2200000Y-15900000D02*
X-1000000Y-15900000D01*
X-1000000Y-16662004D02*
X-1000000Y-15900000D01*
X-2400000Y-15900000D02*
X-2200000Y-15900000D01*
X-7000000Y23400000D02*
X-7400000Y23000000D01*
X-7400000Y-14500000D02*
X-6000000Y-15900000D01*
X-7400000Y23000000D02*
X-7400000Y-14500000D01*
X-1000000Y-14200000D02*
X7900000Y-5300000D01*
X-1000000Y-15900000D02*
X-1000000Y-14200000D01*
X7900000Y-5300000D02*
X28699966Y-5300000D01*
X41699996Y-5300004D02*
X43000000Y-4000000D01*
X30100000Y-5300004D02*
X41699996Y-5300004D01*
X-10800000Y26700000D02*
X-11500000Y26700000D01*
X-10800000Y26700000D02*
X-8400000Y26700000D01*
X-11500000Y26700000D02*
X-12700000Y27900000D01*
X-12700000Y31270000D02*
X-11430000Y32540000D01*
X-12700000Y27900000D02*
X-12700000Y31270000D01*
%TO.N,/SP+*%
X-8000000Y27400000D02*
X-9100000Y27400000D01*
X-6350000Y29050000D02*
X-8000000Y27400000D01*
X-6350000Y30000000D02*
X-6350000Y29050000D01*
X-10300000Y24400000D02*
X-10300000Y24900000D01*
X-24950000Y9750000D02*
X-10300000Y24400000D01*
X-27050000Y9750000D02*
X-24950000Y9750000D01*
X-36000000Y800000D02*
X-27050000Y9750000D01*
X-36000000Y-1240002D02*
X-36000000Y800000D01*
X-35240002Y-2000000D02*
X-36000000Y-1240002D01*
X-33025698Y-2000000D02*
X-35240002Y-2000000D01*
X-31742849Y-717151D02*
X-33025698Y-2000000D01*
%TO.N,/TRIG*%
X2200000Y-14100000D02*
X2100000Y-14000000D01*
X2200000Y-18450000D02*
X2200000Y-14100000D01*
X3990000Y3810000D02*
X1270000Y3810000D01*
X4500000Y3300000D02*
X3990000Y3810000D01*
X5700000Y2100000D02*
X5700000Y-3999990D01*
X5700000Y-3999990D02*
X-1100000Y-10799990D01*
%TO.N,/SP-*%
X-6350000Y32540000D02*
X-7600000Y31290000D01*
X-7600000Y31290000D02*
X-7600000Y29100000D01*
X-7600000Y29100000D02*
X-8400000Y28300000D01*
X-9400000Y28300000D02*
X-10300000Y27400000D01*
X-8400000Y28300000D02*
X-9400000Y28300000D01*
X-31730000Y-31704302D02*
X-31742849Y-31717151D01*
X-31730000Y-28670000D02*
X-31730000Y-31704302D01*
X-38800000Y-21600000D02*
X-31730000Y-28670000D01*
X-27400000Y10300000D02*
X-38800000Y-1100000D01*
X-38800000Y-1100000D02*
X-38800000Y-21600000D01*
X-25100000Y10300000D02*
X-27400000Y10300000D01*
X-11300000Y24100000D02*
X-25100000Y10300000D01*
X-11300000Y24900000D02*
X-11300000Y24100000D01*
%TO.N,Net-(J4-Pad40)*%
X25500000Y31170000D02*
X24130000Y32540000D01*
X25500000Y27325000D02*
X25500000Y31170000D01*
%TO.N,Net-(J4-Pad38)*%
X22900000Y31230000D02*
X21590000Y32540000D01*
X22900000Y27325000D02*
X22900000Y31230000D01*
%TO.N,/BR-*%
X31730000Y-24030078D02*
X29400000Y-21700078D01*
X31730000Y-29730000D02*
X31730000Y-24030078D01*
X15300000Y13600000D02*
X29349976Y-449976D01*
X13970000Y32540000D02*
X15300000Y31210000D01*
X15300000Y31210000D02*
X15300000Y13600000D01*
X29349976Y-17455002D02*
X29400000Y-17505026D01*
X29400000Y-17505026D02*
X29400000Y-18000000D01*
X29349976Y-449976D02*
X29349976Y-17455002D01*
X31730000Y-29730000D02*
X31730000Y-31730000D01*
%TO.N,Net-(J4-Pad24)*%
X3862500Y18625000D02*
X4775000Y18625000D01*
X4775000Y18625000D02*
X5100000Y18300000D01*
X5100000Y18300000D02*
X6700000Y18300000D01*
X6700000Y18300000D02*
X6900000Y18500000D01*
X6900000Y18500000D02*
X6900000Y24500000D01*
X6900000Y24500000D02*
X5100000Y26300000D01*
X5100000Y31250000D02*
X3810000Y32540000D01*
X5100000Y26300000D02*
X5100000Y31250000D01*
%TO.N,Net-(J4-Pad23)*%
X5575000Y20575000D02*
X5075000Y20575000D01*
X5075000Y20575000D02*
X3862500Y20575000D01*
X6100000Y21100000D02*
X5575000Y20575000D01*
X3810000Y25190000D02*
X6100000Y22900000D01*
X6100000Y22900000D02*
X6100000Y21100000D01*
X3810000Y30000000D02*
X3810000Y25190000D01*
%TO.N,/BR+*%
X16300000Y15200000D02*
X31730000Y-230000D01*
X31730000Y-230000D02*
X31730000Y-800000D01*
X16300000Y26500000D02*
X16300000Y15200000D01*
X17800000Y28000000D02*
X16300000Y26500000D01*
X17800000Y33300000D02*
X17800000Y28000000D01*
X17300000Y33800000D02*
X17800000Y33300000D01*
X2530000Y33800000D02*
X17300000Y33800000D01*
X1270000Y32540000D02*
X2530000Y33800000D01*
%TO.N,Net-(J4-Pad21)*%
X1270000Y30000000D02*
X1270000Y26130000D01*
X1270000Y26130000D02*
X2500000Y24900000D01*
X2500000Y24900000D02*
X2500000Y20300000D01*
X2875000Y19925000D02*
X3862500Y19925000D01*
X2500000Y20300000D02*
X2875000Y19925000D01*
%TO.N,Net-(J4-Pad19)*%
X-1270000Y30000000D02*
X-1270000Y26270000D01*
X-1270000Y26270000D02*
X1700000Y23300000D01*
X1700000Y23300000D02*
X1700000Y20000000D01*
X2425000Y19275000D02*
X3862500Y19275000D01*
X1700000Y20000000D02*
X2425000Y19275000D01*
%TO.N,/STAT*%
X16510000Y30000000D02*
X15800000Y29290000D01*
X15800000Y29290000D02*
X15800000Y14300000D01*
X15800000Y14300000D02*
X29749987Y350013D01*
X30050000Y-1660000D02*
X31730000Y-3340000D01*
X30050000Y50000D02*
X30050000Y-1660000D01*
X29749987Y350013D02*
X30050000Y50000D01*
%TO.N,/PI_LED*%
X-7600000Y36925000D02*
X-7325000Y37200000D01*
X-7600000Y32000000D02*
X-7600000Y36925000D01*
X-8890000Y30710000D02*
X-7600000Y32000000D01*
X-8890000Y30000000D02*
X-8890000Y30710000D01*
%TO.N,/PI_SHTDN*%
X-16510000Y27485000D02*
X-16025000Y27000000D01*
X-16510000Y30000000D02*
X-16510000Y27485000D01*
X-16500000Y24800000D02*
X-16500000Y19999994D01*
X-16500000Y19999994D02*
X-18899994Y17600000D01*
X-9999989Y8699989D02*
X-16800000Y15500000D01*
X-9999989Y-24400011D02*
X-9999989Y8699989D01*
X-9100000Y-25300000D02*
X-9999989Y-24400011D01*
X-6600000Y-25300000D02*
X-9100000Y-25300000D01*
X-6000000Y-24700000D02*
X-6600000Y-25300000D01*
X-4050000Y-24700000D02*
X-6000000Y-24700000D01*
%TO.N,/DN_RETO*%
X1270000Y-1270000D02*
X-60000Y-2600000D01*
X-60000Y-2600000D02*
X-3200000Y-2600000D01*
X-4900000Y-900000D02*
X-4900000Y600000D01*
X-3200000Y-2600000D02*
X-4900000Y-900000D01*
X-2925000Y15375000D02*
X-1862500Y15375000D01*
X-4200000Y14100000D02*
X-2925000Y15375000D01*
X-4200000Y2500000D02*
X-4200000Y14100000D01*
%TO.N,/UP_RETO*%
X2300000Y0D02*
X7000000Y4700000D01*
X7000000Y4700000D02*
X7000000Y14400000D01*
X6675000Y14725000D02*
X3862500Y14725000D01*
X7000000Y14400000D02*
X6675000Y14725000D01*
%TO.N,/DN_TX*%
X-5425000Y16000000D02*
X-5425000Y2425000D01*
X-5425000Y2425000D02*
X-3000000Y0D01*
X0Y0D02*
X1270000Y1270000D01*
X-3000000Y0D02*
X0Y0D01*
%TO.N,/UP_TX*%
X0Y2540000D02*
X-1270000Y1270000D01*
X0Y5600000D02*
X0Y2540000D01*
X5900000Y11500000D02*
X0Y5600000D01*
X5900000Y11775000D02*
X5900000Y11500000D01*
%TO.N,/~RESET*%
X42000000Y23225000D02*
X41525000Y23700000D01*
X42000000Y17080000D02*
X42000000Y23225000D01*
X44700000Y-20500000D02*
X41500000Y-20500000D01*
X600000Y-28900000D02*
X600000Y-26950000D01*
X43900000Y15300000D02*
X46100000Y13100000D01*
X41500000Y-20500000D02*
X40949932Y-21050068D01*
X3600000Y-31900000D02*
X600000Y-28900000D01*
X46100000Y-19100000D02*
X44700000Y-20500000D01*
X46100000Y13100000D02*
X46100000Y-19100000D01*
X13100000Y-31900000D02*
X3600000Y-31900000D01*
X23949932Y-21050068D02*
X13100000Y-31900000D01*
X40949932Y-21050068D02*
X23949932Y-21050068D01*
%TO.N,/PWR_EN*%
X2050000Y44900000D02*
X1400000Y44250000D01*
X5075000Y44900000D02*
X2050000Y44900000D01*
X5075000Y44900000D02*
X6075000Y43900000D01*
X6075000Y43900000D02*
X8000000Y43900000D01*
X8000000Y43900000D02*
X8500000Y43400000D01*
X8500000Y43400000D02*
X8500000Y37099994D01*
X8500000Y37099994D02*
X10200000Y35399994D01*
X1005026Y-22700000D02*
X2100000Y-22700000D01*
X-1800000Y-25505026D02*
X1005026Y-22700000D01*
X-1800000Y-26950000D02*
X-1800000Y-25505026D01*
X4400000Y-18000000D02*
X4400000Y-14800000D01*
X4400000Y-14800000D02*
X2900000Y-13300000D01*
X10200000Y31400000D02*
X10200000Y29600000D01*
X14800000Y2599992D02*
X900000Y-11300008D01*
X10200000Y29600000D02*
X14800000Y25000000D01*
X14800000Y25000000D02*
X14800000Y2599992D01*
%TO.N,Net-(R13-Pad2)*%
X2775000Y15375000D02*
X3862500Y15375000D01*
X2425000Y15025000D02*
X2775000Y15375000D01*
X2425000Y10900000D02*
X2425000Y15025000D01*
%TO.N,Net-(R14-Pad1)*%
X5250000Y14075000D02*
X3862500Y14075000D01*
X5900000Y13425000D02*
X5250000Y14075000D01*
%TO.N,Net-(R15-Pad1)*%
X-3750000Y16025000D02*
X-3775000Y16000000D01*
X-1862500Y16025000D02*
X-3750000Y16025000D01*
%TO.N,/UC_LED*%
X-2600000Y-26950000D02*
X-2600000Y-40175000D01*
%TO.N,/SCL*%
X-19050000Y27375000D02*
X-19000000Y27325000D01*
X-19050000Y30000000D02*
X-19050000Y27375000D01*
X-200000Y-30000000D02*
X0Y-30200000D01*
X-200000Y-26950000D02*
X-200000Y-30000000D01*
X-19699994Y23600006D02*
X-19699994Y16800000D01*
X-19000000Y24300000D02*
X-19699994Y23600006D01*
X-8300000Y-30200000D02*
X-3500000Y-30200000D01*
X-10399989Y-28100011D02*
X-8300000Y-30200000D01*
X-10399989Y7499989D02*
X-10399989Y-28100011D01*
X-17600000Y14700000D02*
X-10399989Y7499989D01*
%TO.N,/SDA*%
X-21590000Y27335000D02*
X-21600000Y27325000D01*
X-21590000Y30000000D02*
X-21590000Y27335000D01*
X-1000000Y-29300000D02*
X-1000000Y-26950000D01*
X-1800000Y-30100000D02*
X-1000000Y-29300000D01*
X-1800000Y-31300000D02*
X-1800000Y-30100000D01*
X-26000000Y26800000D02*
X-20500000Y21300000D01*
X-21590000Y30000000D02*
X-22740001Y31150001D01*
X-22740001Y31150001D02*
X-25649999Y31150001D01*
X-20500000Y21300000D02*
X-20500000Y15900000D01*
X-25649999Y31150001D02*
X-26000000Y30800000D01*
X-26000000Y30800000D02*
X-26000000Y26800000D01*
X-10800000Y6199994D02*
X-18400006Y13800000D01*
X-10800000Y-29100000D02*
X-10800000Y6199994D01*
X-8600000Y-31300000D02*
X-10800000Y-29100000D01*
X-3500000Y-31300000D02*
X-8600000Y-31300000D01*
D27*
%TO.N,/~SC_IRQ*%
X-4000000Y21225000D02*
X-4075000Y21300000D01*
X-1862500Y21225000D02*
X-4000000Y21225000D01*
D24*
X-4075000Y22375000D02*
X-4100000Y22400000D01*
X-4075000Y21300000D02*
X-4075000Y22375000D01*
X-2500000Y31230000D02*
X-3810000Y32540000D01*
X-2500000Y27600000D02*
X-2500000Y31230000D01*
X-4100000Y26000000D02*
X-2500000Y27600000D01*
X-4100000Y24600000D02*
X-4100000Y26000000D01*
%TO.N,/BTN_TRIG*%
X14300000Y24590000D02*
X14300000Y3400000D01*
X8890000Y30000000D02*
X14300000Y24590000D01*
X14300000Y3400000D02*
X-2200000Y-13100000D01*
X-2200000Y-13100000D02*
X-6600000Y-13100000D01*
X-24930000Y-34270000D02*
X-20400000Y-38800000D01*
X-31730000Y-34270000D02*
X-24930000Y-34270000D01*
X-12300000Y-14840000D02*
X-12300000Y-13100000D01*
X-31730000Y-34270000D02*
X-12300000Y-14840000D01*
%TO.N,Net-(R5-Pad2)*%
X-5775000Y-25500000D02*
X-6475000Y-26200000D01*
X-4050000Y-25500000D02*
X-5775000Y-25500000D01*
%TD*%
M02*
