%TF.GenerationSoftware,KiCad,Pcbnew,(6.0.1)*%
%TF.CreationDate,2022-02-01T19:55:59+01:00*%
%TF.ProjectId,main_pcb,6d61696e-5f70-4636-922e-6b696361645f,rev?*%
%TF.SameCoordinates,PX8f0d180PY5f5e100*%
%TF.FileFunction,Copper,L1,Top*%
%TF.FilePolarity,Positive*%
%FSLAX46Y46*%
G04 Gerber Fmt 4.6, Leading zero omitted, Abs format (unit mm)*
G04 Created by KiCad (PCBNEW (6.0.1)) date 2022-02-01 19:55:59*
%MOMM*%
%LPD*%
G01*
G04 APERTURE LIST*
G04 Aperture macros list*
%AMRoundRect*
0 Rectangle with rounded corners*
0 $1 Rounding radius*
0 $2 $3 $4 $5 $6 $7 $8 $9 X,Y pos of 4 corners*
0 Add a 4 corners polygon primitive as box body*
4,1,4,$2,$3,$4,$5,$6,$7,$8,$9,$2,$3,0*
0 Add four circle primitives for the rounded corners*
1,1,$1+$1,$2,$3*
1,1,$1+$1,$4,$5*
1,1,$1+$1,$6,$7*
1,1,$1+$1,$8,$9*
0 Add four rect primitives between the rounded corners*
20,1,$1+$1,$2,$3,$4,$5,0*
20,1,$1+$1,$4,$5,$6,$7,0*
20,1,$1+$1,$6,$7,$8,$9,0*
20,1,$1+$1,$8,$9,$2,$3,0*%
G04 Aperture macros list end*
%TA.AperFunction,ComponentPad*%
%ADD10R,1.700000X1.700000*%
%TD*%
%TA.AperFunction,ComponentPad*%
%ADD11O,1.700000X1.700000*%
%TD*%
%TA.AperFunction,SMDPad,CuDef*%
%ADD12RoundRect,0.225000X0.225000X0.250000X-0.225000X0.250000X-0.225000X-0.250000X0.225000X-0.250000X0*%
%TD*%
%TA.AperFunction,SMDPad,CuDef*%
%ADD13RoundRect,0.225000X0.250000X-0.225000X0.250000X0.225000X-0.250000X0.225000X-0.250000X-0.225000X0*%
%TD*%
%TA.AperFunction,SMDPad,CuDef*%
%ADD14RoundRect,0.225000X-0.250000X0.225000X-0.250000X-0.225000X0.250000X-0.225000X0.250000X0.225000X0*%
%TD*%
%TA.AperFunction,SMDPad,CuDef*%
%ADD15RoundRect,0.249999X-0.650001X0.325001X-0.650001X-0.325001X0.650001X-0.325001X0.650001X0.325001X0*%
%TD*%
%TA.AperFunction,SMDPad,CuDef*%
%ADD16RoundRect,0.249999X0.650001X-0.325001X0.650001X0.325001X-0.650001X0.325001X-0.650001X-0.325001X0*%
%TD*%
%TA.AperFunction,SMDPad,CuDef*%
%ADD17R,0.900000X1.200000*%
%TD*%
%TA.AperFunction,SMDPad,CuDef*%
%ADD18RoundRect,0.250000X-0.487500X-1.400000X0.487500X-1.400000X0.487500X1.400000X-0.487500X1.400000X0*%
%TD*%
%TA.AperFunction,ComponentPad*%
%ADD19C,6.400000*%
%TD*%
%TA.AperFunction,ComponentPad*%
%ADD20RoundRect,0.250000X0.600000X0.600000X-0.600000X0.600000X-0.600000X-0.600000X0.600000X-0.600000X0*%
%TD*%
%TA.AperFunction,ComponentPad*%
%ADD21C,1.700000*%
%TD*%
%TA.AperFunction,SMDPad,CuDef*%
%ADD22R,0.900000X0.800000*%
%TD*%
%TA.AperFunction,SMDPad,CuDef*%
%ADD23RoundRect,0.200000X0.200000X0.275000X-0.200000X0.275000X-0.200000X-0.275000X0.200000X-0.275000X0*%
%TD*%
%TA.AperFunction,SMDPad,CuDef*%
%ADD24RoundRect,0.200000X0.275000X-0.200000X0.275000X0.200000X-0.275000X0.200000X-0.275000X-0.200000X0*%
%TD*%
%TA.AperFunction,SMDPad,CuDef*%
%ADD25RoundRect,0.200000X-0.275000X0.200000X-0.275000X-0.200000X0.275000X-0.200000X0.275000X0.200000X0*%
%TD*%
%TA.AperFunction,SMDPad,CuDef*%
%ADD26RoundRect,0.200000X-0.200000X-0.275000X0.200000X-0.275000X0.200000X0.275000X-0.200000X0.275000X0*%
%TD*%
%TA.AperFunction,ComponentPad*%
%ADD27C,2.000000*%
%TD*%
%TA.AperFunction,SMDPad,CuDef*%
%ADD28RoundRect,0.100000X0.637500X0.100000X-0.637500X0.100000X-0.637500X-0.100000X0.637500X-0.100000X0*%
%TD*%
%TA.AperFunction,SMDPad,CuDef*%
%ADD29R,1.600000X0.550000*%
%TD*%
%TA.AperFunction,SMDPad,CuDef*%
%ADD30R,0.550000X1.600000*%
%TD*%
%TA.AperFunction,SMDPad,CuDef*%
%ADD31R,2.000000X1.500000*%
%TD*%
%TA.AperFunction,SMDPad,CuDef*%
%ADD32R,2.000000X3.800000*%
%TD*%
%TA.AperFunction,SMDPad,CuDef*%
%ADD33R,2.000000X4.500000*%
%TD*%
%TA.AperFunction,SMDPad,CuDef*%
%ADD34RoundRect,0.225000X-0.225000X-0.250000X0.225000X-0.250000X0.225000X0.250000X-0.225000X0.250000X0*%
%TD*%
%TA.AperFunction,SMDPad,CuDef*%
%ADD35RoundRect,0.218750X0.218750X0.256250X-0.218750X0.256250X-0.218750X-0.256250X0.218750X-0.256250X0*%
%TD*%
%TA.AperFunction,SMDPad,CuDef*%
%ADD36R,1.000000X0.700000*%
%TD*%
%TA.AperFunction,ViaPad*%
%ADD37C,0.700000*%
%TD*%
%TA.AperFunction,Conductor*%
%ADD38C,0.400000*%
%TD*%
%TA.AperFunction,Conductor*%
%ADD39C,0.200000*%
%TD*%
%TA.AperFunction,Conductor*%
%ADD40C,1.000000*%
%TD*%
%TA.AperFunction,Conductor*%
%ADD41C,0.250000*%
%TD*%
G04 APERTURE END LIST*
D10*
%TO.P,BT1,1,+*%
%TO.N,Net-(BT1-Pad1)*%
X13600000Y38400000D03*
D11*
%TO.P,BT1,2,-*%
%TO.N,GND*%
X13600000Y40940000D03*
%TD*%
D12*
%TO.P,C1,1*%
%TO.N,/REF_BAT*%
X-6525000Y-23900000D03*
%TO.P,C1,2*%
%TO.N,GND*%
X-8075000Y-23900000D03*
%TD*%
D13*
%TO.P,C4,1*%
%TO.N,Net-(C4-Pad1)*%
X8200000Y19525000D03*
%TO.P,C4,2*%
%TO.N,GND*%
X8200000Y21075000D03*
%TD*%
D12*
%TO.P,C6,1*%
%TO.N,Net-(C6-Pad1)*%
X-6525000Y-22300000D03*
%TO.P,C6,2*%
%TO.N,GND*%
X-8075000Y-22300000D03*
%TD*%
%TO.P,C7,1*%
%TO.N,+3V3*%
X-6525000Y-20700000D03*
%TO.P,C7,2*%
%TO.N,GND*%
X-8075000Y-20700000D03*
%TD*%
D13*
%TO.P,C12,1*%
%TO.N,GND*%
X9400000Y-24975000D03*
%TO.P,C12,2*%
%TO.N,Net-(C12-Pad2)*%
X9400000Y-23425000D03*
%TD*%
D14*
%TO.P,C13,1*%
%TO.N,GND*%
X9300000Y-15025000D03*
%TO.P,C13,2*%
%TO.N,Net-(C13-Pad2)*%
X9300000Y-16575000D03*
%TD*%
D15*
%TO.P,C14,1*%
%TO.N,+BATT*%
X-10300000Y42775000D03*
%TO.P,C14,2*%
%TO.N,GND*%
X-10300000Y39825000D03*
%TD*%
D16*
%TO.P,C15,1*%
%TO.N,+5V*%
X-22400000Y41125000D03*
%TO.P,C15,2*%
%TO.N,GND*%
X-22400000Y44075000D03*
%TD*%
D17*
%TO.P,D2,1,K*%
%TO.N,/MASTER_ON*%
X10450000Y42800000D03*
%TO.P,D2,2,A*%
%TO.N,Net-(D2-Pad2)*%
X7150000Y42800000D03*
%TD*%
D18*
%TO.P,F1,1*%
%TO.N,/BAT_RAW*%
X5637500Y38400000D03*
%TO.P,F1,2*%
%TO.N,Net-(BT1-Pad1)*%
X9962500Y38400000D03*
%TD*%
D19*
%TO.P,H1,1,1*%
%TO.N,unconnected-(H1-Pad1)*%
X-33000000Y43000000D03*
%TD*%
%TO.P,H2,1,1*%
%TO.N,unconnected-(H2-Pad1)*%
X33000000Y43000000D03*
%TD*%
%TO.P,H3,1,1*%
%TO.N,unconnected-(H3-Pad1)*%
X33000000Y-43000000D03*
%TD*%
%TO.P,H4,1,1*%
%TO.N,unconnected-(H4-Pad1)*%
X-33000000Y-43000000D03*
%TD*%
D10*
%TO.P,J1,1,Pin_1*%
%TO.N,/SS*%
X43000000Y-4000000D03*
D11*
%TO.P,J1,2,Pin_2*%
%TO.N,/MOSI*%
X43000000Y-6540000D03*
%TO.P,J1,3,Pin_3*%
%TO.N,/MISO*%
X43000000Y-9080000D03*
%TO.P,J1,4,Pin_4*%
%TO.N,/SCK*%
X43000000Y-11620000D03*
%TO.P,J1,5,Pin_5*%
%TO.N,/UC_TX*%
X43000000Y-14160000D03*
%TO.P,J1,6,Pin_6*%
%TO.N,/UC_RX*%
X43000000Y-16700000D03*
%TO.P,J1,7,Pin_7*%
%TO.N,/PD2*%
X43000000Y-19240000D03*
%TO.P,J1,8,Pin_8*%
%TO.N,/PI_TXD*%
X43000000Y-21780000D03*
%TO.P,J1,9,Pin_9*%
%TO.N,/PI_RXD*%
X43000000Y-24320000D03*
%TO.P,J1,10,Pin_10*%
%TO.N,GND*%
X43000000Y-26860000D03*
%TO.P,J1,11,Pin_11*%
X43000000Y-29400000D03*
%TO.P,J1,12,Pin_12*%
X43000000Y-31940000D03*
%TD*%
D10*
%TO.P,J2,1,Pin_1*%
%TO.N,+3V3*%
X-34270000Y-730000D03*
D11*
%TO.P,J2,2,Pin_2*%
%TO.N,/SP+*%
X-31730000Y-730000D03*
%TO.P,J2,3,Pin_3*%
%TO.N,GND*%
X-34270000Y-3270000D03*
%TO.P,J2,4,Pin_4*%
%TO.N,/MASTER_ON*%
X-31730000Y-3270000D03*
%TD*%
D10*
%TO.P,J3,1,Pin_1*%
%TO.N,GND*%
X-34270000Y-31730000D03*
D11*
%TO.P,J3,2,Pin_2*%
%TO.N,/SP-*%
X-31730000Y-31730000D03*
%TO.P,J3,3,Pin_3*%
%TO.N,GND*%
X-34270000Y-34270000D03*
%TO.P,J3,4,Pin_4*%
%TO.N,/BTN_TRIG*%
X-31730000Y-34270000D03*
%TD*%
D10*
%TO.P,J5,1,Pin_1*%
%TO.N,/BR+*%
X31730000Y-800000D03*
D11*
%TO.P,J5,2,Pin_2*%
%TO.N,GND*%
X34270000Y-800000D03*
%TO.P,J5,3,Pin_3*%
%TO.N,/UC_LED*%
X31730000Y-3340000D03*
%TO.P,J5,4,Pin_4*%
%TO.N,GND*%
X34270000Y-3340000D03*
%TD*%
D10*
%TO.P,J6,1,Pin_1*%
%TO.N,/BR-*%
X31730000Y-31730000D03*
D11*
%TO.P,J6,2,Pin_2*%
%TO.N,GND*%
X34270000Y-31730000D03*
%TO.P,J6,3,Pin_3*%
X31730000Y-34270000D03*
%TO.P,J6,4,Pin_4*%
X34270000Y-34270000D03*
%TD*%
D20*
%TO.P,J8,1,Pin_1*%
%TO.N,/MISO*%
X42000000Y12000000D03*
D21*
%TO.P,J8,2,Pin_2*%
%TO.N,+3V3*%
X39460000Y12000000D03*
%TO.P,J8,3,Pin_3*%
%TO.N,/SCK*%
X42000000Y14540000D03*
%TO.P,J8,4,Pin_4*%
%TO.N,/MOSI*%
X39460000Y14540000D03*
%TO.P,J8,5,Pin_5*%
%TO.N,/~{RESET}*%
X42000000Y17080000D03*
%TO.P,J8,6,Pin_6*%
%TO.N,GND*%
X39460000Y17080000D03*
%TD*%
D22*
%TO.P,Q1,1,G*%
%TO.N,/PWR_EN*%
X1400000Y44250000D03*
%TO.P,Q1,2,S*%
%TO.N,GND*%
X1400000Y42350000D03*
%TO.P,Q1,3,D*%
%TO.N,Net-(D2-Pad2)*%
X3400000Y43300000D03*
%TD*%
D23*
%TO.P,R2,1*%
%TO.N,GND*%
X-14375000Y27000000D03*
%TO.P,R2,2*%
%TO.N,/PI_SHTDN*%
X-16025000Y27000000D03*
%TD*%
D24*
%TO.P,R6,1*%
%TO.N,/BAT_RAW*%
X5600000Y41175000D03*
%TO.P,R6,2*%
%TO.N,Net-(D2-Pad2)*%
X5600000Y42825000D03*
%TD*%
D25*
%TO.P,R7,1*%
%TO.N,Net-(J4-Pad38)*%
X22900000Y27325000D03*
%TO.P,R7,2*%
%TO.N,/MOSI*%
X22900000Y25675000D03*
%TD*%
%TO.P,R8,1*%
%TO.N,Net-(J4-Pad40)*%
X25500000Y27325000D03*
%TO.P,R8,2*%
%TO.N,/SCK*%
X25500000Y25675000D03*
%TD*%
D26*
%TO.P,R9,1*%
%TO.N,/PWR_EN*%
X5075000Y44900000D03*
%TO.P,R9,2*%
%TO.N,GND*%
X6725000Y44900000D03*
%TD*%
D25*
%TO.P,R10,1*%
%TO.N,+BATT*%
X-30400000Y37525000D03*
%TO.P,R10,2*%
%TO.N,/REF_BAT*%
X-30400000Y35875000D03*
%TD*%
%TO.P,R11,1*%
%TO.N,/REF_BAT*%
X-30400000Y34225000D03*
%TO.P,R11,2*%
%TO.N,GND*%
X-30400000Y32575000D03*
%TD*%
D23*
%TO.P,R12,1*%
%TO.N,/~{SC_IRQ}*%
X-4075000Y21300000D03*
%TO.P,R12,2*%
%TO.N,+3V3*%
X-5725000Y21300000D03*
%TD*%
D26*
%TO.P,R13,1*%
%TO.N,+3V3*%
X775000Y10900000D03*
%TO.P,R13,2*%
%TO.N,Net-(R13-Pad2)*%
X2425000Y10900000D03*
%TD*%
D25*
%TO.P,R14,1*%
%TO.N,Net-(R14-Pad1)*%
X5900000Y13425000D03*
%TO.P,R14,2*%
%TO.N,/UP_TX*%
X5900000Y11775000D03*
%TD*%
D23*
%TO.P,R15,1*%
%TO.N,Net-(R15-Pad1)*%
X-3775000Y16000000D03*
%TO.P,R15,2*%
%TO.N,/DN_TX*%
X-5425000Y16000000D03*
%TD*%
D26*
%TO.P,R18,1*%
%TO.N,+3V3*%
X39875000Y23700000D03*
%TO.P,R18,2*%
%TO.N,/~{RESET}*%
X41525000Y23700000D03*
%TD*%
D27*
%TO.P,SW1,1,A*%
%TO.N,/MASTER_ON*%
X-36500000Y29000000D03*
X-43000000Y29000000D03*
%TO.P,SW1,2,B*%
%TO.N,GND*%
X-43000000Y24500000D03*
X-36500000Y24500000D03*
%TD*%
D28*
%TO.P,U1,1,~{RTSA}*%
%TO.N,unconnected-(U1-Pad1)*%
X3862500Y12775000D03*
%TO.P,U1,2,~{CTSA}*%
%TO.N,unconnected-(U1-Pad2)*%
X3862500Y13425000D03*
%TO.P,U1,3,TXA*%
%TO.N,Net-(R14-Pad1)*%
X3862500Y14075000D03*
%TO.P,U1,4,RXA*%
%TO.N,/UP_RETO*%
X3862500Y14725000D03*
%TO.P,U1,5,~{RESET}*%
%TO.N,Net-(R13-Pad2)*%
X3862500Y15375000D03*
%TO.P,U1,6,XTAL1*%
%TO.N,Net-(C3-Pad1)*%
X3862500Y16025000D03*
%TO.P,U1,7,XTAL2*%
%TO.N,Net-(C4-Pad1)*%
X3862500Y16675000D03*
%TO.P,U1,8,VDD*%
%TO.N,+3V3*%
X3862500Y17325000D03*
%TO.P,U1,9,I2C/~{SPI}*%
%TO.N,GND*%
X3862500Y17975000D03*
%TO.P,U1,10,A0/~{CS}*%
%TO.N,Net-(J4-Pad24)*%
X3862500Y18625000D03*
%TO.P,U1,11,A1/SI*%
%TO.N,Net-(J4-Pad19)*%
X3862500Y19275000D03*
%TO.P,U1,12,n.c./SO*%
%TO.N,Net-(J4-Pad21)*%
X3862500Y19925000D03*
%TO.P,U1,13,SCL/SCLK*%
%TO.N,Net-(J4-Pad23)*%
X3862500Y20575000D03*
%TO.P,U1,14,SDA/VSS*%
%TO.N,GND*%
X3862500Y21225000D03*
%TO.P,U1,15,~{IRQ}*%
%TO.N,/~{SC_IRQ}*%
X-1862500Y21225000D03*
%TO.P,U1,16,~{CTSB}*%
%TO.N,unconnected-(U1-Pad16)*%
X-1862500Y20575000D03*
%TO.P,U1,17,~{RTSB}*%
%TO.N,unconnected-(U1-Pad17)*%
X-1862500Y19925000D03*
%TO.P,U1,18,GPIO0/~{DSRB}*%
%TO.N,unconnected-(U1-Pad18)*%
X-1862500Y19275000D03*
%TO.P,U1,19,GPIO1/~{DTRB}*%
%TO.N,unconnected-(U1-Pad19)*%
X-1862500Y18625000D03*
%TO.P,U1,20,GPIO2/~{CDB}*%
%TO.N,unconnected-(U1-Pad20)*%
X-1862500Y17975000D03*
%TO.P,U1,21,GPIO3/~{RIB}*%
%TO.N,unconnected-(U1-Pad21)*%
X-1862500Y17325000D03*
%TO.P,U1,22,VSS*%
%TO.N,GND*%
X-1862500Y16675000D03*
%TO.P,U1,23,TXB*%
%TO.N,Net-(R15-Pad1)*%
X-1862500Y16025000D03*
%TO.P,U1,24,RXB*%
%TO.N,/DN_RETO*%
X-1862500Y15375000D03*
%TO.P,U1,25,GPIO4/~{DSRA}*%
%TO.N,unconnected-(U1-Pad25)*%
X-1862500Y14725000D03*
%TO.P,U1,26,GPIO5/~{DTRA}*%
%TO.N,unconnected-(U1-Pad26)*%
X-1862500Y14075000D03*
%TO.P,U1,27,GPIO6/~{CDA}*%
%TO.N,unconnected-(U1-Pad27)*%
X-1862500Y13425000D03*
%TO.P,U1,28,GPIO7/~{RIA}*%
%TO.N,unconnected-(U1-Pad28)*%
X-1862500Y12775000D03*
%TD*%
D29*
%TO.P,U3,1,PD3*%
%TO.N,unconnected-(U3-Pad1)*%
X4450000Y-25500000D03*
%TO.P,U3,2,PD4*%
%TO.N,unconnected-(U3-Pad2)*%
X4450000Y-24700000D03*
%TO.P,U3,3,GND*%
%TO.N,GND*%
X4450000Y-23900000D03*
%TO.P,U3,4,VCC*%
%TO.N,+3V3*%
X4450000Y-23100000D03*
%TO.P,U3,5,GND*%
%TO.N,GND*%
X4450000Y-22300000D03*
%TO.P,U3,6,VCC*%
%TO.N,+3V3*%
X4450000Y-21500000D03*
%TO.P,U3,7,XTAL1/PB6*%
%TO.N,Net-(C12-Pad2)*%
X4450000Y-20700000D03*
%TO.P,U3,8,XTAL2/PB7*%
%TO.N,Net-(C13-Pad2)*%
X4450000Y-19900000D03*
D30*
%TO.P,U3,9,PD5*%
%TO.N,unconnected-(U3-Pad9)*%
X3000000Y-18450000D03*
%TO.P,U3,10,PD6*%
%TO.N,unconnected-(U3-Pad10)*%
X2200000Y-18450000D03*
%TO.P,U3,11,PD7*%
%TO.N,unconnected-(U3-Pad11)*%
X1400000Y-18450000D03*
%TO.P,U3,12,PB0*%
%TO.N,unconnected-(U3-Pad12)*%
X600000Y-18450000D03*
%TO.P,U3,13,PB1*%
%TO.N,/TRIG*%
X-200000Y-18450000D03*
%TO.P,U3,14,PB2*%
%TO.N,/SS*%
X-1000000Y-18450000D03*
%TO.P,U3,15,PB3*%
%TO.N,/MOSI*%
X-1800000Y-18450000D03*
%TO.P,U3,16,PB4*%
%TO.N,/MISO*%
X-2600000Y-18450000D03*
D29*
%TO.P,U3,17,PB5*%
%TO.N,/SCK*%
X-4050000Y-19900000D03*
%TO.P,U3,18,AVCC*%
%TO.N,+3V3*%
X-4050000Y-20700000D03*
%TO.P,U3,19,ADC6*%
%TO.N,unconnected-(U3-Pad19)*%
X-4050000Y-21500000D03*
%TO.P,U3,20,AREF*%
%TO.N,Net-(C6-Pad1)*%
X-4050000Y-22300000D03*
%TO.P,U3,21,GND*%
%TO.N,GND*%
X-4050000Y-23100000D03*
%TO.P,U3,22,ADC7*%
%TO.N,/REF_BAT*%
X-4050000Y-23900000D03*
%TO.P,U3,23,PC0*%
%TO.N,/PI_SHTDN*%
X-4050000Y-24700000D03*
%TO.P,U3,24,PC1*%
%TO.N,Net-(D4-Pad2)*%
X-4050000Y-25500000D03*
D30*
%TO.P,U3,25,PC2*%
%TO.N,/UC_LED*%
X-2600000Y-26950000D03*
%TO.P,U3,26,PC3*%
%TO.N,/PWR_EN*%
X-1800000Y-26950000D03*
%TO.P,U3,27,PC4*%
%TO.N,/SDA*%
X-1000000Y-26950000D03*
%TO.P,U3,28,PC5*%
%TO.N,/SCL*%
X-200000Y-26950000D03*
%TO.P,U3,29,~{RESET}/PC6*%
%TO.N,/~{RESET}*%
X600000Y-26950000D03*
%TO.P,U3,30,PD0*%
%TO.N,/UC_RX*%
X1400000Y-26950000D03*
%TO.P,U3,31,PD1*%
%TO.N,/UC_TX*%
X2200000Y-26950000D03*
%TO.P,U3,32,PD2*%
%TO.N,/PD2*%
X3000000Y-26950000D03*
%TD*%
D31*
%TO.P,U4,1,GND*%
%TO.N,GND*%
X-13150000Y39000000D03*
%TO.P,U4,2,VO*%
%TO.N,+5V*%
X-13150000Y41300000D03*
D32*
X-19450000Y41300000D03*
D31*
%TO.P,U4,3,VI*%
%TO.N,+BATT*%
X-13150000Y43600000D03*
%TD*%
D33*
%TO.P,Y1,1,1*%
%TO.N,Net-(C3-Pad1)*%
X11700000Y12050000D03*
%TO.P,Y1,2,2*%
%TO.N,Net-(C4-Pad1)*%
X11700000Y20550000D03*
%TD*%
%TO.P,Y2,1,1*%
%TO.N,Net-(C12-Pad2)*%
X12800000Y-24250000D03*
%TO.P,Y2,2,2*%
%TO.N,Net-(C13-Pad2)*%
X12800000Y-15750000D03*
%TD*%
D13*
%TO.P,C2,1*%
%TO.N,+3V3*%
X5800000Y17525000D03*
%TO.P,C2,2*%
%TO.N,GND*%
X5800000Y19075000D03*
%TD*%
D10*
%TO.P,J9,1,Pin_1*%
%TO.N,/BTN_TRIG*%
X-20400000Y-38800000D03*
D11*
%TO.P,J9,2,Pin_2*%
%TO.N,GND*%
X-20400000Y-41340000D03*
%TD*%
D24*
%TO.P,R4,1*%
%TO.N,+3V3*%
X-21600000Y25675000D03*
%TO.P,R4,2*%
%TO.N,/SDA*%
X-21600000Y27325000D03*
%TD*%
D10*
%TO.P,J4,1,3V3*%
%TO.N,+3V3*%
X-24130000Y30000000D03*
D11*
%TO.P,J4,2,5V*%
%TO.N,+5V*%
X-24130000Y32540000D03*
%TO.P,J4,3,SDA/GPIO2*%
%TO.N,/SDA*%
X-21590000Y30000000D03*
%TO.P,J4,4,5V*%
%TO.N,+5V*%
X-21590000Y32540000D03*
%TO.P,J4,5,SCL/GPIO3*%
%TO.N,/SCL*%
X-19050000Y30000000D03*
%TO.P,J4,6,GND*%
%TO.N,GND*%
X-19050000Y32540000D03*
%TO.P,J4,7,GCLK0/GPIO4*%
%TO.N,/PI_SHTDN*%
X-16510000Y30000000D03*
%TO.P,J4,8,GPIO14/TXD*%
%TO.N,/PI_TXD*%
X-16510000Y32540000D03*
%TO.P,J4,9,GND*%
%TO.N,GND*%
X-13970000Y30000000D03*
%TO.P,J4,10,GPIO15/RXD*%
%TO.N,/PI_RXD*%
X-13970000Y32540000D03*
%TO.P,J4,11,GPIO17*%
%TO.N,unconnected-(J4-Pad11)*%
X-11430000Y30000000D03*
%TO.P,J4,12,GPIO18/PWM0*%
%TO.N,/SS*%
X-11430000Y32540000D03*
%TO.P,J4,13,GPIO27*%
%TO.N,/PI_LED*%
X-8890000Y30000000D03*
%TO.P,J4,14,GND*%
%TO.N,GND*%
X-8890000Y32540000D03*
%TO.P,J4,15,GPIO22*%
%TO.N,/SP+*%
X-6350000Y30000000D03*
%TO.P,J4,16,GPIO23*%
%TO.N,/SP-*%
X-6350000Y32540000D03*
%TO.P,J4,17,3V3*%
%TO.N,+3V3*%
X-3810000Y30000000D03*
%TO.P,J4,18,GPIO24*%
%TO.N,/~{SC_IRQ}*%
X-3810000Y32540000D03*
%TO.P,J4,19,MOSI0/GPIO10*%
%TO.N,Net-(J4-Pad19)*%
X-1270000Y30000000D03*
%TO.P,J4,20,GND*%
%TO.N,GND*%
X-1270000Y32540000D03*
%TO.P,J4,21,MISO0/GPIO9*%
%TO.N,Net-(J4-Pad21)*%
X1270000Y30000000D03*
%TO.P,J4,22,GPIO25*%
%TO.N,/BR+*%
X1270000Y32540000D03*
%TO.P,J4,23,SCLK0/GPIO11*%
%TO.N,Net-(J4-Pad23)*%
X3810000Y30000000D03*
%TO.P,J4,24,~{CE0}/GPIO8*%
%TO.N,Net-(J4-Pad24)*%
X3810000Y32540000D03*
%TO.P,J4,25,GND*%
%TO.N,GND*%
X6350000Y30000000D03*
%TO.P,J4,26,~{CE1}/GPIO7*%
%TO.N,unconnected-(J4-Pad26)*%
X6350000Y32540000D03*
%TO.P,J4,27,ID_SD/GPIO0*%
%TO.N,/BTN_TRIG*%
X8890000Y30000000D03*
%TO.P,J4,28,ID_SC/GPIO1*%
%TO.N,unconnected-(J4-Pad28)*%
X8890000Y32540000D03*
%TO.P,J4,29,GCLK1/GPIO5*%
%TO.N,unconnected-(J4-Pad29)*%
X11430000Y30000000D03*
%TO.P,J4,30,GND*%
%TO.N,GND*%
X11430000Y32540000D03*
%TO.P,J4,31,GCLK2/GPIO6*%
%TO.N,unconnected-(J4-Pad31)*%
X13970000Y30000000D03*
%TO.P,J4,32,PWM0/GPIO12*%
%TO.N,/BR-*%
X13970000Y32540000D03*
%TO.P,J4,33,PWM1/GPIO13*%
%TO.N,unconnected-(J4-Pad33)*%
X16510000Y30000000D03*
%TO.P,J4,34,GND*%
%TO.N,GND*%
X16510000Y32540000D03*
%TO.P,J4,35,GPIO19/MISO1*%
%TO.N,/MISO*%
X19050000Y30000000D03*
%TO.P,J4,36,GPIO16*%
%TO.N,unconnected-(J4-Pad36)*%
X19050000Y32540000D03*
%TO.P,J4,37,GPIO26*%
%TO.N,unconnected-(J4-Pad37)*%
X21590000Y30000000D03*
%TO.P,J4,38,GPIO20/MOSI1*%
%TO.N,Net-(J4-Pad38)*%
X21590000Y32540000D03*
%TO.P,J4,39,GND*%
%TO.N,GND*%
X24130000Y30000000D03*
%TO.P,J4,40,GPIO21/SCLK1*%
%TO.N,Net-(J4-Pad40)*%
X24130000Y32540000D03*
%TD*%
D24*
%TO.P,R3,1*%
%TO.N,+3V3*%
X-19000000Y25675000D03*
%TO.P,R3,2*%
%TO.N,/SCL*%
X-19000000Y27325000D03*
%TD*%
D34*
%TO.P,C8,1*%
%TO.N,+3V3*%
X6325000Y-23100000D03*
%TO.P,C8,2*%
%TO.N,GND*%
X7875000Y-23100000D03*
%TD*%
D26*
%TO.P,R1,1*%
%TO.N,/PI_LED*%
X-7325000Y37200000D03*
%TO.P,R1,2*%
%TO.N,Net-(D1-Pad2)*%
X-5675000Y37200000D03*
%TD*%
D35*
%TO.P,D1,1,K*%
%TO.N,GND*%
X-2312500Y37200000D03*
%TO.P,D1,2,A*%
%TO.N,Net-(D1-Pad2)*%
X-3887500Y37200000D03*
%TD*%
D14*
%TO.P,C3,1*%
%TO.N,Net-(C3-Pad1)*%
X8200000Y13075000D03*
%TO.P,C3,2*%
%TO.N,GND*%
X8200000Y11525000D03*
%TD*%
D36*
%TO.P,Q2,1,G*%
%TO.N,Net-(D2-Pad2)*%
X3400000Y38450000D03*
%TO.P,Q2,2,S*%
%TO.N,/BAT_RAW*%
X3400000Y40350000D03*
%TO.P,Q2,3,D*%
%TO.N,+BATT*%
X1000000Y39400000D03*
%TD*%
D17*
%TO.P,D4,1,K*%
%TO.N,/MASTER_ON*%
X-9350000Y-26500000D03*
%TO.P,D4,2,A*%
%TO.N,Net-(D4-Pad2)*%
X-6050000Y-26500000D03*
%TD*%
D10*
%TO.P,J7,1,Pin_1*%
%TO.N,/MASTER_ON*%
X-1270000Y3810000D03*
D11*
%TO.P,J7,2,Pin_2*%
%TO.N,/TRIG*%
X1270000Y3810000D03*
%TO.P,J7,3,Pin_3*%
%TO.N,/UP_TX*%
X-1270000Y1270000D03*
%TO.P,J7,4,Pin_4*%
%TO.N,/DN_TX*%
X1270000Y1270000D03*
%TO.P,J7,5,Pin_5*%
%TO.N,/UP_RETO*%
X-1270000Y-1270000D03*
%TO.P,J7,6,Pin_6*%
%TO.N,/DN_RETO*%
X1270000Y-1270000D03*
%TO.P,J7,7,Pin_7*%
%TO.N,unconnected-(J7-Pad7)*%
X-1270000Y-3810000D03*
%TO.P,J7,8,Pin_8*%
%TO.N,GND*%
X1270000Y-3810000D03*
%TD*%
D37*
%TO.N,/UC_LED*%
X27600000Y-18000000D03*
X28700000Y-6800000D03*
X27600000Y-21700000D03*
%TO.N,GND*%
X-30400000Y31500000D03*
X-22400000Y42900000D03*
X-13400000Y27000000D03*
X6100000Y20000000D03*
X7600000Y44900000D03*
X300000Y42400000D03*
X9300000Y-14100000D03*
X2500000Y18200000D03*
X3200000Y-24000000D03*
X5200000Y21300000D03*
X-2700000Y-23100000D03*
X8200000Y10600000D03*
X6000000Y-21700000D03*
X-8949979Y-22300000D03*
X7800000Y-24100000D03*
X-8949979Y-23900000D03*
X9400000Y-25900000D03*
X-600000Y16700000D03*
X-8949979Y-20700000D03*
X8200000Y22000000D03*
X-1300000Y37200000D03*
X-14700000Y39000000D03*
X-10300000Y38700000D03*
%TO.N,/REF_BAT*%
X-21200004Y18300000D03*
X-16000000Y16500000D03*
%TO.N,+3V3*%
X13300000Y16700000D03*
X36900004Y15200000D03*
X7100000Y17600000D03*
X36900000Y13200000D03*
X16449500Y16700000D03*
X8700000Y16700000D03*
%TO.N,/MASTER_ON*%
X-20000000Y12500000D03*
X-11600000Y3800000D03*
X-11600000Y-27700000D03*
X-22100000Y14600000D03*
X-9400000Y-27700000D03*
%TO.N,/PI_RXD*%
X-8300000Y34800000D03*
X-6899996Y34800000D03*
%TO.N,/PI_TXD*%
X-8300000Y35800000D03*
X-6900000Y35800010D03*
X45000006Y-23400000D03*
%TO.N,/PD2*%
X39700000Y-17200000D03*
%TO.N,/SCK*%
X1542629Y-19965578D03*
X2200000Y-16800004D03*
%TO.N,/MISO*%
X600000Y-19950000D03*
X1300000Y-16800000D03*
%TO.N,/MOSI*%
X-1900000Y-15500000D03*
X-300000Y-15500000D03*
%TO.N,/SS*%
X-7000000Y23400000D03*
X-8400000Y26700000D03*
X30100000Y-5300004D03*
X28699966Y-5300000D03*
%TO.N,/SP+*%
X-10300000Y24900000D03*
X-9100000Y27400000D03*
%TO.N,/TRIG*%
X-1100000Y-10799990D03*
X5700000Y2100000D03*
X4500000Y3300000D03*
X500000Y-14500000D03*
%TO.N,/SP-*%
X-10300000Y27400000D03*
X-11300000Y24900000D03*
%TO.N,/BR-*%
X29400000Y-21700078D03*
X29400000Y-18000000D03*
%TO.N,/PI_SHTDN*%
X-16800000Y15500000D03*
X-16500000Y24800000D03*
X-18899994Y17600000D03*
%TO.N,/DN_RETO*%
X-4900000Y600000D03*
X-4200000Y2500000D03*
%TO.N,/UP_RETO*%
X2300000Y0D03*
%TO.N,/~{RESET}*%
X43900000Y15300000D03*
%TO.N,/PWR_EN*%
X4400000Y-18000000D03*
X2100000Y-22700000D03*
X10200000Y35399994D03*
X900000Y-11300008D03*
X2900000Y-13300000D03*
X10200000Y31400000D03*
%TO.N,/SCL*%
X0Y-30200000D03*
X-3500000Y-30200000D03*
X-17600000Y14700000D03*
X-19000000Y24300000D03*
X-19699994Y16800000D03*
%TO.N,/SDA*%
X-18400006Y13800000D03*
X-1800000Y-31300000D03*
X-20500000Y15900000D03*
X-3500000Y-31300000D03*
%TO.N,/~{SC_IRQ}*%
X-4100000Y22400000D03*
X-4100000Y24600000D03*
%TO.N,/BTN_TRIG*%
X-6600000Y-13100000D03*
X-12300000Y-13100000D03*
%TD*%
D38*
%TO.N,+3V3*%
X16449500Y16700000D02*
X17000000Y16700000D01*
X17000000Y16700000D02*
X20500000Y13200000D01*
X20500000Y13200000D02*
X36900000Y13200000D01*
D39*
%TO.N,/BR+*%
X1270000Y32540000D02*
X2530000Y33800000D01*
X2530000Y33800000D02*
X17300000Y33800000D01*
X17300000Y33800000D02*
X17800000Y33300000D01*
X15800000Y14100000D02*
X30700000Y-800000D01*
X30700000Y-800000D02*
X31730000Y-800000D01*
X17800000Y33300000D02*
X17800000Y28000000D01*
X17800000Y28000000D02*
X15800000Y26000000D01*
X15800000Y26000000D02*
X15800000Y14100000D01*
%TO.N,/UC_LED*%
X15900000Y-33400000D02*
X27600000Y-21700000D01*
X27600000Y-18000000D02*
X27600000Y-7900000D01*
X-1300000Y-33400000D02*
X4200000Y-33400000D01*
X27600000Y-7900000D02*
X28700000Y-6800000D01*
X-2600000Y-32100000D02*
X-1300000Y-33400000D01*
X-2600000Y-26950000D02*
X-2600000Y-32100000D01*
X4200000Y-33400000D02*
X15900000Y-33400000D01*
D38*
%TO.N,GND*%
X5800000Y19075000D02*
X5800000Y19700000D01*
D39*
X-14375000Y27000000D02*
X-13400000Y27000000D01*
D38*
X-10300000Y39825000D02*
X-10300000Y38700000D01*
X5800000Y19700000D02*
X6100000Y20000000D01*
X4450000Y-22300000D02*
X5400000Y-22300000D01*
X4450000Y-23900000D02*
X3300000Y-23900000D01*
D39*
X-2312500Y37200000D02*
X-1300000Y37200000D01*
D38*
X-22400000Y44075000D02*
X-22400000Y42900000D01*
X-8075000Y-22300000D02*
X-8949979Y-22300000D01*
X-8075000Y-20700000D02*
X-8949979Y-20700000D01*
D39*
X350000Y42350000D02*
X300000Y42400000D01*
D38*
X-1862500Y16675000D02*
X-625000Y16675000D01*
X5400000Y-22300000D02*
X6000000Y-21700000D01*
X-625000Y16675000D02*
X-600000Y16700000D01*
X2725000Y17975000D02*
X2500000Y18200000D01*
X7875000Y-23100000D02*
X7875000Y-24025000D01*
X7875000Y-24025000D02*
X7800000Y-24100000D01*
D39*
X6725000Y44900000D02*
X7600000Y44900000D01*
D38*
X-13150000Y39000000D02*
X-14700000Y39000000D01*
D39*
X-8075000Y-23900000D02*
X-8949979Y-23900000D01*
D38*
X-4050000Y-23100000D02*
X-2700000Y-23100000D01*
X9300000Y-15025000D02*
X9300000Y-14100000D01*
D39*
X8200000Y11525000D02*
X8200000Y10600000D01*
X8200000Y21075000D02*
X8200000Y22000000D01*
X-30400000Y32575000D02*
X-30400000Y31500000D01*
X1400000Y42350000D02*
X350000Y42350000D01*
D38*
X9400000Y-24975000D02*
X9400000Y-25900000D01*
X3300000Y-23900000D02*
X3200000Y-24000000D01*
X5125000Y21225000D02*
X5200000Y21300000D01*
X3862500Y21225000D02*
X5125000Y21225000D01*
X3862500Y17975000D02*
X2725000Y17975000D01*
D40*
%TO.N,Net-(BT1-Pad1)*%
X13600000Y38400000D02*
X9962500Y38400000D01*
D39*
%TO.N,/REF_BAT*%
X-6525000Y-23900000D02*
X-4050000Y-23900000D01*
X-26649999Y26649999D02*
X-21200004Y21200004D01*
X-7525000Y-24900000D02*
X-8900000Y-24900000D01*
X-30400000Y34225000D02*
X-26649999Y30474999D01*
X-8900000Y-24900000D02*
X-9599989Y-24200011D01*
X-6525000Y-23900000D02*
X-7525000Y-24900000D01*
X-21200004Y21200004D02*
X-21200004Y18300000D01*
X-26649999Y30474999D02*
X-26649999Y26649999D01*
X-9599989Y10099989D02*
X-16000000Y16500000D01*
X-30400000Y35875000D02*
X-30400000Y34225000D01*
X-9599989Y-24200011D02*
X-9599989Y10099989D01*
D38*
%TO.N,+3V3*%
X-5700000Y23500000D02*
X-4800000Y23500000D01*
X-8000000Y25810000D02*
X-8000000Y25800000D01*
X-8000000Y25810000D02*
X-34270000Y-460000D01*
X-4800000Y23500000D02*
X-1400000Y23500000D01*
X-34270000Y-460000D02*
X-34270000Y-730000D01*
X7025000Y17525000D02*
X7100000Y17600000D01*
X2900000Y-22800000D02*
X3200000Y-23100000D01*
X3200000Y-23100000D02*
X4450000Y-23100000D01*
X-5725000Y21300000D02*
X-5725000Y23525000D01*
X-3810000Y30000000D02*
X-8000000Y25810000D01*
X-18865000Y25810000D02*
X-19000000Y25675000D01*
X39460000Y12000000D02*
X38260000Y13200000D01*
X4450000Y-23100000D02*
X6325000Y-23100000D01*
X38260000Y13200000D02*
X36900000Y13200000D01*
X2900000Y-21500000D02*
X4450000Y-21500000D01*
X-6800000Y24600000D02*
X-5700000Y23500000D01*
X-3100000Y-20700000D02*
X-2300000Y-21500000D01*
D39*
X775000Y10900000D02*
X775000Y16525000D01*
D38*
X2900000Y-21500000D02*
X2900000Y-22800000D01*
X-24130000Y27030000D02*
X-22775000Y25675000D01*
X3862500Y17325000D02*
X5600000Y17325000D01*
X-5400000Y-17900000D02*
X-5400000Y-20700000D01*
D39*
X39875000Y23700000D02*
X39475000Y23700000D01*
D38*
X-8000000Y25800000D02*
X-6800000Y24600000D01*
X-8000000Y-15300000D02*
X-5400000Y-17900000D01*
D39*
X775000Y16525000D02*
X1575000Y17325000D01*
D38*
X700000Y21400000D02*
X700000Y18200000D01*
X5600000Y17325000D02*
X5800000Y17525000D01*
D39*
X39475000Y23700000D02*
X36900004Y21125004D01*
D38*
X-21600000Y25675000D02*
X-19000000Y25675000D01*
X1575000Y17325000D02*
X3862500Y17325000D01*
X-5400000Y-20700000D02*
X-4050000Y-20700000D01*
X-8000000Y25810000D02*
X-8000000Y-15300000D01*
X-5400000Y-20700000D02*
X-6525000Y-20700000D01*
X-5725000Y23525000D02*
X-5800000Y23600000D01*
X-6800000Y24600000D02*
X-5800000Y23600000D01*
X700000Y18200000D02*
X1575000Y17325000D01*
X-4050000Y-20700000D02*
X-3100000Y-20700000D01*
X-24130000Y30000000D02*
X-24130000Y27030000D01*
X-8000000Y25810000D02*
X-18865000Y25810000D01*
D39*
X36900004Y21125004D02*
X36900004Y15200000D01*
D38*
X-1400000Y23500000D02*
X700000Y21400000D01*
X-22775000Y25675000D02*
X-21600000Y25675000D01*
X8700000Y16700000D02*
X13300000Y16700000D01*
X5800000Y17525000D02*
X7025000Y17525000D01*
X-2300000Y-21500000D02*
X2900000Y-21500000D01*
D39*
%TO.N,Net-(C3-Pad1)*%
X10675000Y13075000D02*
X11700000Y12050000D01*
X3862500Y16025000D02*
X7475000Y16025000D01*
X7475000Y16025000D02*
X8200000Y15300000D01*
X8200000Y13075000D02*
X10675000Y13075000D01*
X8200000Y15300000D02*
X8200000Y13075000D01*
%TO.N,Net-(C4-Pad1)*%
X7375000Y16675000D02*
X8200000Y17500000D01*
X10675000Y19525000D02*
X11700000Y20550000D01*
X3862500Y16675000D02*
X7375000Y16675000D01*
X8200000Y17500000D02*
X8200000Y19525000D01*
X8200000Y19525000D02*
X10675000Y19525000D01*
D40*
%TO.N,+BATT*%
X-3600000Y39400000D02*
X-6975000Y42775000D01*
X1000000Y39400000D02*
X-3600000Y39400000D01*
X-11125000Y43600000D02*
X-10300000Y42775000D01*
D39*
X-23800000Y45200000D02*
X-30400000Y38600000D01*
X-13150000Y43600000D02*
X-14750000Y45200000D01*
D40*
X-13150000Y43600000D02*
X-11125000Y43600000D01*
X-6975000Y42775000D02*
X-10300000Y42775000D01*
D39*
X-30400000Y38600000D02*
X-30400000Y37525000D01*
X-14750000Y45200000D02*
X-23800000Y45200000D01*
D38*
%TO.N,Net-(C6-Pad1)*%
X-6525000Y-22300000D02*
X-4050000Y-22300000D01*
D40*
%TO.N,+5V*%
X-19450000Y41300000D02*
X-22225000Y41300000D01*
X-13150000Y41300000D02*
X-19450000Y41300000D01*
X-19450000Y36050000D02*
X-21590000Y33910000D01*
X-23690000Y33910000D02*
X-24130000Y33470000D01*
X-21590000Y33910000D02*
X-23690000Y33910000D01*
X-21590000Y33910000D02*
X-21590000Y32540000D01*
X-19450000Y41300000D02*
X-19450000Y36050000D01*
X-24130000Y33470000D02*
X-24130000Y32540000D01*
X-22225000Y41300000D02*
X-22400000Y41125000D01*
D39*
%TO.N,Net-(C12-Pad2)*%
X7500000Y-20700000D02*
X4450000Y-20700000D01*
X10225000Y-24250000D02*
X9400000Y-23425000D01*
X9400000Y-23425000D02*
X9400000Y-22600000D01*
X12800000Y-24250000D02*
X10225000Y-24250000D01*
X9400000Y-22600000D02*
X7500000Y-20700000D01*
%TO.N,Net-(C13-Pad2)*%
X7500000Y-19900000D02*
X4450000Y-19900000D01*
X9300000Y-16575000D02*
X9300000Y-18100000D01*
X12800000Y-15750000D02*
X10125000Y-15750000D01*
X10125000Y-15750000D02*
X9300000Y-16575000D01*
X9300000Y-18100000D02*
X7500000Y-19900000D01*
%TO.N,Net-(D1-Pad2)*%
X-5675000Y37200000D02*
X-3887500Y37200000D01*
%TO.N,Net-(D2-Pad2)*%
X2200000Y41300000D02*
X2200000Y39650000D01*
X5600000Y42825000D02*
X7125000Y42825000D01*
X7125000Y42825000D02*
X7150000Y42800000D01*
X3400000Y43300000D02*
X3400000Y42500000D01*
X2200000Y39650000D02*
X3400000Y38450000D01*
X3400000Y43300000D02*
X5125000Y43300000D01*
X3400000Y42500000D02*
X2200000Y41300000D01*
X5125000Y43300000D02*
X5600000Y42825000D01*
%TO.N,/MASTER_ON*%
X-36500000Y29000000D02*
X-22100000Y14600000D01*
X-27070000Y-3270000D02*
X-20000000Y3800000D01*
X-20000000Y12500000D02*
X-20000000Y3800000D01*
X-24165699Y45900000D02*
X9200000Y45900000D01*
X9200000Y45900000D02*
X10450000Y44650000D01*
X-31730000Y-3270000D02*
X-27070000Y-3270000D01*
X-9350000Y-26500000D02*
X-9350000Y-27650000D01*
X-36500000Y33565699D02*
X-24165699Y45900000D01*
X-9350000Y-27650000D02*
X-9400000Y-27700000D01*
X-11600000Y3800000D02*
X-11600000Y3305026D01*
X-11600000Y3305026D02*
X-11600000Y-27700000D01*
X-11600000Y3800000D02*
X-20000000Y3800000D01*
X10450000Y44650000D02*
X10450000Y42800000D01*
X-43000000Y29000000D02*
X-36500000Y29000000D01*
X-36500000Y29000000D02*
X-36500000Y33565699D01*
D40*
%TO.N,/BAT_RAW*%
X3400000Y40350000D02*
X4750000Y40350000D01*
X5637500Y38400000D02*
X5637500Y41137500D01*
X4750000Y40350000D02*
X5700000Y39400000D01*
X5637500Y41137500D02*
X5600000Y41175000D01*
D39*
%TO.N,/PI_RXD*%
X-6349997Y34250001D02*
X-6899996Y34800000D01*
X46500000Y-20820000D02*
X46500000Y22100000D01*
X34349999Y34250001D02*
X-6349997Y34250001D01*
X46500000Y22100000D02*
X34349999Y34250001D01*
X-11710000Y34800000D02*
X-8300000Y34800000D01*
X43000000Y-24320000D02*
X46500000Y-20820000D01*
X-13970000Y32540000D02*
X-11710000Y34800000D01*
%TO.N,/PI_TXD*%
X-5300010Y35800010D02*
X-6900000Y35800010D01*
X45000006Y-23400000D02*
X46900000Y-21500006D01*
X-16510000Y32540000D02*
X-13250000Y35800000D01*
X46900000Y-21500006D02*
X46900000Y23300000D01*
X-13250000Y35800000D02*
X-8300000Y35800000D01*
X-4200000Y34700000D02*
X-5300010Y35800010D01*
X46900000Y23300000D02*
X35500000Y34700000D01*
X35500000Y34700000D02*
X-4200000Y34700000D01*
%TO.N,/PD2*%
X3800000Y-29400000D02*
X13000000Y-29400000D01*
X3000000Y-28600000D02*
X3800000Y-29400000D01*
X3000000Y-26950000D02*
X3000000Y-28600000D01*
X13000000Y-29400000D02*
X22549965Y-19850035D01*
X37049965Y-19850035D02*
X39700000Y-17200000D01*
X22549965Y-19850035D02*
X37049965Y-19850035D01*
%TO.N,/UC_RX*%
X13400000Y-30700000D02*
X23449943Y-20650057D01*
X3300000Y-30700000D02*
X13400000Y-30700000D01*
X1400000Y-28800000D02*
X3300000Y-30700000D01*
X23449943Y-20650057D02*
X39049943Y-20650057D01*
X39049943Y-20650057D02*
X43000000Y-16700000D01*
X1400000Y-26950000D02*
X1400000Y-28800000D01*
%TO.N,/UC_TX*%
X2200000Y-28800000D02*
X3500000Y-30100000D01*
X13100000Y-30100000D02*
X22949954Y-20250046D01*
X2200000Y-26950000D02*
X2200000Y-28800000D01*
X42150001Y-15009999D02*
X43000000Y-14160000D01*
X3500000Y-30100000D02*
X13100000Y-30100000D01*
X22949954Y-20250046D02*
X37749954Y-20250046D01*
X42150001Y-15849999D02*
X42150001Y-15009999D01*
X37749954Y-20250046D02*
X42150001Y-15849999D01*
%TO.N,/SCK*%
X40400000Y-14220000D02*
X40400000Y-15400000D01*
X44000000Y16540000D02*
X44000000Y23000000D01*
X45700000Y10840000D02*
X45700000Y-8920000D01*
X25525000Y25700000D02*
X25500000Y25675000D01*
X43000000Y-11620000D02*
X40400000Y-14220000D01*
X-1815698Y-20800000D02*
X708207Y-20800000D01*
X22284324Y-19450024D02*
X15034322Y-12200022D01*
X15034322Y-12200022D02*
X2937976Y-12200022D01*
X708207Y-20800000D02*
X1542629Y-19965578D01*
X45700000Y-8920000D02*
X43000000Y-11620000D01*
X-2715698Y-19900000D02*
X-1815698Y-20800000D01*
X36349976Y-19450024D02*
X22284324Y-19450024D01*
X-4050000Y-19900000D02*
X-2715698Y-19900000D01*
X42000000Y14540000D02*
X45700000Y10840000D01*
X2200000Y-12937998D02*
X2200000Y-16800004D01*
X44000000Y23000000D02*
X41300000Y25700000D01*
X42000000Y14540000D02*
X44000000Y16540000D01*
X41300000Y25700000D02*
X25525000Y25700000D01*
X40400000Y-15400000D02*
X36349976Y-19450024D01*
X2937976Y-12200022D02*
X2200000Y-12937998D01*
%TO.N,/MISO*%
X-2250000Y-19800000D02*
X450000Y-19800000D01*
X27874990Y24974990D02*
X40225010Y24974990D01*
X24200000Y26100000D02*
X24200000Y24900000D01*
X21347919Y26500000D02*
X23800000Y26500000D01*
X19050000Y30000000D02*
X19050000Y28797919D01*
X45300000Y-6780000D02*
X43000000Y-9080000D01*
X42000000Y1300000D02*
X45300000Y-2000000D01*
X19050000Y28797919D02*
X21347919Y26500000D01*
X23800000Y26500000D02*
X24200000Y26100000D01*
X35849987Y-19050013D02*
X22450013Y-19050013D01*
X24200000Y24900000D02*
X24600000Y24500000D01*
X45300000Y-2000000D02*
X45300000Y-6780000D01*
X24600000Y24500000D02*
X27400000Y24500000D01*
X15200011Y-11800011D02*
X2699989Y-11800011D01*
X43000000Y-9080000D02*
X39400000Y-12680000D01*
X2699989Y-11800011D02*
X1300000Y-13200000D01*
X22450013Y-19050013D02*
X15200011Y-11800011D01*
X40700000Y24500000D02*
X40700000Y13900000D01*
X39400000Y-15500000D02*
X35849987Y-19050013D01*
X-2600000Y-19450000D02*
X-2250000Y-19800000D01*
X39400000Y-12680000D02*
X39400000Y-15500000D01*
X42000000Y12000000D02*
X42000000Y1300000D01*
X-2600000Y-18450000D02*
X-2600000Y-19450000D01*
X42000000Y12600000D02*
X42000000Y12000000D01*
X450000Y-19800000D02*
X600000Y-19950000D01*
X1300000Y-13200000D02*
X1300000Y-16800000D01*
X40700000Y13900000D02*
X42000000Y12600000D01*
X40225010Y24974990D02*
X40700000Y24500000D01*
X27400000Y24500000D02*
X27874990Y24974990D01*
%TO.N,/MOSI*%
X-300000Y-14200000D02*
X-300000Y-15500000D01*
X40700000Y540002D02*
X40700000Y13300000D01*
X39460000Y14540000D02*
X31260000Y14540000D01*
X22650002Y-18650002D02*
X15400000Y-11400000D01*
X22900000Y22900000D02*
X22900000Y25675000D01*
X40700000Y13300000D02*
X39460000Y14540000D01*
X2500000Y-11400000D02*
X-300000Y-14200000D01*
X31260000Y14540000D02*
X22900000Y22900000D01*
X15400000Y-11400000D02*
X2500000Y-11400000D01*
X43000000Y-6540000D02*
X44400000Y-5140000D01*
X44400000Y-3159998D02*
X40700000Y540002D01*
X44400000Y-5140000D02*
X44400000Y-3159998D01*
X-1800000Y-18450000D02*
X-1800000Y-15600000D01*
X43000000Y-6540000D02*
X30889998Y-18650002D01*
X30889998Y-18650002D02*
X22650002Y-18650002D01*
X-1800000Y-15600000D02*
X-1900000Y-15500000D01*
%TO.N,/SS*%
X-6400000Y-14700000D02*
X-1000000Y-14700000D01*
X-1000000Y-14200000D02*
X7900000Y-5300000D01*
X-12700000Y27900000D02*
X-12700000Y31270000D01*
X41699996Y-5300004D02*
X43000000Y-4000000D01*
X-10800000Y26700000D02*
X-8400000Y26700000D01*
X-1000000Y-14700000D02*
X-1000000Y-14200000D01*
X-7000000Y23400000D02*
X-7400000Y23000000D01*
X-7400000Y-13700000D02*
X-6400000Y-14700000D01*
X-1000000Y-15900000D02*
X-1000000Y-14700000D01*
X-12700000Y31270000D02*
X-11430000Y32540000D01*
X-10800000Y26700000D02*
X-11500000Y26700000D01*
X-7400000Y23000000D02*
X-7400000Y-13600000D01*
X-7400000Y-13600000D02*
X-7400000Y-13700000D01*
X-1000000Y-16662004D02*
X-1000000Y-15900000D01*
X30100000Y-5300004D02*
X41699996Y-5300004D01*
X7900000Y-5300000D02*
X28699966Y-5300000D01*
X-1000000Y-16662004D02*
X-1000000Y-18450000D01*
X-11500000Y26700000D02*
X-12700000Y27900000D01*
%TO.N,/SP+*%
X-36000000Y-1240002D02*
X-36000000Y800000D01*
X-36000000Y800000D02*
X-27050000Y9750000D01*
X-27050000Y9750000D02*
X-24950000Y9750000D01*
X-6350000Y29050000D02*
X-8000000Y27400000D01*
X-31742849Y-717151D02*
X-33025698Y-2000000D01*
X-24950000Y9750000D02*
X-10300000Y24400000D01*
X-35240002Y-2000000D02*
X-36000000Y-1240002D01*
X-6350000Y30000000D02*
X-6350000Y29050000D01*
X-33025698Y-2000000D02*
X-35240002Y-2000000D01*
X-10300000Y24400000D02*
X-10300000Y24900000D01*
X-8000000Y27400000D02*
X-9100000Y27400000D01*
%TO.N,/TRIG*%
X5700000Y-3999990D02*
X-1100000Y-10799990D01*
X5700000Y2100000D02*
X5700000Y-3999990D01*
X-200000Y-18450000D02*
X-200000Y-17200000D01*
X4500000Y3300000D02*
X3990000Y3810000D01*
X500000Y-16500000D02*
X500000Y-14500000D01*
X3990000Y3810000D02*
X1270000Y3810000D01*
X-200000Y-17200000D02*
X500000Y-16500000D01*
%TO.N,/SP-*%
X-38800000Y-21600000D02*
X-31730000Y-28670000D01*
X-9400000Y28300000D02*
X-10300000Y27400000D01*
X-6350000Y32540000D02*
X-7600000Y31290000D01*
X-31730000Y-31704302D02*
X-31742849Y-31717151D01*
X-11300000Y24100000D02*
X-25100000Y10300000D01*
X-25100000Y10300000D02*
X-27400000Y10300000D01*
X-7600000Y31290000D02*
X-7600000Y29100000D01*
X-7600000Y29100000D02*
X-8400000Y28300000D01*
X-8400000Y28300000D02*
X-9400000Y28300000D01*
X-27400000Y10300000D02*
X-38800000Y-1100000D01*
X-31730000Y-28670000D02*
X-31730000Y-31704302D01*
X-38800000Y-1100000D02*
X-38800000Y-21600000D01*
X-11300000Y24900000D02*
X-11300000Y24100000D01*
%TO.N,Net-(J4-Pad40)*%
X25500000Y27325000D02*
X25500000Y31170000D01*
X25500000Y31170000D02*
X24130000Y32540000D01*
%TO.N,Net-(J4-Pad38)*%
X22900000Y27325000D02*
X22900000Y31230000D01*
X22900000Y31230000D02*
X21590000Y32540000D01*
%TO.N,/BR-*%
X31730000Y-24030078D02*
X29400000Y-21700078D01*
X13970000Y32540000D02*
X15300000Y31210000D01*
X31730000Y-29730000D02*
X31730000Y-31730000D01*
X31730000Y-29730000D02*
X31730000Y-24030078D01*
X29349976Y-449976D02*
X29349976Y-17455002D01*
X29349976Y-17455002D02*
X29400000Y-17505026D01*
X15300000Y13600000D02*
X29349976Y-449976D01*
X15300000Y31210000D02*
X15300000Y13600000D01*
X29400000Y-17505026D02*
X29400000Y-18000000D01*
%TO.N,Net-(J4-Pad24)*%
X5100000Y31250000D02*
X3810000Y32540000D01*
X6700000Y18300000D02*
X6900000Y18500000D01*
X5100000Y26300000D02*
X5100000Y31250000D01*
X5100000Y18300000D02*
X6700000Y18300000D01*
X6900000Y24500000D02*
X5100000Y26300000D01*
X6900000Y18500000D02*
X6900000Y24500000D01*
X3862500Y18625000D02*
X4775000Y18625000D01*
X4775000Y18625000D02*
X5100000Y18300000D01*
%TO.N,Net-(J4-Pad23)*%
X3810000Y30000000D02*
X3810000Y25190000D01*
X6100000Y22900000D02*
X6100000Y21100000D01*
X3810000Y25190000D02*
X6100000Y22900000D01*
X5075000Y20575000D02*
X3862500Y20575000D01*
X5575000Y20575000D02*
X5075000Y20575000D01*
X6100000Y21100000D02*
X5575000Y20575000D01*
%TO.N,Net-(J4-Pad21)*%
X2500000Y20300000D02*
X2875000Y19925000D01*
X1270000Y30000000D02*
X1270000Y26130000D01*
X1270000Y26130000D02*
X2500000Y24900000D01*
X2875000Y19925000D02*
X3862500Y19925000D01*
X2500000Y24900000D02*
X2500000Y20300000D01*
%TO.N,Net-(J4-Pad19)*%
X-1270000Y30000000D02*
X-1270000Y26270000D01*
X1700000Y20000000D02*
X2425000Y19275000D01*
X1700000Y23300000D02*
X1700000Y20000000D01*
X-1270000Y26270000D02*
X1700000Y23300000D01*
X2425000Y19275000D02*
X3862500Y19275000D01*
%TO.N,/PI_LED*%
X-8890000Y30710000D02*
X-7600000Y32000000D01*
X-7600000Y32000000D02*
X-7600000Y36925000D01*
X-8890000Y30000000D02*
X-8890000Y30710000D01*
X-7600000Y36925000D02*
X-7325000Y37200000D01*
%TO.N,/PI_SHTDN*%
X-4050000Y-24700000D02*
X-6000000Y-24700000D01*
X-9100000Y-25300000D02*
X-9999989Y-24400011D01*
X-6000000Y-24700000D02*
X-6600000Y-25300000D01*
X-16510000Y27485000D02*
X-16025000Y27000000D01*
X-16500000Y19999994D02*
X-18899994Y17600000D01*
X-16500000Y24800000D02*
X-16500000Y19999994D01*
X-16510000Y30000000D02*
X-16510000Y27485000D01*
X-9999989Y8699989D02*
X-16800000Y15500000D01*
X-6600000Y-25300000D02*
X-9100000Y-25300000D01*
X-9999989Y-24400011D02*
X-9999989Y8699989D01*
%TO.N,/DN_RETO*%
X-4200000Y14100000D02*
X-2925000Y15375000D01*
X-4200000Y2500000D02*
X-4200000Y14100000D01*
X-4900000Y-900000D02*
X-4900000Y600000D01*
X-60000Y-2600000D02*
X-3200000Y-2600000D01*
X-3200000Y-2600000D02*
X-4900000Y-900000D01*
X1270000Y-1270000D02*
X-60000Y-2600000D01*
X-2925000Y15375000D02*
X-1862500Y15375000D01*
%TO.N,/UP_RETO*%
X6675000Y14725000D02*
X3862500Y14725000D01*
X2300000Y0D02*
X7000000Y4700000D01*
X7000000Y14400000D02*
X6675000Y14725000D01*
X7000000Y4700000D02*
X7000000Y14400000D01*
%TO.N,/DN_TX*%
X-5425000Y16000000D02*
X-5425000Y2425000D01*
X-3000000Y0D02*
X0Y0D01*
X-5425000Y2425000D02*
X-3000000Y0D01*
X0Y0D02*
X1270000Y1270000D01*
%TO.N,/UP_TX*%
X5900000Y11500000D02*
X0Y5600000D01*
X0Y2540000D02*
X-1270000Y1270000D01*
X0Y5600000D02*
X0Y2540000D01*
X5900000Y11775000D02*
X5900000Y11500000D01*
%TO.N,/~{RESET}*%
X46100000Y-19100000D02*
X44700000Y-20500000D01*
X42000000Y17080000D02*
X42000000Y23225000D01*
X23949932Y-21050068D02*
X13100000Y-31900000D01*
X40949932Y-21050068D02*
X23949932Y-21050068D01*
X600000Y-28900000D02*
X600000Y-26950000D01*
X13100000Y-31900000D02*
X3600000Y-31900000D01*
X41500000Y-20500000D02*
X40949932Y-21050068D01*
X46100000Y13100000D02*
X46100000Y-19100000D01*
X3600000Y-31900000D02*
X600000Y-28900000D01*
X42000000Y23225000D02*
X41525000Y23700000D01*
X43900000Y15300000D02*
X46100000Y13100000D01*
X44700000Y-20500000D02*
X41500000Y-20500000D01*
%TO.N,/PWR_EN*%
X4400000Y-18000000D02*
X4400000Y-14800000D01*
X10200000Y29600000D02*
X14800000Y25000000D01*
X5075000Y44900000D02*
X6075000Y43900000D01*
X14800000Y25000000D02*
X14800000Y2599992D01*
X4400000Y-14800000D02*
X2900000Y-13300000D01*
X-1800000Y-25505026D02*
X1005026Y-22700000D01*
X5075000Y44900000D02*
X2050000Y44900000D01*
X6075000Y43900000D02*
X8000000Y43900000D01*
X8000000Y43900000D02*
X8500000Y43400000D01*
X10200000Y31400000D02*
X10200000Y29600000D01*
X-1800000Y-26950000D02*
X-1800000Y-25505026D01*
X1005026Y-22700000D02*
X2100000Y-22700000D01*
X2050000Y44900000D02*
X1400000Y44250000D01*
X8500000Y43400000D02*
X8500000Y37099994D01*
X14800000Y2599992D02*
X900000Y-11300008D01*
X8500000Y37099994D02*
X10200000Y35399994D01*
%TO.N,Net-(R13-Pad2)*%
X2425000Y10900000D02*
X2425000Y15025000D01*
X2775000Y15375000D02*
X3862500Y15375000D01*
X2425000Y15025000D02*
X2775000Y15375000D01*
%TO.N,Net-(R14-Pad1)*%
X5250000Y14075000D02*
X3862500Y14075000D01*
X5900000Y13425000D02*
X5250000Y14075000D01*
%TO.N,Net-(R15-Pad1)*%
X-3750000Y16025000D02*
X-3775000Y16000000D01*
X-1862500Y16025000D02*
X-3750000Y16025000D01*
%TO.N,/SCL*%
X-19050000Y27375000D02*
X-19000000Y27325000D01*
X-17600000Y14700000D02*
X-10399989Y7499989D01*
X-200000Y-30000000D02*
X0Y-30200000D01*
X-19050000Y30000000D02*
X-19050000Y27375000D01*
X-8300000Y-30200000D02*
X-3500000Y-30200000D01*
X-19699994Y23600006D02*
X-19699994Y16800000D01*
X-19000000Y24300000D02*
X-19699994Y23600006D01*
X-200000Y-26950000D02*
X-200000Y-30000000D01*
X-10399989Y-28100011D02*
X-8300000Y-30200000D01*
X-10399989Y7499989D02*
X-10399989Y-28100011D01*
%TO.N,/SDA*%
X-21590000Y30000000D02*
X-21590000Y27335000D01*
X-10800000Y6199994D02*
X-18400006Y13800000D01*
X-1800000Y-31300000D02*
X-1800000Y-30100000D01*
X-26000000Y26800000D02*
X-20500000Y21300000D01*
X-1800000Y-30100000D02*
X-1000000Y-29300000D01*
X-21590000Y30000000D02*
X-22740001Y31150001D01*
X-1000000Y-29300000D02*
X-1000000Y-26950000D01*
X-25649999Y31150001D02*
X-26000000Y30800000D01*
X-10800000Y-29100000D02*
X-10800000Y6199994D01*
X-21590000Y27335000D02*
X-21600000Y27325000D01*
X-3500000Y-31300000D02*
X-8600000Y-31300000D01*
X-22740001Y31150001D02*
X-25649999Y31150001D01*
X-8600000Y-31300000D02*
X-10800000Y-29100000D01*
X-20500000Y21300000D02*
X-20500000Y15900000D01*
X-26000000Y30800000D02*
X-26000000Y26800000D01*
%TO.N,/~{SC_IRQ}*%
X-4100000Y26000000D02*
X-2500000Y27600000D01*
D41*
X-1862500Y21225000D02*
X-4000000Y21225000D01*
D39*
X-4075000Y22375000D02*
X-4100000Y22400000D01*
X-4075000Y21300000D02*
X-4075000Y22375000D01*
X-2500000Y31230000D02*
X-3810000Y32540000D01*
X-2500000Y27600000D02*
X-2500000Y31230000D01*
X-4100000Y24600000D02*
X-4100000Y26000000D01*
D41*
X-4000000Y21225000D02*
X-4075000Y21300000D01*
D39*
%TO.N,/BTN_TRIG*%
X14300000Y24590000D02*
X14300000Y3400000D01*
X8890000Y30000000D02*
X14300000Y24590000D01*
X-31730000Y-34270000D02*
X-24930000Y-34270000D01*
X-31730000Y-34270000D02*
X-12300000Y-14840000D01*
X-2200000Y-13100000D02*
X-6600000Y-13100000D01*
X14300000Y3400000D02*
X-2200000Y-13100000D01*
X-12300000Y-14840000D02*
X-12300000Y-13100000D01*
X-24930000Y-34270000D02*
X-20400000Y-38800000D01*
%TO.N,Net-(D4-Pad2)*%
X-5050000Y-25500000D02*
X-6050000Y-26500000D01*
X-4050000Y-25500000D02*
X-5050000Y-25500000D01*
%TD*%
M02*
