%TF.GenerationSoftware,KiCad,Pcbnew,5.1.7-a382d34a8~88~ubuntu18.04.1*%
%TF.CreationDate,2021-10-30T16:30:28+02:00*%
%TF.ProjectId,Main_PCB,4d61696e-5f50-4434-922e-6b696361645f,rev?*%
%TF.SameCoordinates,PX8f0d180PY5f5e100*%
%TF.FileFunction,Legend,Top*%
%TF.FilePolarity,Positive*%
%FSLAX46Y46*%
G04 Gerber Fmt 4.6, Leading zero omitted, Abs format (unit mm)*
G04 Created by KiCad (PCBNEW 5.1.7-a382d34a8~88~ubuntu18.04.1) date 2021-10-30 16:30:28*
%MOMM*%
%LPD*%
G01*
G04 APERTURE LIST*
%ADD10C,0.120000*%
%ADD11C,0.150000*%
G04 APERTURE END LIST*
D10*
X-1000000Y-23000000D02*
X1000000Y-23000000D01*
X0Y-22000000D02*
X0Y-24000000D01*
%TO.C,J9*%
X-21730000Y-37470000D02*
X-20400000Y-37470000D01*
X-21730000Y-38800000D02*
X-21730000Y-37470000D01*
X-21730000Y-40070000D02*
X-19070000Y-40070000D01*
X-19070000Y-40070000D02*
X-19070000Y-42670000D01*
X-21730000Y-40070000D02*
X-21730000Y-42670000D01*
X-21730000Y-42670000D02*
X-19070000Y-42670000D01*
%TO.C,R4*%
X-21077500Y26262742D02*
X-21077500Y26737258D01*
X-22122500Y26262742D02*
X-22122500Y26737258D01*
%TO.C,R3*%
X-18477500Y26262742D02*
X-18477500Y26737258D01*
X-19522500Y26262742D02*
X-19522500Y26737258D01*
%TO.C,J8*%
X45290000Y6790000D02*
X36170000Y6790000D01*
X36170000Y6790000D02*
X36170000Y22290000D01*
X36170000Y22290000D02*
X45290000Y22290000D01*
X45290000Y22290000D02*
X45290000Y6790000D01*
X45290000Y12490000D02*
X43980000Y12490000D01*
X43980000Y12490000D02*
X43980000Y8090000D01*
X43980000Y8090000D02*
X37480000Y8090000D01*
X37480000Y8090000D02*
X37480000Y20990000D01*
X37480000Y20990000D02*
X43980000Y20990000D01*
X43980000Y20990000D02*
X43980000Y16590000D01*
X43980000Y16590000D02*
X43980000Y16590000D01*
X43980000Y16590000D02*
X45290000Y16590000D01*
X45680000Y12000000D02*
X46680000Y11500000D01*
X46680000Y11500000D02*
X46680000Y12500000D01*
X46680000Y12500000D02*
X45680000Y12000000D01*
%TO.C,C15*%
X-21490000Y41888748D02*
X-21490000Y43311252D01*
X-23310000Y41888748D02*
X-23310000Y43311252D01*
%TO.C,C14*%
X-11210000Y42011252D02*
X-11210000Y40588748D01*
X-9390000Y42011252D02*
X-9390000Y40588748D01*
%TO.C,J4*%
X25460000Y28670000D02*
X25460000Y33870000D01*
X-22860000Y28670000D02*
X25460000Y28670000D01*
X-25460000Y33870000D02*
X25460000Y33870000D01*
X-22860000Y28670000D02*
X-22860000Y31270000D01*
X-22860000Y31270000D02*
X-25460000Y31270000D01*
X-25460000Y31270000D02*
X-25460000Y33870000D01*
X-24130000Y28670000D02*
X-25460000Y28670000D01*
X-25460000Y28670000D02*
X-25460000Y30000000D01*
%TO.C,Y2*%
X10250000Y-14100000D02*
X10250000Y-26700000D01*
X10250000Y-26700000D02*
X15350000Y-26700000D01*
X15350000Y-26700000D02*
X15350000Y-14100000D01*
%TO.C,Y1*%
X9150000Y22200000D02*
X9150000Y9600000D01*
X9150000Y9600000D02*
X14250000Y9600000D01*
X14250000Y9600000D02*
X14250000Y22200000D01*
%TO.C,U4*%
X-18210000Y44710000D02*
X-18210000Y43450000D01*
X-18210000Y37890000D02*
X-18210000Y39150000D01*
X-14450000Y44710000D02*
X-18210000Y44710000D01*
X-12200000Y37890000D02*
X-18210000Y37890000D01*
D11*
%TO.C,U3*%
X3825000Y-26325000D02*
X3825000Y-26100000D01*
X-3425000Y-26325000D02*
X-3425000Y-26000000D01*
X-3425000Y-19075000D02*
X-3425000Y-19400000D01*
X3825000Y-19075000D02*
X3825000Y-19400000D01*
X3825000Y-26325000D02*
X3500000Y-26325000D01*
X3825000Y-19075000D02*
X3500000Y-19075000D01*
X-3425000Y-19075000D02*
X-3100000Y-19075000D01*
X-3425000Y-26325000D02*
X-3100000Y-26325000D01*
X3825000Y-26100000D02*
X5250000Y-26100000D01*
D10*
%TO.C,U1*%
X1000000Y21960000D02*
X-1310000Y21960000D01*
X-1310000Y21960000D02*
X-1310000Y21685000D01*
X1000000Y21960000D02*
X3310000Y21960000D01*
X3310000Y21960000D02*
X3310000Y21685000D01*
X1000000Y12040000D02*
X-1310000Y12040000D01*
X-1310000Y12040000D02*
X-1310000Y12315000D01*
X1000000Y12040000D02*
X3310000Y12040000D01*
X3310000Y12040000D02*
X3310000Y12315000D01*
X3310000Y12315000D02*
X4600000Y12315000D01*
%TO.C,SW1*%
X-42000000Y23500000D02*
X-37500000Y23500000D01*
X-43250000Y27500000D02*
X-43250000Y26000000D01*
X-37500000Y30000000D02*
X-42000000Y30000000D01*
X-36250000Y26000000D02*
X-36250000Y27500000D01*
%TO.C,R19*%
X-2077500Y-40762742D02*
X-2077500Y-41237258D01*
X-3122500Y-40762742D02*
X-3122500Y-41237258D01*
%TO.C,R18*%
X40462742Y24222500D02*
X40937258Y24222500D01*
X40462742Y23177500D02*
X40937258Y23177500D01*
%TO.C,R15*%
X-4362742Y15477500D02*
X-4837258Y15477500D01*
X-4362742Y16522500D02*
X-4837258Y16522500D01*
%TO.C,R14*%
X6422500Y12837258D02*
X6422500Y12362742D01*
X5377500Y12837258D02*
X5377500Y12362742D01*
%TO.C,R13*%
X1362742Y11422500D02*
X1837258Y11422500D01*
X1362742Y10377500D02*
X1837258Y10377500D01*
%TO.C,R12*%
X-4662742Y20777500D02*
X-5137258Y20777500D01*
X-4662742Y21822500D02*
X-5137258Y21822500D01*
%TO.C,R11*%
X-29877500Y33637258D02*
X-29877500Y33162742D01*
X-30922500Y33637258D02*
X-30922500Y33162742D01*
%TO.C,R10*%
X-29877500Y36937258D02*
X-29877500Y36462742D01*
X-30922500Y36937258D02*
X-30922500Y36462742D01*
%TO.C,R9*%
X5662742Y45422500D02*
X6137258Y45422500D01*
X5662742Y44377500D02*
X6137258Y44377500D01*
%TO.C,R8*%
X26022500Y26737258D02*
X26022500Y26262742D01*
X24977500Y26737258D02*
X24977500Y26262742D01*
%TO.C,R7*%
X23422500Y26737258D02*
X23422500Y26262742D01*
X22377500Y26737258D02*
X22377500Y26262742D01*
%TO.C,R6*%
X5077500Y41762742D02*
X5077500Y42237258D01*
X6122500Y41762742D02*
X6122500Y42237258D01*
%TO.C,R2*%
X-14962742Y26477500D02*
X-15437258Y26477500D01*
X-14962742Y27522500D02*
X-15437258Y27522500D01*
%TO.C,R1*%
X-6737258Y37722500D02*
X-6262742Y37722500D01*
X-6737258Y36677500D02*
X-6262742Y36677500D01*
%TO.C,Q2*%
X1125000Y37790000D02*
X1125000Y38700000D01*
X1125000Y40100000D02*
X1125000Y41010000D01*
X3700000Y37790000D02*
X1125000Y37790000D01*
X3275000Y41010000D02*
X1125000Y41010000D01*
%TO.C,Q1*%
X3160000Y41720000D02*
X3160000Y42650000D01*
X3160000Y44880000D02*
X3160000Y43950000D01*
X3160000Y44880000D02*
X1000000Y44880000D01*
X3160000Y41720000D02*
X1700000Y41720000D01*
%TO.C,J6*%
X30400000Y-35600000D02*
X35600000Y-35600000D01*
X30400000Y-33000000D02*
X30400000Y-35600000D01*
X35600000Y-30400000D02*
X35600000Y-35600000D01*
X30400000Y-33000000D02*
X33000000Y-33000000D01*
X33000000Y-33000000D02*
X33000000Y-30400000D01*
X33000000Y-30400000D02*
X35600000Y-30400000D01*
X30400000Y-31730000D02*
X30400000Y-30400000D01*
X30400000Y-30400000D02*
X31730000Y-30400000D01*
%TO.C,J5*%
X30400000Y-4670000D02*
X35600000Y-4670000D01*
X30400000Y-2070000D02*
X30400000Y-4670000D01*
X35600000Y530000D02*
X35600000Y-4670000D01*
X30400000Y-2070000D02*
X33000000Y-2070000D01*
X33000000Y-2070000D02*
X33000000Y530000D01*
X33000000Y530000D02*
X35600000Y530000D01*
X30400000Y-800000D02*
X30400000Y530000D01*
X30400000Y530000D02*
X31730000Y530000D01*
%TO.C,J3*%
X-35600000Y-35600000D02*
X-30400000Y-35600000D01*
X-35600000Y-33000000D02*
X-35600000Y-35600000D01*
X-30400000Y-30400000D02*
X-30400000Y-35600000D01*
X-35600000Y-33000000D02*
X-33000000Y-33000000D01*
X-33000000Y-33000000D02*
X-33000000Y-30400000D01*
X-33000000Y-30400000D02*
X-30400000Y-30400000D01*
X-35600000Y-31730000D02*
X-35600000Y-30400000D01*
X-35600000Y-30400000D02*
X-34270000Y-30400000D01*
%TO.C,J2*%
X-35600000Y-4600000D02*
X-30400000Y-4600000D01*
X-35600000Y-2000000D02*
X-35600000Y-4600000D01*
X-30400000Y600000D02*
X-30400000Y-4600000D01*
X-35600000Y-2000000D02*
X-33000000Y-2000000D01*
X-33000000Y-2000000D02*
X-33000000Y600000D01*
X-33000000Y600000D02*
X-30400000Y600000D01*
X-35600000Y-730000D02*
X-35600000Y600000D01*
X-35600000Y600000D02*
X-34270000Y600000D01*
%TO.C,J1*%
X41670000Y-33270000D02*
X44330000Y-33270000D01*
X41670000Y-5270000D02*
X41670000Y-33270000D01*
X44330000Y-5270000D02*
X44330000Y-33270000D01*
X41670000Y-5270000D02*
X44330000Y-5270000D01*
X41670000Y-4000000D02*
X41670000Y-2670000D01*
X41670000Y-2670000D02*
X43000000Y-2670000D01*
%TO.C,F1*%
X6529969Y40110000D02*
X9070031Y40110000D01*
X6529969Y36690000D02*
X9070031Y36690000D01*
%TO.C,D3*%
X-3335000Y-43500000D02*
X-3335000Y-45785000D01*
X-3335000Y-45785000D02*
X-1865000Y-45785000D01*
X-1865000Y-45785000D02*
X-1865000Y-43500000D01*
%TO.C,D2*%
X11050000Y41800000D02*
X11050000Y43800000D01*
X11050000Y43800000D02*
X7150000Y43800000D01*
X11050000Y41800000D02*
X7150000Y41800000D01*
%TO.C,D1*%
X-3900000Y36465000D02*
X-1615000Y36465000D01*
X-1615000Y36465000D02*
X-1615000Y37935000D01*
X-1615000Y37935000D02*
X-3900000Y37935000D01*
%TO.C,C13*%
X9810000Y-15659420D02*
X9810000Y-15940580D01*
X8790000Y-15659420D02*
X8790000Y-15940580D01*
%TO.C,C12*%
X8890000Y-24340580D02*
X8890000Y-24059420D01*
X9910000Y-24340580D02*
X9910000Y-24059420D01*
%TO.C,C8*%
X6959420Y-22590000D02*
X7240580Y-22590000D01*
X6959420Y-23610000D02*
X7240580Y-23610000D01*
%TO.C,C7*%
X-7159420Y-21210000D02*
X-7440580Y-21210000D01*
X-7159420Y-20190000D02*
X-7440580Y-20190000D01*
%TO.C,C6*%
X-7159420Y-22810000D02*
X-7440580Y-22810000D01*
X-7159420Y-21790000D02*
X-7440580Y-21790000D01*
%TO.C,C4*%
X7690000Y20159420D02*
X7690000Y20440580D01*
X8710000Y20159420D02*
X8710000Y20440580D01*
%TO.C,C3*%
X8710000Y12440580D02*
X8710000Y12159420D01*
X7690000Y12440580D02*
X7690000Y12159420D01*
%TO.C,C2*%
X5290000Y18159420D02*
X5290000Y18440580D01*
X6310000Y18159420D02*
X6310000Y18440580D01*
%TO.C,C1*%
X-7159420Y-24410000D02*
X-7440580Y-24410000D01*
X-7159420Y-23390000D02*
X-7440580Y-23390000D01*
%TO.C,BT1*%
X14930000Y37070000D02*
X14930000Y42270000D01*
X14870000Y37070000D02*
X14930000Y37070000D01*
X12270000Y42270000D02*
X14930000Y42270000D01*
X14870000Y37070000D02*
X14870000Y39670000D01*
X14870000Y39670000D02*
X12270000Y39670000D01*
X12270000Y39670000D02*
X12270000Y42270000D01*
X13600000Y37070000D02*
X12270000Y37070000D01*
X12270000Y37070000D02*
X12270000Y38400000D01*
%TO.C,J9*%
D11*
X-20733334Y-35922380D02*
X-20733334Y-36636666D01*
X-20780953Y-36779523D01*
X-20876191Y-36874761D01*
X-21019048Y-36922380D01*
X-21114286Y-36922380D01*
X-20209524Y-36922380D02*
X-20019048Y-36922380D01*
X-19923810Y-36874761D01*
X-19876191Y-36827142D01*
X-19780953Y-36684285D01*
X-19733334Y-36493809D01*
X-19733334Y-36112857D01*
X-19780953Y-36017619D01*
X-19828572Y-35970000D01*
X-19923810Y-35922380D01*
X-20114286Y-35922380D01*
X-20209524Y-35970000D01*
X-20257143Y-36017619D01*
X-20304762Y-36112857D01*
X-20304762Y-36350952D01*
X-20257143Y-36446190D01*
X-20209524Y-36493809D01*
X-20114286Y-36541428D01*
X-19923810Y-36541428D01*
X-19828572Y-36493809D01*
X-19780953Y-36446190D01*
X-19733334Y-36350952D01*
%TO.C,R4*%
X-22577620Y26333334D02*
X-23053810Y26000000D01*
X-22577620Y25761905D02*
X-23577620Y25761905D01*
X-23577620Y26142858D01*
X-23530000Y26238096D01*
X-23482381Y26285715D01*
X-23387143Y26333334D01*
X-23244286Y26333334D01*
X-23149048Y26285715D01*
X-23101429Y26238096D01*
X-23053810Y26142858D01*
X-23053810Y25761905D01*
X-23244286Y27190477D02*
X-22577620Y27190477D01*
X-23625239Y26952381D02*
X-22910953Y26714286D01*
X-22910953Y27333334D01*
%TO.C,R3*%
X-19977620Y26333334D02*
X-20453810Y26000000D01*
X-19977620Y25761905D02*
X-20977620Y25761905D01*
X-20977620Y26142858D01*
X-20930000Y26238096D01*
X-20882381Y26285715D01*
X-20787143Y26333334D01*
X-20644286Y26333334D01*
X-20549048Y26285715D01*
X-20501429Y26238096D01*
X-20453810Y26142858D01*
X-20453810Y25761905D01*
X-20977620Y26666667D02*
X-20977620Y27285715D01*
X-20596667Y26952381D01*
X-20596667Y27095239D01*
X-20549048Y27190477D01*
X-20501429Y27238096D01*
X-20406191Y27285715D01*
X-20168096Y27285715D01*
X-20072858Y27238096D01*
X-20025239Y27190477D01*
X-19977620Y27095239D01*
X-19977620Y26809524D01*
X-20025239Y26714286D01*
X-20072858Y26666667D01*
%TO.C,J8*%
X40396666Y6447620D02*
X40396666Y5733334D01*
X40349047Y5590477D01*
X40253809Y5495239D01*
X40110952Y5447620D01*
X40015714Y5447620D01*
X41015714Y6019048D02*
X40920476Y6066667D01*
X40872857Y6114286D01*
X40825238Y6209524D01*
X40825238Y6257143D01*
X40872857Y6352381D01*
X40920476Y6400000D01*
X41015714Y6447620D01*
X41206190Y6447620D01*
X41301428Y6400000D01*
X41349047Y6352381D01*
X41396666Y6257143D01*
X41396666Y6209524D01*
X41349047Y6114286D01*
X41301428Y6066667D01*
X41206190Y6019048D01*
X41015714Y6019048D01*
X40920476Y5971429D01*
X40872857Y5923810D01*
X40825238Y5828572D01*
X40825238Y5638096D01*
X40872857Y5542858D01*
X40920476Y5495239D01*
X41015714Y5447620D01*
X41206190Y5447620D01*
X41301428Y5495239D01*
X41349047Y5542858D01*
X41396666Y5638096D01*
X41396666Y5828572D01*
X41349047Y5923810D01*
X41301428Y5971429D01*
X41206190Y6019048D01*
%TO.C,C15*%
X-23892858Y41957143D02*
X-23845239Y41909524D01*
X-23797620Y41766667D01*
X-23797620Y41671429D01*
X-23845239Y41528572D01*
X-23940477Y41433334D01*
X-24035715Y41385715D01*
X-24226191Y41338096D01*
X-24369048Y41338096D01*
X-24559524Y41385715D01*
X-24654762Y41433334D01*
X-24750000Y41528572D01*
X-24797620Y41671429D01*
X-24797620Y41766667D01*
X-24750000Y41909524D01*
X-24702381Y41957143D01*
X-23797620Y42909524D02*
X-23797620Y42338096D01*
X-23797620Y42623810D02*
X-24797620Y42623810D01*
X-24654762Y42528572D01*
X-24559524Y42433334D01*
X-24511905Y42338096D01*
X-24797620Y43814286D02*
X-24797620Y43338096D01*
X-24321429Y43290477D01*
X-24369048Y43338096D01*
X-24416667Y43433334D01*
X-24416667Y43671429D01*
X-24369048Y43766667D01*
X-24321429Y43814286D01*
X-24226191Y43861905D01*
X-23988096Y43861905D01*
X-23892858Y43814286D01*
X-23845239Y43766667D01*
X-23797620Y43671429D01*
X-23797620Y43433334D01*
X-23845239Y43338096D01*
X-23892858Y43290477D01*
%TO.C,C14*%
X-8092858Y40657143D02*
X-8045239Y40609524D01*
X-7997620Y40466667D01*
X-7997620Y40371429D01*
X-8045239Y40228572D01*
X-8140477Y40133334D01*
X-8235715Y40085715D01*
X-8426191Y40038096D01*
X-8569048Y40038096D01*
X-8759524Y40085715D01*
X-8854762Y40133334D01*
X-8950000Y40228572D01*
X-8997620Y40371429D01*
X-8997620Y40466667D01*
X-8950000Y40609524D01*
X-8902381Y40657143D01*
X-7997620Y41609524D02*
X-7997620Y41038096D01*
X-7997620Y41323810D02*
X-8997620Y41323810D01*
X-8854762Y41228572D01*
X-8759524Y41133334D01*
X-8711905Y41038096D01*
X-8664286Y42466667D02*
X-7997620Y42466667D01*
X-9045239Y42228572D02*
X-8330953Y41990477D01*
X-8330953Y42609524D01*
%TO.C,J4*%
X-27447620Y28396667D02*
X-26733334Y28396667D01*
X-26590477Y28349048D01*
X-26495239Y28253810D01*
X-26447620Y28110953D01*
X-26447620Y28015715D01*
X-27114286Y29301429D02*
X-26447620Y29301429D01*
X-27495239Y29063334D02*
X-26780953Y28825239D01*
X-26780953Y29444286D01*
%TO.C,Y2*%
X9226190Y-20476190D02*
X9702380Y-20476190D01*
X8702380Y-20809523D02*
X9226190Y-20476190D01*
X8702380Y-20142857D01*
X8797619Y-19857142D02*
X8750000Y-19809523D01*
X8702380Y-19714285D01*
X8702380Y-19476190D01*
X8750000Y-19380952D01*
X8797619Y-19333333D01*
X8892857Y-19285714D01*
X8988095Y-19285714D01*
X9130952Y-19333333D01*
X9702380Y-19904761D01*
X9702380Y-19285714D01*
%TO.C,Y1*%
X8126190Y15823810D02*
X8602380Y15823810D01*
X7602380Y15490477D02*
X8126190Y15823810D01*
X7602380Y16157143D01*
X8602380Y17014286D02*
X8602380Y16442858D01*
X8602380Y16728572D02*
X7602380Y16728572D01*
X7745238Y16633334D01*
X7840476Y16538096D01*
X7888095Y16442858D01*
%TO.C,U4*%
X-17061905Y37347620D02*
X-17061905Y36538096D01*
X-17014286Y36442858D01*
X-16966667Y36395239D01*
X-16871429Y36347620D01*
X-16680953Y36347620D01*
X-16585715Y36395239D01*
X-16538096Y36442858D01*
X-16490477Y36538096D01*
X-16490477Y37347620D01*
X-15585715Y37014286D02*
X-15585715Y36347620D01*
X-15823810Y37395239D02*
X-16061905Y36680953D01*
X-15442858Y36680953D01*
%TO.C,U3*%
X-561905Y-28202380D02*
X-561905Y-29011904D01*
X-514286Y-29107142D01*
X-466667Y-29154761D01*
X-371429Y-29202380D01*
X-180953Y-29202380D01*
X-85715Y-29154761D01*
X-38096Y-29107142D01*
X9523Y-29011904D01*
X9523Y-28202380D01*
X390476Y-28202380D02*
X1009523Y-28202380D01*
X676190Y-28583333D01*
X819047Y-28583333D01*
X914285Y-28630952D01*
X961904Y-28678571D01*
X1009523Y-28773809D01*
X1009523Y-29011904D01*
X961904Y-29107142D01*
X914285Y-29154761D01*
X819047Y-29202380D01*
X533333Y-29202380D01*
X438095Y-29154761D01*
X390476Y-29107142D01*
%TO.C,U1*%
X238095Y11747620D02*
X238095Y10938096D01*
X285714Y10842858D01*
X333333Y10795239D01*
X428571Y10747620D01*
X619047Y10747620D01*
X714285Y10795239D01*
X761904Y10842858D01*
X809523Y10938096D01*
X809523Y11747620D01*
X1809523Y10747620D02*
X1238095Y10747620D01*
X1523809Y10747620D02*
X1523809Y11747620D01*
X1428571Y11604762D01*
X1333333Y11509524D01*
X1238095Y11461905D01*
%TO.C,SW1*%
X-41083334Y30595239D02*
X-40940477Y30547620D01*
X-40702381Y30547620D01*
X-40607143Y30595239D01*
X-40559524Y30642858D01*
X-40511905Y30738096D01*
X-40511905Y30833334D01*
X-40559524Y30928572D01*
X-40607143Y30976191D01*
X-40702381Y31023810D01*
X-40892858Y31071429D01*
X-40988096Y31119048D01*
X-41035715Y31166667D01*
X-41083334Y31261905D01*
X-41083334Y31357143D01*
X-41035715Y31452381D01*
X-40988096Y31500000D01*
X-40892858Y31547620D01*
X-40654762Y31547620D01*
X-40511905Y31500000D01*
X-40178572Y31547620D02*
X-39940477Y30547620D01*
X-39750000Y31261905D01*
X-39559524Y30547620D01*
X-39321429Y31547620D01*
X-38416667Y30547620D02*
X-38988096Y30547620D01*
X-38702381Y30547620D02*
X-38702381Y31547620D01*
X-38797620Y31404762D01*
X-38892858Y31309524D01*
X-38988096Y31261905D01*
%TO.C,R19*%
X-717620Y-41642857D02*
X-1193810Y-41976190D01*
X-717620Y-42214285D02*
X-1717620Y-42214285D01*
X-1717620Y-41833333D01*
X-1670000Y-41738095D01*
X-1622381Y-41690476D01*
X-1527143Y-41642857D01*
X-1384286Y-41642857D01*
X-1289048Y-41690476D01*
X-1241429Y-41738095D01*
X-1193810Y-41833333D01*
X-1193810Y-42214285D01*
X-717620Y-40690476D02*
X-717620Y-41261904D01*
X-717620Y-40976190D02*
X-1717620Y-40976190D01*
X-1574762Y-41071428D01*
X-1479524Y-41166666D01*
X-1431905Y-41261904D01*
X-717620Y-40214285D02*
X-717620Y-40023809D01*
X-765239Y-39928571D01*
X-812858Y-39880952D01*
X-955715Y-39785714D01*
X-1146191Y-39738095D01*
X-1527143Y-39738095D01*
X-1622381Y-39785714D01*
X-1670000Y-39833333D01*
X-1717620Y-39928571D01*
X-1717620Y-40119047D01*
X-1670000Y-40214285D01*
X-1622381Y-40261904D01*
X-1527143Y-40309523D01*
X-1289048Y-40309523D01*
X-1193810Y-40261904D01*
X-1146191Y-40214285D01*
X-1098572Y-40119047D01*
X-1098572Y-39928571D01*
X-1146191Y-39833333D01*
X-1193810Y-39785714D01*
X-1289048Y-39738095D01*
%TO.C,R18*%
X40057142Y24677620D02*
X39723809Y25153810D01*
X39485714Y24677620D02*
X39485714Y25677620D01*
X39866666Y25677620D01*
X39961904Y25630000D01*
X40009523Y25582381D01*
X40057142Y25487143D01*
X40057142Y25344286D01*
X40009523Y25249048D01*
X39961904Y25201429D01*
X39866666Y25153810D01*
X39485714Y25153810D01*
X41009523Y24677620D02*
X40438095Y24677620D01*
X40723809Y24677620D02*
X40723809Y25677620D01*
X40628571Y25534762D01*
X40533333Y25439524D01*
X40438095Y25391905D01*
X41580952Y25249048D02*
X41485714Y25296667D01*
X41438095Y25344286D01*
X41390476Y25439524D01*
X41390476Y25487143D01*
X41438095Y25582381D01*
X41485714Y25630000D01*
X41580952Y25677620D01*
X41771428Y25677620D01*
X41866666Y25630000D01*
X41914285Y25582381D01*
X41961904Y25487143D01*
X41961904Y25439524D01*
X41914285Y25344286D01*
X41866666Y25296667D01*
X41771428Y25249048D01*
X41580952Y25249048D01*
X41485714Y25201429D01*
X41438095Y25153810D01*
X41390476Y25058572D01*
X41390476Y24868096D01*
X41438095Y24772858D01*
X41485714Y24725239D01*
X41580952Y24677620D01*
X41771428Y24677620D01*
X41866666Y24725239D01*
X41914285Y24772858D01*
X41961904Y24868096D01*
X41961904Y25058572D01*
X41914285Y25153810D01*
X41866666Y25201429D01*
X41771428Y25249048D01*
%TO.C,R15*%
X-5242858Y14117620D02*
X-5576191Y14593810D01*
X-5814286Y14117620D02*
X-5814286Y15117620D01*
X-5433334Y15117620D01*
X-5338096Y15070000D01*
X-5290477Y15022381D01*
X-5242858Y14927143D01*
X-5242858Y14784286D01*
X-5290477Y14689048D01*
X-5338096Y14641429D01*
X-5433334Y14593810D01*
X-5814286Y14593810D01*
X-4290477Y14117620D02*
X-4861905Y14117620D01*
X-4576191Y14117620D02*
X-4576191Y15117620D01*
X-4671429Y14974762D01*
X-4766667Y14879524D01*
X-4861905Y14831905D01*
X-3385715Y15117620D02*
X-3861905Y15117620D01*
X-3909524Y14641429D01*
X-3861905Y14689048D01*
X-3766667Y14736667D01*
X-3528572Y14736667D01*
X-3433334Y14689048D01*
X-3385715Y14641429D01*
X-3338096Y14546191D01*
X-3338096Y14308096D01*
X-3385715Y14212858D01*
X-3433334Y14165239D01*
X-3528572Y14117620D01*
X-3766667Y14117620D01*
X-3861905Y14165239D01*
X-3909524Y14212858D01*
%TO.C,R14*%
X7782380Y11957143D02*
X7306190Y11623810D01*
X7782380Y11385715D02*
X6782380Y11385715D01*
X6782380Y11766667D01*
X6830000Y11861905D01*
X6877619Y11909524D01*
X6972857Y11957143D01*
X7115714Y11957143D01*
X7210952Y11909524D01*
X7258571Y11861905D01*
X7306190Y11766667D01*
X7306190Y11385715D01*
X7782380Y12909524D02*
X7782380Y12338096D01*
X7782380Y12623810D02*
X6782380Y12623810D01*
X6925238Y12528572D01*
X7020476Y12433334D01*
X7068095Y12338096D01*
X7115714Y13766667D02*
X7782380Y13766667D01*
X6734761Y13528572D02*
X7449047Y13290477D01*
X7449047Y13909524D01*
%TO.C,R13*%
X957142Y11877620D02*
X623809Y12353810D01*
X385714Y11877620D02*
X385714Y12877620D01*
X766666Y12877620D01*
X861904Y12830000D01*
X909523Y12782381D01*
X957142Y12687143D01*
X957142Y12544286D01*
X909523Y12449048D01*
X861904Y12401429D01*
X766666Y12353810D01*
X385714Y12353810D01*
X1909523Y11877620D02*
X1338095Y11877620D01*
X1623809Y11877620D02*
X1623809Y12877620D01*
X1528571Y12734762D01*
X1433333Y12639524D01*
X1338095Y12591905D01*
X2242857Y12877620D02*
X2861904Y12877620D01*
X2528571Y12496667D01*
X2671428Y12496667D01*
X2766666Y12449048D01*
X2814285Y12401429D01*
X2861904Y12306191D01*
X2861904Y12068096D01*
X2814285Y11972858D01*
X2766666Y11925239D01*
X2671428Y11877620D01*
X2385714Y11877620D01*
X2290476Y11925239D01*
X2242857Y11972858D01*
%TO.C,R12*%
X-5542858Y19417620D02*
X-5876191Y19893810D01*
X-6114286Y19417620D02*
X-6114286Y20417620D01*
X-5733334Y20417620D01*
X-5638096Y20370000D01*
X-5590477Y20322381D01*
X-5542858Y20227143D01*
X-5542858Y20084286D01*
X-5590477Y19989048D01*
X-5638096Y19941429D01*
X-5733334Y19893810D01*
X-6114286Y19893810D01*
X-4590477Y19417620D02*
X-5161905Y19417620D01*
X-4876191Y19417620D02*
X-4876191Y20417620D01*
X-4971429Y20274762D01*
X-5066667Y20179524D01*
X-5161905Y20131905D01*
X-4209524Y20322381D02*
X-4161905Y20370000D01*
X-4066667Y20417620D01*
X-3828572Y20417620D01*
X-3733334Y20370000D01*
X-3685715Y20322381D01*
X-3638096Y20227143D01*
X-3638096Y20131905D01*
X-3685715Y19989048D01*
X-4257143Y19417620D01*
X-3638096Y19417620D01*
%TO.C,R11*%
X-28517620Y32757143D02*
X-28993810Y32423810D01*
X-28517620Y32185715D02*
X-29517620Y32185715D01*
X-29517620Y32566667D01*
X-29470000Y32661905D01*
X-29422381Y32709524D01*
X-29327143Y32757143D01*
X-29184286Y32757143D01*
X-29089048Y32709524D01*
X-29041429Y32661905D01*
X-28993810Y32566667D01*
X-28993810Y32185715D01*
X-28517620Y33709524D02*
X-28517620Y33138096D01*
X-28517620Y33423810D02*
X-29517620Y33423810D01*
X-29374762Y33328572D01*
X-29279524Y33233334D01*
X-29231905Y33138096D01*
X-28517620Y34661905D02*
X-28517620Y34090477D01*
X-28517620Y34376191D02*
X-29517620Y34376191D01*
X-29374762Y34280953D01*
X-29279524Y34185715D01*
X-29231905Y34090477D01*
%TO.C,R10*%
X-28517620Y36057143D02*
X-28993810Y35723810D01*
X-28517620Y35485715D02*
X-29517620Y35485715D01*
X-29517620Y35866667D01*
X-29470000Y35961905D01*
X-29422381Y36009524D01*
X-29327143Y36057143D01*
X-29184286Y36057143D01*
X-29089048Y36009524D01*
X-29041429Y35961905D01*
X-28993810Y35866667D01*
X-28993810Y35485715D01*
X-28517620Y37009524D02*
X-28517620Y36438096D01*
X-28517620Y36723810D02*
X-29517620Y36723810D01*
X-29374762Y36628572D01*
X-29279524Y36533334D01*
X-29231905Y36438096D01*
X-29517620Y37628572D02*
X-29517620Y37723810D01*
X-29470000Y37819048D01*
X-29422381Y37866667D01*
X-29327143Y37914286D01*
X-29136667Y37961905D01*
X-28898572Y37961905D01*
X-28708096Y37914286D01*
X-28612858Y37866667D01*
X-28565239Y37819048D01*
X-28517620Y37723810D01*
X-28517620Y37628572D01*
X-28565239Y37533334D01*
X-28612858Y37485715D01*
X-28708096Y37438096D01*
X-28898572Y37390477D01*
X-29136667Y37390477D01*
X-29327143Y37438096D01*
X-29422381Y37485715D01*
X-29470000Y37533334D01*
X-29517620Y37628572D01*
%TO.C,R9*%
X5733333Y45877620D02*
X5400000Y46353810D01*
X5161904Y45877620D02*
X5161904Y46877620D01*
X5542857Y46877620D01*
X5638095Y46830000D01*
X5685714Y46782381D01*
X5733333Y46687143D01*
X5733333Y46544286D01*
X5685714Y46449048D01*
X5638095Y46401429D01*
X5542857Y46353810D01*
X5161904Y46353810D01*
X6209523Y45877620D02*
X6400000Y45877620D01*
X6495238Y45925239D01*
X6542857Y45972858D01*
X6638095Y46115715D01*
X6685714Y46306191D01*
X6685714Y46687143D01*
X6638095Y46782381D01*
X6590476Y46830000D01*
X6495238Y46877620D01*
X6304761Y46877620D01*
X6209523Y46830000D01*
X6161904Y46782381D01*
X6114285Y46687143D01*
X6114285Y46449048D01*
X6161904Y46353810D01*
X6209523Y46306191D01*
X6304761Y46258572D01*
X6495238Y46258572D01*
X6590476Y46306191D01*
X6638095Y46353810D01*
X6685714Y46449048D01*
%TO.C,R8*%
X27382380Y26333334D02*
X26906190Y26000000D01*
X27382380Y25761905D02*
X26382380Y25761905D01*
X26382380Y26142858D01*
X26430000Y26238096D01*
X26477619Y26285715D01*
X26572857Y26333334D01*
X26715714Y26333334D01*
X26810952Y26285715D01*
X26858571Y26238096D01*
X26906190Y26142858D01*
X26906190Y25761905D01*
X26810952Y26904762D02*
X26763333Y26809524D01*
X26715714Y26761905D01*
X26620476Y26714286D01*
X26572857Y26714286D01*
X26477619Y26761905D01*
X26430000Y26809524D01*
X26382380Y26904762D01*
X26382380Y27095239D01*
X26430000Y27190477D01*
X26477619Y27238096D01*
X26572857Y27285715D01*
X26620476Y27285715D01*
X26715714Y27238096D01*
X26763333Y27190477D01*
X26810952Y27095239D01*
X26810952Y26904762D01*
X26858571Y26809524D01*
X26906190Y26761905D01*
X27001428Y26714286D01*
X27191904Y26714286D01*
X27287142Y26761905D01*
X27334761Y26809524D01*
X27382380Y26904762D01*
X27382380Y27095239D01*
X27334761Y27190477D01*
X27287142Y27238096D01*
X27191904Y27285715D01*
X27001428Y27285715D01*
X26906190Y27238096D01*
X26858571Y27190477D01*
X26810952Y27095239D01*
%TO.C,R7*%
X24782380Y26333334D02*
X24306190Y26000000D01*
X24782380Y25761905D02*
X23782380Y25761905D01*
X23782380Y26142858D01*
X23830000Y26238096D01*
X23877619Y26285715D01*
X23972857Y26333334D01*
X24115714Y26333334D01*
X24210952Y26285715D01*
X24258571Y26238096D01*
X24306190Y26142858D01*
X24306190Y25761905D01*
X23782380Y26666667D02*
X23782380Y27333334D01*
X24782380Y26904762D01*
%TO.C,R6*%
X4622380Y41833334D02*
X4146190Y41500000D01*
X4622380Y41261905D02*
X3622380Y41261905D01*
X3622380Y41642858D01*
X3670000Y41738096D01*
X3717619Y41785715D01*
X3812857Y41833334D01*
X3955714Y41833334D01*
X4050952Y41785715D01*
X4098571Y41738096D01*
X4146190Y41642858D01*
X4146190Y41261905D01*
X3622380Y42690477D02*
X3622380Y42500000D01*
X3670000Y42404762D01*
X3717619Y42357143D01*
X3860476Y42261905D01*
X4050952Y42214286D01*
X4431904Y42214286D01*
X4527142Y42261905D01*
X4574761Y42309524D01*
X4622380Y42404762D01*
X4622380Y42595239D01*
X4574761Y42690477D01*
X4527142Y42738096D01*
X4431904Y42785715D01*
X4193809Y42785715D01*
X4098571Y42738096D01*
X4050952Y42690477D01*
X4003333Y42595239D01*
X4003333Y42404762D01*
X4050952Y42309524D01*
X4098571Y42261905D01*
X4193809Y42214286D01*
%TO.C,R2*%
X-15366667Y25117620D02*
X-15700000Y25593810D01*
X-15938096Y25117620D02*
X-15938096Y26117620D01*
X-15557143Y26117620D01*
X-15461905Y26070000D01*
X-15414286Y26022381D01*
X-15366667Y25927143D01*
X-15366667Y25784286D01*
X-15414286Y25689048D01*
X-15461905Y25641429D01*
X-15557143Y25593810D01*
X-15938096Y25593810D01*
X-14985715Y26022381D02*
X-14938096Y26070000D01*
X-14842858Y26117620D01*
X-14604762Y26117620D01*
X-14509524Y26070000D01*
X-14461905Y26022381D01*
X-14414286Y25927143D01*
X-14414286Y25831905D01*
X-14461905Y25689048D01*
X-15033334Y25117620D01*
X-14414286Y25117620D01*
%TO.C,R1*%
X-6666667Y38177620D02*
X-7000000Y38653810D01*
X-7238096Y38177620D02*
X-7238096Y39177620D01*
X-6857143Y39177620D01*
X-6761905Y39130000D01*
X-6714286Y39082381D01*
X-6666667Y38987143D01*
X-6666667Y38844286D01*
X-6714286Y38749048D01*
X-6761905Y38701429D01*
X-6857143Y38653810D01*
X-7238096Y38653810D01*
X-5714286Y38177620D02*
X-6285715Y38177620D01*
X-6000000Y38177620D02*
X-6000000Y39177620D01*
X-6095239Y39034762D01*
X-6190477Y38939524D01*
X-6285715Y38891905D01*
%TO.C,Q2*%
X2104761Y36352381D02*
X2009523Y36400000D01*
X1914285Y36495239D01*
X1771428Y36638096D01*
X1676190Y36685715D01*
X1580952Y36685715D01*
X1628571Y36447620D02*
X1533333Y36495239D01*
X1438095Y36590477D01*
X1390476Y36780953D01*
X1390476Y37114286D01*
X1438095Y37304762D01*
X1533333Y37400000D01*
X1628571Y37447620D01*
X1819047Y37447620D01*
X1914285Y37400000D01*
X2009523Y37304762D01*
X2057142Y37114286D01*
X2057142Y36780953D01*
X2009523Y36590477D01*
X1914285Y36495239D01*
X1819047Y36447620D01*
X1628571Y36447620D01*
X2438095Y37352381D02*
X2485714Y37400000D01*
X2580952Y37447620D01*
X2819047Y37447620D01*
X2914285Y37400000D01*
X2961904Y37352381D01*
X3009523Y37257143D01*
X3009523Y37161905D01*
X2961904Y37019048D01*
X2390476Y36447620D01*
X3009523Y36447620D01*
%TO.C,Q1*%
X2304761Y45252381D02*
X2209523Y45300000D01*
X2114285Y45395239D01*
X1971428Y45538096D01*
X1876190Y45585715D01*
X1780952Y45585715D01*
X1828571Y45347620D02*
X1733333Y45395239D01*
X1638095Y45490477D01*
X1590476Y45680953D01*
X1590476Y46014286D01*
X1638095Y46204762D01*
X1733333Y46300000D01*
X1828571Y46347620D01*
X2019047Y46347620D01*
X2114285Y46300000D01*
X2209523Y46204762D01*
X2257142Y46014286D01*
X2257142Y45680953D01*
X2209523Y45490477D01*
X2114285Y45395239D01*
X2019047Y45347620D01*
X1828571Y45347620D01*
X3209523Y45347620D02*
X2638095Y45347620D01*
X2923809Y45347620D02*
X2923809Y46347620D01*
X2828571Y46204762D01*
X2733333Y46109524D01*
X2638095Y46061905D01*
%TO.C,J6*%
X32666666Y-28852380D02*
X32666666Y-29566666D01*
X32619047Y-29709523D01*
X32523809Y-29804761D01*
X32380952Y-29852380D01*
X32285714Y-29852380D01*
X33571428Y-28852380D02*
X33380952Y-28852380D01*
X33285714Y-28900000D01*
X33238095Y-28947619D01*
X33142857Y-29090476D01*
X33095238Y-29280952D01*
X33095238Y-29661904D01*
X33142857Y-29757142D01*
X33190476Y-29804761D01*
X33285714Y-29852380D01*
X33476190Y-29852380D01*
X33571428Y-29804761D01*
X33619047Y-29757142D01*
X33666666Y-29661904D01*
X33666666Y-29423809D01*
X33619047Y-29328571D01*
X33571428Y-29280952D01*
X33476190Y-29233333D01*
X33285714Y-29233333D01*
X33190476Y-29280952D01*
X33142857Y-29328571D01*
X33095238Y-29423809D01*
%TO.C,J5*%
X32666666Y2077620D02*
X32666666Y1363334D01*
X32619047Y1220477D01*
X32523809Y1125239D01*
X32380952Y1077620D01*
X32285714Y1077620D01*
X33619047Y2077620D02*
X33142857Y2077620D01*
X33095238Y1601429D01*
X33142857Y1649048D01*
X33238095Y1696667D01*
X33476190Y1696667D01*
X33571428Y1649048D01*
X33619047Y1601429D01*
X33666666Y1506191D01*
X33666666Y1268096D01*
X33619047Y1172858D01*
X33571428Y1125239D01*
X33476190Y1077620D01*
X33238095Y1077620D01*
X33142857Y1125239D01*
X33095238Y1172858D01*
%TO.C,J3*%
X-33333334Y-28852380D02*
X-33333334Y-29566666D01*
X-33380953Y-29709523D01*
X-33476191Y-29804761D01*
X-33619048Y-29852380D01*
X-33714286Y-29852380D01*
X-32952381Y-28852380D02*
X-32333334Y-28852380D01*
X-32666667Y-29233333D01*
X-32523810Y-29233333D01*
X-32428572Y-29280952D01*
X-32380953Y-29328571D01*
X-32333334Y-29423809D01*
X-32333334Y-29661904D01*
X-32380953Y-29757142D01*
X-32428572Y-29804761D01*
X-32523810Y-29852380D01*
X-32809524Y-29852380D01*
X-32904762Y-29804761D01*
X-32952381Y-29757142D01*
%TO.C,J2*%
X-33333334Y2147620D02*
X-33333334Y1433334D01*
X-33380953Y1290477D01*
X-33476191Y1195239D01*
X-33619048Y1147620D01*
X-33714286Y1147620D01*
X-32904762Y2052381D02*
X-32857143Y2100000D01*
X-32761905Y2147620D01*
X-32523810Y2147620D01*
X-32428572Y2100000D01*
X-32380953Y2052381D01*
X-32333334Y1957143D01*
X-32333334Y1861905D01*
X-32380953Y1719048D01*
X-32952381Y1147620D01*
X-32333334Y1147620D01*
%TO.C,J1*%
X42666666Y-1122380D02*
X42666666Y-1836666D01*
X42619047Y-1979523D01*
X42523809Y-2074761D01*
X42380952Y-2122380D01*
X42285714Y-2122380D01*
X43666666Y-2122380D02*
X43095238Y-2122380D01*
X43380952Y-2122380D02*
X43380952Y-1122380D01*
X43285714Y-1265238D01*
X43190476Y-1360476D01*
X43095238Y-1408095D01*
%TO.C,F1*%
X7466666Y41071429D02*
X7133333Y41071429D01*
X7133333Y40547620D02*
X7133333Y41547620D01*
X7609523Y41547620D01*
X8514285Y40547620D02*
X7942857Y40547620D01*
X8228571Y40547620D02*
X8228571Y41547620D01*
X8133333Y41404762D01*
X8038095Y41309524D01*
X7942857Y41261905D01*
%TO.C,D3*%
X-3577620Y-45038095D02*
X-4577620Y-45038095D01*
X-4577620Y-44800000D01*
X-4530000Y-44657142D01*
X-4434762Y-44561904D01*
X-4339524Y-44514285D01*
X-4149048Y-44466666D01*
X-4006191Y-44466666D01*
X-3815715Y-44514285D01*
X-3720477Y-44561904D01*
X-3625239Y-44657142D01*
X-3577620Y-44800000D01*
X-3577620Y-45038095D01*
X-4577620Y-44133333D02*
X-4577620Y-43514285D01*
X-4196667Y-43847619D01*
X-4196667Y-43704761D01*
X-4149048Y-43609523D01*
X-4101429Y-43561904D01*
X-4006191Y-43514285D01*
X-3768096Y-43514285D01*
X-3672858Y-43561904D01*
X-3625239Y-43609523D01*
X-3577620Y-43704761D01*
X-3577620Y-43990476D01*
X-3625239Y-44085714D01*
X-3672858Y-44133333D01*
%TO.C,D2*%
X8061904Y40347620D02*
X8061904Y41347620D01*
X8300000Y41347620D01*
X8442857Y41300000D01*
X8538095Y41204762D01*
X8585714Y41109524D01*
X8633333Y40919048D01*
X8633333Y40776191D01*
X8585714Y40585715D01*
X8538095Y40490477D01*
X8442857Y40395239D01*
X8300000Y40347620D01*
X8061904Y40347620D01*
X9014285Y41252381D02*
X9061904Y41300000D01*
X9157142Y41347620D01*
X9395238Y41347620D01*
X9490476Y41300000D01*
X9538095Y41252381D01*
X9585714Y41157143D01*
X9585714Y41061905D01*
X9538095Y40919048D01*
X8966666Y40347620D01*
X9585714Y40347620D01*
%TO.C,D1*%
X-3838096Y35317620D02*
X-3838096Y36317620D01*
X-3600000Y36317620D01*
X-3457143Y36270000D01*
X-3361905Y36174762D01*
X-3314286Y36079524D01*
X-3266667Y35889048D01*
X-3266667Y35746191D01*
X-3314286Y35555715D01*
X-3361905Y35460477D01*
X-3457143Y35365239D01*
X-3600000Y35317620D01*
X-3838096Y35317620D01*
X-2314286Y35317620D02*
X-2885715Y35317620D01*
X-2600000Y35317620D02*
X-2600000Y36317620D01*
X-2695239Y36174762D01*
X-2790477Y36079524D01*
X-2885715Y36031905D01*
%TO.C,C13*%
X11087142Y-16442857D02*
X11134761Y-16490476D01*
X11182380Y-16633333D01*
X11182380Y-16728571D01*
X11134761Y-16871428D01*
X11039523Y-16966666D01*
X10944285Y-17014285D01*
X10753809Y-17061904D01*
X10610952Y-17061904D01*
X10420476Y-17014285D01*
X10325238Y-16966666D01*
X10230000Y-16871428D01*
X10182380Y-16728571D01*
X10182380Y-16633333D01*
X10230000Y-16490476D01*
X10277619Y-16442857D01*
X11182380Y-15490476D02*
X11182380Y-16061904D01*
X11182380Y-15776190D02*
X10182380Y-15776190D01*
X10325238Y-15871428D01*
X10420476Y-15966666D01*
X10468095Y-16061904D01*
X10182380Y-15157142D02*
X10182380Y-14538095D01*
X10563333Y-14871428D01*
X10563333Y-14728571D01*
X10610952Y-14633333D01*
X10658571Y-14585714D01*
X10753809Y-14538095D01*
X10991904Y-14538095D01*
X11087142Y-14585714D01*
X11134761Y-14633333D01*
X11182380Y-14728571D01*
X11182380Y-15014285D01*
X11134761Y-15109523D01*
X11087142Y-15157142D01*
%TO.C,C12*%
X8327142Y-24842857D02*
X8374761Y-24890476D01*
X8422380Y-25033333D01*
X8422380Y-25128571D01*
X8374761Y-25271428D01*
X8279523Y-25366666D01*
X8184285Y-25414285D01*
X7993809Y-25461904D01*
X7850952Y-25461904D01*
X7660476Y-25414285D01*
X7565238Y-25366666D01*
X7470000Y-25271428D01*
X7422380Y-25128571D01*
X7422380Y-25033333D01*
X7470000Y-24890476D01*
X7517619Y-24842857D01*
X8422380Y-23890476D02*
X8422380Y-24461904D01*
X8422380Y-24176190D02*
X7422380Y-24176190D01*
X7565238Y-24271428D01*
X7660476Y-24366666D01*
X7708095Y-24461904D01*
X7517619Y-23509523D02*
X7470000Y-23461904D01*
X7422380Y-23366666D01*
X7422380Y-23128571D01*
X7470000Y-23033333D01*
X7517619Y-22985714D01*
X7612857Y-22938095D01*
X7708095Y-22938095D01*
X7850952Y-22985714D01*
X8422380Y-23557142D01*
X8422380Y-22938095D01*
%TO.C,C8*%
X6933333Y-22027142D02*
X6885714Y-22074761D01*
X6742857Y-22122380D01*
X6647619Y-22122380D01*
X6504761Y-22074761D01*
X6409523Y-21979523D01*
X6361904Y-21884285D01*
X6314285Y-21693809D01*
X6314285Y-21550952D01*
X6361904Y-21360476D01*
X6409523Y-21265238D01*
X6504761Y-21170000D01*
X6647619Y-21122380D01*
X6742857Y-21122380D01*
X6885714Y-21170000D01*
X6933333Y-21217619D01*
X7504761Y-21550952D02*
X7409523Y-21503333D01*
X7361904Y-21455714D01*
X7314285Y-21360476D01*
X7314285Y-21312857D01*
X7361904Y-21217619D01*
X7409523Y-21170000D01*
X7504761Y-21122380D01*
X7695238Y-21122380D01*
X7790476Y-21170000D01*
X7838095Y-21217619D01*
X7885714Y-21312857D01*
X7885714Y-21360476D01*
X7838095Y-21455714D01*
X7790476Y-21503333D01*
X7695238Y-21550952D01*
X7504761Y-21550952D01*
X7409523Y-21598571D01*
X7361904Y-21646190D01*
X7314285Y-21741428D01*
X7314285Y-21931904D01*
X7361904Y-22027142D01*
X7409523Y-22074761D01*
X7504761Y-22122380D01*
X7695238Y-22122380D01*
X7790476Y-22074761D01*
X7838095Y-22027142D01*
X7885714Y-21931904D01*
X7885714Y-21741428D01*
X7838095Y-21646190D01*
X7790476Y-21598571D01*
X7695238Y-21550952D01*
%TO.C,C7*%
X-7466667Y-22487142D02*
X-7514286Y-22534761D01*
X-7657143Y-22582380D01*
X-7752381Y-22582380D01*
X-7895239Y-22534761D01*
X-7990477Y-22439523D01*
X-8038096Y-22344285D01*
X-8085715Y-22153809D01*
X-8085715Y-22010952D01*
X-8038096Y-21820476D01*
X-7990477Y-21725238D01*
X-7895239Y-21630000D01*
X-7752381Y-21582380D01*
X-7657143Y-21582380D01*
X-7514286Y-21630000D01*
X-7466667Y-21677619D01*
X-7133334Y-21582380D02*
X-6466667Y-21582380D01*
X-6895239Y-22582380D01*
%TO.C,C6*%
X-7466667Y-24087142D02*
X-7514286Y-24134761D01*
X-7657143Y-24182380D01*
X-7752381Y-24182380D01*
X-7895239Y-24134761D01*
X-7990477Y-24039523D01*
X-8038096Y-23944285D01*
X-8085715Y-23753809D01*
X-8085715Y-23610952D01*
X-8038096Y-23420476D01*
X-7990477Y-23325238D01*
X-7895239Y-23230000D01*
X-7752381Y-23182380D01*
X-7657143Y-23182380D01*
X-7514286Y-23230000D01*
X-7466667Y-23277619D01*
X-6609524Y-23182380D02*
X-6800000Y-23182380D01*
X-6895239Y-23230000D01*
X-6942858Y-23277619D01*
X-7038096Y-23420476D01*
X-7085715Y-23610952D01*
X-7085715Y-23991904D01*
X-7038096Y-24087142D01*
X-6990477Y-24134761D01*
X-6895239Y-24182380D01*
X-6704762Y-24182380D01*
X-6609524Y-24134761D01*
X-6561905Y-24087142D01*
X-6514286Y-23991904D01*
X-6514286Y-23753809D01*
X-6561905Y-23658571D01*
X-6609524Y-23610952D01*
X-6704762Y-23563333D01*
X-6895239Y-23563333D01*
X-6990477Y-23610952D01*
X-7038096Y-23658571D01*
X-7085715Y-23753809D01*
%TO.C,C4*%
X7127142Y20133334D02*
X7174761Y20085715D01*
X7222380Y19942858D01*
X7222380Y19847620D01*
X7174761Y19704762D01*
X7079523Y19609524D01*
X6984285Y19561905D01*
X6793809Y19514286D01*
X6650952Y19514286D01*
X6460476Y19561905D01*
X6365238Y19609524D01*
X6270000Y19704762D01*
X6222380Y19847620D01*
X6222380Y19942858D01*
X6270000Y20085715D01*
X6317619Y20133334D01*
X6555714Y20990477D02*
X7222380Y20990477D01*
X6174761Y20752381D02*
X6889047Y20514286D01*
X6889047Y21133334D01*
%TO.C,C3*%
X9987142Y12133334D02*
X10034761Y12085715D01*
X10082380Y11942858D01*
X10082380Y11847620D01*
X10034761Y11704762D01*
X9939523Y11609524D01*
X9844285Y11561905D01*
X9653809Y11514286D01*
X9510952Y11514286D01*
X9320476Y11561905D01*
X9225238Y11609524D01*
X9130000Y11704762D01*
X9082380Y11847620D01*
X9082380Y11942858D01*
X9130000Y12085715D01*
X9177619Y12133334D01*
X9082380Y12466667D02*
X9082380Y13085715D01*
X9463333Y12752381D01*
X9463333Y12895239D01*
X9510952Y12990477D01*
X9558571Y13038096D01*
X9653809Y13085715D01*
X9891904Y13085715D01*
X9987142Y13038096D01*
X10034761Y12990477D01*
X10082380Y12895239D01*
X10082380Y12609524D01*
X10034761Y12514286D01*
X9987142Y12466667D01*
%TO.C,C2*%
X4727142Y18133334D02*
X4774761Y18085715D01*
X4822380Y17942858D01*
X4822380Y17847620D01*
X4774761Y17704762D01*
X4679523Y17609524D01*
X4584285Y17561905D01*
X4393809Y17514286D01*
X4250952Y17514286D01*
X4060476Y17561905D01*
X3965238Y17609524D01*
X3870000Y17704762D01*
X3822380Y17847620D01*
X3822380Y17942858D01*
X3870000Y18085715D01*
X3917619Y18133334D01*
X3917619Y18514286D02*
X3870000Y18561905D01*
X3822380Y18657143D01*
X3822380Y18895239D01*
X3870000Y18990477D01*
X3917619Y19038096D01*
X4012857Y19085715D01*
X4108095Y19085715D01*
X4250952Y19038096D01*
X4822380Y18466667D01*
X4822380Y19085715D01*
%TO.C,C1*%
X-7466667Y-25687142D02*
X-7514286Y-25734761D01*
X-7657143Y-25782380D01*
X-7752381Y-25782380D01*
X-7895239Y-25734761D01*
X-7990477Y-25639523D01*
X-8038096Y-25544285D01*
X-8085715Y-25353809D01*
X-8085715Y-25210952D01*
X-8038096Y-25020476D01*
X-7990477Y-24925238D01*
X-7895239Y-24830000D01*
X-7752381Y-24782380D01*
X-7657143Y-24782380D01*
X-7514286Y-24830000D01*
X-7466667Y-24877619D01*
X-6514286Y-25782380D02*
X-7085715Y-25782380D01*
X-6800000Y-25782380D02*
X-6800000Y-24782380D01*
X-6895239Y-24925238D01*
X-6990477Y-25020476D01*
X-7085715Y-25068095D01*
%TO.C,BT1*%
X11198571Y38884286D02*
X11246190Y39027143D01*
X11293809Y39074762D01*
X11389047Y39122381D01*
X11531904Y39122381D01*
X11627142Y39074762D01*
X11674761Y39027143D01*
X11722380Y38931905D01*
X11722380Y38550953D01*
X10722380Y38550953D01*
X10722380Y38884286D01*
X10770000Y38979524D01*
X10817619Y39027143D01*
X10912857Y39074762D01*
X11008095Y39074762D01*
X11103333Y39027143D01*
X11150952Y38979524D01*
X11198571Y38884286D01*
X11198571Y38550953D01*
X10722380Y39408096D02*
X10722380Y39979524D01*
X11722380Y39693810D02*
X10722380Y39693810D01*
X11722380Y40836667D02*
X11722380Y40265239D01*
X11722380Y40550953D02*
X10722380Y40550953D01*
X10865238Y40455715D01*
X10960476Y40360477D01*
X11008095Y40265239D01*
%TD*%
M02*
