%TF.GenerationSoftware,KiCad,Pcbnew,(6.0.1)*%
%TF.CreationDate,2022-02-01T19:55:59+01:00*%
%TF.ProjectId,main_pcb,6d61696e-5f70-4636-922e-6b696361645f,rev?*%
%TF.SameCoordinates,PX8f0d180PY5f5e100*%
%TF.FileFunction,Paste,Top*%
%TF.FilePolarity,Positive*%
%FSLAX46Y46*%
G04 Gerber Fmt 4.6, Leading zero omitted, Abs format (unit mm)*
G04 Created by KiCad (PCBNEW (6.0.1)) date 2022-02-01 19:55:59*
%MOMM*%
%LPD*%
G01*
G04 APERTURE LIST*
G04 Aperture macros list*
%AMRoundRect*
0 Rectangle with rounded corners*
0 $1 Rounding radius*
0 $2 $3 $4 $5 $6 $7 $8 $9 X,Y pos of 4 corners*
0 Add a 4 corners polygon primitive as box body*
4,1,4,$2,$3,$4,$5,$6,$7,$8,$9,$2,$3,0*
0 Add four circle primitives for the rounded corners*
1,1,$1+$1,$2,$3*
1,1,$1+$1,$4,$5*
1,1,$1+$1,$6,$7*
1,1,$1+$1,$8,$9*
0 Add four rect primitives between the rounded corners*
20,1,$1+$1,$2,$3,$4,$5,0*
20,1,$1+$1,$4,$5,$6,$7,0*
20,1,$1+$1,$6,$7,$8,$9,0*
20,1,$1+$1,$8,$9,$2,$3,0*%
G04 Aperture macros list end*
%ADD10RoundRect,0.225000X0.225000X0.250000X-0.225000X0.250000X-0.225000X-0.250000X0.225000X-0.250000X0*%
%ADD11RoundRect,0.225000X0.250000X-0.225000X0.250000X0.225000X-0.250000X0.225000X-0.250000X-0.225000X0*%
%ADD12RoundRect,0.225000X-0.250000X0.225000X-0.250000X-0.225000X0.250000X-0.225000X0.250000X0.225000X0*%
%ADD13RoundRect,0.249999X-0.650001X0.325001X-0.650001X-0.325001X0.650001X-0.325001X0.650001X0.325001X0*%
%ADD14RoundRect,0.249999X0.650001X-0.325001X0.650001X0.325001X-0.650001X0.325001X-0.650001X-0.325001X0*%
%ADD15R,0.900000X1.200000*%
%ADD16RoundRect,0.250000X-0.487500X-1.400000X0.487500X-1.400000X0.487500X1.400000X-0.487500X1.400000X0*%
%ADD17R,0.900000X0.800000*%
%ADD18RoundRect,0.200000X0.200000X0.275000X-0.200000X0.275000X-0.200000X-0.275000X0.200000X-0.275000X0*%
%ADD19RoundRect,0.200000X0.275000X-0.200000X0.275000X0.200000X-0.275000X0.200000X-0.275000X-0.200000X0*%
%ADD20RoundRect,0.200000X-0.275000X0.200000X-0.275000X-0.200000X0.275000X-0.200000X0.275000X0.200000X0*%
%ADD21RoundRect,0.200000X-0.200000X-0.275000X0.200000X-0.275000X0.200000X0.275000X-0.200000X0.275000X0*%
%ADD22RoundRect,0.100000X0.637500X0.100000X-0.637500X0.100000X-0.637500X-0.100000X0.637500X-0.100000X0*%
%ADD23R,1.600000X0.550000*%
%ADD24R,0.550000X1.600000*%
%ADD25R,2.000000X1.500000*%
%ADD26R,2.000000X3.800000*%
%ADD27R,2.000000X4.500000*%
%ADD28RoundRect,0.225000X-0.225000X-0.250000X0.225000X-0.250000X0.225000X0.250000X-0.225000X0.250000X0*%
%ADD29RoundRect,0.218750X0.218750X0.256250X-0.218750X0.256250X-0.218750X-0.256250X0.218750X-0.256250X0*%
%ADD30R,1.000000X0.700000*%
G04 APERTURE END LIST*
D10*
%TO.C,C1*%
X-6525000Y-23900000D03*
X-8075000Y-23900000D03*
%TD*%
D11*
%TO.C,C4*%
X8200000Y19525000D03*
X8200000Y21075000D03*
%TD*%
D10*
%TO.C,C6*%
X-6525000Y-22300000D03*
X-8075000Y-22300000D03*
%TD*%
%TO.C,C7*%
X-6525000Y-20700000D03*
X-8075000Y-20700000D03*
%TD*%
D11*
%TO.C,C12*%
X9400000Y-24975000D03*
X9400000Y-23425000D03*
%TD*%
D12*
%TO.C,C13*%
X9300000Y-15025000D03*
X9300000Y-16575000D03*
%TD*%
D13*
%TO.C,C14*%
X-10300000Y42775000D03*
X-10300000Y39825000D03*
%TD*%
D14*
%TO.C,C15*%
X-22400000Y41125000D03*
X-22400000Y44075000D03*
%TD*%
D15*
%TO.C,D2*%
X10450000Y42800000D03*
X7150000Y42800000D03*
%TD*%
D16*
%TO.C,F1*%
X5637500Y38400000D03*
X9962500Y38400000D03*
%TD*%
D17*
%TO.C,Q1*%
X1400000Y44250000D03*
X1400000Y42350000D03*
X3400000Y43300000D03*
%TD*%
D18*
%TO.C,R2*%
X-14375000Y27000000D03*
X-16025000Y27000000D03*
%TD*%
D19*
%TO.C,R6*%
X5600000Y41175000D03*
X5600000Y42825000D03*
%TD*%
D20*
%TO.C,R7*%
X22900000Y27325000D03*
X22900000Y25675000D03*
%TD*%
%TO.C,R8*%
X25500000Y27325000D03*
X25500000Y25675000D03*
%TD*%
D21*
%TO.C,R9*%
X5075000Y44900000D03*
X6725000Y44900000D03*
%TD*%
D20*
%TO.C,R10*%
X-30400000Y37525000D03*
X-30400000Y35875000D03*
%TD*%
%TO.C,R11*%
X-30400000Y34225000D03*
X-30400000Y32575000D03*
%TD*%
D18*
%TO.C,R12*%
X-4075000Y21300000D03*
X-5725000Y21300000D03*
%TD*%
D21*
%TO.C,R13*%
X775000Y10900000D03*
X2425000Y10900000D03*
%TD*%
D20*
%TO.C,R14*%
X5900000Y13425000D03*
X5900000Y11775000D03*
%TD*%
D18*
%TO.C,R15*%
X-3775000Y16000000D03*
X-5425000Y16000000D03*
%TD*%
D21*
%TO.C,R18*%
X39875000Y23700000D03*
X41525000Y23700000D03*
%TD*%
D22*
%TO.C,U1*%
X3862500Y12775000D03*
X3862500Y13425000D03*
X3862500Y14075000D03*
X3862500Y14725000D03*
X3862500Y15375000D03*
X3862500Y16025000D03*
X3862500Y16675000D03*
X3862500Y17325000D03*
X3862500Y17975000D03*
X3862500Y18625000D03*
X3862500Y19275000D03*
X3862500Y19925000D03*
X3862500Y20575000D03*
X3862500Y21225000D03*
X-1862500Y21225000D03*
X-1862500Y20575000D03*
X-1862500Y19925000D03*
X-1862500Y19275000D03*
X-1862500Y18625000D03*
X-1862500Y17975000D03*
X-1862500Y17325000D03*
X-1862500Y16675000D03*
X-1862500Y16025000D03*
X-1862500Y15375000D03*
X-1862500Y14725000D03*
X-1862500Y14075000D03*
X-1862500Y13425000D03*
X-1862500Y12775000D03*
%TD*%
D23*
%TO.C,U3*%
X4450000Y-25500000D03*
X4450000Y-24700000D03*
X4450000Y-23900000D03*
X4450000Y-23100000D03*
X4450000Y-22300000D03*
X4450000Y-21500000D03*
X4450000Y-20700000D03*
X4450000Y-19900000D03*
D24*
X3000000Y-18450000D03*
X2200000Y-18450000D03*
X1400000Y-18450000D03*
X600000Y-18450000D03*
X-200000Y-18450000D03*
X-1000000Y-18450000D03*
X-1800000Y-18450000D03*
X-2600000Y-18450000D03*
D23*
X-4050000Y-19900000D03*
X-4050000Y-20700000D03*
X-4050000Y-21500000D03*
X-4050000Y-22300000D03*
X-4050000Y-23100000D03*
X-4050000Y-23900000D03*
X-4050000Y-24700000D03*
X-4050000Y-25500000D03*
D24*
X-2600000Y-26950000D03*
X-1800000Y-26950000D03*
X-1000000Y-26950000D03*
X-200000Y-26950000D03*
X600000Y-26950000D03*
X1400000Y-26950000D03*
X2200000Y-26950000D03*
X3000000Y-26950000D03*
%TD*%
D25*
%TO.C,U4*%
X-13150000Y39000000D03*
X-13150000Y41300000D03*
D26*
X-19450000Y41300000D03*
D25*
X-13150000Y43600000D03*
%TD*%
D27*
%TO.C,Y1*%
X11700000Y12050000D03*
X11700000Y20550000D03*
%TD*%
%TO.C,Y2*%
X12800000Y-24250000D03*
X12800000Y-15750000D03*
%TD*%
D11*
%TO.C,C2*%
X5800000Y17525000D03*
X5800000Y19075000D03*
%TD*%
D19*
%TO.C,R4*%
X-21600000Y25675000D03*
X-21600000Y27325000D03*
%TD*%
%TO.C,R3*%
X-19000000Y25675000D03*
X-19000000Y27325000D03*
%TD*%
D28*
%TO.C,C8*%
X6325000Y-23100000D03*
X7875000Y-23100000D03*
%TD*%
D21*
%TO.C,R1*%
X-7325000Y37200000D03*
X-5675000Y37200000D03*
%TD*%
D29*
%TO.C,D1*%
X-2312500Y37200000D03*
X-3887500Y37200000D03*
%TD*%
D12*
%TO.C,C3*%
X8200000Y13075000D03*
X8200000Y11525000D03*
%TD*%
D30*
%TO.C,Q2*%
X3400000Y38450000D03*
X3400000Y40350000D03*
X1000000Y39400000D03*
%TD*%
D15*
%TO.C,D4*%
X-9350000Y-26500000D03*
X-6050000Y-26500000D03*
%TD*%
M02*
