%TF.GenerationSoftware,KiCad,Pcbnew,5.1.10*%
%TF.CreationDate,2021-11-15T18:45:38+01:00*%
%TF.ProjectId,main_pcb,6d61696e-5f70-4636-922e-6b696361645f,rev?*%
%TF.SameCoordinates,PX8f0d180PY5f5e100*%
%TF.FileFunction,Legend,Top*%
%TF.FilePolarity,Positive*%
%FSLAX46Y46*%
G04 Gerber Fmt 4.6, Leading zero omitted, Abs format (unit mm)*
G04 Created by KiCad (PCBNEW 5.1.10) date 2021-11-15 18:45:38*
%MOMM*%
%LPD*%
G01*
G04 APERTURE LIST*
%ADD10C,0.150000*%
%ADD11C,0.120000*%
G04 APERTURE END LIST*
D10*
X-5085715Y-4252380D02*
X-5085715Y-3252380D01*
X-4514286Y-4252380D01*
X-4514286Y-3252380D01*
X-3466667Y-4157142D02*
X-3514286Y-4204761D01*
X-3657143Y-4252380D01*
X-3752381Y-4252380D01*
X-3895239Y-4204761D01*
X-3990477Y-4109523D01*
X-4038096Y-4014285D01*
X-4085715Y-3823809D01*
X-4085715Y-3680952D01*
X-4038096Y-3490476D01*
X-3990477Y-3395238D01*
X-3895239Y-3300000D01*
X-3752381Y-3252380D01*
X-3657143Y-3252380D01*
X-3514286Y-3300000D01*
X-3466667Y-3347619D01*
X-9523810Y-752380D02*
X-9523810Y-1561904D01*
X-9476191Y-1657142D01*
X-9428572Y-1704761D01*
X-9333334Y-1752380D01*
X-9142858Y-1752380D01*
X-9047620Y-1704761D01*
X-9000000Y-1657142D01*
X-8952381Y-1561904D01*
X-8952381Y-752380D01*
X-8476191Y-1752380D02*
X-8476191Y-752380D01*
X-8095239Y-752380D01*
X-8000000Y-800000D01*
X-7952381Y-847619D01*
X-7904762Y-942857D01*
X-7904762Y-1085714D01*
X-7952381Y-1180952D01*
X-8000000Y-1228571D01*
X-8095239Y-1276190D01*
X-8476191Y-1276190D01*
X-7714286Y-1847619D02*
X-6952381Y-1847619D01*
X-6142858Y-1752380D02*
X-6476191Y-1276190D01*
X-6714286Y-1752380D02*
X-6714286Y-752380D01*
X-6333334Y-752380D01*
X-6238096Y-800000D01*
X-6190477Y-847619D01*
X-6142858Y-942857D01*
X-6142858Y-1085714D01*
X-6190477Y-1180952D01*
X-6238096Y-1228571D01*
X-6333334Y-1276190D01*
X-6714286Y-1276190D01*
X-5714286Y-1228571D02*
X-5380953Y-1228571D01*
X-5238096Y-1752380D02*
X-5714286Y-1752380D01*
X-5714286Y-752380D01*
X-5238096Y-752380D01*
X-4952381Y-752380D02*
X-4380953Y-752380D01*
X-4666667Y-1752380D02*
X-4666667Y-752380D01*
X-3857143Y-752380D02*
X-3666667Y-752380D01*
X-3571429Y-800000D01*
X-3476191Y-895238D01*
X-3428572Y-1085714D01*
X-3428572Y-1419047D01*
X-3476191Y-1609523D01*
X-3571429Y-1704761D01*
X-3666667Y-1752380D01*
X-3857143Y-1752380D01*
X-3952381Y-1704761D01*
X-4047620Y-1609523D01*
X-4095239Y-1419047D01*
X-4095239Y-1085714D01*
X-4047620Y-895238D01*
X-3952381Y-800000D01*
X-3857143Y-752380D01*
X-9423810Y1847620D02*
X-9423810Y1038096D01*
X-9376191Y942858D01*
X-9328572Y895239D01*
X-9233334Y847620D01*
X-9042858Y847620D01*
X-8947620Y895239D01*
X-8900000Y942858D01*
X-8852381Y1038096D01*
X-8852381Y1847620D01*
X-8376191Y847620D02*
X-8376191Y1847620D01*
X-7995239Y1847620D01*
X-7900000Y1800000D01*
X-7852381Y1752381D01*
X-7804762Y1657143D01*
X-7804762Y1514286D01*
X-7852381Y1419048D01*
X-7900000Y1371429D01*
X-7995239Y1323810D01*
X-8376191Y1323810D01*
X-7614286Y752381D02*
X-6852381Y752381D01*
X-6757143Y1847620D02*
X-6185715Y1847620D01*
X-6471429Y847620D02*
X-6471429Y1847620D01*
X-5947620Y1847620D02*
X-5280953Y847620D01*
X-5280953Y1847620D02*
X-5947620Y847620D01*
X-11200000Y3347620D02*
X-11200000Y4347620D01*
X-10866667Y3633334D01*
X-10533334Y4347620D01*
X-10533334Y3347620D01*
X-10104762Y3633334D02*
X-9628572Y3633334D01*
X-10200000Y3347620D02*
X-9866667Y4347620D01*
X-9533334Y3347620D01*
X-9247620Y3395239D02*
X-9104762Y3347620D01*
X-8866667Y3347620D01*
X-8771429Y3395239D01*
X-8723810Y3442858D01*
X-8676191Y3538096D01*
X-8676191Y3633334D01*
X-8723810Y3728572D01*
X-8771429Y3776191D01*
X-8866667Y3823810D01*
X-9057143Y3871429D01*
X-9152381Y3919048D01*
X-9200000Y3966667D01*
X-9247620Y4061905D01*
X-9247620Y4157143D01*
X-9200000Y4252381D01*
X-9152381Y4300000D01*
X-9057143Y4347620D01*
X-8819048Y4347620D01*
X-8676191Y4300000D01*
X-8390477Y4347620D02*
X-7819048Y4347620D01*
X-8104762Y3347620D02*
X-8104762Y4347620D01*
X-7485715Y3871429D02*
X-7152381Y3871429D01*
X-7009524Y3347620D02*
X-7485715Y3347620D01*
X-7485715Y4347620D01*
X-7009524Y4347620D01*
X-6009524Y3347620D02*
X-6342858Y3823810D01*
X-6580953Y3347620D02*
X-6580953Y4347620D01*
X-6200000Y4347620D01*
X-6104762Y4300000D01*
X-6057143Y4252381D01*
X-6009524Y4157143D01*
X-6009524Y4014286D01*
X-6057143Y3919048D01*
X-6104762Y3871429D01*
X-6200000Y3823810D01*
X-6580953Y3823810D01*
X-5819048Y3252381D02*
X-5057143Y3252381D01*
X-4628572Y4347620D02*
X-4438096Y4347620D01*
X-4342858Y4300000D01*
X-4247620Y4204762D01*
X-4200000Y4014286D01*
X-4200000Y3680953D01*
X-4247620Y3490477D01*
X-4342858Y3395239D01*
X-4438096Y3347620D01*
X-4628572Y3347620D01*
X-4723810Y3395239D01*
X-4819048Y3490477D01*
X-4866667Y3680953D01*
X-4866667Y4014286D01*
X-4819048Y4204762D01*
X-4723810Y4300000D01*
X-4628572Y4347620D01*
X-3771429Y3347620D02*
X-3771429Y4347620D01*
X-3200000Y3347620D01*
X-3200000Y4347620D01*
X4338095Y-3400000D02*
X4242857Y-3352380D01*
X4100000Y-3352380D01*
X3957142Y-3400000D01*
X3861904Y-3495238D01*
X3814285Y-3590476D01*
X3766666Y-3780952D01*
X3766666Y-3923809D01*
X3814285Y-4114285D01*
X3861904Y-4209523D01*
X3957142Y-4304761D01*
X4100000Y-4352380D01*
X4195238Y-4352380D01*
X4338095Y-4304761D01*
X4385714Y-4257142D01*
X4385714Y-3923809D01*
X4195238Y-3923809D01*
X4814285Y-4352380D02*
X4814285Y-3352380D01*
X5385714Y-4352380D01*
X5385714Y-3352380D01*
X5861904Y-4352380D02*
X5861904Y-3352380D01*
X6100000Y-3352380D01*
X6242857Y-3400000D01*
X6338095Y-3495238D01*
X6385714Y-3590476D01*
X6433333Y-3780952D01*
X6433333Y-3923809D01*
X6385714Y-4114285D01*
X6338095Y-4209523D01*
X6242857Y-4304761D01*
X6100000Y-4352380D01*
X5861904Y-4352380D01*
X3776190Y-1752380D02*
X3776190Y-752380D01*
X4014285Y-752380D01*
X4157142Y-800000D01*
X4252380Y-895238D01*
X4300000Y-990476D01*
X4347619Y-1180952D01*
X4347619Y-1323809D01*
X4300000Y-1514285D01*
X4252380Y-1609523D01*
X4157142Y-1704761D01*
X4014285Y-1752380D01*
X3776190Y-1752380D01*
X4776190Y-1752380D02*
X4776190Y-752380D01*
X5347619Y-1752380D01*
X5347619Y-752380D01*
X5585714Y-1847619D02*
X6347619Y-1847619D01*
X7157142Y-1752380D02*
X6823809Y-1276190D01*
X6585714Y-1752380D02*
X6585714Y-752380D01*
X6966666Y-752380D01*
X7061904Y-800000D01*
X7109523Y-847619D01*
X7157142Y-942857D01*
X7157142Y-1085714D01*
X7109523Y-1180952D01*
X7061904Y-1228571D01*
X6966666Y-1276190D01*
X6585714Y-1276190D01*
X7585714Y-1228571D02*
X7919047Y-1228571D01*
X8061904Y-1752380D02*
X7585714Y-1752380D01*
X7585714Y-752380D01*
X8061904Y-752380D01*
X8347619Y-752380D02*
X8919047Y-752380D01*
X8633333Y-1752380D02*
X8633333Y-752380D01*
X9442857Y-752380D02*
X9633333Y-752380D01*
X9728571Y-800000D01*
X9823809Y-895238D01*
X9871428Y-1085714D01*
X9871428Y-1419047D01*
X9823809Y-1609523D01*
X9728571Y-1704761D01*
X9633333Y-1752380D01*
X9442857Y-1752380D01*
X9347619Y-1704761D01*
X9252380Y-1609523D01*
X9204761Y-1419047D01*
X9204761Y-1085714D01*
X9252380Y-895238D01*
X9347619Y-800000D01*
X9442857Y-752380D01*
X3676190Y847620D02*
X3676190Y1847620D01*
X3914285Y1847620D01*
X4057142Y1800000D01*
X4152380Y1704762D01*
X4200000Y1609524D01*
X4247619Y1419048D01*
X4247619Y1276191D01*
X4200000Y1085715D01*
X4152380Y990477D01*
X4057142Y895239D01*
X3914285Y847620D01*
X3676190Y847620D01*
X4676190Y847620D02*
X4676190Y1847620D01*
X5247619Y847620D01*
X5247619Y1847620D01*
X5485714Y752381D02*
X6247619Y752381D01*
X6342857Y1847620D02*
X6914285Y1847620D01*
X6628571Y847620D02*
X6628571Y1847620D01*
X7152380Y1847620D02*
X7819047Y847620D01*
X7819047Y1847620D02*
X7152380Y847620D01*
X4776190Y4347620D02*
X5347619Y4347620D01*
X5061904Y3347620D02*
X5061904Y4347620D01*
X6252380Y3347620D02*
X5919047Y3823810D01*
X5680952Y3347620D02*
X5680952Y4347620D01*
X6061904Y4347620D01*
X6157142Y4300000D01*
X6204761Y4252381D01*
X6252380Y4157143D01*
X6252380Y4014286D01*
X6204761Y3919048D01*
X6157142Y3871429D01*
X6061904Y3823810D01*
X5680952Y3823810D01*
X6680952Y3347620D02*
X6680952Y4347620D01*
X7680952Y4300000D02*
X7585714Y4347620D01*
X7442857Y4347620D01*
X7300000Y4300000D01*
X7204761Y4204762D01*
X7157142Y4109524D01*
X7109523Y3919048D01*
X7109523Y3776191D01*
X7157142Y3585715D01*
X7204761Y3490477D01*
X7300000Y3395239D01*
X7442857Y3347620D01*
X7538095Y3347620D01*
X7680952Y3395239D01*
X7728571Y3442858D01*
X7728571Y3776191D01*
X7538095Y3776191D01*
X37838095Y-31500000D02*
X37742857Y-31452380D01*
X37600000Y-31452380D01*
X37457142Y-31500000D01*
X37361904Y-31595238D01*
X37314285Y-31690476D01*
X37266666Y-31880952D01*
X37266666Y-32023809D01*
X37314285Y-32214285D01*
X37361904Y-32309523D01*
X37457142Y-32404761D01*
X37600000Y-32452380D01*
X37695238Y-32452380D01*
X37838095Y-32404761D01*
X37885714Y-32357142D01*
X37885714Y-32023809D01*
X37695238Y-32023809D01*
X38314285Y-32452380D02*
X38314285Y-31452380D01*
X38885714Y-32452380D01*
X38885714Y-31452380D01*
X39361904Y-32452380D02*
X39361904Y-31452380D01*
X39600000Y-31452380D01*
X39742857Y-31500000D01*
X39838095Y-31595238D01*
X39885714Y-31690476D01*
X39933333Y-31880952D01*
X39933333Y-32023809D01*
X39885714Y-32214285D01*
X39838095Y-32309523D01*
X39742857Y-32404761D01*
X39600000Y-32452380D01*
X39361904Y-32452380D01*
X37838095Y-29000000D02*
X37742857Y-28952380D01*
X37600000Y-28952380D01*
X37457142Y-29000000D01*
X37361904Y-29095238D01*
X37314285Y-29190476D01*
X37266666Y-29380952D01*
X37266666Y-29523809D01*
X37314285Y-29714285D01*
X37361904Y-29809523D01*
X37457142Y-29904761D01*
X37600000Y-29952380D01*
X37695238Y-29952380D01*
X37838095Y-29904761D01*
X37885714Y-29857142D01*
X37885714Y-29523809D01*
X37695238Y-29523809D01*
X38314285Y-29952380D02*
X38314285Y-28952380D01*
X38885714Y-29952380D01*
X38885714Y-28952380D01*
X39361904Y-29952380D02*
X39361904Y-28952380D01*
X39600000Y-28952380D01*
X39742857Y-29000000D01*
X39838095Y-29095238D01*
X39885714Y-29190476D01*
X39933333Y-29380952D01*
X39933333Y-29523809D01*
X39885714Y-29714285D01*
X39838095Y-29809523D01*
X39742857Y-29904761D01*
X39600000Y-29952380D01*
X39361904Y-29952380D01*
X37838095Y-26400000D02*
X37742857Y-26352380D01*
X37600000Y-26352380D01*
X37457142Y-26400000D01*
X37361904Y-26495238D01*
X37314285Y-26590476D01*
X37266666Y-26780952D01*
X37266666Y-26923809D01*
X37314285Y-27114285D01*
X37361904Y-27209523D01*
X37457142Y-27304761D01*
X37600000Y-27352380D01*
X37695238Y-27352380D01*
X37838095Y-27304761D01*
X37885714Y-27257142D01*
X37885714Y-26923809D01*
X37695238Y-26923809D01*
X38314285Y-27352380D02*
X38314285Y-26352380D01*
X38885714Y-27352380D01*
X38885714Y-26352380D01*
X39361904Y-27352380D02*
X39361904Y-26352380D01*
X39600000Y-26352380D01*
X39742857Y-26400000D01*
X39838095Y-26495238D01*
X39885714Y-26590476D01*
X39933333Y-26780952D01*
X39933333Y-26923809D01*
X39885714Y-27114285D01*
X39838095Y-27209523D01*
X39742857Y-27304761D01*
X39600000Y-27352380D01*
X39361904Y-27352380D01*
X36242857Y-24752380D02*
X36242857Y-23752380D01*
X36623809Y-23752380D01*
X36719047Y-23800000D01*
X36766666Y-23847619D01*
X36814285Y-23942857D01*
X36814285Y-24085714D01*
X36766666Y-24180952D01*
X36719047Y-24228571D01*
X36623809Y-24276190D01*
X36242857Y-24276190D01*
X37242857Y-24752380D02*
X37242857Y-23752380D01*
X37480952Y-24847619D02*
X38242857Y-24847619D01*
X39052380Y-24752380D02*
X38719047Y-24276190D01*
X38480952Y-24752380D02*
X38480952Y-23752380D01*
X38861904Y-23752380D01*
X38957142Y-23800000D01*
X39004761Y-23847619D01*
X39052380Y-23942857D01*
X39052380Y-24085714D01*
X39004761Y-24180952D01*
X38957142Y-24228571D01*
X38861904Y-24276190D01*
X38480952Y-24276190D01*
X39385714Y-23752380D02*
X40052380Y-24752380D01*
X40052380Y-23752380D02*
X39385714Y-24752380D01*
X40433333Y-24752380D02*
X40433333Y-23752380D01*
X40671428Y-23752380D01*
X40814285Y-23800000D01*
X40909523Y-23895238D01*
X40957142Y-23990476D01*
X41004761Y-24180952D01*
X41004761Y-24323809D01*
X40957142Y-24514285D01*
X40909523Y-24609523D01*
X40814285Y-24704761D01*
X40671428Y-24752380D01*
X40433333Y-24752380D01*
X36361904Y-22252380D02*
X36361904Y-21252380D01*
X36742857Y-21252380D01*
X36838095Y-21300000D01*
X36885714Y-21347619D01*
X36933333Y-21442857D01*
X36933333Y-21585714D01*
X36885714Y-21680952D01*
X36838095Y-21728571D01*
X36742857Y-21776190D01*
X36361904Y-21776190D01*
X37361904Y-22252380D02*
X37361904Y-21252380D01*
X37600000Y-22347619D02*
X38361904Y-22347619D01*
X38457142Y-21252380D02*
X39028571Y-21252380D01*
X38742857Y-22252380D02*
X38742857Y-21252380D01*
X39266666Y-21252380D02*
X39933333Y-22252380D01*
X39933333Y-21252380D02*
X39266666Y-22252380D01*
X40314285Y-22252380D02*
X40314285Y-21252380D01*
X40552380Y-21252380D01*
X40695238Y-21300000D01*
X40790476Y-21395238D01*
X40838095Y-21490476D01*
X40885714Y-21680952D01*
X40885714Y-21823809D01*
X40838095Y-22014285D01*
X40790476Y-22109523D01*
X40695238Y-22204761D01*
X40552380Y-22252380D01*
X40314285Y-22252380D01*
X37361904Y-19752380D02*
X37361904Y-18752380D01*
X37742857Y-18752380D01*
X37838095Y-18800000D01*
X37885714Y-18847619D01*
X37933333Y-18942857D01*
X37933333Y-19085714D01*
X37885714Y-19180952D01*
X37838095Y-19228571D01*
X37742857Y-19276190D01*
X37361904Y-19276190D01*
X38361904Y-19752380D02*
X38361904Y-18752380D01*
X38600000Y-18752380D01*
X38742857Y-18800000D01*
X38838095Y-18895238D01*
X38885714Y-18990476D01*
X38933333Y-19180952D01*
X38933333Y-19323809D01*
X38885714Y-19514285D01*
X38838095Y-19609523D01*
X38742857Y-19704761D01*
X38600000Y-19752380D01*
X38361904Y-19752380D01*
X39314285Y-18847619D02*
X39361904Y-18800000D01*
X39457142Y-18752380D01*
X39695238Y-18752380D01*
X39790476Y-18800000D01*
X39838095Y-18847619D01*
X39885714Y-18942857D01*
X39885714Y-19038095D01*
X39838095Y-19180952D01*
X39266666Y-19752380D01*
X39885714Y-19752380D01*
X36457142Y-16152380D02*
X36457142Y-16961904D01*
X36504761Y-17057142D01*
X36552380Y-17104761D01*
X36647619Y-17152380D01*
X36838095Y-17152380D01*
X36933333Y-17104761D01*
X36980952Y-17057142D01*
X37028571Y-16961904D01*
X37028571Y-16152380D01*
X38076190Y-17057142D02*
X38028571Y-17104761D01*
X37885714Y-17152380D01*
X37790476Y-17152380D01*
X37647619Y-17104761D01*
X37552380Y-17009523D01*
X37504761Y-16914285D01*
X37457142Y-16723809D01*
X37457142Y-16580952D01*
X37504761Y-16390476D01*
X37552380Y-16295238D01*
X37647619Y-16200000D01*
X37790476Y-16152380D01*
X37885714Y-16152380D01*
X38028571Y-16200000D01*
X38076190Y-16247619D01*
X38266666Y-17247619D02*
X39028571Y-17247619D01*
X39838095Y-17152380D02*
X39504761Y-16676190D01*
X39266666Y-17152380D02*
X39266666Y-16152380D01*
X39647619Y-16152380D01*
X39742857Y-16200000D01*
X39790476Y-16247619D01*
X39838095Y-16342857D01*
X39838095Y-16485714D01*
X39790476Y-16580952D01*
X39742857Y-16628571D01*
X39647619Y-16676190D01*
X39266666Y-16676190D01*
X40171428Y-16152380D02*
X40838095Y-17152380D01*
X40838095Y-16152380D02*
X40171428Y-17152380D01*
X36576190Y-13652380D02*
X36576190Y-14461904D01*
X36623809Y-14557142D01*
X36671428Y-14604761D01*
X36766666Y-14652380D01*
X36957142Y-14652380D01*
X37052380Y-14604761D01*
X37100000Y-14557142D01*
X37147619Y-14461904D01*
X37147619Y-13652380D01*
X38195238Y-14557142D02*
X38147619Y-14604761D01*
X38004761Y-14652380D01*
X37909523Y-14652380D01*
X37766666Y-14604761D01*
X37671428Y-14509523D01*
X37623809Y-14414285D01*
X37576190Y-14223809D01*
X37576190Y-14080952D01*
X37623809Y-13890476D01*
X37671428Y-13795238D01*
X37766666Y-13700000D01*
X37909523Y-13652380D01*
X38004761Y-13652380D01*
X38147619Y-13700000D01*
X38195238Y-13747619D01*
X38385714Y-14747619D02*
X39147619Y-14747619D01*
X39242857Y-13652380D02*
X39814285Y-13652380D01*
X39528571Y-14652380D02*
X39528571Y-13652380D01*
X40052380Y-13652380D02*
X40719047Y-14652380D01*
X40719047Y-13652380D02*
X40052380Y-14652380D01*
X37314285Y-12004761D02*
X37457142Y-12052380D01*
X37695238Y-12052380D01*
X37790476Y-12004761D01*
X37838095Y-11957142D01*
X37885714Y-11861904D01*
X37885714Y-11766666D01*
X37838095Y-11671428D01*
X37790476Y-11623809D01*
X37695238Y-11576190D01*
X37504761Y-11528571D01*
X37409523Y-11480952D01*
X37361904Y-11433333D01*
X37314285Y-11338095D01*
X37314285Y-11242857D01*
X37361904Y-11147619D01*
X37409523Y-11100000D01*
X37504761Y-11052380D01*
X37742857Y-11052380D01*
X37885714Y-11100000D01*
X38885714Y-11957142D02*
X38838095Y-12004761D01*
X38695238Y-12052380D01*
X38600000Y-12052380D01*
X38457142Y-12004761D01*
X38361904Y-11909523D01*
X38314285Y-11814285D01*
X38266666Y-11623809D01*
X38266666Y-11480952D01*
X38314285Y-11290476D01*
X38361904Y-11195238D01*
X38457142Y-11100000D01*
X38600000Y-11052380D01*
X38695238Y-11052380D01*
X38838095Y-11100000D01*
X38885714Y-11147619D01*
X39314285Y-12052380D02*
X39314285Y-11052380D01*
X39885714Y-12052380D02*
X39457142Y-11480952D01*
X39885714Y-11052380D02*
X39314285Y-11623809D01*
X37028571Y-9552380D02*
X37028571Y-8552380D01*
X37361904Y-9266666D01*
X37695238Y-8552380D01*
X37695238Y-9552380D01*
X38171428Y-9552380D02*
X38171428Y-8552380D01*
X38600000Y-9504761D02*
X38742857Y-9552380D01*
X38980952Y-9552380D01*
X39076190Y-9504761D01*
X39123809Y-9457142D01*
X39171428Y-9361904D01*
X39171428Y-9266666D01*
X39123809Y-9171428D01*
X39076190Y-9123809D01*
X38980952Y-9076190D01*
X38790476Y-9028571D01*
X38695238Y-8980952D01*
X38647619Y-8933333D01*
X38600000Y-8838095D01*
X38600000Y-8742857D01*
X38647619Y-8647619D01*
X38695238Y-8600000D01*
X38790476Y-8552380D01*
X39028571Y-8552380D01*
X39171428Y-8600000D01*
X39790476Y-8552380D02*
X39980952Y-8552380D01*
X40076190Y-8600000D01*
X40171428Y-8695238D01*
X40219047Y-8885714D01*
X40219047Y-9219047D01*
X40171428Y-9409523D01*
X40076190Y-9504761D01*
X39980952Y-9552380D01*
X39790476Y-9552380D01*
X39695238Y-9504761D01*
X39600000Y-9409523D01*
X39552380Y-9219047D01*
X39552380Y-8885714D01*
X39600000Y-8695238D01*
X39695238Y-8600000D01*
X39790476Y-8552380D01*
X37028571Y-6952380D02*
X37028571Y-5952380D01*
X37361904Y-6666666D01*
X37695238Y-5952380D01*
X37695238Y-6952380D01*
X38361904Y-5952380D02*
X38552380Y-5952380D01*
X38647619Y-6000000D01*
X38742857Y-6095238D01*
X38790476Y-6285714D01*
X38790476Y-6619047D01*
X38742857Y-6809523D01*
X38647619Y-6904761D01*
X38552380Y-6952380D01*
X38361904Y-6952380D01*
X38266666Y-6904761D01*
X38171428Y-6809523D01*
X38123809Y-6619047D01*
X38123809Y-6285714D01*
X38171428Y-6095238D01*
X38266666Y-6000000D01*
X38361904Y-5952380D01*
X39171428Y-6904761D02*
X39314285Y-6952380D01*
X39552380Y-6952380D01*
X39647619Y-6904761D01*
X39695238Y-6857142D01*
X39742857Y-6761904D01*
X39742857Y-6666666D01*
X39695238Y-6571428D01*
X39647619Y-6523809D01*
X39552380Y-6476190D01*
X39361904Y-6428571D01*
X39266666Y-6380952D01*
X39219047Y-6333333D01*
X39171428Y-6238095D01*
X39171428Y-6142857D01*
X39219047Y-6047619D01*
X39266666Y-6000000D01*
X39361904Y-5952380D01*
X39600000Y-5952380D01*
X39742857Y-6000000D01*
X40171428Y-6952380D02*
X40171428Y-5952380D01*
X37838095Y-4404761D02*
X37980952Y-4452380D01*
X38219047Y-4452380D01*
X38314285Y-4404761D01*
X38361904Y-4357142D01*
X38409523Y-4261904D01*
X38409523Y-4166666D01*
X38361904Y-4071428D01*
X38314285Y-4023809D01*
X38219047Y-3976190D01*
X38028571Y-3928571D01*
X37933333Y-3880952D01*
X37885714Y-3833333D01*
X37838095Y-3738095D01*
X37838095Y-3642857D01*
X37885714Y-3547619D01*
X37933333Y-3500000D01*
X38028571Y-3452380D01*
X38266666Y-3452380D01*
X38409523Y-3500000D01*
X38790476Y-4404761D02*
X38933333Y-4452380D01*
X39171428Y-4452380D01*
X39266666Y-4404761D01*
X39314285Y-4357142D01*
X39361904Y-4261904D01*
X39361904Y-4166666D01*
X39314285Y-4071428D01*
X39266666Y-4023809D01*
X39171428Y-3976190D01*
X38980952Y-3928571D01*
X38885714Y-3880952D01*
X38838095Y-3833333D01*
X38790476Y-3738095D01*
X38790476Y-3642857D01*
X38838095Y-3547619D01*
X38885714Y-3500000D01*
X38980952Y-3452380D01*
X39219047Y-3452380D01*
X39361904Y-3500000D01*
D11*
X-1000000Y-23000000D02*
X1000000Y-23000000D01*
X0Y-22000000D02*
X0Y-24000000D01*
%TO.C,Q2*%
X1125000Y37790000D02*
X1125000Y38700000D01*
X1125000Y40100000D02*
X1125000Y41010000D01*
X3700000Y37790000D02*
X1125000Y37790000D01*
X3275000Y41010000D02*
X1125000Y41010000D01*
%TO.C,R5*%
X-7537258Y-26722500D02*
X-7062742Y-26722500D01*
X-7537258Y-25677500D02*
X-7062742Y-25677500D01*
%TO.C,J9*%
X-21730000Y-42670000D02*
X-19070000Y-42670000D01*
X-21730000Y-40070000D02*
X-21730000Y-42670000D01*
X-19070000Y-40070000D02*
X-19070000Y-42670000D01*
X-21730000Y-40070000D02*
X-19070000Y-40070000D01*
X-21730000Y-38800000D02*
X-21730000Y-37470000D01*
X-21730000Y-37470000D02*
X-20400000Y-37470000D01*
%TO.C,R4*%
X-22122500Y26262742D02*
X-22122500Y26737258D01*
X-21077500Y26262742D02*
X-21077500Y26737258D01*
%TO.C,R3*%
X-19522500Y26262742D02*
X-19522500Y26737258D01*
X-18477500Y26262742D02*
X-18477500Y26737258D01*
%TO.C,J8*%
X46680000Y12500000D02*
X45680000Y12000000D01*
X46680000Y11500000D02*
X46680000Y12500000D01*
X45680000Y12000000D02*
X46680000Y11500000D01*
X43980000Y16590000D02*
X45290000Y16590000D01*
X43980000Y16590000D02*
X43980000Y16590000D01*
X43980000Y20990000D02*
X43980000Y16590000D01*
X37480000Y20990000D02*
X43980000Y20990000D01*
X37480000Y8090000D02*
X37480000Y20990000D01*
X43980000Y8090000D02*
X37480000Y8090000D01*
X43980000Y12490000D02*
X43980000Y8090000D01*
X45290000Y12490000D02*
X43980000Y12490000D01*
X45290000Y22290000D02*
X45290000Y6790000D01*
X36170000Y22290000D02*
X45290000Y22290000D01*
X36170000Y6790000D02*
X36170000Y22290000D01*
X45290000Y6790000D02*
X36170000Y6790000D01*
%TO.C,C15*%
X-23310000Y41888748D02*
X-23310000Y43311252D01*
X-21490000Y41888748D02*
X-21490000Y43311252D01*
%TO.C,C14*%
X-9390000Y42011252D02*
X-9390000Y40588748D01*
X-11210000Y42011252D02*
X-11210000Y40588748D01*
%TO.C,J4*%
X-25460000Y28670000D02*
X-25460000Y30000000D01*
X-24130000Y28670000D02*
X-25460000Y28670000D01*
X-25460000Y31270000D02*
X-25460000Y33870000D01*
X-22860000Y31270000D02*
X-25460000Y31270000D01*
X-22860000Y28670000D02*
X-22860000Y31270000D01*
X-25460000Y33870000D02*
X25460000Y33870000D01*
X-22860000Y28670000D02*
X25460000Y28670000D01*
X25460000Y28670000D02*
X25460000Y33870000D01*
%TO.C,Y2*%
X15350000Y-26700000D02*
X15350000Y-14100000D01*
X10250000Y-26700000D02*
X15350000Y-26700000D01*
X10250000Y-14100000D02*
X10250000Y-26700000D01*
%TO.C,Y1*%
X14250000Y9600000D02*
X14250000Y22200000D01*
X9150000Y9600000D02*
X14250000Y9600000D01*
X9150000Y22200000D02*
X9150000Y9600000D01*
%TO.C,U4*%
X-12200000Y37890000D02*
X-18210000Y37890000D01*
X-14450000Y44710000D02*
X-18210000Y44710000D01*
X-18210000Y37890000D02*
X-18210000Y39150000D01*
X-18210000Y44710000D02*
X-18210000Y43450000D01*
D10*
%TO.C,U3*%
X3825000Y-26100000D02*
X5250000Y-26100000D01*
X-3425000Y-26325000D02*
X-3100000Y-26325000D01*
X-3425000Y-19075000D02*
X-3100000Y-19075000D01*
X3825000Y-19075000D02*
X3500000Y-19075000D01*
X3825000Y-26325000D02*
X3500000Y-26325000D01*
X3825000Y-19075000D02*
X3825000Y-19400000D01*
X-3425000Y-19075000D02*
X-3425000Y-19400000D01*
X-3425000Y-26325000D02*
X-3425000Y-26000000D01*
X3825000Y-26325000D02*
X3825000Y-26100000D01*
D11*
%TO.C,U1*%
X3310000Y12315000D02*
X4600000Y12315000D01*
X3310000Y12040000D02*
X3310000Y12315000D01*
X1000000Y12040000D02*
X3310000Y12040000D01*
X-1310000Y12040000D02*
X-1310000Y12315000D01*
X1000000Y12040000D02*
X-1310000Y12040000D01*
X3310000Y21960000D02*
X3310000Y21685000D01*
X1000000Y21960000D02*
X3310000Y21960000D01*
X-1310000Y21960000D02*
X-1310000Y21685000D01*
X1000000Y21960000D02*
X-1310000Y21960000D01*
%TO.C,SW1*%
X-36250000Y26000000D02*
X-36250000Y27500000D01*
X-37500000Y30000000D02*
X-42000000Y30000000D01*
X-43250000Y27500000D02*
X-43250000Y26000000D01*
X-42000000Y23500000D02*
X-37500000Y23500000D01*
%TO.C,R19*%
X-3122500Y-40762742D02*
X-3122500Y-41237258D01*
X-2077500Y-40762742D02*
X-2077500Y-41237258D01*
%TO.C,R18*%
X40462742Y23177500D02*
X40937258Y23177500D01*
X40462742Y24222500D02*
X40937258Y24222500D01*
%TO.C,R15*%
X-4362742Y16522500D02*
X-4837258Y16522500D01*
X-4362742Y15477500D02*
X-4837258Y15477500D01*
%TO.C,R14*%
X5377500Y12837258D02*
X5377500Y12362742D01*
X6422500Y12837258D02*
X6422500Y12362742D01*
%TO.C,R13*%
X1362742Y10377500D02*
X1837258Y10377500D01*
X1362742Y11422500D02*
X1837258Y11422500D01*
%TO.C,R12*%
X-4662742Y21822500D02*
X-5137258Y21822500D01*
X-4662742Y20777500D02*
X-5137258Y20777500D01*
%TO.C,R11*%
X-30922500Y33637258D02*
X-30922500Y33162742D01*
X-29877500Y33637258D02*
X-29877500Y33162742D01*
%TO.C,R10*%
X-30922500Y36937258D02*
X-30922500Y36462742D01*
X-29877500Y36937258D02*
X-29877500Y36462742D01*
%TO.C,R9*%
X5662742Y44377500D02*
X6137258Y44377500D01*
X5662742Y45422500D02*
X6137258Y45422500D01*
%TO.C,R8*%
X24977500Y26737258D02*
X24977500Y26262742D01*
X26022500Y26737258D02*
X26022500Y26262742D01*
%TO.C,R7*%
X22377500Y26737258D02*
X22377500Y26262742D01*
X23422500Y26737258D02*
X23422500Y26262742D01*
%TO.C,R6*%
X6122500Y41762742D02*
X6122500Y42237258D01*
X5077500Y41762742D02*
X5077500Y42237258D01*
%TO.C,R2*%
X-14962742Y27522500D02*
X-15437258Y27522500D01*
X-14962742Y26477500D02*
X-15437258Y26477500D01*
%TO.C,R1*%
X-6737258Y36677500D02*
X-6262742Y36677500D01*
X-6737258Y37722500D02*
X-6262742Y37722500D01*
%TO.C,Q1*%
X3160000Y41720000D02*
X1700000Y41720000D01*
X3160000Y44880000D02*
X1000000Y44880000D01*
X3160000Y44880000D02*
X3160000Y43950000D01*
X3160000Y41720000D02*
X3160000Y42650000D01*
%TO.C,J6*%
X30400000Y-30400000D02*
X31730000Y-30400000D01*
X30400000Y-31730000D02*
X30400000Y-30400000D01*
X33000000Y-30400000D02*
X35600000Y-30400000D01*
X33000000Y-33000000D02*
X33000000Y-30400000D01*
X30400000Y-33000000D02*
X33000000Y-33000000D01*
X35600000Y-30400000D02*
X35600000Y-35600000D01*
X30400000Y-33000000D02*
X30400000Y-35600000D01*
X30400000Y-35600000D02*
X35600000Y-35600000D01*
%TO.C,J5*%
X30400000Y530000D02*
X31730000Y530000D01*
X30400000Y-800000D02*
X30400000Y530000D01*
X33000000Y530000D02*
X35600000Y530000D01*
X33000000Y-2070000D02*
X33000000Y530000D01*
X30400000Y-2070000D02*
X33000000Y-2070000D01*
X35600000Y530000D02*
X35600000Y-4670000D01*
X30400000Y-2070000D02*
X30400000Y-4670000D01*
X30400000Y-4670000D02*
X35600000Y-4670000D01*
%TO.C,J3*%
X-35600000Y-30400000D02*
X-34270000Y-30400000D01*
X-35600000Y-31730000D02*
X-35600000Y-30400000D01*
X-33000000Y-30400000D02*
X-30400000Y-30400000D01*
X-33000000Y-33000000D02*
X-33000000Y-30400000D01*
X-35600000Y-33000000D02*
X-33000000Y-33000000D01*
X-30400000Y-30400000D02*
X-30400000Y-35600000D01*
X-35600000Y-33000000D02*
X-35600000Y-35600000D01*
X-35600000Y-35600000D02*
X-30400000Y-35600000D01*
%TO.C,J2*%
X-35600000Y600000D02*
X-34270000Y600000D01*
X-35600000Y-730000D02*
X-35600000Y600000D01*
X-33000000Y600000D02*
X-30400000Y600000D01*
X-33000000Y-2000000D02*
X-33000000Y600000D01*
X-35600000Y-2000000D02*
X-33000000Y-2000000D01*
X-30400000Y600000D02*
X-30400000Y-4600000D01*
X-35600000Y-2000000D02*
X-35600000Y-4600000D01*
X-35600000Y-4600000D02*
X-30400000Y-4600000D01*
%TO.C,J1*%
X41670000Y-2670000D02*
X43000000Y-2670000D01*
X41670000Y-4000000D02*
X41670000Y-2670000D01*
X41670000Y-5270000D02*
X44330000Y-5270000D01*
X44330000Y-5270000D02*
X44330000Y-33270000D01*
X41670000Y-5270000D02*
X41670000Y-33270000D01*
X41670000Y-33270000D02*
X44330000Y-33270000D01*
%TO.C,F1*%
X6529969Y36690000D02*
X9070031Y36690000D01*
X6529969Y40110000D02*
X9070031Y40110000D01*
%TO.C,D3*%
X-1865000Y-45785000D02*
X-1865000Y-43500000D01*
X-3335000Y-45785000D02*
X-1865000Y-45785000D01*
X-3335000Y-43500000D02*
X-3335000Y-45785000D01*
%TO.C,D2*%
X11050000Y41800000D02*
X7150000Y41800000D01*
X11050000Y43800000D02*
X7150000Y43800000D01*
X11050000Y41800000D02*
X11050000Y43800000D01*
%TO.C,D1*%
X-1615000Y37935000D02*
X-3900000Y37935000D01*
X-1615000Y36465000D02*
X-1615000Y37935000D01*
X-3900000Y36465000D02*
X-1615000Y36465000D01*
%TO.C,C13*%
X8790000Y-15659420D02*
X8790000Y-15940580D01*
X9810000Y-15659420D02*
X9810000Y-15940580D01*
%TO.C,C12*%
X9910000Y-24340580D02*
X9910000Y-24059420D01*
X8890000Y-24340580D02*
X8890000Y-24059420D01*
%TO.C,C8*%
X6959420Y-23610000D02*
X7240580Y-23610000D01*
X6959420Y-22590000D02*
X7240580Y-22590000D01*
%TO.C,C7*%
X-7159420Y-20190000D02*
X-7440580Y-20190000D01*
X-7159420Y-21210000D02*
X-7440580Y-21210000D01*
%TO.C,C6*%
X-7159420Y-21790000D02*
X-7440580Y-21790000D01*
X-7159420Y-22810000D02*
X-7440580Y-22810000D01*
%TO.C,C4*%
X8710000Y20159420D02*
X8710000Y20440580D01*
X7690000Y20159420D02*
X7690000Y20440580D01*
%TO.C,C3*%
X7690000Y12440580D02*
X7690000Y12159420D01*
X8710000Y12440580D02*
X8710000Y12159420D01*
%TO.C,C2*%
X6310000Y18159420D02*
X6310000Y18440580D01*
X5290000Y18159420D02*
X5290000Y18440580D01*
%TO.C,C1*%
X-7159420Y-23390000D02*
X-7440580Y-23390000D01*
X-7159420Y-24410000D02*
X-7440580Y-24410000D01*
%TO.C,BT1*%
X12270000Y37070000D02*
X12270000Y38400000D01*
X13600000Y37070000D02*
X12270000Y37070000D01*
X12270000Y39670000D02*
X12270000Y42270000D01*
X14870000Y39670000D02*
X12270000Y39670000D01*
X14870000Y37070000D02*
X14870000Y39670000D01*
X12270000Y42270000D02*
X14930000Y42270000D01*
X14870000Y37070000D02*
X14930000Y37070000D01*
X14930000Y37070000D02*
X14930000Y42270000D01*
%TO.C,Q2*%
D10*
X2104761Y36352381D02*
X2009523Y36400000D01*
X1914285Y36495239D01*
X1771428Y36638096D01*
X1676190Y36685715D01*
X1580952Y36685715D01*
X1628571Y36447620D02*
X1533333Y36495239D01*
X1438095Y36590477D01*
X1390476Y36780953D01*
X1390476Y37114286D01*
X1438095Y37304762D01*
X1533333Y37400000D01*
X1628571Y37447620D01*
X1819047Y37447620D01*
X1914285Y37400000D01*
X2009523Y37304762D01*
X2057142Y37114286D01*
X2057142Y36780953D01*
X2009523Y36590477D01*
X1914285Y36495239D01*
X1819047Y36447620D01*
X1628571Y36447620D01*
X2438095Y37352381D02*
X2485714Y37400000D01*
X2580952Y37447620D01*
X2819047Y37447620D01*
X2914285Y37400000D01*
X2961904Y37352381D01*
X3009523Y37257143D01*
X3009523Y37161905D01*
X2961904Y37019048D01*
X2390476Y36447620D01*
X3009523Y36447620D01*
%TO.C,R5*%
X-7466667Y-28152380D02*
X-7800000Y-27676190D01*
X-8038096Y-28152380D02*
X-8038096Y-27152380D01*
X-7657143Y-27152380D01*
X-7561905Y-27200000D01*
X-7514286Y-27247619D01*
X-7466667Y-27342857D01*
X-7466667Y-27485714D01*
X-7514286Y-27580952D01*
X-7561905Y-27628571D01*
X-7657143Y-27676190D01*
X-8038096Y-27676190D01*
X-6561905Y-27152380D02*
X-7038096Y-27152380D01*
X-7085715Y-27628571D01*
X-7038096Y-27580952D01*
X-6942858Y-27533333D01*
X-6704762Y-27533333D01*
X-6609524Y-27580952D01*
X-6561905Y-27628571D01*
X-6514286Y-27723809D01*
X-6514286Y-27961904D01*
X-6561905Y-28057142D01*
X-6609524Y-28104761D01*
X-6704762Y-28152380D01*
X-6942858Y-28152380D01*
X-7038096Y-28104761D01*
X-7085715Y-28057142D01*
%TO.C,J9*%
X-20733334Y-35922380D02*
X-20733334Y-36636666D01*
X-20780953Y-36779523D01*
X-20876191Y-36874761D01*
X-21019048Y-36922380D01*
X-21114286Y-36922380D01*
X-20209524Y-36922380D02*
X-20019048Y-36922380D01*
X-19923810Y-36874761D01*
X-19876191Y-36827142D01*
X-19780953Y-36684285D01*
X-19733334Y-36493809D01*
X-19733334Y-36112857D01*
X-19780953Y-36017619D01*
X-19828572Y-35970000D01*
X-19923810Y-35922380D01*
X-20114286Y-35922380D01*
X-20209524Y-35970000D01*
X-20257143Y-36017619D01*
X-20304762Y-36112857D01*
X-20304762Y-36350952D01*
X-20257143Y-36446190D01*
X-20209524Y-36493809D01*
X-20114286Y-36541428D01*
X-19923810Y-36541428D01*
X-19828572Y-36493809D01*
X-19780953Y-36446190D01*
X-19733334Y-36350952D01*
%TO.C,R4*%
X-22547620Y26333334D02*
X-23023810Y26000000D01*
X-22547620Y25761905D02*
X-23547620Y25761905D01*
X-23547620Y26142858D01*
X-23500000Y26238096D01*
X-23452381Y26285715D01*
X-23357143Y26333334D01*
X-23214286Y26333334D01*
X-23119048Y26285715D01*
X-23071429Y26238096D01*
X-23023810Y26142858D01*
X-23023810Y25761905D01*
X-23214286Y27190477D02*
X-22547620Y27190477D01*
X-23595239Y26952381D02*
X-22880953Y26714286D01*
X-22880953Y27333334D01*
%TO.C,R3*%
X-17047620Y26333334D02*
X-17523810Y26000000D01*
X-17047620Y25761905D02*
X-18047620Y25761905D01*
X-18047620Y26142858D01*
X-18000000Y26238096D01*
X-17952381Y26285715D01*
X-17857143Y26333334D01*
X-17714286Y26333334D01*
X-17619048Y26285715D01*
X-17571429Y26238096D01*
X-17523810Y26142858D01*
X-17523810Y25761905D01*
X-18047620Y26666667D02*
X-18047620Y27285715D01*
X-17666667Y26952381D01*
X-17666667Y27095239D01*
X-17619048Y27190477D01*
X-17571429Y27238096D01*
X-17476191Y27285715D01*
X-17238096Y27285715D01*
X-17142858Y27238096D01*
X-17095239Y27190477D01*
X-17047620Y27095239D01*
X-17047620Y26809524D01*
X-17095239Y26714286D01*
X-17142858Y26666667D01*
%TO.C,J8*%
X40396666Y6447620D02*
X40396666Y5733334D01*
X40349047Y5590477D01*
X40253809Y5495239D01*
X40110952Y5447620D01*
X40015714Y5447620D01*
X41015714Y6019048D02*
X40920476Y6066667D01*
X40872857Y6114286D01*
X40825238Y6209524D01*
X40825238Y6257143D01*
X40872857Y6352381D01*
X40920476Y6400000D01*
X41015714Y6447620D01*
X41206190Y6447620D01*
X41301428Y6400000D01*
X41349047Y6352381D01*
X41396666Y6257143D01*
X41396666Y6209524D01*
X41349047Y6114286D01*
X41301428Y6066667D01*
X41206190Y6019048D01*
X41015714Y6019048D01*
X40920476Y5971429D01*
X40872857Y5923810D01*
X40825238Y5828572D01*
X40825238Y5638096D01*
X40872857Y5542858D01*
X40920476Y5495239D01*
X41015714Y5447620D01*
X41206190Y5447620D01*
X41301428Y5495239D01*
X41349047Y5542858D01*
X41396666Y5638096D01*
X41396666Y5828572D01*
X41349047Y5923810D01*
X41301428Y5971429D01*
X41206190Y6019048D01*
%TO.C,C15*%
X-23892858Y41957143D02*
X-23845239Y41909524D01*
X-23797620Y41766667D01*
X-23797620Y41671429D01*
X-23845239Y41528572D01*
X-23940477Y41433334D01*
X-24035715Y41385715D01*
X-24226191Y41338096D01*
X-24369048Y41338096D01*
X-24559524Y41385715D01*
X-24654762Y41433334D01*
X-24750000Y41528572D01*
X-24797620Y41671429D01*
X-24797620Y41766667D01*
X-24750000Y41909524D01*
X-24702381Y41957143D01*
X-23797620Y42909524D02*
X-23797620Y42338096D01*
X-23797620Y42623810D02*
X-24797620Y42623810D01*
X-24654762Y42528572D01*
X-24559524Y42433334D01*
X-24511905Y42338096D01*
X-24797620Y43814286D02*
X-24797620Y43338096D01*
X-24321429Y43290477D01*
X-24369048Y43338096D01*
X-24416667Y43433334D01*
X-24416667Y43671429D01*
X-24369048Y43766667D01*
X-24321429Y43814286D01*
X-24226191Y43861905D01*
X-23988096Y43861905D01*
X-23892858Y43814286D01*
X-23845239Y43766667D01*
X-23797620Y43671429D01*
X-23797620Y43433334D01*
X-23845239Y43338096D01*
X-23892858Y43290477D01*
%TO.C,C14*%
X-8092858Y40657143D02*
X-8045239Y40609524D01*
X-7997620Y40466667D01*
X-7997620Y40371429D01*
X-8045239Y40228572D01*
X-8140477Y40133334D01*
X-8235715Y40085715D01*
X-8426191Y40038096D01*
X-8569048Y40038096D01*
X-8759524Y40085715D01*
X-8854762Y40133334D01*
X-8950000Y40228572D01*
X-8997620Y40371429D01*
X-8997620Y40466667D01*
X-8950000Y40609524D01*
X-8902381Y40657143D01*
X-7997620Y41609524D02*
X-7997620Y41038096D01*
X-7997620Y41323810D02*
X-8997620Y41323810D01*
X-8854762Y41228572D01*
X-8759524Y41133334D01*
X-8711905Y41038096D01*
X-8664286Y42466667D02*
X-7997620Y42466667D01*
X-9045239Y42228572D02*
X-8330953Y41990477D01*
X-8330953Y42609524D01*
%TO.C,J4*%
X-27447620Y28396667D02*
X-26733334Y28396667D01*
X-26590477Y28349048D01*
X-26495239Y28253810D01*
X-26447620Y28110953D01*
X-26447620Y28015715D01*
X-27114286Y29301429D02*
X-26447620Y29301429D01*
X-27495239Y29063334D02*
X-26780953Y28825239D01*
X-26780953Y29444286D01*
%TO.C,Y2*%
X9226190Y-20476190D02*
X9702380Y-20476190D01*
X8702380Y-20809523D02*
X9226190Y-20476190D01*
X8702380Y-20142857D01*
X8797619Y-19857142D02*
X8750000Y-19809523D01*
X8702380Y-19714285D01*
X8702380Y-19476190D01*
X8750000Y-19380952D01*
X8797619Y-19333333D01*
X8892857Y-19285714D01*
X8988095Y-19285714D01*
X9130952Y-19333333D01*
X9702380Y-19904761D01*
X9702380Y-19285714D01*
%TO.C,Y1*%
X8126190Y15823810D02*
X8602380Y15823810D01*
X7602380Y15490477D02*
X8126190Y15823810D01*
X7602380Y16157143D01*
X8602380Y17014286D02*
X8602380Y16442858D01*
X8602380Y16728572D02*
X7602380Y16728572D01*
X7745238Y16633334D01*
X7840476Y16538096D01*
X7888095Y16442858D01*
%TO.C,U4*%
X-17061905Y37347620D02*
X-17061905Y36538096D01*
X-17014286Y36442858D01*
X-16966667Y36395239D01*
X-16871429Y36347620D01*
X-16680953Y36347620D01*
X-16585715Y36395239D01*
X-16538096Y36442858D01*
X-16490477Y36538096D01*
X-16490477Y37347620D01*
X-15585715Y37014286D02*
X-15585715Y36347620D01*
X-15823810Y37395239D02*
X-16061905Y36680953D01*
X-15442858Y36680953D01*
%TO.C,U3*%
X-561905Y-28202380D02*
X-561905Y-29011904D01*
X-514286Y-29107142D01*
X-466667Y-29154761D01*
X-371429Y-29202380D01*
X-180953Y-29202380D01*
X-85715Y-29154761D01*
X-38096Y-29107142D01*
X9523Y-29011904D01*
X9523Y-28202380D01*
X390476Y-28202380D02*
X1009523Y-28202380D01*
X676190Y-28583333D01*
X819047Y-28583333D01*
X914285Y-28630952D01*
X961904Y-28678571D01*
X1009523Y-28773809D01*
X1009523Y-29011904D01*
X961904Y-29107142D01*
X914285Y-29154761D01*
X819047Y-29202380D01*
X533333Y-29202380D01*
X438095Y-29154761D01*
X390476Y-29107142D01*
%TO.C,U1*%
X-2461905Y11747620D02*
X-2461905Y10938096D01*
X-2414286Y10842858D01*
X-2366667Y10795239D01*
X-2271429Y10747620D01*
X-2080953Y10747620D01*
X-1985715Y10795239D01*
X-1938096Y10842858D01*
X-1890477Y10938096D01*
X-1890477Y11747620D01*
X-890477Y10747620D02*
X-1461905Y10747620D01*
X-1176191Y10747620D02*
X-1176191Y11747620D01*
X-1271429Y11604762D01*
X-1366667Y11509524D01*
X-1461905Y11461905D01*
%TO.C,SW1*%
X-41083334Y30595239D02*
X-40940477Y30547620D01*
X-40702381Y30547620D01*
X-40607143Y30595239D01*
X-40559524Y30642858D01*
X-40511905Y30738096D01*
X-40511905Y30833334D01*
X-40559524Y30928572D01*
X-40607143Y30976191D01*
X-40702381Y31023810D01*
X-40892858Y31071429D01*
X-40988096Y31119048D01*
X-41035715Y31166667D01*
X-41083334Y31261905D01*
X-41083334Y31357143D01*
X-41035715Y31452381D01*
X-40988096Y31500000D01*
X-40892858Y31547620D01*
X-40654762Y31547620D01*
X-40511905Y31500000D01*
X-40178572Y31547620D02*
X-39940477Y30547620D01*
X-39750000Y31261905D01*
X-39559524Y30547620D01*
X-39321429Y31547620D01*
X-38416667Y30547620D02*
X-38988096Y30547620D01*
X-38702381Y30547620D02*
X-38702381Y31547620D01*
X-38797620Y31404762D01*
X-38892858Y31309524D01*
X-38988096Y31261905D01*
%TO.C,R19*%
X-717620Y-41642857D02*
X-1193810Y-41976190D01*
X-717620Y-42214285D02*
X-1717620Y-42214285D01*
X-1717620Y-41833333D01*
X-1670000Y-41738095D01*
X-1622381Y-41690476D01*
X-1527143Y-41642857D01*
X-1384286Y-41642857D01*
X-1289048Y-41690476D01*
X-1241429Y-41738095D01*
X-1193810Y-41833333D01*
X-1193810Y-42214285D01*
X-717620Y-40690476D02*
X-717620Y-41261904D01*
X-717620Y-40976190D02*
X-1717620Y-40976190D01*
X-1574762Y-41071428D01*
X-1479524Y-41166666D01*
X-1431905Y-41261904D01*
X-717620Y-40214285D02*
X-717620Y-40023809D01*
X-765239Y-39928571D01*
X-812858Y-39880952D01*
X-955715Y-39785714D01*
X-1146191Y-39738095D01*
X-1527143Y-39738095D01*
X-1622381Y-39785714D01*
X-1670000Y-39833333D01*
X-1717620Y-39928571D01*
X-1717620Y-40119047D01*
X-1670000Y-40214285D01*
X-1622381Y-40261904D01*
X-1527143Y-40309523D01*
X-1289048Y-40309523D01*
X-1193810Y-40261904D01*
X-1146191Y-40214285D01*
X-1098572Y-40119047D01*
X-1098572Y-39928571D01*
X-1146191Y-39833333D01*
X-1193810Y-39785714D01*
X-1289048Y-39738095D01*
%TO.C,R18*%
X40057142Y24677620D02*
X39723809Y25153810D01*
X39485714Y24677620D02*
X39485714Y25677620D01*
X39866666Y25677620D01*
X39961904Y25630000D01*
X40009523Y25582381D01*
X40057142Y25487143D01*
X40057142Y25344286D01*
X40009523Y25249048D01*
X39961904Y25201429D01*
X39866666Y25153810D01*
X39485714Y25153810D01*
X41009523Y24677620D02*
X40438095Y24677620D01*
X40723809Y24677620D02*
X40723809Y25677620D01*
X40628571Y25534762D01*
X40533333Y25439524D01*
X40438095Y25391905D01*
X41580952Y25249048D02*
X41485714Y25296667D01*
X41438095Y25344286D01*
X41390476Y25439524D01*
X41390476Y25487143D01*
X41438095Y25582381D01*
X41485714Y25630000D01*
X41580952Y25677620D01*
X41771428Y25677620D01*
X41866666Y25630000D01*
X41914285Y25582381D01*
X41961904Y25487143D01*
X41961904Y25439524D01*
X41914285Y25344286D01*
X41866666Y25296667D01*
X41771428Y25249048D01*
X41580952Y25249048D01*
X41485714Y25201429D01*
X41438095Y25153810D01*
X41390476Y25058572D01*
X41390476Y24868096D01*
X41438095Y24772858D01*
X41485714Y24725239D01*
X41580952Y24677620D01*
X41771428Y24677620D01*
X41866666Y24725239D01*
X41914285Y24772858D01*
X41961904Y24868096D01*
X41961904Y25058572D01*
X41914285Y25153810D01*
X41866666Y25201429D01*
X41771428Y25249048D01*
%TO.C,R15*%
X-5242858Y14117620D02*
X-5576191Y14593810D01*
X-5814286Y14117620D02*
X-5814286Y15117620D01*
X-5433334Y15117620D01*
X-5338096Y15070000D01*
X-5290477Y15022381D01*
X-5242858Y14927143D01*
X-5242858Y14784286D01*
X-5290477Y14689048D01*
X-5338096Y14641429D01*
X-5433334Y14593810D01*
X-5814286Y14593810D01*
X-4290477Y14117620D02*
X-4861905Y14117620D01*
X-4576191Y14117620D02*
X-4576191Y15117620D01*
X-4671429Y14974762D01*
X-4766667Y14879524D01*
X-4861905Y14831905D01*
X-3385715Y15117620D02*
X-3861905Y15117620D01*
X-3909524Y14641429D01*
X-3861905Y14689048D01*
X-3766667Y14736667D01*
X-3528572Y14736667D01*
X-3433334Y14689048D01*
X-3385715Y14641429D01*
X-3338096Y14546191D01*
X-3338096Y14308096D01*
X-3385715Y14212858D01*
X-3433334Y14165239D01*
X-3528572Y14117620D01*
X-3766667Y14117620D01*
X-3861905Y14165239D01*
X-3909524Y14212858D01*
%TO.C,R14*%
X6352380Y8757143D02*
X5876190Y8423810D01*
X6352380Y8185715D02*
X5352380Y8185715D01*
X5352380Y8566667D01*
X5400000Y8661905D01*
X5447619Y8709524D01*
X5542857Y8757143D01*
X5685714Y8757143D01*
X5780952Y8709524D01*
X5828571Y8661905D01*
X5876190Y8566667D01*
X5876190Y8185715D01*
X6352380Y9709524D02*
X6352380Y9138096D01*
X6352380Y9423810D02*
X5352380Y9423810D01*
X5495238Y9328572D01*
X5590476Y9233334D01*
X5638095Y9138096D01*
X5685714Y10566667D02*
X6352380Y10566667D01*
X5304761Y10328572D02*
X6019047Y10090477D01*
X6019047Y10709524D01*
%TO.C,R13*%
X957142Y8847620D02*
X623809Y9323810D01*
X385714Y8847620D02*
X385714Y9847620D01*
X766666Y9847620D01*
X861904Y9800000D01*
X909523Y9752381D01*
X957142Y9657143D01*
X957142Y9514286D01*
X909523Y9419048D01*
X861904Y9371429D01*
X766666Y9323810D01*
X385714Y9323810D01*
X1909523Y8847620D02*
X1338095Y8847620D01*
X1623809Y8847620D02*
X1623809Y9847620D01*
X1528571Y9704762D01*
X1433333Y9609524D01*
X1338095Y9561905D01*
X2242857Y9847620D02*
X2861904Y9847620D01*
X2528571Y9466667D01*
X2671428Y9466667D01*
X2766666Y9419048D01*
X2814285Y9371429D01*
X2861904Y9276191D01*
X2861904Y9038096D01*
X2814285Y8942858D01*
X2766666Y8895239D01*
X2671428Y8847620D01*
X2385714Y8847620D01*
X2290476Y8895239D01*
X2242857Y8942858D01*
%TO.C,R12*%
X-5542858Y19417620D02*
X-5876191Y19893810D01*
X-6114286Y19417620D02*
X-6114286Y20417620D01*
X-5733334Y20417620D01*
X-5638096Y20370000D01*
X-5590477Y20322381D01*
X-5542858Y20227143D01*
X-5542858Y20084286D01*
X-5590477Y19989048D01*
X-5638096Y19941429D01*
X-5733334Y19893810D01*
X-6114286Y19893810D01*
X-4590477Y19417620D02*
X-5161905Y19417620D01*
X-4876191Y19417620D02*
X-4876191Y20417620D01*
X-4971429Y20274762D01*
X-5066667Y20179524D01*
X-5161905Y20131905D01*
X-4209524Y20322381D02*
X-4161905Y20370000D01*
X-4066667Y20417620D01*
X-3828572Y20417620D01*
X-3733334Y20370000D01*
X-3685715Y20322381D01*
X-3638096Y20227143D01*
X-3638096Y20131905D01*
X-3685715Y19989048D01*
X-4257143Y19417620D01*
X-3638096Y19417620D01*
%TO.C,R11*%
X-28517620Y32757143D02*
X-28993810Y32423810D01*
X-28517620Y32185715D02*
X-29517620Y32185715D01*
X-29517620Y32566667D01*
X-29470000Y32661905D01*
X-29422381Y32709524D01*
X-29327143Y32757143D01*
X-29184286Y32757143D01*
X-29089048Y32709524D01*
X-29041429Y32661905D01*
X-28993810Y32566667D01*
X-28993810Y32185715D01*
X-28517620Y33709524D02*
X-28517620Y33138096D01*
X-28517620Y33423810D02*
X-29517620Y33423810D01*
X-29374762Y33328572D01*
X-29279524Y33233334D01*
X-29231905Y33138096D01*
X-28517620Y34661905D02*
X-28517620Y34090477D01*
X-28517620Y34376191D02*
X-29517620Y34376191D01*
X-29374762Y34280953D01*
X-29279524Y34185715D01*
X-29231905Y34090477D01*
%TO.C,R10*%
X-28517620Y36057143D02*
X-28993810Y35723810D01*
X-28517620Y35485715D02*
X-29517620Y35485715D01*
X-29517620Y35866667D01*
X-29470000Y35961905D01*
X-29422381Y36009524D01*
X-29327143Y36057143D01*
X-29184286Y36057143D01*
X-29089048Y36009524D01*
X-29041429Y35961905D01*
X-28993810Y35866667D01*
X-28993810Y35485715D01*
X-28517620Y37009524D02*
X-28517620Y36438096D01*
X-28517620Y36723810D02*
X-29517620Y36723810D01*
X-29374762Y36628572D01*
X-29279524Y36533334D01*
X-29231905Y36438096D01*
X-29517620Y37628572D02*
X-29517620Y37723810D01*
X-29470000Y37819048D01*
X-29422381Y37866667D01*
X-29327143Y37914286D01*
X-29136667Y37961905D01*
X-28898572Y37961905D01*
X-28708096Y37914286D01*
X-28612858Y37866667D01*
X-28565239Y37819048D01*
X-28517620Y37723810D01*
X-28517620Y37628572D01*
X-28565239Y37533334D01*
X-28612858Y37485715D01*
X-28708096Y37438096D01*
X-28898572Y37390477D01*
X-29136667Y37390477D01*
X-29327143Y37438096D01*
X-29422381Y37485715D01*
X-29470000Y37533334D01*
X-29517620Y37628572D01*
%TO.C,R9*%
X5733333Y45877620D02*
X5400000Y46353810D01*
X5161904Y45877620D02*
X5161904Y46877620D01*
X5542857Y46877620D01*
X5638095Y46830000D01*
X5685714Y46782381D01*
X5733333Y46687143D01*
X5733333Y46544286D01*
X5685714Y46449048D01*
X5638095Y46401429D01*
X5542857Y46353810D01*
X5161904Y46353810D01*
X6209523Y45877620D02*
X6400000Y45877620D01*
X6495238Y45925239D01*
X6542857Y45972858D01*
X6638095Y46115715D01*
X6685714Y46306191D01*
X6685714Y46687143D01*
X6638095Y46782381D01*
X6590476Y46830000D01*
X6495238Y46877620D01*
X6304761Y46877620D01*
X6209523Y46830000D01*
X6161904Y46782381D01*
X6114285Y46687143D01*
X6114285Y46449048D01*
X6161904Y46353810D01*
X6209523Y46306191D01*
X6304761Y46258572D01*
X6495238Y46258572D01*
X6590476Y46306191D01*
X6638095Y46353810D01*
X6685714Y46449048D01*
%TO.C,R8*%
X27382380Y26333334D02*
X26906190Y26000000D01*
X27382380Y25761905D02*
X26382380Y25761905D01*
X26382380Y26142858D01*
X26430000Y26238096D01*
X26477619Y26285715D01*
X26572857Y26333334D01*
X26715714Y26333334D01*
X26810952Y26285715D01*
X26858571Y26238096D01*
X26906190Y26142858D01*
X26906190Y25761905D01*
X26810952Y26904762D02*
X26763333Y26809524D01*
X26715714Y26761905D01*
X26620476Y26714286D01*
X26572857Y26714286D01*
X26477619Y26761905D01*
X26430000Y26809524D01*
X26382380Y26904762D01*
X26382380Y27095239D01*
X26430000Y27190477D01*
X26477619Y27238096D01*
X26572857Y27285715D01*
X26620476Y27285715D01*
X26715714Y27238096D01*
X26763333Y27190477D01*
X26810952Y27095239D01*
X26810952Y26904762D01*
X26858571Y26809524D01*
X26906190Y26761905D01*
X27001428Y26714286D01*
X27191904Y26714286D01*
X27287142Y26761905D01*
X27334761Y26809524D01*
X27382380Y26904762D01*
X27382380Y27095239D01*
X27334761Y27190477D01*
X27287142Y27238096D01*
X27191904Y27285715D01*
X27001428Y27285715D01*
X26906190Y27238096D01*
X26858571Y27190477D01*
X26810952Y27095239D01*
%TO.C,R7*%
X21952380Y26333334D02*
X21476190Y26000000D01*
X21952380Y25761905D02*
X20952380Y25761905D01*
X20952380Y26142858D01*
X21000000Y26238096D01*
X21047619Y26285715D01*
X21142857Y26333334D01*
X21285714Y26333334D01*
X21380952Y26285715D01*
X21428571Y26238096D01*
X21476190Y26142858D01*
X21476190Y25761905D01*
X20952380Y26666667D02*
X20952380Y27333334D01*
X21952380Y26904762D01*
%TO.C,R6*%
X4752380Y41633334D02*
X4276190Y41300000D01*
X4752380Y41061905D02*
X3752380Y41061905D01*
X3752380Y41442858D01*
X3800000Y41538096D01*
X3847619Y41585715D01*
X3942857Y41633334D01*
X4085714Y41633334D01*
X4180952Y41585715D01*
X4228571Y41538096D01*
X4276190Y41442858D01*
X4276190Y41061905D01*
X3752380Y42490477D02*
X3752380Y42300000D01*
X3800000Y42204762D01*
X3847619Y42157143D01*
X3990476Y42061905D01*
X4180952Y42014286D01*
X4561904Y42014286D01*
X4657142Y42061905D01*
X4704761Y42109524D01*
X4752380Y42204762D01*
X4752380Y42395239D01*
X4704761Y42490477D01*
X4657142Y42538096D01*
X4561904Y42585715D01*
X4323809Y42585715D01*
X4228571Y42538096D01*
X4180952Y42490477D01*
X4133333Y42395239D01*
X4133333Y42204762D01*
X4180952Y42109524D01*
X4228571Y42061905D01*
X4323809Y42014286D01*
%TO.C,R2*%
X-15366667Y25117620D02*
X-15700000Y25593810D01*
X-15938096Y25117620D02*
X-15938096Y26117620D01*
X-15557143Y26117620D01*
X-15461905Y26070000D01*
X-15414286Y26022381D01*
X-15366667Y25927143D01*
X-15366667Y25784286D01*
X-15414286Y25689048D01*
X-15461905Y25641429D01*
X-15557143Y25593810D01*
X-15938096Y25593810D01*
X-14985715Y26022381D02*
X-14938096Y26070000D01*
X-14842858Y26117620D01*
X-14604762Y26117620D01*
X-14509524Y26070000D01*
X-14461905Y26022381D01*
X-14414286Y25927143D01*
X-14414286Y25831905D01*
X-14461905Y25689048D01*
X-15033334Y25117620D01*
X-14414286Y25117620D01*
%TO.C,R1*%
X-6666667Y38177620D02*
X-7000000Y38653810D01*
X-7238096Y38177620D02*
X-7238096Y39177620D01*
X-6857143Y39177620D01*
X-6761905Y39130000D01*
X-6714286Y39082381D01*
X-6666667Y38987143D01*
X-6666667Y38844286D01*
X-6714286Y38749048D01*
X-6761905Y38701429D01*
X-6857143Y38653810D01*
X-7238096Y38653810D01*
X-5714286Y38177620D02*
X-6285715Y38177620D01*
X-6000000Y38177620D02*
X-6000000Y39177620D01*
X-6095239Y39034762D01*
X-6190477Y38939524D01*
X-6285715Y38891905D01*
%TO.C,Q1*%
X2304761Y45252381D02*
X2209523Y45300000D01*
X2114285Y45395239D01*
X1971428Y45538096D01*
X1876190Y45585715D01*
X1780952Y45585715D01*
X1828571Y45347620D02*
X1733333Y45395239D01*
X1638095Y45490477D01*
X1590476Y45680953D01*
X1590476Y46014286D01*
X1638095Y46204762D01*
X1733333Y46300000D01*
X1828571Y46347620D01*
X2019047Y46347620D01*
X2114285Y46300000D01*
X2209523Y46204762D01*
X2257142Y46014286D01*
X2257142Y45680953D01*
X2209523Y45490477D01*
X2114285Y45395239D01*
X2019047Y45347620D01*
X1828571Y45347620D01*
X3209523Y45347620D02*
X2638095Y45347620D01*
X2923809Y45347620D02*
X2923809Y46347620D01*
X2828571Y46204762D01*
X2733333Y46109524D01*
X2638095Y46061905D01*
%TO.C,J6*%
X32666666Y-28852380D02*
X32666666Y-29566666D01*
X32619047Y-29709523D01*
X32523809Y-29804761D01*
X32380952Y-29852380D01*
X32285714Y-29852380D01*
X33571428Y-28852380D02*
X33380952Y-28852380D01*
X33285714Y-28900000D01*
X33238095Y-28947619D01*
X33142857Y-29090476D01*
X33095238Y-29280952D01*
X33095238Y-29661904D01*
X33142857Y-29757142D01*
X33190476Y-29804761D01*
X33285714Y-29852380D01*
X33476190Y-29852380D01*
X33571428Y-29804761D01*
X33619047Y-29757142D01*
X33666666Y-29661904D01*
X33666666Y-29423809D01*
X33619047Y-29328571D01*
X33571428Y-29280952D01*
X33476190Y-29233333D01*
X33285714Y-29233333D01*
X33190476Y-29280952D01*
X33142857Y-29328571D01*
X33095238Y-29423809D01*
%TO.C,J5*%
X32666666Y2077620D02*
X32666666Y1363334D01*
X32619047Y1220477D01*
X32523809Y1125239D01*
X32380952Y1077620D01*
X32285714Y1077620D01*
X33619047Y2077620D02*
X33142857Y2077620D01*
X33095238Y1601429D01*
X33142857Y1649048D01*
X33238095Y1696667D01*
X33476190Y1696667D01*
X33571428Y1649048D01*
X33619047Y1601429D01*
X33666666Y1506191D01*
X33666666Y1268096D01*
X33619047Y1172858D01*
X33571428Y1125239D01*
X33476190Y1077620D01*
X33238095Y1077620D01*
X33142857Y1125239D01*
X33095238Y1172858D01*
%TO.C,J3*%
X-33333334Y-28852380D02*
X-33333334Y-29566666D01*
X-33380953Y-29709523D01*
X-33476191Y-29804761D01*
X-33619048Y-29852380D01*
X-33714286Y-29852380D01*
X-32952381Y-28852380D02*
X-32333334Y-28852380D01*
X-32666667Y-29233333D01*
X-32523810Y-29233333D01*
X-32428572Y-29280952D01*
X-32380953Y-29328571D01*
X-32333334Y-29423809D01*
X-32333334Y-29661904D01*
X-32380953Y-29757142D01*
X-32428572Y-29804761D01*
X-32523810Y-29852380D01*
X-32809524Y-29852380D01*
X-32904762Y-29804761D01*
X-32952381Y-29757142D01*
%TO.C,J2*%
X-33333334Y2147620D02*
X-33333334Y1433334D01*
X-33380953Y1290477D01*
X-33476191Y1195239D01*
X-33619048Y1147620D01*
X-33714286Y1147620D01*
X-32904762Y2052381D02*
X-32857143Y2100000D01*
X-32761905Y2147620D01*
X-32523810Y2147620D01*
X-32428572Y2100000D01*
X-32380953Y2052381D01*
X-32333334Y1957143D01*
X-32333334Y1861905D01*
X-32380953Y1719048D01*
X-32952381Y1147620D01*
X-32333334Y1147620D01*
%TO.C,J1*%
X42666666Y-1122380D02*
X42666666Y-1836666D01*
X42619047Y-1979523D01*
X42523809Y-2074761D01*
X42380952Y-2122380D01*
X42285714Y-2122380D01*
X43666666Y-2122380D02*
X43095238Y-2122380D01*
X43380952Y-2122380D02*
X43380952Y-1122380D01*
X43285714Y-1265238D01*
X43190476Y-1360476D01*
X43095238Y-1408095D01*
%TO.C,F1*%
X7466666Y35871429D02*
X7133333Y35871429D01*
X7133333Y35347620D02*
X7133333Y36347620D01*
X7609523Y36347620D01*
X8514285Y35347620D02*
X7942857Y35347620D01*
X8228571Y35347620D02*
X8228571Y36347620D01*
X8133333Y36204762D01*
X8038095Y36109524D01*
X7942857Y36061905D01*
%TO.C,D3*%
X-647620Y-45038095D02*
X-1647620Y-45038095D01*
X-1647620Y-44800000D01*
X-1600000Y-44657142D01*
X-1504762Y-44561904D01*
X-1409524Y-44514285D01*
X-1219048Y-44466666D01*
X-1076191Y-44466666D01*
X-885715Y-44514285D01*
X-790477Y-44561904D01*
X-695239Y-44657142D01*
X-647620Y-44800000D01*
X-647620Y-45038095D01*
X-1647620Y-44133333D02*
X-1647620Y-43514285D01*
X-1266667Y-43847619D01*
X-1266667Y-43704761D01*
X-1219048Y-43609523D01*
X-1171429Y-43561904D01*
X-1076191Y-43514285D01*
X-838096Y-43514285D01*
X-742858Y-43561904D01*
X-695239Y-43609523D01*
X-647620Y-43704761D01*
X-647620Y-43990476D01*
X-695239Y-44085714D01*
X-742858Y-44133333D01*
%TO.C,D2*%
X8561904Y44247620D02*
X8561904Y45247620D01*
X8800000Y45247620D01*
X8942857Y45200000D01*
X9038095Y45104762D01*
X9085714Y45009524D01*
X9133333Y44819048D01*
X9133333Y44676191D01*
X9085714Y44485715D01*
X9038095Y44390477D01*
X8942857Y44295239D01*
X8800000Y44247620D01*
X8561904Y44247620D01*
X9514285Y45152381D02*
X9561904Y45200000D01*
X9657142Y45247620D01*
X9895238Y45247620D01*
X9990476Y45200000D01*
X10038095Y45152381D01*
X10085714Y45057143D01*
X10085714Y44961905D01*
X10038095Y44819048D01*
X9466666Y44247620D01*
X10085714Y44247620D01*
%TO.C,D1*%
X-3838096Y38147620D02*
X-3838096Y39147620D01*
X-3600000Y39147620D01*
X-3457143Y39100000D01*
X-3361905Y39004762D01*
X-3314286Y38909524D01*
X-3266667Y38719048D01*
X-3266667Y38576191D01*
X-3314286Y38385715D01*
X-3361905Y38290477D01*
X-3457143Y38195239D01*
X-3600000Y38147620D01*
X-3838096Y38147620D01*
X-2314286Y38147620D02*
X-2885715Y38147620D01*
X-2600000Y38147620D02*
X-2600000Y39147620D01*
X-2695239Y39004762D01*
X-2790477Y38909524D01*
X-2885715Y38861905D01*
%TO.C,C13*%
X8257142Y-16442857D02*
X8304761Y-16490476D01*
X8352380Y-16633333D01*
X8352380Y-16728571D01*
X8304761Y-16871428D01*
X8209523Y-16966666D01*
X8114285Y-17014285D01*
X7923809Y-17061904D01*
X7780952Y-17061904D01*
X7590476Y-17014285D01*
X7495238Y-16966666D01*
X7400000Y-16871428D01*
X7352380Y-16728571D01*
X7352380Y-16633333D01*
X7400000Y-16490476D01*
X7447619Y-16442857D01*
X8352380Y-15490476D02*
X8352380Y-16061904D01*
X8352380Y-15776190D02*
X7352380Y-15776190D01*
X7495238Y-15871428D01*
X7590476Y-15966666D01*
X7638095Y-16061904D01*
X7352380Y-15157142D02*
X7352380Y-14538095D01*
X7733333Y-14871428D01*
X7733333Y-14728571D01*
X7780952Y-14633333D01*
X7828571Y-14585714D01*
X7923809Y-14538095D01*
X8161904Y-14538095D01*
X8257142Y-14585714D01*
X8304761Y-14633333D01*
X8352380Y-14728571D01*
X8352380Y-15014285D01*
X8304761Y-15109523D01*
X8257142Y-15157142D01*
%TO.C,C12*%
X8327142Y-26642857D02*
X8374761Y-26690476D01*
X8422380Y-26833333D01*
X8422380Y-26928571D01*
X8374761Y-27071428D01*
X8279523Y-27166666D01*
X8184285Y-27214285D01*
X7993809Y-27261904D01*
X7850952Y-27261904D01*
X7660476Y-27214285D01*
X7565238Y-27166666D01*
X7470000Y-27071428D01*
X7422380Y-26928571D01*
X7422380Y-26833333D01*
X7470000Y-26690476D01*
X7517619Y-26642857D01*
X8422380Y-25690476D02*
X8422380Y-26261904D01*
X8422380Y-25976190D02*
X7422380Y-25976190D01*
X7565238Y-26071428D01*
X7660476Y-26166666D01*
X7708095Y-26261904D01*
X7517619Y-25309523D02*
X7470000Y-25261904D01*
X7422380Y-25166666D01*
X7422380Y-24928571D01*
X7470000Y-24833333D01*
X7517619Y-24785714D01*
X7612857Y-24738095D01*
X7708095Y-24738095D01*
X7850952Y-24785714D01*
X8422380Y-25357142D01*
X8422380Y-24738095D01*
%TO.C,C8*%
X7233333Y-22027142D02*
X7185714Y-22074761D01*
X7042857Y-22122380D01*
X6947619Y-22122380D01*
X6804761Y-22074761D01*
X6709523Y-21979523D01*
X6661904Y-21884285D01*
X6614285Y-21693809D01*
X6614285Y-21550952D01*
X6661904Y-21360476D01*
X6709523Y-21265238D01*
X6804761Y-21170000D01*
X6947619Y-21122380D01*
X7042857Y-21122380D01*
X7185714Y-21170000D01*
X7233333Y-21217619D01*
X7804761Y-21550952D02*
X7709523Y-21503333D01*
X7661904Y-21455714D01*
X7614285Y-21360476D01*
X7614285Y-21312857D01*
X7661904Y-21217619D01*
X7709523Y-21170000D01*
X7804761Y-21122380D01*
X7995238Y-21122380D01*
X8090476Y-21170000D01*
X8138095Y-21217619D01*
X8185714Y-21312857D01*
X8185714Y-21360476D01*
X8138095Y-21455714D01*
X8090476Y-21503333D01*
X7995238Y-21550952D01*
X7804761Y-21550952D01*
X7709523Y-21598571D01*
X7661904Y-21646190D01*
X7614285Y-21741428D01*
X7614285Y-21931904D01*
X7661904Y-22027142D01*
X7709523Y-22074761D01*
X7804761Y-22122380D01*
X7995238Y-22122380D01*
X8090476Y-22074761D01*
X8138095Y-22027142D01*
X8185714Y-21931904D01*
X8185714Y-21741428D01*
X8138095Y-21646190D01*
X8090476Y-21598571D01*
X7995238Y-21550952D01*
%TO.C,C7*%
X-10366667Y-21057142D02*
X-10414286Y-21104761D01*
X-10557143Y-21152380D01*
X-10652381Y-21152380D01*
X-10795239Y-21104761D01*
X-10890477Y-21009523D01*
X-10938096Y-20914285D01*
X-10985715Y-20723809D01*
X-10985715Y-20580952D01*
X-10938096Y-20390476D01*
X-10890477Y-20295238D01*
X-10795239Y-20200000D01*
X-10652381Y-20152380D01*
X-10557143Y-20152380D01*
X-10414286Y-20200000D01*
X-10366667Y-20247619D01*
X-10033334Y-20152380D02*
X-9366667Y-20152380D01*
X-9795239Y-21152380D01*
%TO.C,C6*%
X-10366667Y-22657142D02*
X-10414286Y-22704761D01*
X-10557143Y-22752380D01*
X-10652381Y-22752380D01*
X-10795239Y-22704761D01*
X-10890477Y-22609523D01*
X-10938096Y-22514285D01*
X-10985715Y-22323809D01*
X-10985715Y-22180952D01*
X-10938096Y-21990476D01*
X-10890477Y-21895238D01*
X-10795239Y-21800000D01*
X-10652381Y-21752380D01*
X-10557143Y-21752380D01*
X-10414286Y-21800000D01*
X-10366667Y-21847619D01*
X-9509524Y-21752380D02*
X-9700000Y-21752380D01*
X-9795239Y-21800000D01*
X-9842858Y-21847619D01*
X-9938096Y-21990476D01*
X-9985715Y-22180952D01*
X-9985715Y-22561904D01*
X-9938096Y-22657142D01*
X-9890477Y-22704761D01*
X-9795239Y-22752380D01*
X-9604762Y-22752380D01*
X-9509524Y-22704761D01*
X-9461905Y-22657142D01*
X-9414286Y-22561904D01*
X-9414286Y-22323809D01*
X-9461905Y-22228571D01*
X-9509524Y-22180952D01*
X-9604762Y-22133333D01*
X-9795239Y-22133333D01*
X-9890477Y-22180952D01*
X-9938096Y-22228571D01*
X-9985715Y-22323809D01*
%TO.C,C4*%
X8557142Y23233334D02*
X8604761Y23185715D01*
X8652380Y23042858D01*
X8652380Y22947620D01*
X8604761Y22804762D01*
X8509523Y22709524D01*
X8414285Y22661905D01*
X8223809Y22614286D01*
X8080952Y22614286D01*
X7890476Y22661905D01*
X7795238Y22709524D01*
X7700000Y22804762D01*
X7652380Y22947620D01*
X7652380Y23042858D01*
X7700000Y23185715D01*
X7747619Y23233334D01*
X7985714Y24090477D02*
X8652380Y24090477D01*
X7604761Y23852381D02*
X8319047Y23614286D01*
X8319047Y24233334D01*
%TO.C,C3*%
X8557142Y9033334D02*
X8604761Y8985715D01*
X8652380Y8842858D01*
X8652380Y8747620D01*
X8604761Y8604762D01*
X8509523Y8509524D01*
X8414285Y8461905D01*
X8223809Y8414286D01*
X8080952Y8414286D01*
X7890476Y8461905D01*
X7795238Y8509524D01*
X7700000Y8604762D01*
X7652380Y8747620D01*
X7652380Y8842858D01*
X7700000Y8985715D01*
X7747619Y9033334D01*
X7652380Y9366667D02*
X7652380Y9985715D01*
X8033333Y9652381D01*
X8033333Y9795239D01*
X8080952Y9890477D01*
X8128571Y9938096D01*
X8223809Y9985715D01*
X8461904Y9985715D01*
X8557142Y9938096D01*
X8604761Y9890477D01*
X8652380Y9795239D01*
X8652380Y9509524D01*
X8604761Y9414286D01*
X8557142Y9366667D01*
%TO.C,C2*%
X6557142Y21233334D02*
X6604761Y21185715D01*
X6652380Y21042858D01*
X6652380Y20947620D01*
X6604761Y20804762D01*
X6509523Y20709524D01*
X6414285Y20661905D01*
X6223809Y20614286D01*
X6080952Y20614286D01*
X5890476Y20661905D01*
X5795238Y20709524D01*
X5700000Y20804762D01*
X5652380Y20947620D01*
X5652380Y21042858D01*
X5700000Y21185715D01*
X5747619Y21233334D01*
X5747619Y21614286D02*
X5700000Y21661905D01*
X5652380Y21757143D01*
X5652380Y21995239D01*
X5700000Y22090477D01*
X5747619Y22138096D01*
X5842857Y22185715D01*
X5938095Y22185715D01*
X6080952Y22138096D01*
X6652380Y21566667D01*
X6652380Y22185715D01*
%TO.C,C1*%
X-10366667Y-24257142D02*
X-10414286Y-24304761D01*
X-10557143Y-24352380D01*
X-10652381Y-24352380D01*
X-10795239Y-24304761D01*
X-10890477Y-24209523D01*
X-10938096Y-24114285D01*
X-10985715Y-23923809D01*
X-10985715Y-23780952D01*
X-10938096Y-23590476D01*
X-10890477Y-23495238D01*
X-10795239Y-23400000D01*
X-10652381Y-23352380D01*
X-10557143Y-23352380D01*
X-10414286Y-23400000D01*
X-10366667Y-23447619D01*
X-9414286Y-24352380D02*
X-9985715Y-24352380D01*
X-9700000Y-24352380D02*
X-9700000Y-23352380D01*
X-9795239Y-23495238D01*
X-9890477Y-23590476D01*
X-9985715Y-23638095D01*
%TO.C,BT1*%
X16128571Y38814286D02*
X16176190Y38957143D01*
X16223809Y39004762D01*
X16319047Y39052381D01*
X16461904Y39052381D01*
X16557142Y39004762D01*
X16604761Y38957143D01*
X16652380Y38861905D01*
X16652380Y38480953D01*
X15652380Y38480953D01*
X15652380Y38814286D01*
X15700000Y38909524D01*
X15747619Y38957143D01*
X15842857Y39004762D01*
X15938095Y39004762D01*
X16033333Y38957143D01*
X16080952Y38909524D01*
X16128571Y38814286D01*
X16128571Y38480953D01*
X15652380Y39338096D02*
X15652380Y39909524D01*
X16652380Y39623810D02*
X15652380Y39623810D01*
X16652380Y40766667D02*
X16652380Y40195239D01*
X16652380Y40480953D02*
X15652380Y40480953D01*
X15795238Y40385715D01*
X15890476Y40290477D01*
X15938095Y40195239D01*
%TD*%
M02*
