%TF.GenerationSoftware,KiCad,Pcbnew,5.1.10*%
%TF.CreationDate,2021-11-15T18:14:58+01:00*%
%TF.ProjectId,main_pcb,6d61696e-5f70-4636-922e-6b696361645f,rev?*%
%TF.SameCoordinates,PX8f0d180PY5f5e100*%
%TF.FileFunction,Soldermask,Bot*%
%TF.FilePolarity,Negative*%
%FSLAX46Y46*%
G04 Gerber Fmt 4.6, Leading zero omitted, Abs format (unit mm)*
G04 Created by KiCad (PCBNEW 5.1.10) date 2021-11-15 18:14:58*
%MOMM*%
%LPD*%
G01*
G04 APERTURE LIST*
%ADD10O,1.700000X1.700000*%
%ADD11R,1.700000X1.700000*%
%ADD12C,1.700000*%
%ADD13C,2.000000*%
%ADD14C,6.400000*%
G04 APERTURE END LIST*
D10*
%TO.C,J9*%
X-20400000Y-41340000D03*
D11*
X-20400000Y-38800000D03*
%TD*%
D12*
%TO.C,J8*%
X39460000Y17080000D03*
X39460000Y14540000D03*
X39460000Y12000000D03*
X42000000Y17080000D03*
X42000000Y14540000D03*
G36*
G01*
X42850000Y12600000D02*
X42850000Y11400000D01*
G75*
G02*
X42600000Y11150000I-250000J0D01*
G01*
X41400000Y11150000D01*
G75*
G02*
X41150000Y11400000I0J250000D01*
G01*
X41150000Y12600000D01*
G75*
G02*
X41400000Y12850000I250000J0D01*
G01*
X42600000Y12850000D01*
G75*
G02*
X42850000Y12600000I0J-250000D01*
G01*
G37*
%TD*%
D10*
%TO.C,J4*%
X24130000Y32540000D03*
X24130000Y30000000D03*
X21590000Y32540000D03*
X21590000Y30000000D03*
X19050000Y32540000D03*
X19050000Y30000000D03*
X16510000Y32540000D03*
X16510000Y30000000D03*
X13970000Y32540000D03*
X13970000Y30000000D03*
X11430000Y32540000D03*
X11430000Y30000000D03*
X8890000Y32540000D03*
X8890000Y30000000D03*
X6350000Y32540000D03*
X6350000Y30000000D03*
X3810000Y32540000D03*
X3810000Y30000000D03*
X1270000Y32540000D03*
X1270000Y30000000D03*
X-1270000Y32540000D03*
X-1270000Y30000000D03*
X-3810000Y32540000D03*
X-3810000Y30000000D03*
X-6350000Y32540000D03*
X-6350000Y30000000D03*
X-8890000Y32540000D03*
X-8890000Y30000000D03*
X-11430000Y32540000D03*
X-11430000Y30000000D03*
X-13970000Y32540000D03*
X-13970000Y30000000D03*
X-16510000Y32540000D03*
X-16510000Y30000000D03*
X-19050000Y32540000D03*
X-19050000Y30000000D03*
X-21590000Y32540000D03*
X-21590000Y30000000D03*
X-24130000Y32540000D03*
D11*
X-24130000Y30000000D03*
%TD*%
D13*
%TO.C,SW1*%
X-36500000Y29000000D03*
X-36500000Y24500000D03*
X-43000000Y29000000D03*
X-43000000Y24500000D03*
%TD*%
D10*
%TO.C,J7*%
X1270000Y-3810000D03*
X-1270000Y-3810000D03*
X1270000Y-1270000D03*
X-1270000Y-1270000D03*
X1270000Y1270000D03*
X-1270000Y1270000D03*
X1270000Y3810000D03*
D11*
X-1270000Y3810000D03*
%TD*%
D10*
%TO.C,J6*%
X34270000Y-34270000D03*
X31730000Y-34270000D03*
X34270000Y-31730000D03*
D11*
X31730000Y-31730000D03*
%TD*%
D10*
%TO.C,J5*%
X34270000Y-3340000D03*
X31730000Y-3340000D03*
X34270000Y-800000D03*
D11*
X31730000Y-800000D03*
%TD*%
D10*
%TO.C,J3*%
X-31730000Y-34270000D03*
X-34270000Y-34270000D03*
X-31730000Y-31730000D03*
D11*
X-34270000Y-31730000D03*
%TD*%
D10*
%TO.C,J2*%
X-31730000Y-3270000D03*
X-34270000Y-3270000D03*
X-31730000Y-730000D03*
D11*
X-34270000Y-730000D03*
%TD*%
D10*
%TO.C,J1*%
X43000000Y-31940000D03*
X43000000Y-29400000D03*
X43000000Y-26860000D03*
X43000000Y-24320000D03*
X43000000Y-21780000D03*
X43000000Y-19240000D03*
X43000000Y-16700000D03*
X43000000Y-14160000D03*
X43000000Y-11620000D03*
X43000000Y-9080000D03*
X43000000Y-6540000D03*
D11*
X43000000Y-4000000D03*
%TD*%
D14*
%TO.C,H4*%
X-33000000Y-43000000D03*
%TD*%
%TO.C,H3*%
X33000000Y-43000000D03*
%TD*%
%TO.C,H2*%
X33000000Y43000000D03*
%TD*%
%TO.C,H1*%
X-33000000Y43000000D03*
%TD*%
D10*
%TO.C,BT1*%
X13600000Y40940000D03*
D11*
X13600000Y38400000D03*
%TD*%
M02*
