M48
; DRILL file {KiCad 5.1.10} date Sat Nov 27 19:57:05 2021
; FORMAT={-:-/ absolute / metric / decimal}
; #@! TF.CreationDate,2021-11-27T19:57:05+01:00
; #@! TF.GenerationSoftware,Kicad,Pcbnew,5.1.10
FMAT,2
METRIC
T1C0.300
T2C1.000
T3C1.100
T4C3.200
%
G90
G05
T1
X-30.4Y31.5
X-22.4Y42.9
X-22.1Y14.6
X-21.2Y18.3
X-20.5Y15.9
X-20.0Y12.5
X-19.7Y16.8
X-19.0Y24.3
X-18.9Y17.6
X-18.4Y13.8
X-17.6Y14.7
X-16.8Y15.5
X-16.5Y24.8
X-16.0Y16.5
X-14.7Y39.0
X-13.4Y27.0
X-12.3Y-13.1
X-11.6Y3.8
X-11.6Y-27.7
X-11.3Y24.9
X-10.3Y38.7
X-10.3Y27.4
X-10.3Y24.9
X-9.4Y-27.7
X-9.1Y27.4
X-8.95Y-20.7
X-8.95Y-22.3
X-8.95Y-23.9
X-8.4Y26.7
X-8.3Y35.8
X-8.3Y34.8
X-7.0Y23.4
X-6.9Y35.8
X-6.9Y34.8
X-6.6Y-13.1
X-4.9Y0.6
X-4.2Y2.5
X-4.1Y24.6
X-4.1Y22.4
X-3.5Y-30.2
X-3.5Y-31.3
X-2.7Y-23.1
X-2.6Y-46.2
X-1.9Y-15.5
X-1.8Y-31.3
X-1.3Y37.2
X-1.1Y-10.8
X-0.6Y16.7
X-0.3Y-15.5
X0.0Y-30.2
X0.3Y42.4
X0.5Y-14.5
X0.6Y-19.95
X0.9Y-11.3
X1.3Y-16.8
X1.543Y-19.966
X2.1Y-22.7
X2.2Y-16.8
X2.3Y0.0
X2.5Y18.2
X2.9Y-13.3
X3.2Y-24.0
X4.4Y-18.0
X4.5Y3.3
X5.2Y21.3
X5.7Y2.1
X6.0Y-21.7
X6.1Y20.0
X7.1Y17.6
X7.6Y44.9
X7.8Y-24.1
X8.2Y22.0
X8.2Y10.6
X8.7Y16.7
X9.3Y-14.1
X9.4Y-25.9
X10.2Y35.4
X10.2Y31.4
X13.3Y16.7
X17.0Y16.7
X28.7Y-5.3
X29.4Y-18.0
X29.4Y-21.7
X30.1Y-5.3
X36.9Y13.2
X36.9Y15.2
X39.7Y-17.2
X43.9Y15.3
X45.0Y-23.4
T2
X-34.27Y-0.73
X-34.27Y-3.27
X-34.27Y-31.73
X-34.27Y-34.27
X-31.73Y-0.73
X-31.73Y-3.27
X-31.73Y-31.73
X-31.73Y-34.27
X-24.13Y32.54
X-24.13Y30.0
X-21.59Y32.54
X-21.59Y30.0
X-20.4Y-38.8
X-20.4Y-41.34
X-19.05Y32.54
X-19.05Y30.0
X-16.51Y32.54
X-16.51Y30.0
X-13.97Y32.54
X-13.97Y30.0
X-11.43Y32.54
X-11.43Y30.0
X-8.89Y32.54
X-8.89Y30.0
X-6.35Y32.54
X-6.35Y30.0
X-3.81Y32.54
X-3.81Y30.0
X-1.27Y32.54
X-1.27Y30.0
X-1.27Y3.81
X-1.27Y1.27
X-1.27Y-1.27
X-1.27Y-3.81
X1.27Y32.54
X1.27Y30.0
X1.27Y3.81
X1.27Y1.27
X1.27Y-1.27
X1.27Y-3.81
X3.81Y32.54
X3.81Y30.0
X6.35Y32.54
X6.35Y30.0
X8.89Y32.54
X8.89Y30.0
X11.43Y32.54
X11.43Y30.0
X13.6Y40.94
X13.6Y38.4
X13.97Y32.54
X13.97Y30.0
X16.51Y32.54
X16.51Y30.0
X19.05Y32.54
X19.05Y30.0
X21.59Y32.54
X21.59Y30.0
X24.13Y32.54
X24.13Y30.0
X31.73Y-0.8
X31.73Y-3.34
X31.73Y-31.73
X31.73Y-34.27
X34.27Y-0.8
X34.27Y-3.34
X34.27Y-31.73
X34.27Y-34.27
X39.46Y17.08
X39.46Y14.54
X39.46Y12.0
X42.0Y17.08
X42.0Y14.54
X42.0Y12.0
X43.0Y-4.0
X43.0Y-6.54
X43.0Y-9.08
X43.0Y-11.62
X43.0Y-14.16
X43.0Y-16.7
X43.0Y-19.24
X43.0Y-21.78
X43.0Y-24.32
X43.0Y-26.86
X43.0Y-29.4
X43.0Y-31.94
T3
X-43.0Y29.0
X-43.0Y24.5
X-36.5Y29.0
X-36.5Y24.5
T4
X-33.0Y43.0
X-33.0Y-43.0
X33.0Y43.0
X33.0Y-43.0
T0
M30
