M48
; DRILL file {KiCad 5.1.10} date Wed Jul 14 21:34:37 2021
; FORMAT={-:-/ absolute / metric / decimal}
; #@! TF.CreationDate,2021-07-14T21:34:37+02:00
; #@! TF.GenerationSoftware,Kicad,Pcbnew,5.1.10
FMAT,2
METRIC
T1C0.400
T2C1.000
T3C3.200
%
G90
G05
T1
X41.4Y-1.15
X45.35Y4.95
X45.35Y4.1
X46.35Y3.3
X46.35Y2.6
X46.45Y1.6
X46.45Y0.9
X47.05Y3.3
X47.05Y2.6
X47.2Y1.25
X49.15Y5.95
X49.5Y1.6
X49.5Y0.9
X49.85Y5.95
X50.2Y0.9
X50.55Y5.95
X50.9Y0.9
X51.25Y5.95
X51.95Y5.95
X52.65Y5.95
X56.2Y0.05
X74.1Y-2.1
X79.4Y-5.5
X79.4Y-9.1
X144.7Y4.1
X145.4Y4.1
X151.15Y3.4
X151.9Y-0.85
X153.3Y-0.8
X155.545Y-0.745
X172.7Y0.4
X173.5Y3.1
X173.7Y2.1
X173.8Y0.4
X173.85Y-1.3
X176.0Y2.2
X178.4Y2.0
X178.65Y-1.7
X178.95Y2.85
X179.0Y-2.75
X181.5Y3.7
X181.5Y0.4
X184.305Y-4.305
X200.65Y1.4
X206.3Y1.5
X211.2Y-0.5
X214.4Y-3.8
X215.4Y-5.3
X216.45Y-0.35
X216.5Y1.15
X217.5Y-1.8
X217.7Y9.3
X217.7Y1.1
X218.5Y6.9
X218.8Y9.3
X219.2Y-5.3
X220.0Y3.6
X221.3Y0.45
X222.15Y5.5
X222.2Y-3.6
X223.45Y4.8
X223.65Y6.0
X225.85Y0.25
X226.0Y-5.8
X227.6Y-7.5
X227.7Y-0.1
X227.8Y1.6
X229.0Y1.0
X229.5Y-1.0
X236.1Y0.7
X236.3Y6.7
X236.5Y2.2
X236.5Y-2.3
X237.0Y4.9
X238.4Y5.9
X244.45Y-1.3
T2
X4.46Y-5.52
X4.46Y-8.06
X4.46Y-10.6
X7.0Y-5.52
X7.0Y-8.06
X7.0Y-10.6
X93.8Y5.5
X96.34Y5.5
X177.62Y8.8
X177.62Y6.26
X180.16Y8.8
X180.16Y6.26
X182.7Y8.8
X182.7Y6.26
X234.26Y-5.52
X234.26Y-8.06
X234.26Y-10.6
X236.8Y-5.52
X236.8Y-8.06
X236.8Y-10.6
T3
X20.0Y9.0
X20.0Y-9.0
X106.25Y9.0
X106.25Y-9.0
X192.5Y9.0
X192.5Y-9.0
T0
M30
