%TF.GenerationSoftware,KiCad,Pcbnew,5.1.10*%
%TF.CreationDate,2021-11-03T22:22:35+01:00*%
%TF.ProjectId,module_pcb,6d6f6475-6c65-45f7-9063-622e6b696361,rev?*%
%TF.SameCoordinates,PX1312d00PY6b49d20*%
%TF.FileFunction,Legend,Top*%
%TF.FilePolarity,Positive*%
%FSLAX46Y46*%
G04 Gerber Fmt 4.6, Leading zero omitted, Abs format (unit mm)*
G04 Created by KiCad (PCBNEW 5.1.10) date 2021-11-03 22:22:35*
%MOMM*%
%LPD*%
G01*
G04 APERTURE LIST*
%ADD10C,0.120000*%
%ADD11C,0.150000*%
G04 APERTURE END LIST*
D10*
X185416228Y10200000D02*
G75*
G03*
X185416228Y10200000I-316228J0D01*
G01*
X194400000Y11600000D02*
X193000000Y11600000D01*
X193700000Y10900000D02*
X194400000Y11600000D01*
X193700000Y10900000D02*
X193000000Y11600000D01*
%TO.C,C22*%
X67790000Y6911252D02*
X67790000Y5488748D01*
X69610000Y6911252D02*
X69610000Y5488748D01*
%TO.C,C17*%
X1790000Y6911252D02*
X1790000Y5488748D01*
X3610000Y6911252D02*
X3610000Y5488748D01*
%TO.C,C16*%
X128390000Y6911252D02*
X128390000Y5488748D01*
X130210000Y6911252D02*
X130210000Y5488748D01*
%TO.C,C15*%
X172290000Y6911252D02*
X172290000Y5488748D01*
X174110000Y6911252D02*
X174110000Y5488748D01*
%TO.C,C14*%
X243790000Y6911252D02*
X243790000Y5488748D01*
X245610000Y6911252D02*
X245610000Y5488748D01*
%TO.C,J1*%
X184030000Y10130000D02*
X184030000Y8800000D01*
X182700000Y10130000D02*
X184030000Y10130000D01*
X184030000Y7530000D02*
X184030000Y4930000D01*
X181430000Y7530000D02*
X184030000Y7530000D01*
X181430000Y10130000D02*
X181430000Y7530000D01*
X184030000Y4930000D02*
X176290000Y4930000D01*
X181430000Y10130000D02*
X176290000Y10130000D01*
X176290000Y10130000D02*
X176290000Y4930000D01*
%TO.C,D4*%
X225500000Y-3650000D02*
X226650000Y-3650000D01*
X225500000Y3650000D02*
X225500000Y-3650000D01*
X231000000Y3650000D02*
X231000000Y-3650000D01*
%TO.C,D2*%
X236500000Y-3650000D02*
X237650000Y-3650000D01*
X236500000Y3650000D02*
X236500000Y-3650000D01*
X242000000Y3650000D02*
X242000000Y-3650000D01*
%TO.C,D42*%
X16500000Y-3650000D02*
X17650000Y-3650000D01*
X16500000Y3650000D02*
X16500000Y-3650000D01*
X22000000Y3650000D02*
X22000000Y-3650000D01*
%TO.C,R3*%
X221677500Y-5962742D02*
X221677500Y-6437258D01*
X222722500Y-5962742D02*
X222722500Y-6437258D01*
%TO.C,D45*%
X0Y-3650000D02*
X1150000Y-3650000D01*
X0Y3650000D02*
X0Y-3650000D01*
X5500000Y3650000D02*
X5500000Y-3650000D01*
%TO.C,D40*%
X27500000Y-3650000D02*
X28650000Y-3650000D01*
X27500000Y3650000D02*
X27500000Y-3650000D01*
X33000000Y3650000D02*
X33000000Y-3650000D01*
%TO.C,D30*%
X82500000Y-3650000D02*
X83650000Y-3650000D01*
X82500000Y3650000D02*
X82500000Y-3650000D01*
X88000000Y3650000D02*
X88000000Y-3650000D01*
%TO.C,D20*%
X137500000Y-3650000D02*
X138650000Y-3650000D01*
X137500000Y3650000D02*
X137500000Y-3650000D01*
X143000000Y3650000D02*
X143000000Y-3650000D01*
%TO.C,D10*%
X192500000Y-3650000D02*
X193650000Y-3650000D01*
X192500000Y3650000D02*
X192500000Y-3650000D01*
X198000000Y3650000D02*
X198000000Y-3650000D01*
%TO.C,D44*%
X5500000Y-3650000D02*
X6650000Y-3650000D01*
X5500000Y3650000D02*
X5500000Y-3650000D01*
X11000000Y3650000D02*
X11000000Y-3650000D01*
%TO.C,D39*%
X33000000Y-3650000D02*
X34150000Y-3650000D01*
X33000000Y3650000D02*
X33000000Y-3650000D01*
X38500000Y3650000D02*
X38500000Y-3650000D01*
%TO.C,D29*%
X88000000Y-3650000D02*
X89150000Y-3650000D01*
X88000000Y3650000D02*
X88000000Y-3650000D01*
X93500000Y3650000D02*
X93500000Y-3650000D01*
%TO.C,D19*%
X143000000Y-3650000D02*
X144150000Y-3650000D01*
X143000000Y3650000D02*
X143000000Y-3650000D01*
X148500000Y3650000D02*
X148500000Y-3650000D01*
%TO.C,D9*%
X198000000Y-3650000D02*
X199150000Y-3650000D01*
X198000000Y3650000D02*
X198000000Y-3650000D01*
X203500000Y3650000D02*
X203500000Y-3650000D01*
%TO.C,D43*%
X11000000Y-3650000D02*
X12150000Y-3650000D01*
X11000000Y3650000D02*
X11000000Y-3650000D01*
X16500000Y3650000D02*
X16500000Y-3650000D01*
%TO.C,D38*%
X38500000Y-3650000D02*
X39650000Y-3650000D01*
X38500000Y3650000D02*
X38500000Y-3650000D01*
X44000000Y3650000D02*
X44000000Y-3650000D01*
%TO.C,D28*%
X93500000Y-3650000D02*
X94650000Y-3650000D01*
X93500000Y3650000D02*
X93500000Y-3650000D01*
X99000000Y3650000D02*
X99000000Y-3650000D01*
%TO.C,D18*%
X148500000Y-3650000D02*
X149650000Y-3650000D01*
X148500000Y3650000D02*
X148500000Y-3650000D01*
X154000000Y3650000D02*
X154000000Y-3650000D01*
%TO.C,D8*%
X203500000Y-3650000D02*
X204650000Y-3650000D01*
X203500000Y3650000D02*
X203500000Y-3650000D01*
X209000000Y3650000D02*
X209000000Y-3650000D01*
%TO.C,D37*%
X44000000Y-3650000D02*
X45150000Y-3650000D01*
X44000000Y3650000D02*
X44000000Y-3650000D01*
X49500000Y3650000D02*
X49500000Y-3650000D01*
%TO.C,D27*%
X99000000Y-3650000D02*
X100150000Y-3650000D01*
X99000000Y3650000D02*
X99000000Y-3650000D01*
X104500000Y3650000D02*
X104500000Y-3650000D01*
%TO.C,D17*%
X154000000Y-3650000D02*
X155150000Y-3650000D01*
X154000000Y3650000D02*
X154000000Y-3650000D01*
X159500000Y3650000D02*
X159500000Y-3650000D01*
%TO.C,D7*%
X209000000Y-3650000D02*
X210150000Y-3650000D01*
X209000000Y3650000D02*
X209000000Y-3650000D01*
X214500000Y3650000D02*
X214500000Y-3650000D01*
%TO.C,D41*%
X22000000Y-3650000D02*
X23150000Y-3650000D01*
X22000000Y3650000D02*
X22000000Y-3650000D01*
X27500000Y3650000D02*
X27500000Y-3650000D01*
%TO.C,D36*%
X49500000Y-3650000D02*
X50650000Y-3650000D01*
X49500000Y3650000D02*
X49500000Y-3650000D01*
X55000000Y3650000D02*
X55000000Y-3650000D01*
%TO.C,D26*%
X104500000Y-3650000D02*
X105650000Y-3650000D01*
X104500000Y3650000D02*
X104500000Y-3650000D01*
X110000000Y3650000D02*
X110000000Y-3650000D01*
%TO.C,D16*%
X159500000Y-3650000D02*
X160650000Y-3650000D01*
X159500000Y3650000D02*
X159500000Y-3650000D01*
X165000000Y3650000D02*
X165000000Y-3650000D01*
%TO.C,D6*%
X214500000Y-3650000D02*
X215650000Y-3650000D01*
X214500000Y3650000D02*
X214500000Y-3650000D01*
X220000000Y3650000D02*
X220000000Y-3650000D01*
%TO.C,D35*%
X55000000Y-3650000D02*
X56150000Y-3650000D01*
X55000000Y3650000D02*
X55000000Y-3650000D01*
X60500000Y3650000D02*
X60500000Y-3650000D01*
%TO.C,D25*%
X110000000Y-3650000D02*
X111150000Y-3650000D01*
X110000000Y3650000D02*
X110000000Y-3650000D01*
X115500000Y3650000D02*
X115500000Y-3650000D01*
%TO.C,D15*%
X165000000Y-3650000D02*
X166150000Y-3650000D01*
X165000000Y3650000D02*
X165000000Y-3650000D01*
X170500000Y3650000D02*
X170500000Y-3650000D01*
%TO.C,D5*%
X220000000Y-3650000D02*
X221150000Y-3650000D01*
X220000000Y3650000D02*
X220000000Y-3650000D01*
X225500000Y3650000D02*
X225500000Y-3650000D01*
%TO.C,D34*%
X60500000Y-3650000D02*
X61650000Y-3650000D01*
X60500000Y3650000D02*
X60500000Y-3650000D01*
X66000000Y3650000D02*
X66000000Y-3650000D01*
%TO.C,D24*%
X115500000Y-3650000D02*
X116650000Y-3650000D01*
X115500000Y3650000D02*
X115500000Y-3650000D01*
X121000000Y3650000D02*
X121000000Y-3650000D01*
%TO.C,D14*%
X170500000Y-3650000D02*
X171650000Y-3650000D01*
X170500000Y3650000D02*
X170500000Y-3650000D01*
X176000000Y3650000D02*
X176000000Y-3650000D01*
%TO.C,D33*%
X66000000Y-3650000D02*
X67150000Y-3650000D01*
X66000000Y3650000D02*
X66000000Y-3650000D01*
X71500000Y3650000D02*
X71500000Y-3650000D01*
%TO.C,D23*%
X121000000Y-3650000D02*
X122150000Y-3650000D01*
X121000000Y3650000D02*
X121000000Y-3650000D01*
X126500000Y3650000D02*
X126500000Y-3650000D01*
%TO.C,D13*%
X176000000Y-3650000D02*
X177150000Y-3650000D01*
X176000000Y3650000D02*
X176000000Y-3650000D01*
X181500000Y3650000D02*
X181500000Y-3650000D01*
%TO.C,D3*%
X231000000Y-3650000D02*
X232150000Y-3650000D01*
X231000000Y3650000D02*
X231000000Y-3650000D01*
X236500000Y3650000D02*
X236500000Y-3650000D01*
%TO.C,D32*%
X71500000Y-3650000D02*
X72650000Y-3650000D01*
X71500000Y3650000D02*
X71500000Y-3650000D01*
X77000000Y3650000D02*
X77000000Y-3650000D01*
%TO.C,D22*%
X126500000Y-3650000D02*
X127650000Y-3650000D01*
X126500000Y3650000D02*
X126500000Y-3650000D01*
X132000000Y3650000D02*
X132000000Y-3650000D01*
%TO.C,D12*%
X181500000Y-3650000D02*
X182650000Y-3650000D01*
X181500000Y3650000D02*
X181500000Y-3650000D01*
X187000000Y3650000D02*
X187000000Y-3650000D01*
%TO.C,D31*%
X77000000Y-3650000D02*
X78150000Y-3650000D01*
X77000000Y3650000D02*
X77000000Y-3650000D01*
X82500000Y3650000D02*
X82500000Y-3650000D01*
%TO.C,D21*%
X132000000Y-3650000D02*
X133150000Y-3650000D01*
X132000000Y3650000D02*
X132000000Y-3650000D01*
X137500000Y3650000D02*
X137500000Y-3650000D01*
%TO.C,D11*%
X187000000Y-3650000D02*
X188150000Y-3650000D01*
X187000000Y3650000D02*
X187000000Y-3650000D01*
X192500000Y3650000D02*
X192500000Y-3650000D01*
%TO.C,D1*%
X242000000Y-3650000D02*
X243150000Y-3650000D01*
X242000000Y3650000D02*
X242000000Y-3650000D01*
X247500000Y3650000D02*
X247500000Y-3650000D01*
%TO.C,D46*%
X222935000Y-10685000D02*
X222935000Y-8400000D01*
X221465000Y-10685000D02*
X222935000Y-10685000D01*
X221465000Y-8400000D02*
X221465000Y-10685000D01*
%TO.C,C22*%
D11*
X70907142Y5557143D02*
X70954761Y5509524D01*
X71002380Y5366667D01*
X71002380Y5271429D01*
X70954761Y5128572D01*
X70859523Y5033334D01*
X70764285Y4985715D01*
X70573809Y4938096D01*
X70430952Y4938096D01*
X70240476Y4985715D01*
X70145238Y5033334D01*
X70050000Y5128572D01*
X70002380Y5271429D01*
X70002380Y5366667D01*
X70050000Y5509524D01*
X70097619Y5557143D01*
X70097619Y5938096D02*
X70050000Y5985715D01*
X70002380Y6080953D01*
X70002380Y6319048D01*
X70050000Y6414286D01*
X70097619Y6461905D01*
X70192857Y6509524D01*
X70288095Y6509524D01*
X70430952Y6461905D01*
X71002380Y5890477D01*
X71002380Y6509524D01*
X70097619Y6890477D02*
X70050000Y6938096D01*
X70002380Y7033334D01*
X70002380Y7271429D01*
X70050000Y7366667D01*
X70097619Y7414286D01*
X70192857Y7461905D01*
X70288095Y7461905D01*
X70430952Y7414286D01*
X71002380Y6842858D01*
X71002380Y7461905D01*
%TO.C,C17*%
X4907142Y5557143D02*
X4954761Y5509524D01*
X5002380Y5366667D01*
X5002380Y5271429D01*
X4954761Y5128572D01*
X4859523Y5033334D01*
X4764285Y4985715D01*
X4573809Y4938096D01*
X4430952Y4938096D01*
X4240476Y4985715D01*
X4145238Y5033334D01*
X4050000Y5128572D01*
X4002380Y5271429D01*
X4002380Y5366667D01*
X4050000Y5509524D01*
X4097619Y5557143D01*
X5002380Y6509524D02*
X5002380Y5938096D01*
X5002380Y6223810D02*
X4002380Y6223810D01*
X4145238Y6128572D01*
X4240476Y6033334D01*
X4288095Y5938096D01*
X4002380Y6842858D02*
X4002380Y7509524D01*
X5002380Y7080953D01*
%TO.C,C16*%
X131507142Y5557143D02*
X131554761Y5509524D01*
X131602380Y5366667D01*
X131602380Y5271429D01*
X131554761Y5128572D01*
X131459523Y5033334D01*
X131364285Y4985715D01*
X131173809Y4938096D01*
X131030952Y4938096D01*
X130840476Y4985715D01*
X130745238Y5033334D01*
X130650000Y5128572D01*
X130602380Y5271429D01*
X130602380Y5366667D01*
X130650000Y5509524D01*
X130697619Y5557143D01*
X131602380Y6509524D02*
X131602380Y5938096D01*
X131602380Y6223810D02*
X130602380Y6223810D01*
X130745238Y6128572D01*
X130840476Y6033334D01*
X130888095Y5938096D01*
X130602380Y7366667D02*
X130602380Y7176191D01*
X130650000Y7080953D01*
X130697619Y7033334D01*
X130840476Y6938096D01*
X131030952Y6890477D01*
X131411904Y6890477D01*
X131507142Y6938096D01*
X131554761Y6985715D01*
X131602380Y7080953D01*
X131602380Y7271429D01*
X131554761Y7366667D01*
X131507142Y7414286D01*
X131411904Y7461905D01*
X131173809Y7461905D01*
X131078571Y7414286D01*
X131030952Y7366667D01*
X130983333Y7271429D01*
X130983333Y7080953D01*
X131030952Y6985715D01*
X131078571Y6938096D01*
X131173809Y6890477D01*
%TO.C,C15*%
X175407142Y5557143D02*
X175454761Y5509524D01*
X175502380Y5366667D01*
X175502380Y5271429D01*
X175454761Y5128572D01*
X175359523Y5033334D01*
X175264285Y4985715D01*
X175073809Y4938096D01*
X174930952Y4938096D01*
X174740476Y4985715D01*
X174645238Y5033334D01*
X174550000Y5128572D01*
X174502380Y5271429D01*
X174502380Y5366667D01*
X174550000Y5509524D01*
X174597619Y5557143D01*
X175502380Y6509524D02*
X175502380Y5938096D01*
X175502380Y6223810D02*
X174502380Y6223810D01*
X174645238Y6128572D01*
X174740476Y6033334D01*
X174788095Y5938096D01*
X174502380Y7414286D02*
X174502380Y6938096D01*
X174978571Y6890477D01*
X174930952Y6938096D01*
X174883333Y7033334D01*
X174883333Y7271429D01*
X174930952Y7366667D01*
X174978571Y7414286D01*
X175073809Y7461905D01*
X175311904Y7461905D01*
X175407142Y7414286D01*
X175454761Y7366667D01*
X175502380Y7271429D01*
X175502380Y7033334D01*
X175454761Y6938096D01*
X175407142Y6890477D01*
%TO.C,C14*%
X246907142Y5557143D02*
X246954761Y5509524D01*
X247002380Y5366667D01*
X247002380Y5271429D01*
X246954761Y5128572D01*
X246859523Y5033334D01*
X246764285Y4985715D01*
X246573809Y4938096D01*
X246430952Y4938096D01*
X246240476Y4985715D01*
X246145238Y5033334D01*
X246050000Y5128572D01*
X246002380Y5271429D01*
X246002380Y5366667D01*
X246050000Y5509524D01*
X246097619Y5557143D01*
X247002380Y6509524D02*
X247002380Y5938096D01*
X247002380Y6223810D02*
X246002380Y6223810D01*
X246145238Y6128572D01*
X246240476Y6033334D01*
X246288095Y5938096D01*
X246335714Y7366667D02*
X247002380Y7366667D01*
X245954761Y7128572D02*
X246669047Y6890477D01*
X246669047Y7509524D01*
%TO.C,J1*%
X184482380Y7196667D02*
X185196666Y7196667D01*
X185339523Y7149048D01*
X185434761Y7053810D01*
X185482380Y6910953D01*
X185482380Y6815715D01*
X185482380Y8196667D02*
X185482380Y7625239D01*
X185482380Y7910953D02*
X184482380Y7910953D01*
X184625238Y7815715D01*
X184720476Y7720477D01*
X184768095Y7625239D01*
%TO.C,D4*%
X227511904Y-4702380D02*
X227511904Y-3702380D01*
X227750000Y-3702380D01*
X227892857Y-3750000D01*
X227988095Y-3845238D01*
X228035714Y-3940476D01*
X228083333Y-4130952D01*
X228083333Y-4273809D01*
X228035714Y-4464285D01*
X227988095Y-4559523D01*
X227892857Y-4654761D01*
X227750000Y-4702380D01*
X227511904Y-4702380D01*
X228940476Y-4035714D02*
X228940476Y-4702380D01*
X228702380Y-3654761D02*
X228464285Y-4369047D01*
X229083333Y-4369047D01*
X230302380Y4435715D02*
X230302380Y3864286D01*
X230302380Y4150000D02*
X229302380Y4150000D01*
X229445238Y4054762D01*
X229540476Y3959524D01*
X229588095Y3864286D01*
%TO.C,D2*%
X238561904Y-4702380D02*
X238561904Y-3702380D01*
X238800000Y-3702380D01*
X238942857Y-3750000D01*
X239038095Y-3845238D01*
X239085714Y-3940476D01*
X239133333Y-4130952D01*
X239133333Y-4273809D01*
X239085714Y-4464285D01*
X239038095Y-4559523D01*
X238942857Y-4654761D01*
X238800000Y-4702380D01*
X238561904Y-4702380D01*
X239514285Y-3797619D02*
X239561904Y-3750000D01*
X239657142Y-3702380D01*
X239895238Y-3702380D01*
X239990476Y-3750000D01*
X240038095Y-3797619D01*
X240085714Y-3892857D01*
X240085714Y-3988095D01*
X240038095Y-4130952D01*
X239466666Y-4702380D01*
X240085714Y-4702380D01*
X241302380Y4435715D02*
X241302380Y3864286D01*
X241302380Y4150000D02*
X240302380Y4150000D01*
X240445238Y4054762D01*
X240540476Y3959524D01*
X240588095Y3864286D01*
%TO.C,H7*%
X19338095Y8647620D02*
X19338095Y9647620D01*
X19338095Y9171429D02*
X19909523Y9171429D01*
X19909523Y8647620D02*
X19909523Y9647620D01*
X20290476Y9647620D02*
X20957142Y9647620D01*
X20528571Y8647620D01*
%TO.C,H5*%
X105338095Y-9352380D02*
X105338095Y-8352380D01*
X105338095Y-8828571D02*
X105909523Y-8828571D01*
X105909523Y-9352380D02*
X105909523Y-8352380D01*
X106861904Y-8352380D02*
X106385714Y-8352380D01*
X106338095Y-8828571D01*
X106385714Y-8780952D01*
X106480952Y-8733333D01*
X106719047Y-8733333D01*
X106814285Y-8780952D01*
X106861904Y-8828571D01*
X106909523Y-8923809D01*
X106909523Y-9161904D01*
X106861904Y-9257142D01*
X106814285Y-9304761D01*
X106719047Y-9352380D01*
X106480952Y-9352380D01*
X106385714Y-9304761D01*
X106338095Y-9257142D01*
%TO.C,H4*%
X105438095Y8447620D02*
X105438095Y9447620D01*
X105438095Y8971429D02*
X106009523Y8971429D01*
X106009523Y8447620D02*
X106009523Y9447620D01*
X106914285Y9114286D02*
X106914285Y8447620D01*
X106676190Y9495239D02*
X106438095Y8780953D01*
X107057142Y8780953D01*
%TO.C,H3*%
X191738095Y-9452380D02*
X191738095Y-8452380D01*
X191738095Y-8928571D02*
X192309523Y-8928571D01*
X192309523Y-9452380D02*
X192309523Y-8452380D01*
X192690476Y-8452380D02*
X193309523Y-8452380D01*
X192976190Y-8833333D01*
X193119047Y-8833333D01*
X193214285Y-8880952D01*
X193261904Y-8928571D01*
X193309523Y-9023809D01*
X193309523Y-9261904D01*
X193261904Y-9357142D01*
X193214285Y-9404761D01*
X193119047Y-9452380D01*
X192833333Y-9452380D01*
X192738095Y-9404761D01*
X192690476Y-9357142D01*
%TO.C,H2*%
X19138095Y-9252380D02*
X19138095Y-8252380D01*
X19138095Y-8728571D02*
X19709523Y-8728571D01*
X19709523Y-9252380D02*
X19709523Y-8252380D01*
X20138095Y-8347619D02*
X20185714Y-8300000D01*
X20280952Y-8252380D01*
X20519047Y-8252380D01*
X20614285Y-8300000D01*
X20661904Y-8347619D01*
X20709523Y-8442857D01*
X20709523Y-8538095D01*
X20661904Y-8680952D01*
X20090476Y-9252380D01*
X20709523Y-9252380D01*
%TO.C,H1*%
X191738095Y8647620D02*
X191738095Y9647620D01*
X191738095Y9171429D02*
X192309523Y9171429D01*
X192309523Y8647620D02*
X192309523Y9647620D01*
X193309523Y8647620D02*
X192738095Y8647620D01*
X193023809Y8647620D02*
X193023809Y9647620D01*
X192928571Y9504762D01*
X192833333Y9409524D01*
X192738095Y9361905D01*
%TO.C,D42*%
X18035714Y-4702380D02*
X18035714Y-3702380D01*
X18273809Y-3702380D01*
X18416666Y-3750000D01*
X18511904Y-3845238D01*
X18559523Y-3940476D01*
X18607142Y-4130952D01*
X18607142Y-4273809D01*
X18559523Y-4464285D01*
X18511904Y-4559523D01*
X18416666Y-4654761D01*
X18273809Y-4702380D01*
X18035714Y-4702380D01*
X19464285Y-4035714D02*
X19464285Y-4702380D01*
X19226190Y-3654761D02*
X18988095Y-4369047D01*
X19607142Y-4369047D01*
X19940476Y-3797619D02*
X19988095Y-3750000D01*
X20083333Y-3702380D01*
X20321428Y-3702380D01*
X20416666Y-3750000D01*
X20464285Y-3797619D01*
X20511904Y-3892857D01*
X20511904Y-3988095D01*
X20464285Y-4130952D01*
X19892857Y-4702380D01*
X20511904Y-4702380D01*
X21302380Y4435715D02*
X21302380Y3864286D01*
X21302380Y4150000D02*
X20302380Y4150000D01*
X20445238Y4054762D01*
X20540476Y3959524D01*
X20588095Y3864286D01*
%TO.C,R3*%
X221352380Y-6366666D02*
X220876190Y-6700000D01*
X221352380Y-6938095D02*
X220352380Y-6938095D01*
X220352380Y-6557142D01*
X220400000Y-6461904D01*
X220447619Y-6414285D01*
X220542857Y-6366666D01*
X220685714Y-6366666D01*
X220780952Y-6414285D01*
X220828571Y-6461904D01*
X220876190Y-6557142D01*
X220876190Y-6938095D01*
X220352380Y-6033333D02*
X220352380Y-5414285D01*
X220733333Y-5747619D01*
X220733333Y-5604761D01*
X220780952Y-5509523D01*
X220828571Y-5461904D01*
X220923809Y-5414285D01*
X221161904Y-5414285D01*
X221257142Y-5461904D01*
X221304761Y-5509523D01*
X221352380Y-5604761D01*
X221352380Y-5890476D01*
X221304761Y-5985714D01*
X221257142Y-6033333D01*
%TO.C,D45*%
X1585714Y-4652380D02*
X1585714Y-3652380D01*
X1823809Y-3652380D01*
X1966666Y-3700000D01*
X2061904Y-3795238D01*
X2109523Y-3890476D01*
X2157142Y-4080952D01*
X2157142Y-4223809D01*
X2109523Y-4414285D01*
X2061904Y-4509523D01*
X1966666Y-4604761D01*
X1823809Y-4652380D01*
X1585714Y-4652380D01*
X3014285Y-3985714D02*
X3014285Y-4652380D01*
X2776190Y-3604761D02*
X2538095Y-4319047D01*
X3157142Y-4319047D01*
X4014285Y-3652380D02*
X3538095Y-3652380D01*
X3490476Y-4128571D01*
X3538095Y-4080952D01*
X3633333Y-4033333D01*
X3871428Y-4033333D01*
X3966666Y-4080952D01*
X4014285Y-4128571D01*
X4061904Y-4223809D01*
X4061904Y-4461904D01*
X4014285Y-4557142D01*
X3966666Y-4604761D01*
X3871428Y-4652380D01*
X3633333Y-4652380D01*
X3538095Y-4604761D01*
X3490476Y-4557142D01*
X4802380Y4435715D02*
X4802380Y3864286D01*
X4802380Y4150000D02*
X3802380Y4150000D01*
X3945238Y4054762D01*
X4040476Y3959524D01*
X4088095Y3864286D01*
%TO.C,D40*%
X29035714Y-4702380D02*
X29035714Y-3702380D01*
X29273809Y-3702380D01*
X29416666Y-3750000D01*
X29511904Y-3845238D01*
X29559523Y-3940476D01*
X29607142Y-4130952D01*
X29607142Y-4273809D01*
X29559523Y-4464285D01*
X29511904Y-4559523D01*
X29416666Y-4654761D01*
X29273809Y-4702380D01*
X29035714Y-4702380D01*
X30464285Y-4035714D02*
X30464285Y-4702380D01*
X30226190Y-3654761D02*
X29988095Y-4369047D01*
X30607142Y-4369047D01*
X31178571Y-3702380D02*
X31273809Y-3702380D01*
X31369047Y-3750000D01*
X31416666Y-3797619D01*
X31464285Y-3892857D01*
X31511904Y-4083333D01*
X31511904Y-4321428D01*
X31464285Y-4511904D01*
X31416666Y-4607142D01*
X31369047Y-4654761D01*
X31273809Y-4702380D01*
X31178571Y-4702380D01*
X31083333Y-4654761D01*
X31035714Y-4607142D01*
X30988095Y-4511904D01*
X30940476Y-4321428D01*
X30940476Y-4083333D01*
X30988095Y-3892857D01*
X31035714Y-3797619D01*
X31083333Y-3750000D01*
X31178571Y-3702380D01*
X32302380Y4435715D02*
X32302380Y3864286D01*
X32302380Y4150000D02*
X31302380Y4150000D01*
X31445238Y4054762D01*
X31540476Y3959524D01*
X31588095Y3864286D01*
%TO.C,D30*%
X84035714Y-4702380D02*
X84035714Y-3702380D01*
X84273809Y-3702380D01*
X84416666Y-3750000D01*
X84511904Y-3845238D01*
X84559523Y-3940476D01*
X84607142Y-4130952D01*
X84607142Y-4273809D01*
X84559523Y-4464285D01*
X84511904Y-4559523D01*
X84416666Y-4654761D01*
X84273809Y-4702380D01*
X84035714Y-4702380D01*
X84940476Y-3702380D02*
X85559523Y-3702380D01*
X85226190Y-4083333D01*
X85369047Y-4083333D01*
X85464285Y-4130952D01*
X85511904Y-4178571D01*
X85559523Y-4273809D01*
X85559523Y-4511904D01*
X85511904Y-4607142D01*
X85464285Y-4654761D01*
X85369047Y-4702380D01*
X85083333Y-4702380D01*
X84988095Y-4654761D01*
X84940476Y-4607142D01*
X86178571Y-3702380D02*
X86273809Y-3702380D01*
X86369047Y-3750000D01*
X86416666Y-3797619D01*
X86464285Y-3892857D01*
X86511904Y-4083333D01*
X86511904Y-4321428D01*
X86464285Y-4511904D01*
X86416666Y-4607142D01*
X86369047Y-4654761D01*
X86273809Y-4702380D01*
X86178571Y-4702380D01*
X86083333Y-4654761D01*
X86035714Y-4607142D01*
X85988095Y-4511904D01*
X85940476Y-4321428D01*
X85940476Y-4083333D01*
X85988095Y-3892857D01*
X86035714Y-3797619D01*
X86083333Y-3750000D01*
X86178571Y-3702380D01*
X87302380Y4435715D02*
X87302380Y3864286D01*
X87302380Y4150000D02*
X86302380Y4150000D01*
X86445238Y4054762D01*
X86540476Y3959524D01*
X86588095Y3864286D01*
%TO.C,D20*%
X139035714Y-4702380D02*
X139035714Y-3702380D01*
X139273809Y-3702380D01*
X139416666Y-3750000D01*
X139511904Y-3845238D01*
X139559523Y-3940476D01*
X139607142Y-4130952D01*
X139607142Y-4273809D01*
X139559523Y-4464285D01*
X139511904Y-4559523D01*
X139416666Y-4654761D01*
X139273809Y-4702380D01*
X139035714Y-4702380D01*
X139988095Y-3797619D02*
X140035714Y-3750000D01*
X140130952Y-3702380D01*
X140369047Y-3702380D01*
X140464285Y-3750000D01*
X140511904Y-3797619D01*
X140559523Y-3892857D01*
X140559523Y-3988095D01*
X140511904Y-4130952D01*
X139940476Y-4702380D01*
X140559523Y-4702380D01*
X141178571Y-3702380D02*
X141273809Y-3702380D01*
X141369047Y-3750000D01*
X141416666Y-3797619D01*
X141464285Y-3892857D01*
X141511904Y-4083333D01*
X141511904Y-4321428D01*
X141464285Y-4511904D01*
X141416666Y-4607142D01*
X141369047Y-4654761D01*
X141273809Y-4702380D01*
X141178571Y-4702380D01*
X141083333Y-4654761D01*
X141035714Y-4607142D01*
X140988095Y-4511904D01*
X140940476Y-4321428D01*
X140940476Y-4083333D01*
X140988095Y-3892857D01*
X141035714Y-3797619D01*
X141083333Y-3750000D01*
X141178571Y-3702380D01*
X142302380Y4435715D02*
X142302380Y3864286D01*
X142302380Y4150000D02*
X141302380Y4150000D01*
X141445238Y4054762D01*
X141540476Y3959524D01*
X141588095Y3864286D01*
%TO.C,D10*%
X194035714Y-4702380D02*
X194035714Y-3702380D01*
X194273809Y-3702380D01*
X194416666Y-3750000D01*
X194511904Y-3845238D01*
X194559523Y-3940476D01*
X194607142Y-4130952D01*
X194607142Y-4273809D01*
X194559523Y-4464285D01*
X194511904Y-4559523D01*
X194416666Y-4654761D01*
X194273809Y-4702380D01*
X194035714Y-4702380D01*
X195559523Y-4702380D02*
X194988095Y-4702380D01*
X195273809Y-4702380D02*
X195273809Y-3702380D01*
X195178571Y-3845238D01*
X195083333Y-3940476D01*
X194988095Y-3988095D01*
X196178571Y-3702380D02*
X196273809Y-3702380D01*
X196369047Y-3750000D01*
X196416666Y-3797619D01*
X196464285Y-3892857D01*
X196511904Y-4083333D01*
X196511904Y-4321428D01*
X196464285Y-4511904D01*
X196416666Y-4607142D01*
X196369047Y-4654761D01*
X196273809Y-4702380D01*
X196178571Y-4702380D01*
X196083333Y-4654761D01*
X196035714Y-4607142D01*
X195988095Y-4511904D01*
X195940476Y-4321428D01*
X195940476Y-4083333D01*
X195988095Y-3892857D01*
X196035714Y-3797619D01*
X196083333Y-3750000D01*
X196178571Y-3702380D01*
X197302380Y4435715D02*
X197302380Y3864286D01*
X197302380Y4150000D02*
X196302380Y4150000D01*
X196445238Y4054762D01*
X196540476Y3959524D01*
X196588095Y3864286D01*
%TO.C,D44*%
X7035714Y-4702380D02*
X7035714Y-3702380D01*
X7273809Y-3702380D01*
X7416666Y-3750000D01*
X7511904Y-3845238D01*
X7559523Y-3940476D01*
X7607142Y-4130952D01*
X7607142Y-4273809D01*
X7559523Y-4464285D01*
X7511904Y-4559523D01*
X7416666Y-4654761D01*
X7273809Y-4702380D01*
X7035714Y-4702380D01*
X8464285Y-4035714D02*
X8464285Y-4702380D01*
X8226190Y-3654761D02*
X7988095Y-4369047D01*
X8607142Y-4369047D01*
X9416666Y-4035714D02*
X9416666Y-4702380D01*
X9178571Y-3654761D02*
X8940476Y-4369047D01*
X9559523Y-4369047D01*
X10302380Y4435715D02*
X10302380Y3864286D01*
X10302380Y4150000D02*
X9302380Y4150000D01*
X9445238Y4054762D01*
X9540476Y3959524D01*
X9588095Y3864286D01*
%TO.C,D39*%
X34535714Y-4702380D02*
X34535714Y-3702380D01*
X34773809Y-3702380D01*
X34916666Y-3750000D01*
X35011904Y-3845238D01*
X35059523Y-3940476D01*
X35107142Y-4130952D01*
X35107142Y-4273809D01*
X35059523Y-4464285D01*
X35011904Y-4559523D01*
X34916666Y-4654761D01*
X34773809Y-4702380D01*
X34535714Y-4702380D01*
X35440476Y-3702380D02*
X36059523Y-3702380D01*
X35726190Y-4083333D01*
X35869047Y-4083333D01*
X35964285Y-4130952D01*
X36011904Y-4178571D01*
X36059523Y-4273809D01*
X36059523Y-4511904D01*
X36011904Y-4607142D01*
X35964285Y-4654761D01*
X35869047Y-4702380D01*
X35583333Y-4702380D01*
X35488095Y-4654761D01*
X35440476Y-4607142D01*
X36535714Y-4702380D02*
X36726190Y-4702380D01*
X36821428Y-4654761D01*
X36869047Y-4607142D01*
X36964285Y-4464285D01*
X37011904Y-4273809D01*
X37011904Y-3892857D01*
X36964285Y-3797619D01*
X36916666Y-3750000D01*
X36821428Y-3702380D01*
X36630952Y-3702380D01*
X36535714Y-3750000D01*
X36488095Y-3797619D01*
X36440476Y-3892857D01*
X36440476Y-4130952D01*
X36488095Y-4226190D01*
X36535714Y-4273809D01*
X36630952Y-4321428D01*
X36821428Y-4321428D01*
X36916666Y-4273809D01*
X36964285Y-4226190D01*
X37011904Y-4130952D01*
X37802380Y4435715D02*
X37802380Y3864286D01*
X37802380Y4150000D02*
X36802380Y4150000D01*
X36945238Y4054762D01*
X37040476Y3959524D01*
X37088095Y3864286D01*
%TO.C,D29*%
X89535714Y-4702380D02*
X89535714Y-3702380D01*
X89773809Y-3702380D01*
X89916666Y-3750000D01*
X90011904Y-3845238D01*
X90059523Y-3940476D01*
X90107142Y-4130952D01*
X90107142Y-4273809D01*
X90059523Y-4464285D01*
X90011904Y-4559523D01*
X89916666Y-4654761D01*
X89773809Y-4702380D01*
X89535714Y-4702380D01*
X90488095Y-3797619D02*
X90535714Y-3750000D01*
X90630952Y-3702380D01*
X90869047Y-3702380D01*
X90964285Y-3750000D01*
X91011904Y-3797619D01*
X91059523Y-3892857D01*
X91059523Y-3988095D01*
X91011904Y-4130952D01*
X90440476Y-4702380D01*
X91059523Y-4702380D01*
X91535714Y-4702380D02*
X91726190Y-4702380D01*
X91821428Y-4654761D01*
X91869047Y-4607142D01*
X91964285Y-4464285D01*
X92011904Y-4273809D01*
X92011904Y-3892857D01*
X91964285Y-3797619D01*
X91916666Y-3750000D01*
X91821428Y-3702380D01*
X91630952Y-3702380D01*
X91535714Y-3750000D01*
X91488095Y-3797619D01*
X91440476Y-3892857D01*
X91440476Y-4130952D01*
X91488095Y-4226190D01*
X91535714Y-4273809D01*
X91630952Y-4321428D01*
X91821428Y-4321428D01*
X91916666Y-4273809D01*
X91964285Y-4226190D01*
X92011904Y-4130952D01*
X92802380Y4435715D02*
X92802380Y3864286D01*
X92802380Y4150000D02*
X91802380Y4150000D01*
X91945238Y4054762D01*
X92040476Y3959524D01*
X92088095Y3864286D01*
%TO.C,D19*%
X144535714Y-4702380D02*
X144535714Y-3702380D01*
X144773809Y-3702380D01*
X144916666Y-3750000D01*
X145011904Y-3845238D01*
X145059523Y-3940476D01*
X145107142Y-4130952D01*
X145107142Y-4273809D01*
X145059523Y-4464285D01*
X145011904Y-4559523D01*
X144916666Y-4654761D01*
X144773809Y-4702380D01*
X144535714Y-4702380D01*
X146059523Y-4702380D02*
X145488095Y-4702380D01*
X145773809Y-4702380D02*
X145773809Y-3702380D01*
X145678571Y-3845238D01*
X145583333Y-3940476D01*
X145488095Y-3988095D01*
X146535714Y-4702380D02*
X146726190Y-4702380D01*
X146821428Y-4654761D01*
X146869047Y-4607142D01*
X146964285Y-4464285D01*
X147011904Y-4273809D01*
X147011904Y-3892857D01*
X146964285Y-3797619D01*
X146916666Y-3750000D01*
X146821428Y-3702380D01*
X146630952Y-3702380D01*
X146535714Y-3750000D01*
X146488095Y-3797619D01*
X146440476Y-3892857D01*
X146440476Y-4130952D01*
X146488095Y-4226190D01*
X146535714Y-4273809D01*
X146630952Y-4321428D01*
X146821428Y-4321428D01*
X146916666Y-4273809D01*
X146964285Y-4226190D01*
X147011904Y-4130952D01*
X147802380Y4435715D02*
X147802380Y3864286D01*
X147802380Y4150000D02*
X146802380Y4150000D01*
X146945238Y4054762D01*
X147040476Y3959524D01*
X147088095Y3864286D01*
%TO.C,D9*%
X200011904Y-4702380D02*
X200011904Y-3702380D01*
X200250000Y-3702380D01*
X200392857Y-3750000D01*
X200488095Y-3845238D01*
X200535714Y-3940476D01*
X200583333Y-4130952D01*
X200583333Y-4273809D01*
X200535714Y-4464285D01*
X200488095Y-4559523D01*
X200392857Y-4654761D01*
X200250000Y-4702380D01*
X200011904Y-4702380D01*
X201059523Y-4702380D02*
X201250000Y-4702380D01*
X201345238Y-4654761D01*
X201392857Y-4607142D01*
X201488095Y-4464285D01*
X201535714Y-4273809D01*
X201535714Y-3892857D01*
X201488095Y-3797619D01*
X201440476Y-3750000D01*
X201345238Y-3702380D01*
X201154761Y-3702380D01*
X201059523Y-3750000D01*
X201011904Y-3797619D01*
X200964285Y-3892857D01*
X200964285Y-4130952D01*
X201011904Y-4226190D01*
X201059523Y-4273809D01*
X201154761Y-4321428D01*
X201345238Y-4321428D01*
X201440476Y-4273809D01*
X201488095Y-4226190D01*
X201535714Y-4130952D01*
X202802380Y4435715D02*
X202802380Y3864286D01*
X202802380Y4150000D02*
X201802380Y4150000D01*
X201945238Y4054762D01*
X202040476Y3959524D01*
X202088095Y3864286D01*
%TO.C,D43*%
X12535714Y-4702380D02*
X12535714Y-3702380D01*
X12773809Y-3702380D01*
X12916666Y-3750000D01*
X13011904Y-3845238D01*
X13059523Y-3940476D01*
X13107142Y-4130952D01*
X13107142Y-4273809D01*
X13059523Y-4464285D01*
X13011904Y-4559523D01*
X12916666Y-4654761D01*
X12773809Y-4702380D01*
X12535714Y-4702380D01*
X13964285Y-4035714D02*
X13964285Y-4702380D01*
X13726190Y-3654761D02*
X13488095Y-4369047D01*
X14107142Y-4369047D01*
X14392857Y-3702380D02*
X15011904Y-3702380D01*
X14678571Y-4083333D01*
X14821428Y-4083333D01*
X14916666Y-4130952D01*
X14964285Y-4178571D01*
X15011904Y-4273809D01*
X15011904Y-4511904D01*
X14964285Y-4607142D01*
X14916666Y-4654761D01*
X14821428Y-4702380D01*
X14535714Y-4702380D01*
X14440476Y-4654761D01*
X14392857Y-4607142D01*
X15802380Y4435715D02*
X15802380Y3864286D01*
X15802380Y4150000D02*
X14802380Y4150000D01*
X14945238Y4054762D01*
X15040476Y3959524D01*
X15088095Y3864286D01*
%TO.C,D38*%
X40035714Y-4702380D02*
X40035714Y-3702380D01*
X40273809Y-3702380D01*
X40416666Y-3750000D01*
X40511904Y-3845238D01*
X40559523Y-3940476D01*
X40607142Y-4130952D01*
X40607142Y-4273809D01*
X40559523Y-4464285D01*
X40511904Y-4559523D01*
X40416666Y-4654761D01*
X40273809Y-4702380D01*
X40035714Y-4702380D01*
X40940476Y-3702380D02*
X41559523Y-3702380D01*
X41226190Y-4083333D01*
X41369047Y-4083333D01*
X41464285Y-4130952D01*
X41511904Y-4178571D01*
X41559523Y-4273809D01*
X41559523Y-4511904D01*
X41511904Y-4607142D01*
X41464285Y-4654761D01*
X41369047Y-4702380D01*
X41083333Y-4702380D01*
X40988095Y-4654761D01*
X40940476Y-4607142D01*
X42130952Y-4130952D02*
X42035714Y-4083333D01*
X41988095Y-4035714D01*
X41940476Y-3940476D01*
X41940476Y-3892857D01*
X41988095Y-3797619D01*
X42035714Y-3750000D01*
X42130952Y-3702380D01*
X42321428Y-3702380D01*
X42416666Y-3750000D01*
X42464285Y-3797619D01*
X42511904Y-3892857D01*
X42511904Y-3940476D01*
X42464285Y-4035714D01*
X42416666Y-4083333D01*
X42321428Y-4130952D01*
X42130952Y-4130952D01*
X42035714Y-4178571D01*
X41988095Y-4226190D01*
X41940476Y-4321428D01*
X41940476Y-4511904D01*
X41988095Y-4607142D01*
X42035714Y-4654761D01*
X42130952Y-4702380D01*
X42321428Y-4702380D01*
X42416666Y-4654761D01*
X42464285Y-4607142D01*
X42511904Y-4511904D01*
X42511904Y-4321428D01*
X42464285Y-4226190D01*
X42416666Y-4178571D01*
X42321428Y-4130952D01*
X43302380Y4435715D02*
X43302380Y3864286D01*
X43302380Y4150000D02*
X42302380Y4150000D01*
X42445238Y4054762D01*
X42540476Y3959524D01*
X42588095Y3864286D01*
%TO.C,D28*%
X95035714Y-4702380D02*
X95035714Y-3702380D01*
X95273809Y-3702380D01*
X95416666Y-3750000D01*
X95511904Y-3845238D01*
X95559523Y-3940476D01*
X95607142Y-4130952D01*
X95607142Y-4273809D01*
X95559523Y-4464285D01*
X95511904Y-4559523D01*
X95416666Y-4654761D01*
X95273809Y-4702380D01*
X95035714Y-4702380D01*
X95988095Y-3797619D02*
X96035714Y-3750000D01*
X96130952Y-3702380D01*
X96369047Y-3702380D01*
X96464285Y-3750000D01*
X96511904Y-3797619D01*
X96559523Y-3892857D01*
X96559523Y-3988095D01*
X96511904Y-4130952D01*
X95940476Y-4702380D01*
X96559523Y-4702380D01*
X97130952Y-4130952D02*
X97035714Y-4083333D01*
X96988095Y-4035714D01*
X96940476Y-3940476D01*
X96940476Y-3892857D01*
X96988095Y-3797619D01*
X97035714Y-3750000D01*
X97130952Y-3702380D01*
X97321428Y-3702380D01*
X97416666Y-3750000D01*
X97464285Y-3797619D01*
X97511904Y-3892857D01*
X97511904Y-3940476D01*
X97464285Y-4035714D01*
X97416666Y-4083333D01*
X97321428Y-4130952D01*
X97130952Y-4130952D01*
X97035714Y-4178571D01*
X96988095Y-4226190D01*
X96940476Y-4321428D01*
X96940476Y-4511904D01*
X96988095Y-4607142D01*
X97035714Y-4654761D01*
X97130952Y-4702380D01*
X97321428Y-4702380D01*
X97416666Y-4654761D01*
X97464285Y-4607142D01*
X97511904Y-4511904D01*
X97511904Y-4321428D01*
X97464285Y-4226190D01*
X97416666Y-4178571D01*
X97321428Y-4130952D01*
X98302380Y4435715D02*
X98302380Y3864286D01*
X98302380Y4150000D02*
X97302380Y4150000D01*
X97445238Y4054762D01*
X97540476Y3959524D01*
X97588095Y3864286D01*
%TO.C,D18*%
X150035714Y-4702380D02*
X150035714Y-3702380D01*
X150273809Y-3702380D01*
X150416666Y-3750000D01*
X150511904Y-3845238D01*
X150559523Y-3940476D01*
X150607142Y-4130952D01*
X150607142Y-4273809D01*
X150559523Y-4464285D01*
X150511904Y-4559523D01*
X150416666Y-4654761D01*
X150273809Y-4702380D01*
X150035714Y-4702380D01*
X151559523Y-4702380D02*
X150988095Y-4702380D01*
X151273809Y-4702380D02*
X151273809Y-3702380D01*
X151178571Y-3845238D01*
X151083333Y-3940476D01*
X150988095Y-3988095D01*
X152130952Y-4130952D02*
X152035714Y-4083333D01*
X151988095Y-4035714D01*
X151940476Y-3940476D01*
X151940476Y-3892857D01*
X151988095Y-3797619D01*
X152035714Y-3750000D01*
X152130952Y-3702380D01*
X152321428Y-3702380D01*
X152416666Y-3750000D01*
X152464285Y-3797619D01*
X152511904Y-3892857D01*
X152511904Y-3940476D01*
X152464285Y-4035714D01*
X152416666Y-4083333D01*
X152321428Y-4130952D01*
X152130952Y-4130952D01*
X152035714Y-4178571D01*
X151988095Y-4226190D01*
X151940476Y-4321428D01*
X151940476Y-4511904D01*
X151988095Y-4607142D01*
X152035714Y-4654761D01*
X152130952Y-4702380D01*
X152321428Y-4702380D01*
X152416666Y-4654761D01*
X152464285Y-4607142D01*
X152511904Y-4511904D01*
X152511904Y-4321428D01*
X152464285Y-4226190D01*
X152416666Y-4178571D01*
X152321428Y-4130952D01*
X153302380Y4435715D02*
X153302380Y3864286D01*
X153302380Y4150000D02*
X152302380Y4150000D01*
X152445238Y4054762D01*
X152540476Y3959524D01*
X152588095Y3864286D01*
%TO.C,D8*%
X205511904Y-4702380D02*
X205511904Y-3702380D01*
X205750000Y-3702380D01*
X205892857Y-3750000D01*
X205988095Y-3845238D01*
X206035714Y-3940476D01*
X206083333Y-4130952D01*
X206083333Y-4273809D01*
X206035714Y-4464285D01*
X205988095Y-4559523D01*
X205892857Y-4654761D01*
X205750000Y-4702380D01*
X205511904Y-4702380D01*
X206654761Y-4130952D02*
X206559523Y-4083333D01*
X206511904Y-4035714D01*
X206464285Y-3940476D01*
X206464285Y-3892857D01*
X206511904Y-3797619D01*
X206559523Y-3750000D01*
X206654761Y-3702380D01*
X206845238Y-3702380D01*
X206940476Y-3750000D01*
X206988095Y-3797619D01*
X207035714Y-3892857D01*
X207035714Y-3940476D01*
X206988095Y-4035714D01*
X206940476Y-4083333D01*
X206845238Y-4130952D01*
X206654761Y-4130952D01*
X206559523Y-4178571D01*
X206511904Y-4226190D01*
X206464285Y-4321428D01*
X206464285Y-4511904D01*
X206511904Y-4607142D01*
X206559523Y-4654761D01*
X206654761Y-4702380D01*
X206845238Y-4702380D01*
X206940476Y-4654761D01*
X206988095Y-4607142D01*
X207035714Y-4511904D01*
X207035714Y-4321428D01*
X206988095Y-4226190D01*
X206940476Y-4178571D01*
X206845238Y-4130952D01*
X208302380Y4435715D02*
X208302380Y3864286D01*
X208302380Y4150000D02*
X207302380Y4150000D01*
X207445238Y4054762D01*
X207540476Y3959524D01*
X207588095Y3864286D01*
%TO.C,D37*%
X45535714Y-4702380D02*
X45535714Y-3702380D01*
X45773809Y-3702380D01*
X45916666Y-3750000D01*
X46011904Y-3845238D01*
X46059523Y-3940476D01*
X46107142Y-4130952D01*
X46107142Y-4273809D01*
X46059523Y-4464285D01*
X46011904Y-4559523D01*
X45916666Y-4654761D01*
X45773809Y-4702380D01*
X45535714Y-4702380D01*
X46440476Y-3702380D02*
X47059523Y-3702380D01*
X46726190Y-4083333D01*
X46869047Y-4083333D01*
X46964285Y-4130952D01*
X47011904Y-4178571D01*
X47059523Y-4273809D01*
X47059523Y-4511904D01*
X47011904Y-4607142D01*
X46964285Y-4654761D01*
X46869047Y-4702380D01*
X46583333Y-4702380D01*
X46488095Y-4654761D01*
X46440476Y-4607142D01*
X47392857Y-3702380D02*
X48059523Y-3702380D01*
X47630952Y-4702380D01*
X48802380Y4435715D02*
X48802380Y3864286D01*
X48802380Y4150000D02*
X47802380Y4150000D01*
X47945238Y4054762D01*
X48040476Y3959524D01*
X48088095Y3864286D01*
%TO.C,D27*%
X100535714Y-4702380D02*
X100535714Y-3702380D01*
X100773809Y-3702380D01*
X100916666Y-3750000D01*
X101011904Y-3845238D01*
X101059523Y-3940476D01*
X101107142Y-4130952D01*
X101107142Y-4273809D01*
X101059523Y-4464285D01*
X101011904Y-4559523D01*
X100916666Y-4654761D01*
X100773809Y-4702380D01*
X100535714Y-4702380D01*
X101488095Y-3797619D02*
X101535714Y-3750000D01*
X101630952Y-3702380D01*
X101869047Y-3702380D01*
X101964285Y-3750000D01*
X102011904Y-3797619D01*
X102059523Y-3892857D01*
X102059523Y-3988095D01*
X102011904Y-4130952D01*
X101440476Y-4702380D01*
X102059523Y-4702380D01*
X102392857Y-3702380D02*
X103059523Y-3702380D01*
X102630952Y-4702380D01*
X103802380Y4435715D02*
X103802380Y3864286D01*
X103802380Y4150000D02*
X102802380Y4150000D01*
X102945238Y4054762D01*
X103040476Y3959524D01*
X103088095Y3864286D01*
%TO.C,D17*%
X155535714Y-4702380D02*
X155535714Y-3702380D01*
X155773809Y-3702380D01*
X155916666Y-3750000D01*
X156011904Y-3845238D01*
X156059523Y-3940476D01*
X156107142Y-4130952D01*
X156107142Y-4273809D01*
X156059523Y-4464285D01*
X156011904Y-4559523D01*
X155916666Y-4654761D01*
X155773809Y-4702380D01*
X155535714Y-4702380D01*
X157059523Y-4702380D02*
X156488095Y-4702380D01*
X156773809Y-4702380D02*
X156773809Y-3702380D01*
X156678571Y-3845238D01*
X156583333Y-3940476D01*
X156488095Y-3988095D01*
X157392857Y-3702380D02*
X158059523Y-3702380D01*
X157630952Y-4702380D01*
X158802380Y4435715D02*
X158802380Y3864286D01*
X158802380Y4150000D02*
X157802380Y4150000D01*
X157945238Y4054762D01*
X158040476Y3959524D01*
X158088095Y3864286D01*
%TO.C,D7*%
X211011904Y-4702380D02*
X211011904Y-3702380D01*
X211250000Y-3702380D01*
X211392857Y-3750000D01*
X211488095Y-3845238D01*
X211535714Y-3940476D01*
X211583333Y-4130952D01*
X211583333Y-4273809D01*
X211535714Y-4464285D01*
X211488095Y-4559523D01*
X211392857Y-4654761D01*
X211250000Y-4702380D01*
X211011904Y-4702380D01*
X211916666Y-3702380D02*
X212583333Y-3702380D01*
X212154761Y-4702380D01*
X213802380Y4435715D02*
X213802380Y3864286D01*
X213802380Y4150000D02*
X212802380Y4150000D01*
X212945238Y4054762D01*
X213040476Y3959524D01*
X213088095Y3864286D01*
%TO.C,D41*%
X23535714Y-4702380D02*
X23535714Y-3702380D01*
X23773809Y-3702380D01*
X23916666Y-3750000D01*
X24011904Y-3845238D01*
X24059523Y-3940476D01*
X24107142Y-4130952D01*
X24107142Y-4273809D01*
X24059523Y-4464285D01*
X24011904Y-4559523D01*
X23916666Y-4654761D01*
X23773809Y-4702380D01*
X23535714Y-4702380D01*
X24964285Y-4035714D02*
X24964285Y-4702380D01*
X24726190Y-3654761D02*
X24488095Y-4369047D01*
X25107142Y-4369047D01*
X26011904Y-4702380D02*
X25440476Y-4702380D01*
X25726190Y-4702380D02*
X25726190Y-3702380D01*
X25630952Y-3845238D01*
X25535714Y-3940476D01*
X25440476Y-3988095D01*
X26802380Y4435715D02*
X26802380Y3864286D01*
X26802380Y4150000D02*
X25802380Y4150000D01*
X25945238Y4054762D01*
X26040476Y3959524D01*
X26088095Y3864286D01*
%TO.C,D36*%
X51035714Y-4702380D02*
X51035714Y-3702380D01*
X51273809Y-3702380D01*
X51416666Y-3750000D01*
X51511904Y-3845238D01*
X51559523Y-3940476D01*
X51607142Y-4130952D01*
X51607142Y-4273809D01*
X51559523Y-4464285D01*
X51511904Y-4559523D01*
X51416666Y-4654761D01*
X51273809Y-4702380D01*
X51035714Y-4702380D01*
X51940476Y-3702380D02*
X52559523Y-3702380D01*
X52226190Y-4083333D01*
X52369047Y-4083333D01*
X52464285Y-4130952D01*
X52511904Y-4178571D01*
X52559523Y-4273809D01*
X52559523Y-4511904D01*
X52511904Y-4607142D01*
X52464285Y-4654761D01*
X52369047Y-4702380D01*
X52083333Y-4702380D01*
X51988095Y-4654761D01*
X51940476Y-4607142D01*
X53416666Y-3702380D02*
X53226190Y-3702380D01*
X53130952Y-3750000D01*
X53083333Y-3797619D01*
X52988095Y-3940476D01*
X52940476Y-4130952D01*
X52940476Y-4511904D01*
X52988095Y-4607142D01*
X53035714Y-4654761D01*
X53130952Y-4702380D01*
X53321428Y-4702380D01*
X53416666Y-4654761D01*
X53464285Y-4607142D01*
X53511904Y-4511904D01*
X53511904Y-4273809D01*
X53464285Y-4178571D01*
X53416666Y-4130952D01*
X53321428Y-4083333D01*
X53130952Y-4083333D01*
X53035714Y-4130952D01*
X52988095Y-4178571D01*
X52940476Y-4273809D01*
X54302380Y4435715D02*
X54302380Y3864286D01*
X54302380Y4150000D02*
X53302380Y4150000D01*
X53445238Y4054762D01*
X53540476Y3959524D01*
X53588095Y3864286D01*
%TO.C,D26*%
X106035714Y-4702380D02*
X106035714Y-3702380D01*
X106273809Y-3702380D01*
X106416666Y-3750000D01*
X106511904Y-3845238D01*
X106559523Y-3940476D01*
X106607142Y-4130952D01*
X106607142Y-4273809D01*
X106559523Y-4464285D01*
X106511904Y-4559523D01*
X106416666Y-4654761D01*
X106273809Y-4702380D01*
X106035714Y-4702380D01*
X106988095Y-3797619D02*
X107035714Y-3750000D01*
X107130952Y-3702380D01*
X107369047Y-3702380D01*
X107464285Y-3750000D01*
X107511904Y-3797619D01*
X107559523Y-3892857D01*
X107559523Y-3988095D01*
X107511904Y-4130952D01*
X106940476Y-4702380D01*
X107559523Y-4702380D01*
X108416666Y-3702380D02*
X108226190Y-3702380D01*
X108130952Y-3750000D01*
X108083333Y-3797619D01*
X107988095Y-3940476D01*
X107940476Y-4130952D01*
X107940476Y-4511904D01*
X107988095Y-4607142D01*
X108035714Y-4654761D01*
X108130952Y-4702380D01*
X108321428Y-4702380D01*
X108416666Y-4654761D01*
X108464285Y-4607142D01*
X108511904Y-4511904D01*
X108511904Y-4273809D01*
X108464285Y-4178571D01*
X108416666Y-4130952D01*
X108321428Y-4083333D01*
X108130952Y-4083333D01*
X108035714Y-4130952D01*
X107988095Y-4178571D01*
X107940476Y-4273809D01*
X109302380Y4435715D02*
X109302380Y3864286D01*
X109302380Y4150000D02*
X108302380Y4150000D01*
X108445238Y4054762D01*
X108540476Y3959524D01*
X108588095Y3864286D01*
%TO.C,D16*%
X161035714Y-4702380D02*
X161035714Y-3702380D01*
X161273809Y-3702380D01*
X161416666Y-3750000D01*
X161511904Y-3845238D01*
X161559523Y-3940476D01*
X161607142Y-4130952D01*
X161607142Y-4273809D01*
X161559523Y-4464285D01*
X161511904Y-4559523D01*
X161416666Y-4654761D01*
X161273809Y-4702380D01*
X161035714Y-4702380D01*
X162559523Y-4702380D02*
X161988095Y-4702380D01*
X162273809Y-4702380D02*
X162273809Y-3702380D01*
X162178571Y-3845238D01*
X162083333Y-3940476D01*
X161988095Y-3988095D01*
X163416666Y-3702380D02*
X163226190Y-3702380D01*
X163130952Y-3750000D01*
X163083333Y-3797619D01*
X162988095Y-3940476D01*
X162940476Y-4130952D01*
X162940476Y-4511904D01*
X162988095Y-4607142D01*
X163035714Y-4654761D01*
X163130952Y-4702380D01*
X163321428Y-4702380D01*
X163416666Y-4654761D01*
X163464285Y-4607142D01*
X163511904Y-4511904D01*
X163511904Y-4273809D01*
X163464285Y-4178571D01*
X163416666Y-4130952D01*
X163321428Y-4083333D01*
X163130952Y-4083333D01*
X163035714Y-4130952D01*
X162988095Y-4178571D01*
X162940476Y-4273809D01*
X164302380Y4435715D02*
X164302380Y3864286D01*
X164302380Y4150000D02*
X163302380Y4150000D01*
X163445238Y4054762D01*
X163540476Y3959524D01*
X163588095Y3864286D01*
%TO.C,D6*%
X216511904Y-4702380D02*
X216511904Y-3702380D01*
X216750000Y-3702380D01*
X216892857Y-3750000D01*
X216988095Y-3845238D01*
X217035714Y-3940476D01*
X217083333Y-4130952D01*
X217083333Y-4273809D01*
X217035714Y-4464285D01*
X216988095Y-4559523D01*
X216892857Y-4654761D01*
X216750000Y-4702380D01*
X216511904Y-4702380D01*
X217940476Y-3702380D02*
X217750000Y-3702380D01*
X217654761Y-3750000D01*
X217607142Y-3797619D01*
X217511904Y-3940476D01*
X217464285Y-4130952D01*
X217464285Y-4511904D01*
X217511904Y-4607142D01*
X217559523Y-4654761D01*
X217654761Y-4702380D01*
X217845238Y-4702380D01*
X217940476Y-4654761D01*
X217988095Y-4607142D01*
X218035714Y-4511904D01*
X218035714Y-4273809D01*
X217988095Y-4178571D01*
X217940476Y-4130952D01*
X217845238Y-4083333D01*
X217654761Y-4083333D01*
X217559523Y-4130952D01*
X217511904Y-4178571D01*
X217464285Y-4273809D01*
X219302380Y4435715D02*
X219302380Y3864286D01*
X219302380Y4150000D02*
X218302380Y4150000D01*
X218445238Y4054762D01*
X218540476Y3959524D01*
X218588095Y3864286D01*
%TO.C,D35*%
X56535714Y-4702380D02*
X56535714Y-3702380D01*
X56773809Y-3702380D01*
X56916666Y-3750000D01*
X57011904Y-3845238D01*
X57059523Y-3940476D01*
X57107142Y-4130952D01*
X57107142Y-4273809D01*
X57059523Y-4464285D01*
X57011904Y-4559523D01*
X56916666Y-4654761D01*
X56773809Y-4702380D01*
X56535714Y-4702380D01*
X57440476Y-3702380D02*
X58059523Y-3702380D01*
X57726190Y-4083333D01*
X57869047Y-4083333D01*
X57964285Y-4130952D01*
X58011904Y-4178571D01*
X58059523Y-4273809D01*
X58059523Y-4511904D01*
X58011904Y-4607142D01*
X57964285Y-4654761D01*
X57869047Y-4702380D01*
X57583333Y-4702380D01*
X57488095Y-4654761D01*
X57440476Y-4607142D01*
X58964285Y-3702380D02*
X58488095Y-3702380D01*
X58440476Y-4178571D01*
X58488095Y-4130952D01*
X58583333Y-4083333D01*
X58821428Y-4083333D01*
X58916666Y-4130952D01*
X58964285Y-4178571D01*
X59011904Y-4273809D01*
X59011904Y-4511904D01*
X58964285Y-4607142D01*
X58916666Y-4654761D01*
X58821428Y-4702380D01*
X58583333Y-4702380D01*
X58488095Y-4654761D01*
X58440476Y-4607142D01*
X59802380Y4435715D02*
X59802380Y3864286D01*
X59802380Y4150000D02*
X58802380Y4150000D01*
X58945238Y4054762D01*
X59040476Y3959524D01*
X59088095Y3864286D01*
%TO.C,D25*%
X111535714Y-4702380D02*
X111535714Y-3702380D01*
X111773809Y-3702380D01*
X111916666Y-3750000D01*
X112011904Y-3845238D01*
X112059523Y-3940476D01*
X112107142Y-4130952D01*
X112107142Y-4273809D01*
X112059523Y-4464285D01*
X112011904Y-4559523D01*
X111916666Y-4654761D01*
X111773809Y-4702380D01*
X111535714Y-4702380D01*
X112488095Y-3797619D02*
X112535714Y-3750000D01*
X112630952Y-3702380D01*
X112869047Y-3702380D01*
X112964285Y-3750000D01*
X113011904Y-3797619D01*
X113059523Y-3892857D01*
X113059523Y-3988095D01*
X113011904Y-4130952D01*
X112440476Y-4702380D01*
X113059523Y-4702380D01*
X113964285Y-3702380D02*
X113488095Y-3702380D01*
X113440476Y-4178571D01*
X113488095Y-4130952D01*
X113583333Y-4083333D01*
X113821428Y-4083333D01*
X113916666Y-4130952D01*
X113964285Y-4178571D01*
X114011904Y-4273809D01*
X114011904Y-4511904D01*
X113964285Y-4607142D01*
X113916666Y-4654761D01*
X113821428Y-4702380D01*
X113583333Y-4702380D01*
X113488095Y-4654761D01*
X113440476Y-4607142D01*
X114802380Y4435715D02*
X114802380Y3864286D01*
X114802380Y4150000D02*
X113802380Y4150000D01*
X113945238Y4054762D01*
X114040476Y3959524D01*
X114088095Y3864286D01*
%TO.C,D15*%
X166535714Y-4702380D02*
X166535714Y-3702380D01*
X166773809Y-3702380D01*
X166916666Y-3750000D01*
X167011904Y-3845238D01*
X167059523Y-3940476D01*
X167107142Y-4130952D01*
X167107142Y-4273809D01*
X167059523Y-4464285D01*
X167011904Y-4559523D01*
X166916666Y-4654761D01*
X166773809Y-4702380D01*
X166535714Y-4702380D01*
X168059523Y-4702380D02*
X167488095Y-4702380D01*
X167773809Y-4702380D02*
X167773809Y-3702380D01*
X167678571Y-3845238D01*
X167583333Y-3940476D01*
X167488095Y-3988095D01*
X168964285Y-3702380D02*
X168488095Y-3702380D01*
X168440476Y-4178571D01*
X168488095Y-4130952D01*
X168583333Y-4083333D01*
X168821428Y-4083333D01*
X168916666Y-4130952D01*
X168964285Y-4178571D01*
X169011904Y-4273809D01*
X169011904Y-4511904D01*
X168964285Y-4607142D01*
X168916666Y-4654761D01*
X168821428Y-4702380D01*
X168583333Y-4702380D01*
X168488095Y-4654761D01*
X168440476Y-4607142D01*
X169802380Y4435715D02*
X169802380Y3864286D01*
X169802380Y4150000D02*
X168802380Y4150000D01*
X168945238Y4054762D01*
X169040476Y3959524D01*
X169088095Y3864286D01*
%TO.C,D5*%
X222011904Y-4702380D02*
X222011904Y-3702380D01*
X222250000Y-3702380D01*
X222392857Y-3750000D01*
X222488095Y-3845238D01*
X222535714Y-3940476D01*
X222583333Y-4130952D01*
X222583333Y-4273809D01*
X222535714Y-4464285D01*
X222488095Y-4559523D01*
X222392857Y-4654761D01*
X222250000Y-4702380D01*
X222011904Y-4702380D01*
X223488095Y-3702380D02*
X223011904Y-3702380D01*
X222964285Y-4178571D01*
X223011904Y-4130952D01*
X223107142Y-4083333D01*
X223345238Y-4083333D01*
X223440476Y-4130952D01*
X223488095Y-4178571D01*
X223535714Y-4273809D01*
X223535714Y-4511904D01*
X223488095Y-4607142D01*
X223440476Y-4654761D01*
X223345238Y-4702380D01*
X223107142Y-4702380D01*
X223011904Y-4654761D01*
X222964285Y-4607142D01*
X224802380Y4435715D02*
X224802380Y3864286D01*
X224802380Y4150000D02*
X223802380Y4150000D01*
X223945238Y4054762D01*
X224040476Y3959524D01*
X224088095Y3864286D01*
%TO.C,D34*%
X62035714Y-4702380D02*
X62035714Y-3702380D01*
X62273809Y-3702380D01*
X62416666Y-3750000D01*
X62511904Y-3845238D01*
X62559523Y-3940476D01*
X62607142Y-4130952D01*
X62607142Y-4273809D01*
X62559523Y-4464285D01*
X62511904Y-4559523D01*
X62416666Y-4654761D01*
X62273809Y-4702380D01*
X62035714Y-4702380D01*
X62940476Y-3702380D02*
X63559523Y-3702380D01*
X63226190Y-4083333D01*
X63369047Y-4083333D01*
X63464285Y-4130952D01*
X63511904Y-4178571D01*
X63559523Y-4273809D01*
X63559523Y-4511904D01*
X63511904Y-4607142D01*
X63464285Y-4654761D01*
X63369047Y-4702380D01*
X63083333Y-4702380D01*
X62988095Y-4654761D01*
X62940476Y-4607142D01*
X64416666Y-4035714D02*
X64416666Y-4702380D01*
X64178571Y-3654761D02*
X63940476Y-4369047D01*
X64559523Y-4369047D01*
X65302380Y4435715D02*
X65302380Y3864286D01*
X65302380Y4150000D02*
X64302380Y4150000D01*
X64445238Y4054762D01*
X64540476Y3959524D01*
X64588095Y3864286D01*
%TO.C,D24*%
X117035714Y-4702380D02*
X117035714Y-3702380D01*
X117273809Y-3702380D01*
X117416666Y-3750000D01*
X117511904Y-3845238D01*
X117559523Y-3940476D01*
X117607142Y-4130952D01*
X117607142Y-4273809D01*
X117559523Y-4464285D01*
X117511904Y-4559523D01*
X117416666Y-4654761D01*
X117273809Y-4702380D01*
X117035714Y-4702380D01*
X117988095Y-3797619D02*
X118035714Y-3750000D01*
X118130952Y-3702380D01*
X118369047Y-3702380D01*
X118464285Y-3750000D01*
X118511904Y-3797619D01*
X118559523Y-3892857D01*
X118559523Y-3988095D01*
X118511904Y-4130952D01*
X117940476Y-4702380D01*
X118559523Y-4702380D01*
X119416666Y-4035714D02*
X119416666Y-4702380D01*
X119178571Y-3654761D02*
X118940476Y-4369047D01*
X119559523Y-4369047D01*
X120302380Y4435715D02*
X120302380Y3864286D01*
X120302380Y4150000D02*
X119302380Y4150000D01*
X119445238Y4054762D01*
X119540476Y3959524D01*
X119588095Y3864286D01*
%TO.C,D14*%
X172035714Y-4702380D02*
X172035714Y-3702380D01*
X172273809Y-3702380D01*
X172416666Y-3750000D01*
X172511904Y-3845238D01*
X172559523Y-3940476D01*
X172607142Y-4130952D01*
X172607142Y-4273809D01*
X172559523Y-4464285D01*
X172511904Y-4559523D01*
X172416666Y-4654761D01*
X172273809Y-4702380D01*
X172035714Y-4702380D01*
X173559523Y-4702380D02*
X172988095Y-4702380D01*
X173273809Y-4702380D02*
X173273809Y-3702380D01*
X173178571Y-3845238D01*
X173083333Y-3940476D01*
X172988095Y-3988095D01*
X174416666Y-4035714D02*
X174416666Y-4702380D01*
X174178571Y-3654761D02*
X173940476Y-4369047D01*
X174559523Y-4369047D01*
X175302380Y4435715D02*
X175302380Y3864286D01*
X175302380Y4150000D02*
X174302380Y4150000D01*
X174445238Y4054762D01*
X174540476Y3959524D01*
X174588095Y3864286D01*
%TO.C,D33*%
X67535714Y-4702380D02*
X67535714Y-3702380D01*
X67773809Y-3702380D01*
X67916666Y-3750000D01*
X68011904Y-3845238D01*
X68059523Y-3940476D01*
X68107142Y-4130952D01*
X68107142Y-4273809D01*
X68059523Y-4464285D01*
X68011904Y-4559523D01*
X67916666Y-4654761D01*
X67773809Y-4702380D01*
X67535714Y-4702380D01*
X68440476Y-3702380D02*
X69059523Y-3702380D01*
X68726190Y-4083333D01*
X68869047Y-4083333D01*
X68964285Y-4130952D01*
X69011904Y-4178571D01*
X69059523Y-4273809D01*
X69059523Y-4511904D01*
X69011904Y-4607142D01*
X68964285Y-4654761D01*
X68869047Y-4702380D01*
X68583333Y-4702380D01*
X68488095Y-4654761D01*
X68440476Y-4607142D01*
X69392857Y-3702380D02*
X70011904Y-3702380D01*
X69678571Y-4083333D01*
X69821428Y-4083333D01*
X69916666Y-4130952D01*
X69964285Y-4178571D01*
X70011904Y-4273809D01*
X70011904Y-4511904D01*
X69964285Y-4607142D01*
X69916666Y-4654761D01*
X69821428Y-4702380D01*
X69535714Y-4702380D01*
X69440476Y-4654761D01*
X69392857Y-4607142D01*
X70802380Y4435715D02*
X70802380Y3864286D01*
X70802380Y4150000D02*
X69802380Y4150000D01*
X69945238Y4054762D01*
X70040476Y3959524D01*
X70088095Y3864286D01*
%TO.C,D23*%
X122535714Y-4702380D02*
X122535714Y-3702380D01*
X122773809Y-3702380D01*
X122916666Y-3750000D01*
X123011904Y-3845238D01*
X123059523Y-3940476D01*
X123107142Y-4130952D01*
X123107142Y-4273809D01*
X123059523Y-4464285D01*
X123011904Y-4559523D01*
X122916666Y-4654761D01*
X122773809Y-4702380D01*
X122535714Y-4702380D01*
X123488095Y-3797619D02*
X123535714Y-3750000D01*
X123630952Y-3702380D01*
X123869047Y-3702380D01*
X123964285Y-3750000D01*
X124011904Y-3797619D01*
X124059523Y-3892857D01*
X124059523Y-3988095D01*
X124011904Y-4130952D01*
X123440476Y-4702380D01*
X124059523Y-4702380D01*
X124392857Y-3702380D02*
X125011904Y-3702380D01*
X124678571Y-4083333D01*
X124821428Y-4083333D01*
X124916666Y-4130952D01*
X124964285Y-4178571D01*
X125011904Y-4273809D01*
X125011904Y-4511904D01*
X124964285Y-4607142D01*
X124916666Y-4654761D01*
X124821428Y-4702380D01*
X124535714Y-4702380D01*
X124440476Y-4654761D01*
X124392857Y-4607142D01*
X125802380Y4435715D02*
X125802380Y3864286D01*
X125802380Y4150000D02*
X124802380Y4150000D01*
X124945238Y4054762D01*
X125040476Y3959524D01*
X125088095Y3864286D01*
%TO.C,D13*%
X177535714Y-4702380D02*
X177535714Y-3702380D01*
X177773809Y-3702380D01*
X177916666Y-3750000D01*
X178011904Y-3845238D01*
X178059523Y-3940476D01*
X178107142Y-4130952D01*
X178107142Y-4273809D01*
X178059523Y-4464285D01*
X178011904Y-4559523D01*
X177916666Y-4654761D01*
X177773809Y-4702380D01*
X177535714Y-4702380D01*
X179059523Y-4702380D02*
X178488095Y-4702380D01*
X178773809Y-4702380D02*
X178773809Y-3702380D01*
X178678571Y-3845238D01*
X178583333Y-3940476D01*
X178488095Y-3988095D01*
X179392857Y-3702380D02*
X180011904Y-3702380D01*
X179678571Y-4083333D01*
X179821428Y-4083333D01*
X179916666Y-4130952D01*
X179964285Y-4178571D01*
X180011904Y-4273809D01*
X180011904Y-4511904D01*
X179964285Y-4607142D01*
X179916666Y-4654761D01*
X179821428Y-4702380D01*
X179535714Y-4702380D01*
X179440476Y-4654761D01*
X179392857Y-4607142D01*
X180802380Y4435715D02*
X180802380Y3864286D01*
X180802380Y4150000D02*
X179802380Y4150000D01*
X179945238Y4054762D01*
X180040476Y3959524D01*
X180088095Y3864286D01*
%TO.C,D3*%
X233011904Y-4702380D02*
X233011904Y-3702380D01*
X233250000Y-3702380D01*
X233392857Y-3750000D01*
X233488095Y-3845238D01*
X233535714Y-3940476D01*
X233583333Y-4130952D01*
X233583333Y-4273809D01*
X233535714Y-4464285D01*
X233488095Y-4559523D01*
X233392857Y-4654761D01*
X233250000Y-4702380D01*
X233011904Y-4702380D01*
X233916666Y-3702380D02*
X234535714Y-3702380D01*
X234202380Y-4083333D01*
X234345238Y-4083333D01*
X234440476Y-4130952D01*
X234488095Y-4178571D01*
X234535714Y-4273809D01*
X234535714Y-4511904D01*
X234488095Y-4607142D01*
X234440476Y-4654761D01*
X234345238Y-4702380D01*
X234059523Y-4702380D01*
X233964285Y-4654761D01*
X233916666Y-4607142D01*
X235802380Y4435715D02*
X235802380Y3864286D01*
X235802380Y4150000D02*
X234802380Y4150000D01*
X234945238Y4054762D01*
X235040476Y3959524D01*
X235088095Y3864286D01*
%TO.C,D32*%
X73035714Y-4702380D02*
X73035714Y-3702380D01*
X73273809Y-3702380D01*
X73416666Y-3750000D01*
X73511904Y-3845238D01*
X73559523Y-3940476D01*
X73607142Y-4130952D01*
X73607142Y-4273809D01*
X73559523Y-4464285D01*
X73511904Y-4559523D01*
X73416666Y-4654761D01*
X73273809Y-4702380D01*
X73035714Y-4702380D01*
X73940476Y-3702380D02*
X74559523Y-3702380D01*
X74226190Y-4083333D01*
X74369047Y-4083333D01*
X74464285Y-4130952D01*
X74511904Y-4178571D01*
X74559523Y-4273809D01*
X74559523Y-4511904D01*
X74511904Y-4607142D01*
X74464285Y-4654761D01*
X74369047Y-4702380D01*
X74083333Y-4702380D01*
X73988095Y-4654761D01*
X73940476Y-4607142D01*
X74940476Y-3797619D02*
X74988095Y-3750000D01*
X75083333Y-3702380D01*
X75321428Y-3702380D01*
X75416666Y-3750000D01*
X75464285Y-3797619D01*
X75511904Y-3892857D01*
X75511904Y-3988095D01*
X75464285Y-4130952D01*
X74892857Y-4702380D01*
X75511904Y-4702380D01*
X76302380Y4435715D02*
X76302380Y3864286D01*
X76302380Y4150000D02*
X75302380Y4150000D01*
X75445238Y4054762D01*
X75540476Y3959524D01*
X75588095Y3864286D01*
%TO.C,D22*%
X128035714Y-4702380D02*
X128035714Y-3702380D01*
X128273809Y-3702380D01*
X128416666Y-3750000D01*
X128511904Y-3845238D01*
X128559523Y-3940476D01*
X128607142Y-4130952D01*
X128607142Y-4273809D01*
X128559523Y-4464285D01*
X128511904Y-4559523D01*
X128416666Y-4654761D01*
X128273809Y-4702380D01*
X128035714Y-4702380D01*
X128988095Y-3797619D02*
X129035714Y-3750000D01*
X129130952Y-3702380D01*
X129369047Y-3702380D01*
X129464285Y-3750000D01*
X129511904Y-3797619D01*
X129559523Y-3892857D01*
X129559523Y-3988095D01*
X129511904Y-4130952D01*
X128940476Y-4702380D01*
X129559523Y-4702380D01*
X129940476Y-3797619D02*
X129988095Y-3750000D01*
X130083333Y-3702380D01*
X130321428Y-3702380D01*
X130416666Y-3750000D01*
X130464285Y-3797619D01*
X130511904Y-3892857D01*
X130511904Y-3988095D01*
X130464285Y-4130952D01*
X129892857Y-4702380D01*
X130511904Y-4702380D01*
X131302380Y4435715D02*
X131302380Y3864286D01*
X131302380Y4150000D02*
X130302380Y4150000D01*
X130445238Y4054762D01*
X130540476Y3959524D01*
X130588095Y3864286D01*
%TO.C,D12*%
X183035714Y-4702380D02*
X183035714Y-3702380D01*
X183273809Y-3702380D01*
X183416666Y-3750000D01*
X183511904Y-3845238D01*
X183559523Y-3940476D01*
X183607142Y-4130952D01*
X183607142Y-4273809D01*
X183559523Y-4464285D01*
X183511904Y-4559523D01*
X183416666Y-4654761D01*
X183273809Y-4702380D01*
X183035714Y-4702380D01*
X184559523Y-4702380D02*
X183988095Y-4702380D01*
X184273809Y-4702380D02*
X184273809Y-3702380D01*
X184178571Y-3845238D01*
X184083333Y-3940476D01*
X183988095Y-3988095D01*
X184940476Y-3797619D02*
X184988095Y-3750000D01*
X185083333Y-3702380D01*
X185321428Y-3702380D01*
X185416666Y-3750000D01*
X185464285Y-3797619D01*
X185511904Y-3892857D01*
X185511904Y-3988095D01*
X185464285Y-4130952D01*
X184892857Y-4702380D01*
X185511904Y-4702380D01*
X186302380Y4435715D02*
X186302380Y3864286D01*
X186302380Y4150000D02*
X185302380Y4150000D01*
X185445238Y4054762D01*
X185540476Y3959524D01*
X185588095Y3864286D01*
%TO.C,D31*%
X78535714Y-4702380D02*
X78535714Y-3702380D01*
X78773809Y-3702380D01*
X78916666Y-3750000D01*
X79011904Y-3845238D01*
X79059523Y-3940476D01*
X79107142Y-4130952D01*
X79107142Y-4273809D01*
X79059523Y-4464285D01*
X79011904Y-4559523D01*
X78916666Y-4654761D01*
X78773809Y-4702380D01*
X78535714Y-4702380D01*
X79440476Y-3702380D02*
X80059523Y-3702380D01*
X79726190Y-4083333D01*
X79869047Y-4083333D01*
X79964285Y-4130952D01*
X80011904Y-4178571D01*
X80059523Y-4273809D01*
X80059523Y-4511904D01*
X80011904Y-4607142D01*
X79964285Y-4654761D01*
X79869047Y-4702380D01*
X79583333Y-4702380D01*
X79488095Y-4654761D01*
X79440476Y-4607142D01*
X81011904Y-4702380D02*
X80440476Y-4702380D01*
X80726190Y-4702380D02*
X80726190Y-3702380D01*
X80630952Y-3845238D01*
X80535714Y-3940476D01*
X80440476Y-3988095D01*
X81802380Y4435715D02*
X81802380Y3864286D01*
X81802380Y4150000D02*
X80802380Y4150000D01*
X80945238Y4054762D01*
X81040476Y3959524D01*
X81088095Y3864286D01*
%TO.C,D21*%
X132285714Y-4702380D02*
X132285714Y-3702380D01*
X132523809Y-3702380D01*
X132666666Y-3750000D01*
X132761904Y-3845238D01*
X132809523Y-3940476D01*
X132857142Y-4130952D01*
X132857142Y-4273809D01*
X132809523Y-4464285D01*
X132761904Y-4559523D01*
X132666666Y-4654761D01*
X132523809Y-4702380D01*
X132285714Y-4702380D01*
X133238095Y-3797619D02*
X133285714Y-3750000D01*
X133380952Y-3702380D01*
X133619047Y-3702380D01*
X133714285Y-3750000D01*
X133761904Y-3797619D01*
X133809523Y-3892857D01*
X133809523Y-3988095D01*
X133761904Y-4130952D01*
X133190476Y-4702380D01*
X133809523Y-4702380D01*
X134761904Y-4702380D02*
X134190476Y-4702380D01*
X134476190Y-4702380D02*
X134476190Y-3702380D01*
X134380952Y-3845238D01*
X134285714Y-3940476D01*
X134190476Y-3988095D01*
X136802380Y4435715D02*
X136802380Y3864286D01*
X136802380Y4150000D02*
X135802380Y4150000D01*
X135945238Y4054762D01*
X136040476Y3959524D01*
X136088095Y3864286D01*
%TO.C,D11*%
X188535714Y-4702380D02*
X188535714Y-3702380D01*
X188773809Y-3702380D01*
X188916666Y-3750000D01*
X189011904Y-3845238D01*
X189059523Y-3940476D01*
X189107142Y-4130952D01*
X189107142Y-4273809D01*
X189059523Y-4464285D01*
X189011904Y-4559523D01*
X188916666Y-4654761D01*
X188773809Y-4702380D01*
X188535714Y-4702380D01*
X190059523Y-4702380D02*
X189488095Y-4702380D01*
X189773809Y-4702380D02*
X189773809Y-3702380D01*
X189678571Y-3845238D01*
X189583333Y-3940476D01*
X189488095Y-3988095D01*
X191011904Y-4702380D02*
X190440476Y-4702380D01*
X190726190Y-4702380D02*
X190726190Y-3702380D01*
X190630952Y-3845238D01*
X190535714Y-3940476D01*
X190440476Y-3988095D01*
X191802380Y4435715D02*
X191802380Y3864286D01*
X191802380Y4150000D02*
X190802380Y4150000D01*
X190945238Y4054762D01*
X191040476Y3959524D01*
X191088095Y3864286D01*
%TO.C,D1*%
X244011904Y-4702380D02*
X244011904Y-3702380D01*
X244250000Y-3702380D01*
X244392857Y-3750000D01*
X244488095Y-3845238D01*
X244535714Y-3940476D01*
X244583333Y-4130952D01*
X244583333Y-4273809D01*
X244535714Y-4464285D01*
X244488095Y-4559523D01*
X244392857Y-4654761D01*
X244250000Y-4702380D01*
X244011904Y-4702380D01*
X245535714Y-4702380D02*
X244964285Y-4702380D01*
X245250000Y-4702380D02*
X245250000Y-3702380D01*
X245154761Y-3845238D01*
X245059523Y-3940476D01*
X244964285Y-3988095D01*
X246802380Y4435715D02*
X246802380Y3864286D01*
X246802380Y4150000D02*
X245802380Y4150000D01*
X245945238Y4054762D01*
X246040476Y3959524D01*
X246088095Y3864286D01*
%TO.C,D46*%
X221252380Y-10414285D02*
X220252380Y-10414285D01*
X220252380Y-10176190D01*
X220300000Y-10033333D01*
X220395238Y-9938095D01*
X220490476Y-9890476D01*
X220680952Y-9842857D01*
X220823809Y-9842857D01*
X221014285Y-9890476D01*
X221109523Y-9938095D01*
X221204761Y-10033333D01*
X221252380Y-10176190D01*
X221252380Y-10414285D01*
X220585714Y-8985714D02*
X221252380Y-8985714D01*
X220204761Y-9223809D02*
X220919047Y-9461904D01*
X220919047Y-8842857D01*
X220252380Y-8033333D02*
X220252380Y-8223809D01*
X220300000Y-8319047D01*
X220347619Y-8366666D01*
X220490476Y-8461904D01*
X220680952Y-8509523D01*
X221061904Y-8509523D01*
X221157142Y-8461904D01*
X221204761Y-8414285D01*
X221252380Y-8319047D01*
X221252380Y-8128571D01*
X221204761Y-8033333D01*
X221157142Y-7985714D01*
X221061904Y-7938095D01*
X220823809Y-7938095D01*
X220728571Y-7985714D01*
X220680952Y-8033333D01*
X220633333Y-8128571D01*
X220633333Y-8319047D01*
X220680952Y-8414285D01*
X220728571Y-8461904D01*
X220823809Y-8509523D01*
%TD*%
M02*
