%TF.GenerationSoftware,KiCad,Pcbnew,5.1.10*%
%TF.CreationDate,2021-11-03T22:22:35+01:00*%
%TF.ProjectId,module_pcb,6d6f6475-6c65-45f7-9063-622e6b696361,rev?*%
%TF.SameCoordinates,PX1312d00PY6b49d20*%
%TF.FileFunction,Paste,Top*%
%TF.FilePolarity,Positive*%
%FSLAX46Y46*%
G04 Gerber Fmt 4.6, Leading zero omitted, Abs format (unit mm)*
G04 Created by KiCad (PCBNEW 5.1.10) date 2021-11-03 22:22:35*
%MOMM*%
%LPD*%
G01*
G04 APERTURE LIST*
%ADD10R,1.000000X1.500000*%
G04 APERTURE END LIST*
%TO.C,C22*%
G36*
G01*
X68049999Y5300000D02*
X69350001Y5300000D01*
G75*
G02*
X69600000Y5050001I0J-249999D01*
G01*
X69600000Y4399999D01*
G75*
G02*
X69350001Y4150000I-249999J0D01*
G01*
X68049999Y4150000D01*
G75*
G02*
X67800000Y4399999I0J249999D01*
G01*
X67800000Y5050001D01*
G75*
G02*
X68049999Y5300000I249999J0D01*
G01*
G37*
G36*
G01*
X68049999Y8250000D02*
X69350001Y8250000D01*
G75*
G02*
X69600000Y8000001I0J-249999D01*
G01*
X69600000Y7349999D01*
G75*
G02*
X69350001Y7100000I-249999J0D01*
G01*
X68049999Y7100000D01*
G75*
G02*
X67800000Y7349999I0J249999D01*
G01*
X67800000Y8000001D01*
G75*
G02*
X68049999Y8250000I249999J0D01*
G01*
G37*
%TD*%
%TO.C,C17*%
G36*
G01*
X2049999Y5300000D02*
X3350001Y5300000D01*
G75*
G02*
X3600000Y5050001I0J-249999D01*
G01*
X3600000Y4399999D01*
G75*
G02*
X3350001Y4150000I-249999J0D01*
G01*
X2049999Y4150000D01*
G75*
G02*
X1800000Y4399999I0J249999D01*
G01*
X1800000Y5050001D01*
G75*
G02*
X2049999Y5300000I249999J0D01*
G01*
G37*
G36*
G01*
X2049999Y8250000D02*
X3350001Y8250000D01*
G75*
G02*
X3600000Y8000001I0J-249999D01*
G01*
X3600000Y7349999D01*
G75*
G02*
X3350001Y7100000I-249999J0D01*
G01*
X2049999Y7100000D01*
G75*
G02*
X1800000Y7349999I0J249999D01*
G01*
X1800000Y8000001D01*
G75*
G02*
X2049999Y8250000I249999J0D01*
G01*
G37*
%TD*%
%TO.C,C16*%
G36*
G01*
X128649999Y5300000D02*
X129950001Y5300000D01*
G75*
G02*
X130200000Y5050001I0J-249999D01*
G01*
X130200000Y4399999D01*
G75*
G02*
X129950001Y4150000I-249999J0D01*
G01*
X128649999Y4150000D01*
G75*
G02*
X128400000Y4399999I0J249999D01*
G01*
X128400000Y5050001D01*
G75*
G02*
X128649999Y5300000I249999J0D01*
G01*
G37*
G36*
G01*
X128649999Y8250000D02*
X129950001Y8250000D01*
G75*
G02*
X130200000Y8000001I0J-249999D01*
G01*
X130200000Y7349999D01*
G75*
G02*
X129950001Y7100000I-249999J0D01*
G01*
X128649999Y7100000D01*
G75*
G02*
X128400000Y7349999I0J249999D01*
G01*
X128400000Y8000001D01*
G75*
G02*
X128649999Y8250000I249999J0D01*
G01*
G37*
%TD*%
%TO.C,C15*%
G36*
G01*
X172549999Y5300000D02*
X173850001Y5300000D01*
G75*
G02*
X174100000Y5050001I0J-249999D01*
G01*
X174100000Y4399999D01*
G75*
G02*
X173850001Y4150000I-249999J0D01*
G01*
X172549999Y4150000D01*
G75*
G02*
X172300000Y4399999I0J249999D01*
G01*
X172300000Y5050001D01*
G75*
G02*
X172549999Y5300000I249999J0D01*
G01*
G37*
G36*
G01*
X172549999Y8250000D02*
X173850001Y8250000D01*
G75*
G02*
X174100000Y8000001I0J-249999D01*
G01*
X174100000Y7349999D01*
G75*
G02*
X173850001Y7100000I-249999J0D01*
G01*
X172549999Y7100000D01*
G75*
G02*
X172300000Y7349999I0J249999D01*
G01*
X172300000Y8000001D01*
G75*
G02*
X172549999Y8250000I249999J0D01*
G01*
G37*
%TD*%
%TO.C,C14*%
G36*
G01*
X244049999Y5300000D02*
X245350001Y5300000D01*
G75*
G02*
X245600000Y5050001I0J-249999D01*
G01*
X245600000Y4399999D01*
G75*
G02*
X245350001Y4150000I-249999J0D01*
G01*
X244049999Y4150000D01*
G75*
G02*
X243800000Y4399999I0J249999D01*
G01*
X243800000Y5050001D01*
G75*
G02*
X244049999Y5300000I249999J0D01*
G01*
G37*
G36*
G01*
X244049999Y8250000D02*
X245350001Y8250000D01*
G75*
G02*
X245600000Y8000001I0J-249999D01*
G01*
X245600000Y7349999D01*
G75*
G02*
X245350001Y7100000I-249999J0D01*
G01*
X244049999Y7100000D01*
G75*
G02*
X243800000Y7349999I0J249999D01*
G01*
X243800000Y8000001D01*
G75*
G02*
X244049999Y8250000I249999J0D01*
G01*
G37*
%TD*%
D10*
%TO.C,D4*%
X229850000Y2450000D03*
X226650000Y2450000D03*
X229850000Y-2450000D03*
X226650000Y-2450000D03*
%TD*%
%TO.C,D2*%
X240850000Y2450000D03*
X237650000Y2450000D03*
X240850000Y-2450000D03*
X237650000Y-2450000D03*
%TD*%
%TO.C,D42*%
X20850000Y2450000D03*
X17650000Y2450000D03*
X20850000Y-2450000D03*
X17650000Y-2450000D03*
%TD*%
%TO.C,R3*%
G36*
G01*
X221925000Y-6625000D02*
X222475000Y-6625000D01*
G75*
G02*
X222675000Y-6825000I0J-200000D01*
G01*
X222675000Y-7225000D01*
G75*
G02*
X222475000Y-7425000I-200000J0D01*
G01*
X221925000Y-7425000D01*
G75*
G02*
X221725000Y-7225000I0J200000D01*
G01*
X221725000Y-6825000D01*
G75*
G02*
X221925000Y-6625000I200000J0D01*
G01*
G37*
G36*
G01*
X221925000Y-4975000D02*
X222475000Y-4975000D01*
G75*
G02*
X222675000Y-5175000I0J-200000D01*
G01*
X222675000Y-5575000D01*
G75*
G02*
X222475000Y-5775000I-200000J0D01*
G01*
X221925000Y-5775000D01*
G75*
G02*
X221725000Y-5575000I0J200000D01*
G01*
X221725000Y-5175000D01*
G75*
G02*
X221925000Y-4975000I200000J0D01*
G01*
G37*
%TD*%
%TO.C,D45*%
X4350000Y2450000D03*
X1150000Y2450000D03*
X4350000Y-2450000D03*
X1150000Y-2450000D03*
%TD*%
%TO.C,D40*%
X31850000Y2450000D03*
X28650000Y2450000D03*
X31850000Y-2450000D03*
X28650000Y-2450000D03*
%TD*%
%TO.C,D30*%
X86850000Y2450000D03*
X83650000Y2450000D03*
X86850000Y-2450000D03*
X83650000Y-2450000D03*
%TD*%
%TO.C,D20*%
X141850000Y2450000D03*
X138650000Y2450000D03*
X141850000Y-2450000D03*
X138650000Y-2450000D03*
%TD*%
%TO.C,D10*%
X196850000Y2450000D03*
X193650000Y2450000D03*
X196850000Y-2450000D03*
X193650000Y-2450000D03*
%TD*%
%TO.C,D44*%
X9850000Y2450000D03*
X6650000Y2450000D03*
X9850000Y-2450000D03*
X6650000Y-2450000D03*
%TD*%
%TO.C,D39*%
X37350000Y2450000D03*
X34150000Y2450000D03*
X37350000Y-2450000D03*
X34150000Y-2450000D03*
%TD*%
%TO.C,D29*%
X92350000Y2450000D03*
X89150000Y2450000D03*
X92350000Y-2450000D03*
X89150000Y-2450000D03*
%TD*%
%TO.C,D19*%
X147350000Y2450000D03*
X144150000Y2450000D03*
X147350000Y-2450000D03*
X144150000Y-2450000D03*
%TD*%
%TO.C,D9*%
X202350000Y2450000D03*
X199150000Y2450000D03*
X202350000Y-2450000D03*
X199150000Y-2450000D03*
%TD*%
%TO.C,D43*%
X15350000Y2450000D03*
X12150000Y2450000D03*
X15350000Y-2450000D03*
X12150000Y-2450000D03*
%TD*%
%TO.C,D38*%
X42850000Y2450000D03*
X39650000Y2450000D03*
X42850000Y-2450000D03*
X39650000Y-2450000D03*
%TD*%
%TO.C,D28*%
X97850000Y2450000D03*
X94650000Y2450000D03*
X97850000Y-2450000D03*
X94650000Y-2450000D03*
%TD*%
%TO.C,D18*%
X152850000Y2450000D03*
X149650000Y2450000D03*
X152850000Y-2450000D03*
X149650000Y-2450000D03*
%TD*%
%TO.C,D8*%
X207850000Y2450000D03*
X204650000Y2450000D03*
X207850000Y-2450000D03*
X204650000Y-2450000D03*
%TD*%
%TO.C,D37*%
X48350000Y2450000D03*
X45150000Y2450000D03*
X48350000Y-2450000D03*
X45150000Y-2450000D03*
%TD*%
%TO.C,D27*%
X103350000Y2450000D03*
X100150000Y2450000D03*
X103350000Y-2450000D03*
X100150000Y-2450000D03*
%TD*%
%TO.C,D17*%
X158350000Y2450000D03*
X155150000Y2450000D03*
X158350000Y-2450000D03*
X155150000Y-2450000D03*
%TD*%
%TO.C,D7*%
X213350000Y2450000D03*
X210150000Y2450000D03*
X213350000Y-2450000D03*
X210150000Y-2450000D03*
%TD*%
%TO.C,D41*%
X26350000Y2450000D03*
X23150000Y2450000D03*
X26350000Y-2450000D03*
X23150000Y-2450000D03*
%TD*%
%TO.C,D36*%
X53850000Y2450000D03*
X50650000Y2450000D03*
X53850000Y-2450000D03*
X50650000Y-2450000D03*
%TD*%
%TO.C,D26*%
X108850000Y2450000D03*
X105650000Y2450000D03*
X108850000Y-2450000D03*
X105650000Y-2450000D03*
%TD*%
%TO.C,D16*%
X163850000Y2450000D03*
X160650000Y2450000D03*
X163850000Y-2450000D03*
X160650000Y-2450000D03*
%TD*%
%TO.C,D6*%
X218850000Y2450000D03*
X215650000Y2450000D03*
X218850000Y-2450000D03*
X215650000Y-2450000D03*
%TD*%
%TO.C,D35*%
X59350000Y2450000D03*
X56150000Y2450000D03*
X59350000Y-2450000D03*
X56150000Y-2450000D03*
%TD*%
%TO.C,D25*%
X114350000Y2450000D03*
X111150000Y2450000D03*
X114350000Y-2450000D03*
X111150000Y-2450000D03*
%TD*%
%TO.C,D15*%
X169350000Y2450000D03*
X166150000Y2450000D03*
X169350000Y-2450000D03*
X166150000Y-2450000D03*
%TD*%
%TO.C,D5*%
X224350000Y2450000D03*
X221150000Y2450000D03*
X224350000Y-2450000D03*
X221150000Y-2450000D03*
%TD*%
%TO.C,D34*%
X64850000Y2450000D03*
X61650000Y2450000D03*
X64850000Y-2450000D03*
X61650000Y-2450000D03*
%TD*%
%TO.C,D24*%
X119850000Y2450000D03*
X116650000Y2450000D03*
X119850000Y-2450000D03*
X116650000Y-2450000D03*
%TD*%
%TO.C,D14*%
X174850000Y2450000D03*
X171650000Y2450000D03*
X174850000Y-2450000D03*
X171650000Y-2450000D03*
%TD*%
%TO.C,D33*%
X70350000Y2450000D03*
X67150000Y2450000D03*
X70350000Y-2450000D03*
X67150000Y-2450000D03*
%TD*%
%TO.C,D23*%
X125350000Y2450000D03*
X122150000Y2450000D03*
X125350000Y-2450000D03*
X122150000Y-2450000D03*
%TD*%
%TO.C,D13*%
X180350000Y2450000D03*
X177150000Y2450000D03*
X180350000Y-2450000D03*
X177150000Y-2450000D03*
%TD*%
%TO.C,D3*%
X235350000Y2450000D03*
X232150000Y2450000D03*
X235350000Y-2450000D03*
X232150000Y-2450000D03*
%TD*%
%TO.C,D32*%
X75850000Y2450000D03*
X72650000Y2450000D03*
X75850000Y-2450000D03*
X72650000Y-2450000D03*
%TD*%
%TO.C,D22*%
X130850000Y2450000D03*
X127650000Y2450000D03*
X130850000Y-2450000D03*
X127650000Y-2450000D03*
%TD*%
%TO.C,D12*%
X185850000Y2450000D03*
X182650000Y2450000D03*
X185850000Y-2450000D03*
X182650000Y-2450000D03*
%TD*%
%TO.C,D31*%
X81350000Y2450000D03*
X78150000Y2450000D03*
X81350000Y-2450000D03*
X78150000Y-2450000D03*
%TD*%
%TO.C,D21*%
X136350000Y2450000D03*
X133150000Y2450000D03*
X136350000Y-2450000D03*
X133150000Y-2450000D03*
%TD*%
%TO.C,D11*%
X191350000Y2450000D03*
X188150000Y2450000D03*
X191350000Y-2450000D03*
X188150000Y-2450000D03*
%TD*%
%TO.C,D1*%
X246350000Y2450000D03*
X243150000Y2450000D03*
X246350000Y-2450000D03*
X243150000Y-2450000D03*
%TD*%
%TO.C,D46*%
G36*
G01*
X222456250Y-8850000D02*
X221943750Y-8850000D01*
G75*
G02*
X221725000Y-8631250I0J218750D01*
G01*
X221725000Y-8193750D01*
G75*
G02*
X221943750Y-7975000I218750J0D01*
G01*
X222456250Y-7975000D01*
G75*
G02*
X222675000Y-8193750I0J-218750D01*
G01*
X222675000Y-8631250D01*
G75*
G02*
X222456250Y-8850000I-218750J0D01*
G01*
G37*
G36*
G01*
X222456250Y-10425000D02*
X221943750Y-10425000D01*
G75*
G02*
X221725000Y-10206250I0J218750D01*
G01*
X221725000Y-9768750D01*
G75*
G02*
X221943750Y-9550000I218750J0D01*
G01*
X222456250Y-9550000D01*
G75*
G02*
X222675000Y-9768750I0J-218750D01*
G01*
X222675000Y-10206250D01*
G75*
G02*
X222456250Y-10425000I-218750J0D01*
G01*
G37*
%TD*%
M02*
