%TF.GenerationSoftware,KiCad,Pcbnew,5.1.7-a382d34a8~88~ubuntu18.04.1*%
%TF.CreationDate,2021-10-30T16:32:31+02:00*%
%TF.ProjectId,main_pcb_adapter,6d61696e-5f70-4636-925f-616461707465,rev?*%
%TF.SameCoordinates,PX5f5e100PY6b49d20*%
%TF.FileFunction,Copper,L1,Top*%
%TF.FilePolarity,Positive*%
%FSLAX46Y46*%
G04 Gerber Fmt 4.6, Leading zero omitted, Abs format (unit mm)*
G04 Created by KiCad (PCBNEW 5.1.7-a382d34a8~88~ubuntu18.04.1) date 2021-10-30 16:32:31*
%MOMM*%
%LPD*%
G01*
G04 APERTURE LIST*
%TA.AperFunction,ComponentPad*%
%ADD10O,1.700000X1.700000*%
%TD*%
%TA.AperFunction,ComponentPad*%
%ADD11R,1.700000X1.700000*%
%TD*%
%TA.AperFunction,Conductor*%
%ADD12C,0.250000*%
%TD*%
G04 APERTURE END LIST*
D10*
%TO.P,J1,6*%
%TO.N,GND*%
X4460000Y-10580000D03*
%TO.P,J1,5*%
%TO.N,/MASTER_ON*%
X7000000Y-10580000D03*
%TO.P,J1,4*%
%TO.N,Net-(J1-Pad4)*%
X4460000Y-8040000D03*
%TO.P,J1,3*%
%TO.N,/DN_RX*%
X7000000Y-8040000D03*
%TO.P,J1,2*%
%TO.N,/TRIGI*%
X4460000Y-5500000D03*
D11*
%TO.P,J1,1*%
%TO.N,/DN_RETO*%
X7000000Y-5500000D03*
%TD*%
D10*
%TO.P,J2,6*%
%TO.N,GND*%
X-4460000Y10580000D03*
%TO.P,J2,5*%
%TO.N,/MASTER_ON*%
X-7000000Y10580000D03*
%TO.P,J2,4*%
%TO.N,Net-(J2-Pad4)*%
X-4460000Y8040000D03*
%TO.P,J2,3*%
%TO.N,/UP_RX*%
X-7000000Y8040000D03*
%TO.P,J2,2*%
%TO.N,/TRIGI*%
X-4460000Y5500000D03*
D11*
%TO.P,J2,1*%
%TO.N,/UP_RETO*%
X-7000000Y5500000D03*
%TD*%
D10*
%TO.P,J3,8*%
%TO.N,GND*%
X3810000Y-1270000D03*
%TO.P,J3,7*%
%TO.N,Net-(J3-Pad7)*%
X3810000Y1270000D03*
%TO.P,J3,6*%
%TO.N,/DN_RETO*%
X1270000Y-1270000D03*
%TO.P,J3,5*%
%TO.N,/UP_RETO*%
X1270000Y1270000D03*
%TO.P,J3,4*%
%TO.N,/DN_RX*%
X-1270000Y-1270000D03*
%TO.P,J3,3*%
%TO.N,/UP_RX*%
X-1270000Y1270000D03*
%TO.P,J3,2*%
%TO.N,/TRIGI*%
X-3810000Y-1270000D03*
D11*
%TO.P,J3,1*%
%TO.N,/MASTER_ON*%
X-3810000Y1270000D03*
%TD*%
D12*
%TO.N,GND*%
X5740000Y-9300000D02*
X7900000Y-9300000D01*
X6670000Y-1270000D02*
X3810000Y-1270000D01*
X4460000Y-10580000D02*
X5740000Y-9300000D01*
X8175001Y-2775001D02*
X6670000Y-1270000D01*
X7900000Y-9300000D02*
X8175001Y-9024999D01*
X8175001Y-9024999D02*
X8175001Y-2775001D01*
X-1380000Y10580000D02*
X-4460000Y10580000D01*
X5600000Y3600000D02*
X-1380000Y10580000D01*
X3810000Y-1270000D02*
X5600000Y520000D01*
X5600000Y520000D02*
X5600000Y3600000D01*
%TO.N,/MASTER_ON*%
X7000000Y-10580000D02*
X5580000Y-12000000D01*
X5580000Y-12000000D02*
X100000Y-12000000D01*
X100000Y-12000000D02*
X-5900000Y-6000000D01*
X-5900000Y-820000D02*
X-3810000Y1270000D01*
X-5900000Y-6000000D02*
X-5900000Y-820000D01*
X-8620000Y10580000D02*
X-7000000Y10580000D01*
X-6970000Y1270000D02*
X-9100000Y3400000D01*
X-3810000Y1270000D02*
X-6970000Y1270000D01*
X-9100000Y3400000D02*
X-9100000Y10100000D01*
X-9100000Y10100000D02*
X-8620000Y10580000D01*
%TO.N,/DN_RX*%
X5824999Y-6864999D02*
X5824999Y-4924999D01*
X5824999Y-4924999D02*
X5000000Y-4100000D01*
X1560000Y-4100000D02*
X-1270000Y-1270000D01*
X5000000Y-4100000D02*
X1560000Y-4100000D01*
X7000000Y-8040000D02*
X5824999Y-6864999D01*
%TO.N,/TRIGI*%
X4460000Y-5500000D02*
X-1900000Y-5500000D01*
X-3810000Y-3590000D02*
X-3810000Y-1270000D01*
X-1900000Y-5500000D02*
X-3810000Y-3590000D01*
X-2500000Y40000D02*
X-2500000Y3540000D01*
X-3810000Y-1270000D02*
X-2500000Y40000D01*
X-2500000Y3540000D02*
X-4460000Y5500000D01*
%TO.N,/DN_RETO*%
X3100000Y-3100000D02*
X1270000Y-1270000D01*
X5500000Y-3100000D02*
X3100000Y-3100000D01*
X7000000Y-4600000D02*
X5500000Y-3100000D01*
X7000000Y-5500000D02*
X7000000Y-4600000D01*
%TO.N,/UP_RX*%
X-5760000Y6800000D02*
X-7000000Y8040000D01*
X-2800000Y6800000D02*
X-5760000Y6800000D01*
X-1270000Y5270000D02*
X-2800000Y6800000D01*
X-1270000Y1270000D02*
X-1270000Y5270000D01*
%TO.N,/UP_RETO*%
X-7000000Y5500000D02*
X-8100000Y5500000D01*
X-8400000Y9000000D02*
X-8000000Y9400000D01*
X-8400000Y5800000D02*
X-8400000Y9000000D01*
X-8100000Y5500000D02*
X-8400000Y5800000D01*
X-8000000Y9400000D02*
X-2900000Y9400000D01*
X-2900000Y9400000D02*
X1270000Y5230000D01*
X1270000Y5230000D02*
X1270000Y1270000D01*
%TD*%
M02*
